<svg xmlns="http://www.w3.org/2000/svg" xmlns:xlink="http://www.w3.org/1999/xlink" width="60" height="60" viewBox="0 0 60 60">
  <defs>
    <clipPath id="clip-path">
      <rect id="Rectangle_450" data-name="Rectangle 450" width="60" height="60" fill="#fff"/>
    </clipPath>
  </defs>
  <g id="surgery-room_1" data-name="surgery-room 1" clip-path="url(#clip-path)">
    <path id="Path_4282" data-name="Path 4282" d="M5.2,32.025V45.02a.82.82,0,0,0,.82.82H7.732a.82.82,0,0,0,.82-.82V32.025Z" transform="translate(2.285 14.065)" fill="#aa493f"/>
    <path id="Path_4283" data-name="Path 4283" d="M34.16,32.025V45.02a.82.82,0,0,0,.82.82h1.709a.82.82,0,0,0,.82-.82V32.025Z" transform="translate(15.003 14.065)" fill="#aa493f"/>
    <path id="Path_4284" data-name="Path 4284" d="M7.475,45.02V32.025H5.2V45.02a.82.82,0,0,0,.82.82H7.732a.82.82,0,0,0,.282-.051A.82.82,0,0,1,7.475,45.02Z" transform="translate(2.285 14.065)" fill="#993b36"/>
    <path id="Path_4285" data-name="Path 4285" d="M36.431,45.02V32.025H34.16V45.02a.82.82,0,0,0,.82.82h1.709a.821.821,0,0,0,.282-.051A.82.82,0,0,1,36.431,45.02Z" transform="translate(15.003 14.065)" fill="#993b36"/>
    <path id="Path_4286" data-name="Path 4286" d="M45.216,0h-8.9a.925.925,0,0,0-.831.386l-4.061,5.8a.906.906,0,1,0,1.484,1.039L36.7,1.811h8.517a.905.905,0,1,0,0-1.811Z" transform="translate(13.73)" fill="#dde4f7"/>
    <path id="Path_4287" data-name="Path 4287" d="M22.583,3.723a3.383,3.383,0,0,0,1.065,4.155,3.384,3.384,0,0,0,4.269-.42Z" transform="translate(9.784 1.635)" fill="#fec13b"/>
    <path id="Path_4288" data-name="Path 4288" d="M27.4,7.093a3.384,3.384,0,0,0,1.065,4.155,3.385,3.385,0,0,0,4.269-.42Z" transform="translate(11.897 3.115)" fill="#fec13b"/>
    <path id="Path_4289" data-name="Path 4289" d="M32.208,10.462A3.294,3.294,0,0,0,37.541,14.2Z" transform="translate(14.011 4.595)" fill="#fec13b"/>
    <path id="Path_4290" data-name="Path 4290" d="M26.22,7.878a3.251,3.251,0,0,1-1.366-2.564L22.583,3.723a3.383,3.383,0,0,0,1.065,4.155,3.276,3.276,0,0,0,3.135.312A3.137,3.137,0,0,1,26.22,7.878Z" transform="translate(9.784 1.635)" fill="#f9a332"/>
    <path id="Path_4291" data-name="Path 4291" d="M31.033,11.248a3.252,3.252,0,0,1-1.366-2.564L27.4,7.093a3.384,3.384,0,0,0,1.065,4.155,3.274,3.274,0,0,0,3.135.312A3.159,3.159,0,0,1,31.033,11.248Z" transform="translate(11.897 3.115)" fill="#f9a332"/>
    <path id="Path_4292" data-name="Path 4292" d="M35.845,14.617a3.253,3.253,0,0,1-1.366-2.564l-2.272-1.591a3.385,3.385,0,0,0,1.065,4.155,3.274,3.274,0,0,0,3.135.312A3.167,3.167,0,0,1,35.845,14.617Z" transform="translate(14.011 4.595)" fill="#f9a332"/>
    <path id="Path_4293" data-name="Path 4293" d="M58.348,26.676H1.652A1.656,1.656,0,0,0,0,28.327v1.652A1.656,1.656,0,0,0,1.652,31.63h56.7A1.657,1.657,0,0,0,60,29.979V28.327A1.656,1.656,0,0,0,58.348,26.676Z" transform="translate(0 11.716)" fill="#b9e1fb"/>
    <path id="Path_4294" data-name="Path 4294" d="M4.226,29.979V28.327a1.656,1.656,0,0,1,1.652-1.651H1.652A1.656,1.656,0,0,0,0,28.327v1.652A1.656,1.656,0,0,0,1.652,31.63H5.877A1.656,1.656,0,0,1,4.226,29.979Z" transform="translate(0 11.716)" fill="#9ad3f6"/>
    <path id="Path_4295" data-name="Path 4295" d="M16.789,26.536V24.885a1.656,1.656,0,0,0-1.651-1.651H1.652A1.656,1.656,0,0,0,0,24.885v1.652a1.656,1.656,0,0,0,1.652,1.651H15.138A1.656,1.656,0,0,0,16.789,26.536Z" transform="translate(0 10.204)" fill="#9ad3f6"/>
    <path id="Path_4296" data-name="Path 4296" d="M4.226,26.536V24.885a1.656,1.656,0,0,1,1.652-1.651H1.652A1.656,1.656,0,0,0,0,24.885v1.652a1.656,1.656,0,0,0,1.652,1.651H5.877A1.656,1.656,0,0,1,4.226,26.536Z" transform="translate(0 10.204)" fill="#78cbf4"/>
    <path id="Path_4297" data-name="Path 4297" d="M1.689,30.118v1.7a1.656,1.656,0,0,0,1.652,1.652H55.175a1.657,1.657,0,0,0,1.652-1.652v-1.7Z" transform="translate(0.742 13.228)" fill="#b7594a"/>
    <path id="Path_4298" data-name="Path 4298" d="M5.915,31.815v-1.7H1.689v1.7a1.656,1.656,0,0,0,1.652,1.652H7.567A1.656,1.656,0,0,1,5.915,31.815Z" transform="translate(0.742 13.228)" fill="#aa493f"/>
    <path id="Path_4299" data-name="Path 4299" d="M43.422,15a7.885,7.885,0,0,0-3.281-6.261L31.047,2.372a7.885,7.885,0,0,0-7.005-.942Z" transform="translate(10.559 0.444)" fill="#ccd7f2"/>
    <path id="Path_4300" data-name="Path 4300" d="M29.093,2.494a.8.8,0,0,1-.168-1.153,8.168,8.168,0,0,0-4.883.089L43.422,15a8.464,8.464,0,0,0-.622-2.908Z" transform="translate(10.559 0.444)" fill="#bccced"/>
    <path id="Path_4301" data-name="Path 4301" d="M24.913,15.959a.905.905,0,0,1-.222-1.261l1.926-2.751A.905.905,0,1,1,28.1,12.985l-1.926,2.751A.9.9,0,0,1,24.913,15.959Z" transform="translate(10.772 5.077)" fill="#fcdfae"/>
    <path id="Path_4302" data-name="Path 4302" d="M28.294,17.665a.906.906,0,0,1-.712-1.065l.654-3.294a.905.905,0,0,1,1.776.352l-.654,3.294A.906.906,0,0,1,28.294,17.665Z" transform="translate(12.106 5.524)" fill="#fcdfae"/>
    <path id="Path_4303" data-name="Path 4303" d="M22.309,13a.905.905,0,0,1,.3-1.244l2.872-1.741a.906.906,0,1,1,.938,1.549L23.553,13.3A.906.906,0,0,1,22.309,13Z" transform="translate(9.74 4.341)" fill="#fcdfae"/>
    <path id="Path_4304" data-name="Path 4304" d="M24.069,23H2.667A2.67,2.67,0,0,1,0,20.331V6.173A2.67,2.67,0,0,1,2.667,3.506h21.4a2.67,2.67,0,0,1,2.667,2.667V20.331A2.67,2.67,0,0,1,24.069,23Z" transform="translate(0 1.54)" fill="#dde4f7"/>
    <path id="Path_4305" data-name="Path 4305" d="M4.226,20.331V6.173A2.67,2.67,0,0,1,6.893,3.506H2.667A2.67,2.67,0,0,0,0,6.173V20.331A2.67,2.67,0,0,0,2.667,23H6.893A2.67,2.67,0,0,1,4.226,20.331Z" transform="translate(0 1.54)" fill="#ccd7f2"/>
    <path id="Path_4306" data-name="Path 4306" d="M22.089,5.793H2.637a.35.35,0,0,0-.349.349V18.351a.35.35,0,0,0,.349.349H22.089a.35.35,0,0,0,.349-.349V6.143A.35.35,0,0,0,22.089,5.793Z" transform="translate(1.005 2.544)" fill="#63a1fc"/>
    <path id="Path_4307" data-name="Path 4307" d="M6.513,18.351V6.143a.349.349,0,0,1,.349-.349H2.637a.35.35,0,0,0-.349.349V18.351a.35.35,0,0,0,.349.349H6.863A.349.349,0,0,1,6.513,18.351Z" transform="translate(1.005 2.544)" fill="#4188ff"/>
    <path id="Path_4308" data-name="Path 4308" d="M7.958,9.155a.255.255,0,0,1-.416-.005,1.621,1.621,0,0,0-3.027.8c0,2.255,2.37,3.6,3.1,3.952a.316.316,0,0,0,.281,0c.727-.358,3.1-1.7,3.1-3.952A1.622,1.622,0,0,0,7.958,9.155Z" transform="translate(1.983 3.659)" fill="#ff5155"/>
    <path id="Path_4309" data-name="Path 4309" d="M7.85,9.329c0-.032,0-.062,0-.093a.251.251,0,0,1-.312-.086,1.621,1.621,0,0,0-3.027.8c0,2.255,2.37,3.6,3.1,3.952a.316.316,0,0,0,.281,0,7.415,7.415,0,0,0,1.886-1.332A4.186,4.186,0,0,1,7.85,9.329Z" transform="translate(1.983 3.659)" fill="#f24049"/>
    <path id="Path_4310" data-name="Path 4310" d="M15.065,9.244H11.487a.905.905,0,1,1,0-1.811h3.578a.905.905,0,1,1,0,1.811Z" transform="translate(4.647 3.265)" fill="#4188ff"/>
    <path id="Path_4311" data-name="Path 4311" d="M15.065,11.459H11.487a.905.905,0,1,1,0-1.811h3.578a.905.905,0,1,1,0,1.811Z" transform="translate(4.647 4.237)" fill="#4188ff"/>
    <path id="Path_4312" data-name="Path 4312" d="M15.065,13.675H11.487a.905.905,0,1,1,0-1.811h3.578a.905.905,0,1,1,0,1.811Z" transform="translate(4.647 5.21)" fill="#4188ff"/>
    <path id="Path_4313" data-name="Path 4313" d="M45.157,18.8l.721-1.029a1.656,1.656,0,0,0-.406-2.3L24.705.926a1.656,1.656,0,0,0-2.3.406l-.72,1.029a1.656,1.656,0,0,0,.406,2.3L42.857,19.2A1.656,1.656,0,0,0,45.157,18.8Z" transform="translate(9.393 0.276)" fill="#dde4f7"/>
    <path id="Path_4314" data-name="Path 4314" d="M26.19,4.661a1.656,1.656,0,0,1-.406-2.3l.319-.455-1.4-.979a1.656,1.656,0,0,0-2.3.406l-.721,1.029a1.657,1.657,0,0,0,.406,2.3L42.857,19.2a1.657,1.657,0,0,0,2.3-.406l.4-.574Z" transform="translate(9.393 0.276)" fill="#ccd7f2"/>
    <path id="Path_4315" data-name="Path 4315" d="M12.238,21.438a5.274,5.274,0,1,1-5.274-5.274A5.275,5.275,0,0,1,12.238,21.438Z" transform="translate(0.742 7.099)" fill="#ffcdbe"/>
    <path id="Path_4316" data-name="Path 4316" d="M5.745,21.438a5.276,5.276,0,0,1,3.246-4.87,5.274,5.274,0,1,0,0,9.739A5.274,5.274,0,0,1,5.745,21.438Z" transform="translate(0.742 7.099)" fill="#f7c1b3"/>
    <path id="Path_4317" data-name="Path 4317" d="M15.3,23.223c0-.037,0-.072.006-.108l-3.584-.786a2.027,2.027,0,1,0-.96,3.938L15.3,27.286Z" transform="translate(4.046 9.782)" fill="#ffcdbe"/>
    <path id="Path_4318" data-name="Path 4318" d="M12.943,24.26a2.594,2.594,0,0,1,.951-1.453l-2.175-.477a2.027,2.027,0,1,0-.96,3.938l3.18.714A2.606,2.606,0,0,1,12.943,24.26Z" transform="translate(4.046 9.782)" fill="#f7c1b3"/>
    <path id="Path_4319" data-name="Path 4319" d="M37.891,23.859H31.53v4.053h6.361a2.027,2.027,0,1,0,0-4.053Z" transform="translate(13.848 10.479)" fill="#ffcdbe"/>
    <path id="Path_4320" data-name="Path 4320" d="M35.186,23.859H31.53v4.053h3.657Z" transform="translate(13.848 10.479)" fill="#f7c1b3"/>
    <path id="Path_4321" data-name="Path 4321" d="M38.778,23.212H19.117a1.185,1.185,0,0,1-.277-.033l-4.2-1.025a1.17,1.17,0,0,0-1.447,1.137v22a1.17,1.17,0,0,0,1.17,1.17h24.42a1.17,1.17,0,0,0,1.17-1.17v-20.9A1.17,1.17,0,0,0,38.778,23.212Z" transform="translate(5.792 9.715)" fill="#63a1fc"/>
    <path id="Path_4322" data-name="Path 4322" d="M17.429,45.286v-22a1.165,1.165,0,0,1,.085-.435l-2.879-.7a1.17,1.17,0,0,0-1.447,1.137v22a1.17,1.17,0,0,0,1.17,1.17H18.6A1.17,1.17,0,0,1,17.429,45.286Z" transform="translate(5.792 9.715)" fill="#4188ff"/>
  </g>
</svg>
