<svg xmlns="http://www.w3.org/2000/svg" width="58.407" height="60" viewBox="0 0 58.407 60">
  <g id="Antihistamines" transform="translate(-0.695 -0.695)">
    <path id="Path_4223" data-name="Path 4223" d="M43.124,17.21l-2.1,3.633-2.1,3.644-2.1,3.633-1.817-1.05-3.633-2.1-1.816-1.05,8.4-14.553,3.633,2.1,3.633,2.1Z" transform="translate(13.877 4.153)" fill="#ffde55"/>
    <path id="Path_4224" data-name="Path 4224" d="M35.1,21.792,33,25.425l-1.817-1.05-1.816-1.05,2.1-3.633Z" transform="translate(13.949 9.242)" fill="#57a4ff"/>
    <path id="Path_4225" data-name="Path 4225" d="M40.06,41.4v2.1a6.3,6.3,0,0,1-6.3,6.3H28.426L27.071,47.86,18.965,36.288,14.88,30.45a4.2,4.2,0,1,1,6.878-4.82l5.87,8.39L32.794,41.4Z" transform="translate(6.303 10.893)" fill="#ffdaaa"/>
    <path id="Path_4226" data-name="Path 4226" d="M34.819,35.436v2.1a6.3,6.3,0,0,1-6.3,6.3h-4.2a6.3,6.3,0,0,0,6.3-6.3v-2.1Z" transform="translate(11.434 16.858)" fill="#ffc477"/>
    <path id="Path_4227" data-name="Path 4227" d="M35.743,30.837v8.4H28.477L23.31,31.855,22.513,28Z" transform="translate(10.525 13.058)" fill="#57a4ff"/>
    <path id="Path_4228" data-name="Path 4228" d="M35.743,30.837v8.4h-4.2v-8.4l-8.831-1.89-.2-.945Z" transform="translate(10.525 13.058)" fill="#006df0"/>
    <path id="Path_4229" data-name="Path 4229" d="M27.129,14.607v2.1a2.106,2.106,0,0,1-2.1,2.1h-2.1v-6.3h2.1a2.106,2.106,0,0,1,2.1,2.1Z" transform="translate(10.831 5.744)" fill="#ffb655"/>
    <path id="Path_4230" data-name="Path 4230" d="M36.365.695V7a8.367,8.367,0,0,1-4.2,7.266V13.3l-7.35-4.2L9.064,13.3v2.1a4.2,4.2,0,0,1-4.2-4.2V9.1a8.4,8.4,0,0,1,8.4-8.4Z" transform="translate(2.131)" fill="#57565c"/>
    <path id="Path_4231" data-name="Path 4231" d="M31.267,37.644l-5.87-8.39a4.2,4.2,0,0,0-6.878,4.82L22.6,39.912c-.756,1-1.533,1.964-3.045,1.964-3.15,0-3.15-4.2-6.311-4.2s-3.15,4.2-6.3,4.2l1.68-8.085,2.027-9.734.042-.189a9.044,9.044,0,0,1,17.7,0l.042.189,2.027,9.734Z" transform="translate(2.96 7.561)" fill="#009698"/>
    <path id="Path_4232" data-name="Path 4232" d="M27.715,37.645l-5.87-8.39-.095-.126L20.69,24.058l-.042-.189A8.958,8.958,0,0,0,17.5,18.7a9.055,9.055,0,0,0-3.6-1.774,8.643,8.643,0,0,1,2.1-.252,9.05,9.05,0,0,1,8.852,7.193l.042.189,2.027,9.734Z" transform="translate(6.364 7.624)" fill="#007579"/>
    <path id="Path_4233" data-name="Path 4233" d="M30.744,15.7V22a11.543,11.543,0,0,1-2.657,7.382l-.042-.189a9.043,9.043,0,0,0-17.7,0l-.042.189A11.543,11.543,0,0,1,7.643,22V10.454l15.75-4.2,7.35,4.2Z" transform="translate(3.297 2.842)" fill="#ffdaaa"/>
    <path id="Path_4234" data-name="Path 4234" d="M27.751.695V7a8.367,8.367,0,0,1-4.2,7.266V13.3l-1.837-1.05A8.415,8.415,0,0,0,23.551,7V.695Z" transform="translate(10.221)" fill="#3e3d42"/>
    <path id="Path_4235" data-name="Path 4235" d="M26.386,10.454V22a11.544,11.544,0,0,1-2.657,7.382l-.042-.189a8.9,8.9,0,0,0-1.953-3.99,11.516,11.516,0,0,0,.452-3.2V10.454L16.169,7.02l2.867-.767Z" transform="translate(7.492 2.842)" fill="#ffc477"/>
    <path id="Path_4236" data-name="Path 4236" d="M33.907,45.695,22.745,47.637.695,44.487V30.837L11.825,28l-1.68,8.085c3.15,0,3.15-4.2,6.3-4.2s3.161,4.2,6.311,4.2c1.512,0,2.289-.966,3.045-1.964Z" transform="translate(0 13.058)" fill="#57a4ff"/>
    <path id="Path_4237" data-name="Path 4237" d="M9.064,12.507v6.3h-2.1a2.106,2.106,0,0,1-2.1-2.1v-2.1a2.107,2.107,0,0,1,2.1-2.1Z" transform="translate(2.131 5.744)" fill="#ffb655"/>
    <path id="Path_4238" data-name="Path 4238" d="M17.839,14.386l3.15,2.1,1.166-1.747-1.843-1.226,1.84-1.226-1.166-1.747-3.15,2.1a1.05,1.05,0,0,0,0,1.747Z" transform="translate(8.118 4.788)"/>
    <path id="Path_4239" data-name="Path 4239" d="M11.2,16.486l3.15-2.1a1.05,1.05,0,0,0,0-1.747l-3.15-2.1-1.166,1.747,1.843,1.226-1.84,1.226Z" transform="translate(4.548 4.788)"/>
    <path id="Path_4240" data-name="Path 4240" d="M14.591,9.728h2.1v4.2h-2.1Z" transform="translate(6.782 4.4)"/>
  </g>
</svg>
