<svg xmlns="http://www.w3.org/2000/svg" xmlns:xlink="http://www.w3.org/1999/xlink" width="404.601" height="267.849" viewBox="0 0 404.601 267.849">
  <defs>
    <clipPath id="clip-path">
      <path id="Path_4410" data-name="Path 4410" d="M689.431,333.149c-15.549,25.718-36.238,20.025-51.661,20.368-20.454.459-37.628-6.856-51.051-7.783a56.82,56.82,0,0,0-10.881.342c-9.453,1.164-18.97,4.387-28.551,8.115-10.728,4.172-21.535,8.981-32.426,12.247-8.556,2.567-24.327,2.694-41.048-.776-30.885-6.411-69.51-26.181-69.966-64.507-.861-72.354,61.078-43.518,32.254-102.792C415.986,157,445.725,91.215,508.772,124.07,537.6,139.092,561.953,151.677,598.9,139.9c22-7.011,59.678-12.178,73.888,19.488s-.643,51.838.812,66.986C677.757,269.717,715.005,290.849,689.431,333.149Z" transform="translate(-403.838 -115.181)" fill="none"/>
    </clipPath>
  </defs>
  <g id="Group_1251" data-name="Group 1251" transform="translate(-83.022 -63.183)">
    <path id="Path_4349" data-name="Path 4349" d="M432.083,66.294c10.626,0,22.062,3.152,33.992,9.369,20.588,10.729,38.369,20,60.1,20a87.287,87.287,0,0,0,26.778-4.443c7.86-2.5,19.886-5.49,32.543-5.49,10.123,0,19.013,1.919,26.423,5.7A43.4,43.4,0,0,1,632,113.01a70.7,70.7,0,0,1,6.572,30.215c-.092,8.785-1.807,16.308-3.32,22.945-1.337,5.868-2.493,10.936-2.088,15.157,1.487,15.489,7.424,28.055,13.165,40.209,4.989,10.559,9.7,20.533,11.146,31.611a50.245,50.245,0,0,1-.806,17.829,65.957,65.957,0,0,1-8.265,19.724c-5.493,9.085-12,15.249-19.886,18.844-7.552,3.441-15.119,3.883-20.868,3.883-29.216,0-36.324-2.083-49.008-5.009-10.4-2.4-16.809-4.024-26.943-2.774-9.46,1.165-19.226,4.626-27.532,7.858-2.946,1.146-5.964,2.366-8.882,3.547-7.768,3.142-15.8,6.392-23.863,8.81a63.5,63.5,0,0,1-17.539,2.061,128.253,128.253,0,0,1-25.59-2.747c-10.687-2.218-31.15-7.908-48.133-21.088a68.548,68.548,0,0,1-17.879-20.133,56.2,56.2,0,0,1-7.334-27.391c-.2-16.439,2.712-29.444,8.89-39.756,5.4-9.023,12.276-14.4,18.339-19.144,5.833-4.564,10.44-8.169,12.037-13.663,1.847-6.356-.245-15.387-6.584-28.424-9.944-20.448-8.635-46.956,3.256-65.962,9.409-15.038,24.04-23.319,41.2-23.319Zm0-3.111a50.172,50.172,0,0,0-25.038,6.424,52.947,52.947,0,0,0-18.8,18.356,66.454,66.454,0,0,0-7.267,16.207,74.737,74.737,0,0,0-3.019,17.73,75.581,75.581,0,0,0,1.254,18,68.616,68.616,0,0,0,5.616,17.032A78.421,78.421,0,0,1,390.959,173c.958,4.138,1.045,7.453.266,10.136-1.317,4.531-5.364,7.7-10.967,12.081-6.276,4.911-13.389,10.476-19.091,19.995-6.482,10.82-9.534,24.36-9.331,41.392a59.275,59.275,0,0,0,7.739,28.889,71.636,71.636,0,0,0,18.678,21.055c17.478,13.565,38.458,19.4,49.409,21.676a131.4,131.4,0,0,0,26.221,2.812,66.552,66.552,0,0,0,18.434-2.193c8.2-2.459,16.3-5.736,24.134-8.905,2.9-1.175,5.906-2.389,8.845-3.533,8.127-3.163,17.664-6.547,26.784-7.67,9.574-1.18,15.559.34,25.862,2.717,12.9,2.977,20.383,5.089,49.709,5.089,6.063,0,14.062-.473,22.158-4.163,8.477-3.863,15.431-10.427,21.258-20.065a69,69,0,0,0,8.638-20.65,53.3,53.3,0,0,0,.856-18.915c-1.508-11.563-6.322-21.751-11.418-32.538-5.628-11.912-11.446-24.229-12.881-39.177-.357-3.721.746-8.561,2.024-14.166,1.548-6.792,3.3-14.487,3.4-23.607a73.742,73.742,0,0,0-6.844-31.521,46.441,46.441,0,0,0-21.5-23.075c-7.853-4.011-17.218-6.045-27.838-6.045-13.057,0-25.418,3.065-33.488,5.636a84.227,84.227,0,0,1-25.833,4.3c-20.968,0-38.435-9.1-58.661-19.643-12.379-6.451-24.3-9.722-35.431-9.722Z" transform="translate(-230.788)" fill="#fff"/>
    <path id="Path_4350" data-name="Path 4350" d="M689.42,333.149c-15.549,25.718-36.238,20.025-51.661,20.368-20.454.459-37.628-6.856-51.051-7.783a56.82,56.82,0,0,0-10.881.342c-9.453,1.164-18.97,4.387-28.551,8.115-10.728,4.172-21.535,8.981-32.425,12.247-8.556,2.567-24.327,2.694-41.048-.776-30.885-6.411-69.51-26.181-69.966-64.507-.861-72.354,61.078-43.518,32.254-102.792C415.975,157,445.714,91.215,508.761,124.07c28.824,15.022,53.182,27.607,90.127,15.833,22-7.011,59.678-12.178,73.888,19.488s-.642,51.838.812,66.986C677.747,269.717,714.994,290.849,689.42,333.149Z" transform="translate(-275.433 -44.644)" fill="#bfe5ff"/>
    <g id="Group_1222" data-name="Group 1222" transform="translate(165.329 206.824)">
      <path id="Path_4351" data-name="Path 4351" d="M668.945,1111.059c-2.052-.952-5.209-5.31-3.444-8.72,1.073-1.813,4.583-1.3,6.128-2.436s.31-4.57-.723-6.472.192-4.563,4.145-5.007c3.034-.341,4.169-.693,4.339-3.025s-1.426-6.59,3.151-6.59c2.342.266,3.893.665,2.8,1.157s-3.348-1.082-4.164,1.063,1.013,4.776-.337,6.828c-2.26,3.435-7.149,1.161-8.144,3.46s3.057,6.69,1.023,8.907-5.924.516-6.88,3.309S669.72,1109.776,668.945,1111.059Z" transform="translate(-664.984 -1078.809)" fill="#a6e8e8"/>
    </g>
    <g id="Group_1223" data-name="Group 1223" transform="translate(368.023 222.477)">
      <path id="Path_4352" data-name="Path 4352" d="M2098.149,1190.591c1.589-1.24,6.325-1.972,8.312.812,1,1.587-.83,4.162-.559,5.848s3.5,2.1,5.424,2.056,3.539,2.005,2.286,5.32c-.962,2.544-1.145,3.587.635,4.669s5.8,1.547,3.944,5.175c-1.162,1.749-2.109,2.816-2.054,1.748s2.218-2.215.849-3.733-4.2-1.137-5.276-3.041c-1.805-3.187,1.984-6.139.565-7.861s-6.545-.294-7.476-2.808,2-4.906.172-6.8S2098.852,1191.726,2098.149,1190.591Z" transform="translate(-2098.149 -1189.488)" fill="#a6e8e8"/>
    </g>
    <g id="Group_1237" data-name="Group 1237" transform="translate(128.395 70.537)">
      <g id="Group_1236" data-name="Group 1236" transform="translate(0 0)" clip-path="url(#clip-path)">
        <g id="Group_1235" data-name="Group 1235" transform="translate(54.388 28.594)">
          <path id="Path_4353" data-name="Path 4353" d="M1039.708,1138.458s-23.494,24.558-31.393,45.508c9.273-2.747,28.656-3.147,28.656-3.147l21.294-23.7Z" transform="translate(-977.212 -1022.329)" fill="#de623c"/>
          <path id="Path_4354" data-name="Path 4354" d="M1095.108,438.745c-15.329-2.413-48.772-12.337-38.032-35.828s18.489-15.866,8.365-39.942,3.92-47.249,21.892-45.526,24.962,14.653,45.142,7.157,41.264,8.671,36.669,27.092-6.38,27.209,2.76,35.158,44.149,11.67,34.671,36.749-16.063,24.92-9.061,35.493-1.529,25.788-21.044,27.689-38.264-2.008-49.414-22.061S1095.108,438.745,1095.108,438.745Z" transform="translate(-1017.284 -317.359)" fill="#062440"/>
          <path id="Path_4355" data-name="Path 4355" d="M1479.777,866.674l-.984,27.472s-14.3,10.218-25.365,3.412c1.7-8.508,4.019-22.5,4.019-22.5Z" transform="translate(-1359.372 -788.984)" fill="#de623c"/>
          <path id="Path_4356" data-name="Path 4356" d="M1226.738,995.818s-17.909,2.287-37.132,26.635c2.695,1.866,14.768,12.993,14.768,12.993Z" transform="translate(-1132.862 -899.863)" fill="#5578e6"/>
          <g id="Group_1227" data-name="Group 1227" transform="translate(60.365 10.378)">
            <ellipse id="Ellipse_89" data-name="Ellipse 89" cx="28.893" cy="38.839" rx="28.893" ry="38.839" transform="translate(0 12.23) rotate(-10.261)" fill="#f37a50"/>
            <path id="Path_4357" data-name="Path 4357" d="M1283.957,430.549c-16.058.835-32.233-5.269-42.521-15.078-2.933,14.173-16.23,25.715-16.23,25.715s-15.739-23.245,2.1-40.552C1244.323,384.124,1292.15,384.641,1283.957,430.549Z" transform="translate(-1218.287 -390.737)" fill="#062440"/>
            <path id="Path_4358" data-name="Path 4358" d="M1507.1,719.446a3.071,3.071,0,1,0-3.568-2.475A3.071,3.071,0,0,0,1507.1,719.446Z" transform="translate(-1462.714 -667.726)"/>
            <path id="Path_4359" data-name="Path 4359" d="M1344.675,748.853a3.071,3.071,0,1,0-3.569-2.474A3.071,3.071,0,0,0,1344.675,748.853Z" transform="translate(-1323.259 -692.973)"/>
            <path id="Path_4360" data-name="Path 4360" d="M1413.153,771.845c-2.075,5.438-2.787,7.762-3.963,9.132,2.073,3.065,7.906,3.078,9.292,2.213-4.268-.66-5.563-2.964-5.563-2.964Z" transform="translate(-1381.756 -717.945)" fill="#de623c"/>
            <path id="Path_4361" data-name="Path 4361" d="M1631.026,665.648c-2.511,4.716-1.713,10.048,1.782,11.909s8.364-.454,10.875-5.169,1.713-10.048-1.782-11.909S1633.537,660.932,1631.026,665.648Z" transform="translate(-1570.96 -621.777)" fill="#f37a50"/>
            <g id="Group_1224" data-name="Group 1224" transform="translate(62.229 42.087)">
              <path id="Path_4362" data-name="Path 4362" d="M1657.517,698.5a.984.984,0,0,0,.647-1.505c-.987-1.51-1.24-2.823-.755-3.9.75-1.666,3.072-2.559,4.829-2.817a.983.983,0,0,0-.286-1.945c-2.358.346-5.261,1.567-6.336,3.954-.536,1.19-.814,3.159.9,5.786A.984.984,0,0,0,1657.517,698.5Z" transform="translate(-1655.207 -688.32)" fill="#de623c"/>
            </g>
            <g id="Group_1225" data-name="Group 1225" transform="translate(12.648 41.545)">
              <path id="Path_4363" data-name="Path 4363" d="M1306.48,692.351a1.565,1.565,0,0,0,.34-.1,15.2,15.2,0,0,0,6.894-5.4,1.563,1.563,0,0,0-2.676-1.616,12.446,12.446,0,0,1-5.453,4.145,1.563,1.563,0,0,0,.894,2.974Z" transform="translate(-1304.64 -684.481)" fill="#062440"/>
            </g>
            <g id="Group_1226" data-name="Group 1226" transform="translate(39.789 37.748)">
              <path id="Path_4364" data-name="Path 4364" d="M1505.837,663.042a1.573,1.573,0,0,1-.354.023,15.2,15.2,0,0,1-8.35-2.64,1.563,1.563,0,0,1,1.939-2.452,12.446,12.446,0,0,0,6.56,1.97,1.563,1.563,0,0,1,.205,3.1Z" transform="translate(-1496.544 -657.639)" fill="#062440"/>
            </g>
            <path id="Path_4365" data-name="Path 4365" d="M1449.588,880.64c3.086-.36,5.791,1.092,6.042,3.244s-2.817,2.752-5.9,3.113-5.021.344-5.272-1.808S1446.5,881,1449.588,880.64Z" transform="translate(-1412.018 -811.306)" fill="#fff"/>
          </g>
          <g id="Group_1230" data-name="Group 1230" transform="translate(64.464 91.242)">
            <g id="Group_1229" data-name="Group 1229">
              <g id="Group_1228" data-name="Group 1228">
                <path id="Path_4366" data-name="Path 4366" d="M1316.365,1065.183a90.391,90.391,0,0,1-.835-24.007q.21-.855.433-1.749c1.168-4.682,2.585-10.146,4.008-15.922q.435-1.768.87-3.573c3.764-15.645,7.216-32.811,5.761-42.654a15.271,15.271,0,0,0-1.4-4.775c0-.588-1.154-1.533-2.994-2.613-5.593-3.284-17.491-7.817-22.24-7.364,0,0-.118.338-.353.913-1.4,3.441-7.025,15.393-17.056,14.588-5.714-.459-6.3-10.193-6.348-11.372,0-.076,0-.116,0-.116a14.084,14.084,0,0,0-2.6.671c-8.188,2.949-15.022,13.366-19.706,24.77-.7,1.709-1.355,3.44-1.958,5.171q-.444,1.275-.85,2.548a26.94,26.94,0,0,0-1.139,5.952,58.066,58.066,0,0,0,.484,11.911c.251,2.02.56,4.089.887,6.2,1.615,10.416,3.621,21.356,1.76,32.5-.878,5.225-5.859,23.189-8.888,35.071h84.9C1324.565,1080.95,1316.745,1066.411,1316.365,1065.183Z" transform="translate(-1244.195 -962.495)" fill="#7a94e6"/>
              </g>
            </g>
          </g>
          <g id="Group_1231" data-name="Group 1231" transform="translate(0 103.525)">
            <path id="Path_4367" data-name="Path 4367" d="M1499.7,1076.368c-6.984,15.463-30.228,51.183-42.614,55.385l-16.255-19.095s5.408-8.945,10.781-19.929c7.443-15.216,19.833-32.428,22.842-37C1483.448,1041.985,1511.153,1051.146,1499.7,1076.368Z" transform="translate(-1348.557 -1049.344)" fill="#f37a50"/>
            <path id="Path_4368" data-name="Path 4368" d="M996.947,1522.707s.958.161,2.685.384c10.639,1.37,50.483,5.059,75.936-12.3,1.354-1.623-14.647-19.97-14.647-19.97q-.749.35-1.5.694c-3.714,1.7-7.478,3.317-11.221,4.837-11.529,4.682-22.86,8.474-31.965,11.259-10.049,3.075-17.385,4.924-19.285,5.391l-.484.118Z" transform="translate(-967.038 -1428.386)" fill="#f37a50"/>
            <path id="Path_4369" data-name="Path 4369" d="M822.372,1611.165c-4.385,6.735-19.73,10.58-29.341,6.494s-2.052-11.5,2.778-11.953,11.257-.074,10.894-2.565-2.931-3.2-3.489-6.182c-.5-2.662,8.65-2.728,15.076,5.768Z" transform="translate(-788.396 -1518.146)" fill="#f37a50"/>
          </g>
          <path id="Path_4370" data-name="Path 4370" d="M1609.9,1014.849c2.744.932,14.593,2.6,8.517,30.2-2.664,10.705-11.5,23.649-11.5,23.649s-18.59-10.445-29.308-25.5C1579.481,1037.811,1595.857,1012.256,1609.9,1014.849Z" transform="translate(-1465.992 -916.044)" fill="#5578e6"/>
          <path id="Path_4371" data-name="Path 4371" d="M1061.127,1379.342c-10.368.965-21.024-2.98-43.721,2.62-20.6,5.083-14.135,20.1-3.68,21.118,14.893,1.444,49.891-15.332,49.891-15.332Z" transform="translate(-973.418 -1228.75)" fill="#de623c"/>
          <path id="Path_4372" data-name="Path 4372" d="M1509.593,1295.628c.81-4.934.371-9.339,5.144-7.378s3.474,8.7,3.006,12.043-1.169,5.823,1.18,4.979,3.313,3.165.653,4.552-6.824-.723-7.963,4.048-4.929,14.217-6.763,10.555,1.755-8.323-.269-8.959-4.971-2.223-2.1-4.286,4.645-2.987,4.342-5.847S1509.593,1295.628,1509.593,1295.628Z" transform="translate(-1400.46 -1150.526)" fill="#fa897a"/>
          <path id="Path_4373" data-name="Path 4373" d="M1168.017,1580.712c5.073-.932,8.862,5.113,3.749,6.135s-7.344-2.125-10.737.511-11.43,6.426-9.374,2.9S1159.667,1582.246,1168.017,1580.712Z" transform="translate(-1099.995 -1401.952)" fill="#fa897a"/>
          <g id="Group_1232" data-name="Group 1232" transform="translate(49.572 139.163)">
            <circle id="Ellipse_90" data-name="Ellipse 90" cx="1.946" cy="1.946" r="1.946" transform="translate(58.724 20.014) rotate(-45)" fill="#fa0c44"/>
            <path id="Path_4374" data-name="Path 4374" d="M1570.831,1488.909a1.521,1.521,0,1,0,0-2.151A1.521,1.521,0,0,0,1570.831,1488.909Z" transform="translate(-1509.359 -1460.149)" fill="#fa0c44"/>
            <path id="Path_4375" data-name="Path 4375" d="M1576.808,1331.455a1.946,1.946,0,1,0,1.946-1.946A1.946,1.946,0,0,0,1576.808,1331.455Z" transform="translate(-1514.874 -1325.523)" fill="#fa0c44"/>
            <path id="Path_4376" data-name="Path 4376" d="M1519.516,1427.582a1.239,1.239,0,1,0,1.239-1.239A1.238,1.238,0,0,0,1519.516,1427.582Z" transform="translate(-1465.685 -1408.661)" fill="#fa0c44"/>
            <path id="Path_4377" data-name="Path 4377" d="M1515.435,1513.831a1.239,1.239,0,1,0,1.239-1.239A1.239,1.239,0,0,0,1515.435,1513.831Z" transform="translate(-1462.181 -1482.712)" fill="#fa0c44"/>
            <path id="Path_4378" data-name="Path 4378" d="M1610.95,1415.077a1.239,1.239,0,1,0,1.239-1.239A1.239,1.239,0,0,0,1610.95,1415.077Z" transform="translate(-1544.187 -1397.925)" fill="#fa0c44"/>
            <path id="Path_4379" data-name="Path 4379" d="M1512.86,1463.311a.906.906,0,1,0,.906-.906A.906.906,0,0,0,1512.86,1463.311Z" transform="translate(-1459.97 -1439.623)" fill="#fa0c44"/>
            <path id="Path_4380" data-name="Path 4380" d="M1546.048,1473.668a.739.739,0,1,0,.739-.739A.739.739,0,0,0,1546.048,1473.668Z" transform="translate(-1488.464 -1448.659)" fill="#fa0c44"/>
            <path id="Path_4381" data-name="Path 4381" d="M1633.1,1401.112a.739.739,0,1,0,.739-.739A.739.739,0,0,0,1633.1,1401.112Z" transform="translate(-1563.205 -1386.364)" fill="#fa0c44"/>
            <path id="Path_4382" data-name="Path 4382" d="M1532.729,1539.97a.739.739,0,1,0,.739-.739A.739.739,0,0,0,1532.729,1539.97Z" transform="translate(-1477.029 -1505.583)" fill="#fa0c44"/>
            <path id="Path_4383" data-name="Path 4383" d="M1591.182,1302.063a.739.739,0,1,0,.739-.739A.739.739,0,0,0,1591.182,1302.063Z" transform="translate(-1527.215 -1301.324)" fill="#fa0c44"/>
            <path id="Path_4384" data-name="Path 4384" d="M1538.763,1512.687a.906.906,0,1,0,.906-.906A.906.906,0,0,0,1538.763,1512.687Z" transform="translate(-1482.209 -1482.016)" fill="#fa0c44"/>
            <path id="Path_4385" data-name="Path 4385" d="M1223.608,1591.388a1.521,1.521,0,1,0,0-2.151A1.521,1.521,0,0,0,1223.608,1591.388Z" transform="translate(-1211.245 -1548.135)" fill="#fa0c44"/>
            <path id="Path_4386" data-name="Path 4386" d="M1139.494,1642.7a2.037,2.037,0,1,0,0-2.881A2.037,2.037,0,0,0,1139.494,1642.7Z" transform="translate(-1138.897 -1591.433)" fill="#fa0c44"/>
            <circle id="Ellipse_91" data-name="Ellipse 91" cx="1.239" cy="1.239" r="1.239" transform="translate(4.146 44.374)" fill="#fa0c44"/>
            <path id="Path_4387" data-name="Path 4387" d="M1280.072,1591.913a1.239,1.239,0,1,0,1.239-1.238A1.238,1.238,0,0,0,1280.072,1591.913Z" transform="translate(-1260.105 -1549.752)" fill="#fa0c44"/>
            <path id="Path_4388" data-name="Path 4388" d="M1185.506,1642.451a.739.739,0,1,0,.739-.739A.739.739,0,0,0,1185.506,1642.451Z" transform="translate(-1178.914 -1593.571)" fill="#fa0c44"/>
            <path id="Path_4389" data-name="Path 4389" d="M1271.147,1614.758a.739.739,0,1,0,.739-.739A.739.739,0,0,0,1271.147,1614.758Z" transform="translate(-1252.443 -1569.794)" fill="#fa0c44"/>
            <circle id="Ellipse_92" data-name="Ellipse 92" cx="0.906" cy="0.906" r="0.906" transform="translate(7.445 44.259)" fill="#fa0c44"/>
          </g>
          <path id="Path_4390" data-name="Path 4390" d="M1396.363,1278.06c1.5-5.51,1.321-9.288,5.548-13.875,3.606-3.912,13.914-5.517,18.289-1.046,1.5,1.536,1.881,3.6-.3,4.283-1.514.475-6.241.131-9.983,3.328-3.035,2.592-2.579,5.478-2.248,9.443.423,5.069-8.705,5.989-8.705,5.989Z" transform="translate(-1310.378 -1127.06)" fill="#de623c"/>
          <path id="Path_4391" data-name="Path 4391" d="M1214.055,1392.361c3.1-.175,7.224.734,8.762,2.822s-2.5,1.776-5.314.811-4.577.182-7.953,1.2S1205.6,1392.839,1214.055,1392.361Z" transform="translate(-1148.001 -1240.304)" fill="#fa7c6c"/>
          <g id="Group_1233" data-name="Group 1233" transform="translate(59.311 151.744)">
            <path id="Path_4392" data-name="Path 4392" d="M1280.368,1402.786a1.52,1.52,0,1,0,1.418-1.615A1.52,1.52,0,0,0,1280.368,1402.786Z" transform="translate(-1270.096 -1399.628)" fill="#e01947"/>
            <path id="Path_4393" data-name="Path 4393" d="M1209.734,1408.36a1.319,1.319,0,1,0,1.231-1.4A1.319,1.319,0,0,0,1209.734,1408.36Z" transform="translate(-1209.452 -1404.597)" fill="#e01947"/>
            <path id="Path_4394" data-name="Path 4394" d="M1254.13,1391.888a.919.919,0,1,0-.084-1.3A.919.919,0,0,0,1254.13,1391.888Z" transform="translate(-1247.303 -1390.278)" fill="#e01947"/>
            <path id="Path_4395" data-name="Path 4395" d="M1316.08,1411.838a.919.919,0,1,0-.084-1.3A.919.919,0,0,0,1316.08,1411.838Z" transform="translate(-1300.491 -1407.407)" fill="#e01947"/>
            <path id="Path_4396" data-name="Path 4396" d="M1241.143,1400.641a.667.667,0,1,0-.061-.941A.667.667,0,0,0,1241.143,1400.641Z" transform="translate(-1236.227 -1398.172)" fill="#e01947"/>
            <path id="Path_4397" data-name="Path 4397" d="M1207.986,1394.551a.667.667,0,1,0-.061-.941A.667.667,0,0,0,1207.986,1394.551Z" transform="translate(-1207.759 -1392.944)" fill="#e01947"/>
          </g>
          <path id="Path_4398" data-name="Path 4398" d="M1107.938,1210.534c2.488-1.555,7.245-1.145,6.315,3.143s-4.722,3.316-5.189,5.959.842,4.989-1.145,7.049-4.009-3.126-5.5-.26-4.956-1.727-3.321-4.418C1100.94,1218.984,1107.938,1210.534,1107.938,1210.534Z" transform="translate(-1054.791 -1083.499)" fill="#fa7c6c"/>
          <g id="Group_1234" data-name="Group 1234" transform="translate(46.586 128.234)">
            <path id="Path_4399" data-name="Path 4399" d="M1176.407,1225.713a1.662,1.662,0,1,0,1.661-1.661A1.662,1.662,0,0,0,1176.407,1225.713Z" transform="translate(-1168.117 -1224.051)" fill="#e01947"/>
            <path id="Path_4400" data-name="Path 4400" d="M1152.3,1307.938a1.662,1.662,0,1,0,1.661-1.661A1.662,1.662,0,0,0,1152.3,1307.938Z" transform="translate(-1147.418 -1294.647)" fill="#e01947"/>
            <path id="Path_4401" data-name="Path 4401" d="M1184.916,1254.551a1.129,1.129,0,1,0,1.129-1.129A1.129,1.129,0,0,0,1184.916,1254.551Z" transform="translate(-1175.422 -1249.268)" fill="#e01947"/>
            <path id="Path_4402" data-name="Path 4402" d="M1138.22,1264.956a1.129,1.129,0,1,0,1.129-1.129A1.129,1.129,0,0,0,1138.22,1264.956Z" transform="translate(-1135.33 -1258.201)" fill="#e01947"/>
            <path id="Path_4403" data-name="Path 4403" d="M1157,1256.44a.734.734,0,1,0,.734-.734A.734.734,0,0,0,1157,1256.44Z" transform="translate(-1151.454 -1251.229)" fill="#e01947"/>
            <path id="Path_4404" data-name="Path 4404" d="M1161.439,1338.532a.6.6,0,1,0,.6-.6A.6.6,0,0,0,1161.439,1338.532Z" transform="translate(-1155.266 -1321.826)" fill="#e01947"/>
            <path id="Path_4405" data-name="Path 4405" d="M1117.789,1316.2a.6.6,0,1,0,.6-.6A.6.6,0,0,0,1117.789,1316.2Z" transform="translate(-1117.789 -1302.651)" fill="#e01947"/>
            <path id="Path_4406" data-name="Path 4406" d="M1132.637,1310.5a.734.734,0,1,0,.734-.734A.734.734,0,0,0,1132.637,1310.5Z" transform="translate(-1130.537 -1297.64)" fill="#e01947"/>
            <path id="Path_4407" data-name="Path 4407" d="M1129.716,1330.8a1.246,1.246,0,1,0,1.246-1.246A1.246,1.246,0,0,0,1129.716,1330.8Z" transform="translate(-1128.029 -1314.634)" fill="#e01947"/>
          </g>
          <path id="Path_4408" data-name="Path 4408" d="M1525.385,757.86c.323,1.31,2.708,1.847,5.328,1.2s4.48-2.232,4.157-3.542-2.708-1.847-5.328-1.2S1525.062,756.55,1525.385,757.86Z" transform="translate(-1421.121 -692.283)" fill="#fa897a"/>
          <path id="Path_4409" data-name="Path 4409" d="M1327.7,800.11c.323,1.31,2.708,1.847,5.328,1.2s4.48-2.232,4.157-3.542-2.709-1.847-5.328-1.2S1327.378,798.8,1327.7,800.11Z" transform="translate(-1251.395 -728.558)" fill="#fa897a"/>
        </g>
      </g>
    </g>
    <g id="Group_1238" data-name="Group 1238" transform="translate(359.035 107.44)">
      <path id="Path_4411" data-name="Path 4411" d="M2034.6,378.069c1.326-1.517,5.839-3.131,8.316-.772,1.283,1.369-.03,4.244.555,5.848s3.831,1.4,5.715.995,3.854,1.3,3.249,4.793c-.464,2.68-.447,3.738,1.505,4.465s5.991.423,4.851,4.337c-.812,1.936-1.539,3.164-1.687,2.1s1.76-2.594.129-3.826-4.337-.324-5.755-1.99c-2.375-2.789.789-6.4-.929-7.827s-6.483.947-7.872-1.346,1.036-5.194-1.115-6.708S2035.5,379.051,2034.6,378.069Z" transform="translate(-2034.599 -376.104)" fill="#a6e8e8"/>
    </g>
    <g id="Group_1239" data-name="Group 1239" transform="translate(193.082 114.635)">
      <path id="Path_4412" data-name="Path 4412" d="M862.564,429.942a6.947,6.947,0,0,1,.554-.663c.086-.092-.073.072-.072.072.028-.026.054-.053.081-.079q.067-.065.137-.127t.139-.12c.068-.057.294-.208.012-.016.1-.071.2-.147.307-.216.049-.032.1-.063.15-.094s.164-.079-.1.055c.036-.018.071-.04.107-.059q.161-.087.327-.162c.068-.031.277-.106-.009,0,.065-.024.128-.051.193-.074q.161-.058.326-.106c.055-.016.11-.03.165-.045s.179-.027-.053.012c.034-.005.067-.015.1-.022a5.872,5.872,0,0,1,.748-.107l.172-.011c.174-.01-.129,0,.045,0,.128,0,.255,0,.383,0a6.99,6.99,0,0,1,.752.073c.253.038.5.09.752.152.009,0,.124.033.039.01s.031.009.039.011l.174.051q.191.058.38.126a9.271,9.271,0,0,1,1.44.662,9.835,9.835,0,0,1,1.327.9l.144.119c.012.01.107.092.025.021l.056.049q.154.135.3.277.3.282.565.589a8.218,8.218,0,0,1,1.555,2.626c.041.112-.027-.091.008.023l.026.084q.028.093.053.186.05.187.088.376a5.885,5.885,0,0,1,.1.728,5.6,5.6,0,0,1,.005.756c-.008.125-.022.248-.036.372.017-.15-.008.044-.014.079q-.018.107-.041.213a5.6,5.6,0,0,1-.213.747,2.367,2.367,0,0,0-.157.39c0-.011.066-.14.019-.042l-.051.106q-.053.107-.109.211c-.132.244-.275.485-.417.722q-.048.08-.1.159c-.021.031-.044.061-.064.092.114-.181.07-.094.035-.05-.088.112-.177.221-.275.325-.137.146.148-.135,0,0-.045.042-.09.084-.135.125s-.093.08-.141.119l-.072.057c-.059.049.218-.159.055-.043-.1.071-.2.14-.307.2l-.095.057c.247-.152.165-.094.108-.063s-.13.071-.2.1c-.121.061-.246.113-.37.17,0,0,.213-.084.1-.04l-.1.04q-.1.038-.21.073-.176.058-.355.1l-.107.027s.191-.041.078-.019c-.072.014-.144.031-.216.044a6.222,6.222,0,0,1-.794.1l-.072,0c-.132.009.152,0,.02,0h-.177c-.128,0-.257-.007-.385-.016a5.194,5.194,0,0,1-.7-.1l-.1-.022c-.012,0-.118-.029-.03-.007s-.092-.027-.12-.036c-.11-.034-.218-.073-.324-.117a3.191,3.191,0,0,1-.553-.291c-.04-.026-.079-.054-.117-.082-.021-.015-.143-.115-.088-.067s-.06-.056-.078-.074c-.039-.038-.077-.078-.112-.12a1.96,1.96,0,0,1-.308-.474c-.019-.041-.035-.083-.052-.125-.047-.116.015.076-.014-.045a2.429,2.429,0,0,1-.058-.305,2.177,2.177,0,0,1-.011-.328c0-.052.009-.1.012-.157,0-.087,0,.026-.006.038.007-.044.014-.087.022-.131a3.13,3.13,0,0,1,.088-.34,3.164,3.164,0,0,0,.15-.4c.014.016-.062.13,0,0l.038-.076q.055-.107.114-.212c.09-.158.187-.311.29-.461l.058-.083c.1-.146-.1.131.01-.013.055-.071.108-.143.165-.213.128-.156.269-.3.408-.448q.182-.194.369-.383c.132-.134-.138.136-.005.006l.073-.073.219-.212q.385-.367.791-.713.175-.148.353-.291l.175-.138c.052-.04.193-.139-.048.036l.1-.078q.367-.273.753-.519c.111-.07.223-.138.335-.205.133-.079-.186.1-.088.051l.083-.047q.1-.055.2-.108c.221-.118.448-.227.678-.325l.1-.04c-.242.111-.15.06-.089.037l.172-.066c.112-.041.226-.081.34-.117s.2-.061.3-.088c.064-.017.257-.05-.006,0,.06-.011.119-.027.178-.039a5.728,5.728,0,0,1,.637-.093l.141-.011c.056,0,.229,0,0,0,.1,0,.2,0,.3,0a4.732,4.732,0,0,1,.557.05q.141.021.281.051l.125.029.05.013c.088.021-.137-.041-.007,0a4.7,4.7,0,0,1,.995.424,4.629,4.629,0,0,1,.442.29q.1.075.2.156l.059.049c-.1-.078-.052-.045-.031-.026.038.035.077.068.114.1a6.176,6.176,0,0,1,1.338,1.868q.13.273.239.554.058.151.11.3l.019.056c.035.1-.03-.1,0,0,.018.057.036.114.053.172a9.684,9.684,0,0,1,.288,1.3,11.655,11.655,0,0,1,.072,2.833q-.017.184-.04.367c0,.029-.008.058-.011.088-.015.123.017-.116,0,.007-.011.071-.02.141-.031.212q-.059.376-.139.748a13.823,13.823,0,0,1-.429,1.545q-.13.382-.282.756-.077.19-.159.377l-.04.09c-.021.046-.089.132,0,0a1.775,1.775,0,0,0-.1.215,14.721,14.721,0,0,1-.822,1.484c-.156.247-.32.488-.489.726-.086.122.087-.116.026-.035l-.063.085-.128.17q-.143.187-.292.37c-.156.192-.348.628.057.659a1.453,1.453,0,0,0,1.092-.545,15.306,15.306,0,0,0,3.172-6.561,11.711,11.711,0,0,0-.257-6.01,6.135,6.135,0,0,0-2.964-3.687,6.363,6.363,0,0,0-5.5.362,14.526,14.526,0,0,0-3.367,2.331,16.96,16.96,0,0,0-1.766,1.784,6.491,6.491,0,0,0-1.164,1.988,2.409,2.409,0,0,0,.513,2.605,4.231,4.231,0,0,0,2.766.978,7.1,7.1,0,0,0,3.579-.845,6.711,6.711,0,0,0,1.747-1.347,7.5,7.5,0,0,0,1.028-1.551,6.192,6.192,0,0,0,.749-3.362,6.935,6.935,0,0,0-1.016-3.039,9.635,9.635,0,0,0-5.15-4.053,7.8,7.8,0,0,0-3.339-.375,6.92,6.92,0,0,0-3.477,1.491,6.794,6.794,0,0,0-1.257,1.315.711.711,0,0,0-.2.436.259.259,0,0,0,.256.223,1.431,1.431,0,0,0,1.092-.545Z" transform="translate(-861.214 -426.976)" fill="#a6e8e8"/>
    </g>
    <g id="Group_1240" data-name="Group 1240" transform="translate(400.863 171.002)">
      <path id="Path_4413" data-name="Path 4413" d="M2470.861,933.159a10.992,10.992,0,1,1-8.256-13.172A10.992,10.992,0,0,1,2470.861,933.159Z" transform="translate(-2432.349 -906.386)" fill="#a6e8e8"/>
      <path id="Path_4414" data-name="Path 4414" d="M2499.491,830.71a4.237,4.237,0,1,1-3.182-5.077A4.237,4.237,0,0,1,2499.491,830.71Z" transform="translate(-2468.385 -825.524)" fill="#a6e8e8"/>
      <path id="Path_4415" data-name="Path 4415" d="M2635.9,899.605a4.237,4.237,0,1,1-3.182-5.077A4.237,4.237,0,0,1,2635.9,899.605Z" transform="translate(-2585.499 -884.676)" fill="#a6e8e8"/>
      <path id="Path_4416" data-name="Path 4416" d="M2652.357,1076.005a4.237,4.237,0,1,1-3.183-5.077A4.237,4.237,0,0,1,2652.357,1076.005Z" transform="translate(-2599.63 -1036.128)" fill="#a6e8e8"/>
      <path id="Path_4417" data-name="Path 4417" d="M2454.775,1099.8a4.237,4.237,0,1,1-3.182-5.077A4.237,4.237,0,0,1,2454.775,1099.8Z" transform="translate(-2429.992 -1056.561)" fill="#a6e8e8"/>
      <path id="Path_4418" data-name="Path 4418" d="M2338.713,934.4a4.237,4.237,0,1,1-3.182-5.077A4.237,4.237,0,0,1,2338.713,934.4Z" transform="translate(-2330.345 -914.549)" fill="#a6e8e8"/>
      <path id="Path_4419" data-name="Path 4419" d="M2516.437,862.23h0a.956.956,0,0,1-1-.907l-.8-15.84a.957.957,0,0,1,.907-1h0a.956.956,0,0,1,1,.907l.8,15.84A.957.957,0,0,1,2516.437,862.23Z" transform="translate(-2488.572 -841.797)" fill="#a6e8e8"/>
      <path id="Path_4420" data-name="Path 4420" d="M2472.479,1023.374h0a.957.957,0,0,1-.556-1.233l5.619-14.832a.957.957,0,0,1,1.234-.555h0a.957.957,0,0,1,.556,1.233l-5.619,14.831A.956.956,0,0,1,2472.479,1023.374Z" transform="translate(-2451.846 -981.069)" fill="#a6e8e8"/>
      <path id="Path_4421" data-name="Path 4421" d="M2546.818,931.928h0a.957.957,0,0,1,.38-1.3l13.915-7.611a.956.956,0,0,1,1.3.38h0a.957.957,0,0,1-.38,1.3l-13.915,7.611A.957.957,0,0,1,2546.818,931.928Z" transform="translate(-2516.101 -909.129)" fill="#a6e8e8"/>
      <path id="Path_4422" data-name="Path 4422" d="M2576.56,1013.115h0a.956.956,0,0,1-1.349.095l-11.971-10.4a.957.957,0,0,1-.095-1.349h0a.957.957,0,0,1,1.35-.095l11.971,10.4A.956.956,0,0,1,2576.56,1013.115Z" transform="translate(-2530.018 -976.291)" fill="#a6e8e8"/>
      <path id="Path_4423" data-name="Path 4423" d="M2376.842,959.717h0a.956.956,0,0,1-1.1.783l-15.638-2.647a.957.957,0,0,1-.784-1.1h0a.957.957,0,0,1,1.1-.783l15.638,2.648A.956.956,0,0,1,2376.842,959.717Z" transform="translate(-2355.209 -937.506)" fill="#a6e8e8"/>
    </g>
    <g id="Group_1241" data-name="Group 1241" transform="translate(428.795 285.125)">
      <path id="Path_4424" data-name="Path 4424" d="M2607.132,1723.529a6.188,6.188,0,1,1,5.281-6.978A6.188,6.188,0,0,1,2607.132,1723.529Z" transform="translate(-2589.876 -1700.07)" fill="#fff"/>
      <path id="Path_4425" data-name="Path 4425" d="M2712.666,1682.983a2.828,2.828,0,1,1,1.183-3.821A2.828,2.828,0,0,1,2712.666,1682.983Z" transform="translate(-2682.965 -1671.259)" fill="#fff"/>
      <path id="Path_4426" data-name="Path 4426" d="M2691.963,1835.874a2.828,2.828,0,1,1-1.573-3.677A2.828,2.828,0,0,1,2691.963,1835.874Z" transform="translate(-2664.069 -1803.771)" fill="#fff"/>
      <path id="Path_4427" data-name="Path 4427" d="M2531.058,1749.686a2.828,2.828,0,1,1,2.414-3.189A2.828,2.828,0,0,1,2531.058,1749.686Z" transform="translate(-2527.842 -1728.271)" fill="#fff"/>
      <path id="Path_4428" data-name="Path 4428" d="M2606.757,1638.071a2.828,2.828,0,1,1,2.414-3.189A2.828,2.828,0,0,1,2606.757,1638.071Z" transform="translate(-2592.834 -1632.442)" fill="#fff"/>
      <path id="Path_4429" data-name="Path 4429" d="M2672.256,1699.825h0a.639.639,0,0,1,.022-.9l7.667-7.3a.638.638,0,0,1,.9.022h0a.639.639,0,0,1-.022.9l-7.667,7.3A.639.639,0,0,1,2672.256,1699.825Z" transform="translate(-2651.68 -1683.102)" fill="#fff"/>
      <path id="Path_4430" data-name="Path 4430" d="M2547.768,1760.048h0a.638.638,0,0,1,.637-.639l10.586-.009a.639.639,0,0,1,.639.638h0a.639.639,0,0,1-.638.639l-10.586.009A.638.638,0,0,1,2547.768,1760.048Z" transform="translate(-2544.95 -1741.444)" fill="#fff"/>
      <path id="Path_4431" data-name="Path 4431" d="M2650.707,1784.67h0a.639.639,0,0,1-.9-.077l-6.818-8.1a.638.638,0,0,1,.077-.9h0a.638.638,0,0,1,.9.077l6.818,8.1A.639.639,0,0,1,2650.707,1784.67Z" transform="translate(-2626.575 -1755.22)" fill="#fff"/>
      <path id="Path_4432" data-name="Path 4432" d="M2621,1664h0a.638.638,0,0,1-.75-.5l-2.054-10.385a.639.639,0,0,1,.5-.75h0a.639.639,0,0,1,.75.5l2.054,10.385A.638.638,0,0,1,2621,1664Z" transform="translate(-2605.406 -1649.539)" fill="#fff"/>
    </g>
    <g id="Group_1242" data-name="Group 1242" transform="translate(432.867 91.763)">
      <path id="Path_4433" data-name="Path 4433" d="M2610.859,363.4a8.853,8.853,0,1,1,12.261,2.527A8.852,8.852,0,0,1,2610.859,363.4Z" transform="translate(-2601.937 -337.737)" fill="#fff"/>
      <path id="Path_4434" data-name="Path 4434" d="M2771.143,465.038a4.046,4.046,0,1,1,5.662-.823A4.046,4.046,0,0,1,2771.143,465.038Z" transform="translate(-2739.408 -430.525)" fill="#fff"/>
      <path id="Path_4435" data-name="Path 4435" d="M2560.937,532.386a4.046,4.046,0,1,1,3.781-4.295A4.046,4.046,0,0,1,2560.937,532.386Z" transform="translate(-2556.634 -487.665)" fill="#fff"/>
      <path id="Path_4436" data-name="Path 4436" d="M2573.239,271.528a4.046,4.046,0,1,1,5.6,1.155A4.045,4.045,0,0,1,2573.239,271.528Z" transform="translate(-2570.318 -265.257)" fill="#fff"/>
      <path id="Path_4437" data-name="Path 4437" d="M2763.977,300.613a4.046,4.046,0,1,1,5.6,1.155A4.046,4.046,0,0,1,2763.977,300.613Z" transform="translate(-2734.08 -290.229)" fill="#fff"/>
      <path id="Path_4438" data-name="Path 4438" d="M2695.3,444.143h0a.913.913,0,0,1,1.179-.527l14.146,5.41a.913.913,0,0,1,.527,1.179h0a.914.914,0,0,1-1.179.527l-14.146-5.41A.914.914,0,0,1,2695.3,444.143Z" transform="translate(-2675.636 -418.338)" fill="#fff"/>
      <path id="Path_4439" data-name="Path 4439" d="M2598.074,293.184h0a.913.913,0,0,1,1.218.431l6.526,13.667a.914.914,0,0,1-.431,1.218h0a.914.914,0,0,1-1.218-.431l-6.525-13.667A.913.913,0,0,1,2598.074,293.184Z" transform="translate(-2591.767 -289.158)" fill="#fff"/>
      <path id="Path_4440" data-name="Path 4440" d="M2591.667,441.254h0a.913.913,0,0,1-.454-1.209l6.263-13.789a.913.913,0,0,1,1.209-.454h0a.914.914,0,0,1,.454,1.209l-6.264,13.789A.913.913,0,0,1,2591.667,441.254Z" transform="translate(-2586.252 -403.026)" fill="#fff"/>
      <path id="Path_4441" data-name="Path 4441" d="M2693.505,328.635h0a.913.913,0,0,1,.187-1.278l12.148-9.043a.913.913,0,0,1,1.278.187h0a.913.913,0,0,1-.187,1.278l-12.148,9.043A.913.913,0,0,1,2693.505,328.635Z" transform="translate(-2673.992 -310.655)" fill="#fff"/>
    </g>
    <g id="Group_1243" data-name="Group 1243" transform="translate(94.406 109.957)">
      <path id="Path_4442" data-name="Path 4442" d="M260.429,526.636a10.992,10.992,0,1,1-5.18,14.657A10.992,10.992,0,0,1,260.429,526.636Z" transform="translate(-241.35 -506.94)" fill="#a6e8e8"/>
      <path id="Path_4443" data-name="Path 4443" d="M196.8,666.575a4.237,4.237,0,1,1-2,5.65A4.237,4.237,0,0,1,196.8,666.575Z" transform="translate(-190.022 -627.655)" fill="#a6e8e8"/>
      <path id="Path_4444" data-name="Path 4444" d="M165.923,516.908a4.237,4.237,0,1,1-2,5.65A4.237,4.237,0,0,1,165.923,516.908Z" transform="translate(-163.512 -499.155)" fill="#a6e8e8"/>
      <path id="Path_4445" data-name="Path 4445" d="M293.828,394.318a4.237,4.237,0,1,1-2,5.649A4.237,4.237,0,0,1,293.828,394.318Z" transform="translate(-273.326 -393.903)" fill="#a6e8e8"/>
      <path id="Path_4446" data-name="Path 4446" d="M435.34,534.246a4.237,4.237,0,1,1-2,5.649A4.237,4.237,0,0,1,435.34,534.246Z" transform="translate(-394.825 -514.041)" fill="#a6e8e8"/>
      <path id="Path_4447" data-name="Path 4447" d="M377.987,728a4.237,4.237,0,1,1-2,5.65A4.237,4.237,0,0,1,377.987,728Z" transform="translate(-345.583 -680.389)" fill="#a6e8e8"/>
      <path id="Path_4448" data-name="Path 4448" d="M227.655,618.025h0a.956.956,0,0,1-.086,1.35l-11.91,10.474a.957.957,0,0,1-1.35-.087h0a.956.956,0,0,1,.087-1.35l11.91-10.474A.956.956,0,0,1,227.655,618.025Z" transform="translate(-206.92 -586.049)" fill="#a6e8e8"/>
      <path id="Path_4449" data-name="Path 4449" d="M359.97,559.825h0a.956.956,0,0,1-.62,1.2l-15.109,4.823a.957.957,0,0,1-1.2-.62h0a.957.957,0,0,1,.62-1.2l15.109-4.823A.957.957,0,0,1,359.97,559.825Z" transform="translate(-317.609 -535.787)" fill="#a6e8e8"/>
      <path id="Path_4450" data-name="Path 4450" d="M210.81,548.322h0a.957.957,0,0,1-1.253.51l-14.614-6.163a.956.956,0,0,1-.51-1.253h0a.956.956,0,0,1,1.253-.51l14.614,6.163A.957.957,0,0,1,210.81,548.322Z" transform="translate(-189.996 -520.05)" fill="#a6e8e8"/>
      <path id="Path_4451" data-name="Path 4451" d="M319.542,439.83h0a.956.956,0,0,1,1.015.894l1.006,15.828a.956.956,0,0,1-.894,1.015h0a.956.956,0,0,1-1.015-.894l-1.006-15.828A.957.957,0,0,1,319.542,439.83Z" transform="translate(-296.705 -433.333)" fill="#a6e8e8"/>
      <path id="Path_4452" data-name="Path 4452" d="M344.358,645.962h0a.956.956,0,0,1,1.3.376l7.652,13.892a.957.957,0,0,1-.376,1.3h0a.957.957,0,0,1-1.3-.376l-7.652-13.893A.957.957,0,0,1,344.358,645.962Z" transform="translate(-318.355 -610.211)" fill="#a6e8e8"/>
    </g>
    <g id="Group_1244" data-name="Group 1244" transform="translate(120.699 285.268)">
      <path id="Path_4453" data-name="Path 4453" d="M437.488,1712.927a8.7,8.7,0,0,1-2.453,11.866,8.259,8.259,0,0,1-11.569-2.6,8.7,8.7,0,0,1,2.453-11.866A8.259,8.259,0,0,1,437.488,1712.927Z" transform="translate(-411.833 -1698.287)" fill="#a6e8e8"/>
      <path id="Path_4454" data-name="Path 4454" d="M383.693,1673.372a3.354,3.354,0,0,1-.946,4.574,3.184,3.184,0,0,1-4.459-1,3.354,3.354,0,0,1,.946-4.574A3.184,3.184,0,0,1,383.693,1673.372Z" transform="translate(-373.758 -1666.416)" fill="#a6e8e8"/>
      <path id="Path_4455" data-name="Path 4455" d="M493.515,1634.981a3.354,3.354,0,0,1-.945,4.574,3.184,3.184,0,0,1-4.46-1,3.354,3.354,0,0,1,.946-4.574A3.184,3.184,0,0,1,493.515,1634.981Z" transform="translate(-468.047 -1633.455)" fill="#a6e8e8"/>
      <path id="Path_4456" data-name="Path 4456" d="M598.671,1722.339a3.354,3.354,0,0,1-.945,4.574,3.184,3.184,0,0,1-4.459-1,3.354,3.354,0,0,1,.945-4.574A3.184,3.184,0,0,1,598.671,1722.339Z" transform="translate(-558.331 -1708.457)" fill="#a6e8e8"/>
      <path id="Path_4457" data-name="Path 4457" d="M507.174,1845.587a3.354,3.354,0,0,1-.945,4.574,3.184,3.184,0,0,1-4.459-1,3.354,3.354,0,0,1,.945-4.574A3.184,3.184,0,0,1,507.174,1845.587Z" transform="translate(-479.775 -1814.275)" fill="#a6e8e8"/>
      <path id="Path_4458" data-name="Path 4458" d="M355.346,1819.809a3.354,3.354,0,0,1-.945,4.574,3.184,3.184,0,0,1-4.459-1,3.354,3.354,0,0,1,.945-4.574A3.184,3.184,0,0,1,355.346,1819.809Z" transform="translate(-349.42 -1792.143)" fill="#a6e8e8"/>
      <path id="Path_4459" data-name="Path 4459" d="M403.615,1696.945h0a.713.713,0,0,1-1.027.063l-9.082-8.225a.763.763,0,0,1-.069-1.055h0a.713.713,0,0,1,1.027-.063l9.082,8.225A.763.763,0,0,1,403.615,1696.945Z" transform="translate(-387.058 -1679.836)" fill="#a6e8e8"/>
      <path id="Path_4460" data-name="Path 4460" d="M486.516,1790.627h0a.724.724,0,0,1-.968-.365l-5.137-11.252a.752.752,0,0,1,.349-.992h0a.723.723,0,0,1,.968.365l5.137,11.251A.753.753,0,0,1,486.516,1790.627Z" transform="translate(-461.825 -1757.513)" fill="#a6e8e8"/>
      <path id="Path_4461" data-name="Path 4461" d="M483.057,1671.017h0a.756.756,0,0,1-.509-.923l3.2-11.928a.72.72,0,0,1,.895-.516h0a.756.756,0,0,1,.509.923l-3.2,11.928A.72.72,0,0,1,483.057,1671.017Z" transform="translate(-463.697 -1654.204)" fill="#a6e8e8"/>
      <path id="Path_4462" data-name="Path 4462" d="M523.227,1744.866h0a.741.741,0,0,1-.573.874l-11.839,2.308a.735.735,0,0,1-.855-.6h0a.741.741,0,0,1,.574-.874l11.839-2.308A.735.735,0,0,1,523.227,1744.866Z" transform="translate(-487.243 -1728.587)" fill="#a6e8e8"/>
      <path id="Path_4463" data-name="Path 4463" d="M383.082,1784.009h0a.759.759,0,0,1-.155,1.044l-9.719,7.275a.717.717,0,0,1-1.017-.167h0a.759.759,0,0,1,.155-1.044l9.719-7.275A.717.717,0,0,1,383.082,1784.009Z" transform="translate(-368.849 -1762.451)" fill="#a6e8e8"/>
    </g>
    <g id="Group_1245" data-name="Group 1245" transform="translate(327.082 69.994)">
      <path id="Path_4464" data-name="Path 4464" d="M1884.288,181.292A6.965,6.965,0,0,1,1888.55,190a6.61,6.61,0,0,1-8.6,4.022,6.965,6.965,0,0,1-4.263-8.711A6.61,6.61,0,0,1,1884.288,181.292Z" transform="translate(-1865.905 -171.038)" fill="#a6e8e8"/>
      <path id="Path_4465" data-name="Path 4465" d="M1813.283,175.492a3.054,3.054,0,0,1,.785,4.18,2.9,2.9,0,0,1-4.1.7,3.055,3.055,0,0,1-.785-4.18A2.9,2.9,0,0,1,1813.283,175.492Z" transform="translate(-1808.669 -165.939)" fill="#a6e8e8"/>
      <path id="Path_4466" data-name="Path 4466" d="M1981.521,111.541a3.354,3.354,0,0,1,2.053,4.2,3.184,3.184,0,0,1-4.14,1.937,3.354,3.354,0,0,1-2.053-4.2A3.183,3.183,0,0,1,1981.521,111.541Z" transform="translate(-1953.372 -111.339)" fill="#a6e8e8"/>
      <path id="Path_4467" data-name="Path 4467" d="M2002.473,183.966a3.354,3.354,0,0,1,2.36-4.031,3.184,3.184,0,0,1,3.9,2.378,3.354,3.354,0,0,1-2.36,4.031A3.184,3.184,0,0,1,2002.473,183.966Z" transform="translate(-1974.982 -170.144)" fill="#a6e8e8"/>
      <path id="Path_4468" data-name="Path 4468" d="M1833.956,194.673h0a.65.65,0,0,1-.843.408l-10.495-3.789a.7.7,0,0,1-.423-.865h0a.65.65,0,0,1,.843-.408l10.495,3.789A.7.7,0,0,1,1833.956,194.673Z" transform="translate(-1820.253 -178.857)" fill="#a6e8e8"/>
      <path id="Path_4469" data-name="Path 4469" d="M1938.1,143.877h0a.741.741,0,0,1,.081,1.042l-7.947,9.073a.735.735,0,0,1-1.04.052h0a.74.74,0,0,1-.081-1.042l7.947-9.073A.735.735,0,0,1,1938.1,143.877Z" transform="translate(-1911.922 -139.111)" fill="#a6e8e8"/>
      <path id="Path_4470" data-name="Path 4470" d="M1933.375,202.321h0a.759.759,0,0,1,.481-.939l11.537-3.781a.717.717,0,0,1,.911.483h0a.759.759,0,0,1-.481.94l-11.536,3.781A.717.717,0,0,1,1933.375,202.321Z" transform="translate(-1915.71 -185.37)" fill="#a6e8e8"/>
    </g>
    <g id="Group_1246" data-name="Group 1246" transform="translate(83.022 265.485)">
      <path id="Path_4471" data-name="Path 4471" d="M96.844,1568.29a7.645,7.645,0,0,1-10.334,2.56,7.256,7.256,0,0,1-2.328-10.155,7.645,7.645,0,0,1,10.334-2.56A7.257,7.257,0,0,1,96.844,1568.29Z" transform="translate(-83.022 -1548.103)" fill="#fff"/>
      <path id="Path_4472" data-name="Path 4472" d="M174.98,1499.151a3.353,3.353,0,0,1-4.667-.125,3.182,3.182,0,0,1,.2-4.565,3.353,3.353,0,0,1,4.667.125A3.183,3.183,0,0,1,174.98,1499.151Z" transform="translate(-157.221 -1493.577)" fill="#fff"/>
      <path id="Path_4473" data-name="Path 4473" d="M200.639,1694.093a3.682,3.682,0,0,1-4.977,1.233,3.5,3.5,0,0,1-1.121-4.891,3.682,3.682,0,0,1,4.977-1.233A3.5,3.5,0,0,1,200.639,1694.093Z" transform="translate(-178.289 -1661.101)" fill="#fff"/>
      <path id="Path_4474" data-name="Path 4474" d="M117.782,1699.579a3.682,3.682,0,0,1,3.78,3.464,3.5,3.5,0,0,1-3.455,3.639,3.682,3.682,0,0,1-3.78-3.465A3.5,3.5,0,0,1,117.782,1699.579Z" transform="translate(-109.897 -1670.443)" fill="#fff"/>
      <path id="Path_4475" data-name="Path 4475" d="M144.05,1520.431h0a.713.713,0,0,1-.243-1l6.493-10.386a.763.763,0,0,1,1.026-.254h0a.713.713,0,0,1,.243,1l-6.493,10.386A.762.762,0,0,1,144.05,1520.431Z" transform="translate(-135.114 -1506.552)" fill="#fff"/>
      <path id="Path_4476" data-name="Path 4476" d="M153.873,1631.108h0a.813.813,0,0,1-1.137-.153l-7.9-10.627a.806.806,0,0,1,.184-1.128h0a.813.813,0,0,1,1.137.153l7.9,10.627A.806.806,0,0,1,153.873,1631.108Z" transform="translate(-135.963 -1601.291)" fill="#fff"/>
      <path id="Path_4477" data-name="Path 4477" d="M126.657,1619.9h0a.833.833,0,0,1,.9.733l1.389,13.255a.787.787,0,0,1-.729.865h0a.833.833,0,0,1-.9-.734l-1.389-13.254A.787.787,0,0,1,126.657,1619.9Z" transform="translate(-119.856 -1602.033)" fill="#fff"/>
    </g>
    <g id="Group_1247" data-name="Group 1247" transform="translate(117.219 193.181)">
      <path id="Path_4478" data-name="Path 4478" d="M340.647,1060.819a6.965,6.965,0,0,1-9.6-1.347,6.611,6.611,0,0,1,1.482-9.374,6.965,6.965,0,0,1,9.6,1.347A6.61,6.61,0,0,1,340.647,1060.819Z" transform="translate(-329.021 -1039.369)" fill="#a6e8e8"/>
      <path id="Path_4479" data-name="Path 4479" d="M440.706,1021.689a3.055,3.055,0,0,1-3.9-1.691,2.9,2.9,0,0,1,1.721-3.79,3.054,3.054,0,0,1,3.9,1.69A2.9,2.9,0,0,1,440.706,1021.689Z" transform="translate(-420.789 -1011.252)" fill="#a6e8e8"/>
      <path id="Path_4480" data-name="Path 4480" d="M395.261,1195.777a3.354,3.354,0,0,1-4.625-.649,3.184,3.184,0,0,1,.714-4.515,3.355,3.355,0,0,1,4.625.649A3.184,3.184,0,0,1,395.261,1195.777Z" transform="translate(-380.777 -1160.606)" fill="#a6e8e8"/>
      <path id="Path_4481" data-name="Path 4481" d="M329.063,988.673a3.354,3.354,0,0,1-4.113-2.214,3.184,3.184,0,0,1,2.237-3.986,3.354,3.354,0,0,1,4.112,2.214A3.184,3.184,0,0,1,329.063,988.673Z" transform="translate(-324.814 -982.348)" fill="#a6e8e8"/>
      <path id="Path_4482" data-name="Path 4482" d="M392.128,1038.254h0a.65.65,0,0,1,.134-.927l9.016-6.573a.694.694,0,0,1,.954.134h0a.65.65,0,0,1-.134.927l-9.016,6.573A.694.694,0,0,1,392.128,1038.254Z" transform="translate(-382.49 -1023.794)" fill="#a6e8e8"/>
      <path id="Path_4483" data-name="Path 4483" d="M384.045,1121.881h0a.741.741,0,0,1-.909-.516l-3.066-11.665a.735.735,0,0,1,.539-.891h0a.741.741,0,0,1,.909.516l3.066,11.665A.734.734,0,0,1,384.045,1121.881Z" transform="translate(-372.235 -1090.902)" fill="#a6e8e8"/>
      <path id="Path_4484" data-name="Path 4484" d="M347.93,1017.95h0a.759.759,0,0,1-.956-.447l-4.19-11.394a.717.717,0,0,1,.45-.927h0a.759.759,0,0,1,.956.447l4.19,11.394A.717.717,0,0,1,347.93,1017.95Z" transform="translate(-340.205 -1001.917)" fill="#a6e8e8"/>
    </g>
    <path id="Path_4485" data-name="Path 4485" d="M167.227,93.483a5.716,5.716,0,1,1-5.716-5.716A5.716,5.716,0,0,1,167.227,93.483Z" transform="translate(-62.482 -21.107)" fill="#fff"/>
    <path id="Path_4486" data-name="Path 4486" d="M222.04,179.563A2.636,2.636,0,1,1,219.4,182.2a2.639,2.639,0,0,1,2.636-2.636Zm0-1.556a4.192,4.192,0,1,0,4.192,4.192,4.192,4.192,0,0,0-4.192-4.192Z" transform="translate(-115.757 -98.584)" fill="#fff"/>
    <g id="Group_1248" data-name="Group 1248" transform="translate(386.441 63.999)">
      <path id="Path_4487" data-name="Path 4487" d="M2232.566,70.51a2.636,2.636,0,1,1-2.636,2.636,2.639,2.639,0,0,1,2.636-2.636Zm0-1.556a4.192,4.192,0,1,0,4.192,4.192,4.192,4.192,0,0,0-4.192-4.192Z" transform="translate(-2228.374 -68.954)" fill="#a6e8e8"/>
    </g>
    <path id="Path_4488" data-name="Path 4488" d="M206.364,1242.567a2.636,2.636,0,1,1-2.636,2.636,2.639,2.639,0,0,1,2.636-2.636Zm0-1.556a4.192,4.192,0,1,0,4.192,4.192,4.192,4.192,0,0,0-4.192-4.192Z" transform="translate(-102.299 -1011.247)" fill="#fff"/>
    <path id="Path_4489" data-name="Path 4489" d="M1517.675,91.781a4.192,4.192,0,1,1-4.192-4.192A4.192,4.192,0,0,1,1517.675,91.781Z" transform="translate(-1224.55 -20.954)" fill="#fff"/>
    <g id="Group_1250" data-name="Group 1250" transform="translate(479.238 235.874)">
      <g id="Group_1249" data-name="Group 1249">
        <path id="Path_4490" data-name="Path 4490" d="M2892.888,1288.4a4.192,4.192,0,1,1-4.192-4.192A4.192,4.192,0,0,1,2892.888,1288.4Z" transform="translate(-2884.504 -1284.212)" fill="#fff"/>
      </g>
    </g>
    <path id="Path_4491" data-name="Path 4491" d="M2796.854,1138.457a5.556,5.556,0,1,1-2.108.42,5.53,5.53,0,0,1,2.108-.42Zm0-3.273a8.819,8.819,0,1,0,8.157,5.463,8.791,8.791,0,0,0-8.157-5.463Z" transform="translate(-2322.442 -920.387)" fill="#fff"/>
  </g>
</svg>
