<svg width="64" height="24" viewBox="0 0 64 24" fill="none" xmlns="http://www.w3.org/2000/svg">
<path d="M55 8L64 12.5L55 17V13H0V12H55V8Z" fill="#9393AA"/>
<rect opacity="0.01" x="19" width="24" height="24" fill="black"/>
<path fill-rule="evenodd" clip-rule="evenodd" d="M31 2C25.4772 2 21 6.47705 21 12C21 17.523 25.4772 22 31 22C36.5229 22 41 17.523 41 12C41 6.47705 36.5229 2 31 2V2Z" fill="#45D4D4"/>
<path fill-rule="evenodd" clip-rule="evenodd" d="M36.7074 9.39245L30.2517 15.8484L30.2515 15.8488C29.9539 16.1463 29.5 16.1928 29.1536 15.9883C29.0893 15.9503 29.0289 15.9036 28.9738 15.8488C28.9737 15.8486 28.9737 15.8486 28.9737 15.8486L25.2566 12.1316C24.904 11.7788 24.904 11.2068 25.2566 10.8538C25.6095 10.501 26.1816 10.501 26.5345 10.8538L29.6126 13.932L35.4299 8.11478C35.7826 7.76203 36.3548 7.76203 36.7076 8.11478C37.0603 8.46775 37.0603 9.0397 36.7074 9.39245V9.39245Z" fill="white"/>
</svg>
