<svg xmlns="http://www.w3.org/2000/svg" width="32" height="32" viewBox="0 0 32 32">
  <g id="Group_5464" data-name="Group 5464" transform="translate(-439 -203)">
    <g id="Icon_Title" transform="translate(439 203)">
      <g id="Group_1357" data-name="Group 1357" opacity="0.16">
        <path id="Path_4920" data-name="Path 4920" d="M9.6,0H22.4A9.6,9.6,0,0,1,32,9.6V22.4A9.6,9.6,0,0,1,22.4,32H9.6A9.6,9.6,0,0,1,0,22.4V9.6A9.6,9.6,0,0,1,9.6,0Z" fill="#12b2b3" fill-rule="evenodd"/>
      </g>
      <rect id="Rectangle_517" data-name="Rectangle 517" width="24" height="24" transform="translate(4 4)" opacity="0.01"/>
      <g id="ic_calendar" transform="translate(4 4)">
        <path id="Path_5052" data-name="Path 5052" d="M24,0V24H0Z" opacity="0.01"/>
        <path id="Path_86" data-name="Path 86" d="M21.543,22.571H3.029A1.029,1.029,0,0,1,2,21.543V4.057A1.029,1.029,0,0,1,3.029,3.029H7.143a1.029,1.029,0,1,1,2.057,0h6.171a1.029,1.029,0,0,1,2.057,0h4.114a1.029,1.029,0,0,1,1.029,1.029V21.543A1.029,1.029,0,0,1,21.543,22.571ZM7.143,5.086H4.057V8.171H20.514V5.086H17.429a1.029,1.029,0,0,1-2.057,0H9.2a1.029,1.029,0,1,1-2.057,0ZM4.057,10.229H20.514V20.514H4.057Zm3.086,4.114V12.286H9.2v2.057Zm0,4.114V16.4H9.2v2.057Zm6.171-6.171H11.257v2.057h2.057ZM11.257,16.4h2.057v2.057H11.257Zm6.171-2.057V12.286H15.371v2.057Zm-2.057,4.114V16.4h2.057v2.057Z" transform="translate(-0.286 -0.286)" fill="#12b2b3" fill-rule="evenodd"/>
      </g>
    </g>
  </g>
</svg>
