<svg xmlns="http://www.w3.org/2000/svg" width="43.667" height="43.667" viewBox="0 0 43.667 43.667">
  <g id="Group_5462" data-name="Group 5462" transform="translate(-8.188 -141.916)">
    <g id="Group_1371" data-name="Group 1371" transform="translate(8.188 141.916)" opacity="0.16">
      <path id="Path_5075" data-name="Path 5075" d="M19.1,104H36.567a13.1,13.1,0,0,1,13.1,13.1v17.467a13.1,13.1,0,0,1-13.1,13.1H19.1A13.1,13.1,0,0,1,6,134.567V117.1A13.1,13.1,0,0,1,19.1,104Z" transform="translate(-6 -104)" fill="#12b2b3" fill-rule="evenodd"/>
    </g>
    <path id="Path_5076" data-name="Path 5076" d="M37.927,137.292H13.365A1.365,1.365,0,0,1,12,135.927v-23.2a1.365,1.365,0,0,1,1.365-1.365h5.458a1.365,1.365,0,0,1,2.729,0H29.74a1.365,1.365,0,0,1,2.729,0h5.458a1.365,1.365,0,0,1,1.365,1.365v23.2A1.365,1.365,0,0,1,37.927,137.292Zm-19.1-23.2H14.729v4.094H36.562v-4.094H32.469a1.365,1.365,0,0,1-2.729,0H21.552a1.365,1.365,0,0,1-2.729,0Zm-4.094,6.823H36.562v13.646H14.729Zm4.094,5.458v-2.729h2.729v2.729Zm0,5.458V129.1h2.729v2.729Zm8.187-8.187H24.281v2.729H27.01ZM24.281,129.1H27.01v2.729H24.281Zm8.187-2.729v-2.729H29.74v2.729Zm-2.729,5.458V129.1h2.729v2.729Z" transform="translate(4.375 40.104)" fill="#12b2b3" fill-rule="evenodd"/>
  </g>
</svg>
