<svg id="ic_camera_black" xmlns="http://www.w3.org/2000/svg" width="28" height="28" viewBox="0 0 28 28">
  <rect id="Rectangle_315" data-name="Rectangle 315" width="28" height="28" fill="#1da1f2" opacity="0.01"/>
  <path id="Path_2012" data-name="Path 2012" d="M9.2,3h9.6l2.4,3.667h1.2a3.407,3.407,0,0,1,2.545,1.094A3.632,3.632,0,0,1,26,10.372v10.98a3.533,3.533,0,0,1-1.055,2.583A3.452,3.452,0,0,1,22.4,25H5.6a3.437,3.437,0,0,1-2.545-1.074A3.566,3.566,0,0,1,2,21.333V10.353a3.6,3.6,0,0,1,1.055-2.6A3.422,3.422,0,0,1,5.6,6.667H6.8ZM14,10.333a4.593,4.593,0,0,1,1.863.389,4.852,4.852,0,0,1,1.53,1.042,4.917,4.917,0,0,1,1.023,1.559,4.9,4.9,0,0,1,0,3.8,4.96,4.96,0,0,1-1.023,1.559,4.823,4.823,0,0,1-1.53,1.042,4.655,4.655,0,0,1-3.726,0,4.821,4.821,0,0,1-1.53-1.042,4.959,4.959,0,0,1-1.023-1.559,4.9,4.9,0,0,1,0-3.8,4.916,4.916,0,0,1,1.023-1.559,4.851,4.851,0,0,1,1.53-1.042A4.593,4.593,0,0,1,14,10.333Zm0,2.444a2.291,2.291,0,0,0-1.7.716,2.475,2.475,0,0,0,0,3.456,2.368,2.368,0,0,0,3.394,0,2.475,2.475,0,0,0,0-3.456A2.291,2.291,0,0,0,14,12.778Zm3.563-7.333H10.485l-2.4,3.667H5.6a1.138,1.138,0,0,0-.848.363,1.217,1.217,0,0,0-.352.879v10.98a1.189,1.189,0,0,0,.352.864,1.146,1.146,0,0,0,.848.358H22.4a1.187,1.187,0,0,0,1.2-1.2V10.372a1.241,1.241,0,0,0-.356-.889,1.129,1.129,0,0,0-.844-.373H19.917Z" transform="translate(0 0)" fill="#1da1f2" fill-rule="evenodd"/>
</svg>
