<svg xmlns="http://www.w3.org/2000/svg" width="23.999" height="23.999" viewBox="0 0 23.999 23.999">
  <path id="Path_4791" data-name="Path 4791" d="M9.3,9.324l-.836.836h0L3.935,14.688l-.209.22a6.63,6.63,0,0,0,9.584,9.16l4.53-4.53h0l.843-.843.005-.005,5.376-5.376A6.631,6.631,0,0,0,14.69,3.933L9.313,9.31h0Zm.861,2.533L5.635,16.382a4.23,4.23,0,0,0,5.8,6.155l.181-.17,4.528-4.527ZM22.54,5.816a4.246,4.246,0,0,1-.175,5.8L17.84,16.142,11.857,10.16l4.528-4.527a4.246,4.246,0,0,1,5.985,0ZM15.552,8.28a4.825,4.825,0,0,1,5.231-1.052,1.2,1.2,0,0,1-.906,2.222,2.425,2.425,0,0,0-2.63.529,1.2,1.2,0,0,1-1.7-1.7Z" transform="translate(-2 -2)" fill="#12b2b3" fill-rule="evenodd"/>
</svg>
