<svg xmlns="http://www.w3.org/2000/svg" width="43.667" height="43.667" viewBox="0 0 43.667 43.667">
  <g id="Group_5461" data-name="Group 5461" transform="translate(-343.875 -141.916)">
    <g id="Group_1372" data-name="Group 1372" transform="translate(343.875 141.916)" opacity="0.16">
      <path id="Path_5085" data-name="Path 5085" d="M265.1,104h17.467a13.1,13.1,0,0,1,13.1,13.1v17.467a13.1,13.1,0,0,1-13.1,13.1H265.1a13.1,13.1,0,0,1-13.1-13.1V117.1A13.1,13.1,0,0,1,265.1,104Z" transform="translate(-252 -104)" fill="#12b2b3" fill-rule="evenodd"/>
    </g>
    <path id="Path_5086" data-name="Path 5086" d="M269.248,128.273l-3.2,3.2a3.4,3.4,0,0,1-4.8-4.806l6.4-6.409a3.384,3.384,0,0,1,4.8,0,1.131,1.131,0,0,0,1.6-1.6,5.642,5.642,0,0,0-7.992,0l-6.4,6.409a5.659,5.659,0,1,0,8,8.01l3.2-3.2a1.131,1.131,0,1,0-1.6-1.6Z" transform="translate(94.062 42.656)" fill="#12b2b3"/>
    <path id="Path_5087" data-name="Path 5087" d="M281.013,111.725a5.9,5.9,0,0,0-8.335,0l-4,4a1.178,1.178,0,1,0,1.666,1.666l4-4a3.534,3.534,0,0,1,5,5l-7.333,7.329a3.537,3.537,0,0,1-5,0,1.178,1.178,0,1,0-1.668,1.665,5.9,5.9,0,0,0,8.333,0l7.335-7.328A5.883,5.883,0,0,0,281.013,111.725Z" transform="translate(96.614 40.104)" fill="#12b2b3"/>
  </g>
</svg>
