<svg xmlns="http://www.w3.org/2000/svg" xmlns:xlink="http://www.w3.org/1999/xlink" width="72" height="72" viewBox="0 0 72 72">
  <defs>
    <clipPath id="clip-path">
      <rect id="Rectangle_451" data-name="Rectangle 451" width="30" height="30" transform="translate(41 31)" fill="#fff"/>
    </clipPath>
  </defs>
  <g id="Group_143" data-name="Group 143" transform="translate(-20 -10)">
    <g id="Group_1214" data-name="Group 1214">
      <path id="Path_4323" data-name="Path 4323" d="M41.6,10H70.4A21.6,21.6,0,0,1,92,31.6V60.4A21.6,21.6,0,0,1,70.4,82H41.6A21.6,21.6,0,0,1,20,60.4V31.6A21.6,21.6,0,0,1,41.6,10Z" fill="#1da1f2" fill-rule="evenodd"/>
    </g>
    <g id="Group_1215" data-name="Group 1215" clip-path="url(#clip-path)">
      <path id="Path_4324" data-name="Path 4324" d="M55.786,45.451A7.225,7.225,0,0,0,60.9,33.117,7.225,7.225,0,1,0,50.678,43.334,6.993,6.993,0,0,0,55.786,45.451Z" fill="#fff"/>
      <path id="Path_4325" data-name="Path 4325" d="M68.429,54.069a17.844,17.844,0,0,0-.243-1.9,14.936,14.936,0,0,0-.466-1.906,9.408,9.408,0,0,0-.783-1.778,6.71,6.71,0,0,0-1.181-1.54,5.211,5.211,0,0,0-1.7-1.066,5.866,5.866,0,0,0-2.167-.392,2.2,2.2,0,0,0-1.174.5c-.352.23-.764.5-1.223.789a7.01,7.01,0,0,1-1.583.7,6.146,6.146,0,0,1-3.872,0,6.989,6.989,0,0,1-1.582-.7c-.455-.291-.867-.556-1.224-.789a2.2,2.2,0,0,0-1.174-.5,5.857,5.857,0,0,0-2.166.393,5.2,5.2,0,0,0-1.7,1.066,6.709,6.709,0,0,0-1.181,1.539,9.431,9.431,0,0,0-.783,1.778,14.954,14.954,0,0,0-.466,1.906,17.785,17.785,0,0,0-.243,1.9c-.04.574-.06,1.17-.06,1.772a4.982,4.982,0,0,0,1.479,3.769A5.326,5.326,0,0,0,48.753,61H63.2a5.325,5.325,0,0,0,3.812-1.391,4.979,4.979,0,0,0,1.48-3.769C68.49,55.236,68.469,54.64,68.429,54.069Z" fill="#fff"/>
    </g>
  </g>
</svg>
