<svg xmlns="http://www.w3.org/2000/svg" width="72" height="72" viewBox="0 0 72 72">
  <g id="Group_144" data-name="Group 144" transform="translate(-20 -10)">
    <g id="Group_1216" data-name="Group 1216">
      <path id="Path_4326" data-name="Path 4326" d="M41.6,10H70.4A21.6,21.6,0,0,1,92,31.6V60.4A21.6,21.6,0,0,1,70.4,82H41.6A21.6,21.6,0,0,1,20,60.4V31.6A21.6,21.6,0,0,1,41.6,10Z" fill="#1da1f2" fill-rule="evenodd"/>
    </g>
    <path id="Path_4327" data-name="Path 4327" d="M72.607,36.989a1.343,1.343,0,0,0-1.9,0,2.934,2.934,0,0,1-1.2.7L64.3,32.484a2.918,2.918,0,0,1,.707-1.192,1.343,1.343,0,0,0-1.9-1.9c-1.395,1.395-1.8,3.123-1.879,6.331A1.345,1.345,0,0,0,62.575,37.1H62.7a1.216,1.216,0,0,0,1.216-1.207L66.1,38.08c-.644.012-1.351.015-2.19.008l-2.69-.037C57.9,38,52.945,37.681,49.81,40.816c-2.064,2.065-2.669,5.141-2.795,8.329a1.331,1.331,0,0,0,1.329,1.383h.029A1.329,1.329,0,0,0,49.7,49.243c.021-.617.061-1.218.126-1.8l4.731,4.731a40.106,40.106,0,0,1-4.823.089l-2.686-.038c-5.338-.054-6.922.15-8.657,1.885a1.343,1.343,0,0,0,1.9,1.9,2.909,2.909,0,0,1,1.205-.756l5.2,5.2a3.171,3.171,0,0,1-.712,1.249,1.343,1.343,0,0,0,1.9,1.9c1.435-1.435,1.841-3.741,1.912-6.34A1.331,1.331,0,0,0,48.471,55.9H48.32a1.2,1.2,0,0,0-1.2,1.183L44.95,54.909c.617-.007,1.319,0,2.137,0l2.687.037c3.339.051,8.283.367,11.41-2.76,2.192-2.192,2.726-5.976,2.79-9.073a1.339,1.339,0,1,0-2.678-.071c-.008.561-.036,1.815-.106,2.466L56.5,40.82a40.334,40.334,0,0,1,4.762-.083l2.688.037c4.7.043,6.94-.167,8.659-1.886A1.343,1.343,0,0,0,72.607,36.989ZM60.435,48.556a5.156,5.156,0,0,1-2.843,2.854L50.586,44.4a5.541,5.541,0,0,1,1.123-1.688,5.651,5.651,0,0,1,1.741-1.145Z" fill="#fff"/>
  </g>
</svg>
