<svg xmlns="http://www.w3.org/2000/svg" width="72" height="72" viewBox="0 0 72 72">
  <g id="Group_145" data-name="Group 145" transform="translate(-20 -10)">
    <g id="Group_1217" data-name="Group 1217">
      <path id="Path_4328" data-name="Path 4328" d="M41.6,10H70.4A21.6,21.6,0,0,1,92,31.6V60.4A21.6,21.6,0,0,1,70.4,82H41.6A21.6,21.6,0,0,1,20,60.4V31.6A21.6,21.6,0,0,1,41.6,10Z" fill="#1da1f2" fill-rule="evenodd"/>
    </g>
    <path id="Path_4329" data-name="Path 4329" d="M69.349,42.116h-7.83a1,1,0,0,1-1-1v-.946a4.882,4.882,0,0,1,.871-2.788,5.965,5.965,0,0,0,8.08,0,4.882,4.882,0,0,1,.871,2.788v.946A1,1,0,0,1,69.349,42.116Z" fill="#fff"/>
    <path id="Path_4330" data-name="Path 4330" d="M65.433,36.969a3.985,3.985,0,1,1,3.985-3.985A3.985,3.985,0,0,1,65.433,36.969Z" fill="#fff"/>
    <path id="Path_4331" data-name="Path 4331" d="M41.526,40.174a4.882,4.882,0,0,1,.871-2.788,5.965,5.965,0,0,0,8.08,0,4.882,4.882,0,0,1,.871,2.788v.946a1,1,0,0,1-1,1h-7.83a1,1,0,0,1-1-1Z" fill="#fff"/>
    <path id="Path_4332" data-name="Path 4332" d="M51.549,35.641h-.465a2.642,2.642,0,0,1-1.374-.386,3.979,3.979,0,0,1-6.545,0,2.641,2.641,0,0,1-1.375.387h-.466a1,1,0,0,1,0-1.992h.465a.708.708,0,0,0,.668-.742,3.984,3.984,0,0,1,7.967.078.646.646,0,0,0,0,.072.879.879,0,0,0,.069.229c.211.41.664.363,1.057.363a1,1,0,0,1,0,1.992Z" fill="#fff"/>
    <path id="Path_4333" data-name="Path 4333" d="M58.126,38.43H57V46.4h11.09a1,1,0,0,1,1,1v1.66a1,1,0,1,1-1.992,0v-.664H57v.664a1,1,0,1,1-1.992,0v-.664H44.91v.664a1,1,0,1,1-1.992,0V47.4a1,1,0,0,1,1-1H55V38.43H53.875a1,1,0,0,1,0-1.992h4.25a1,1,0,1,1,0,1.992Z" fill="#fff"/>
    <path id="Path_4334" data-name="Path 4334" d="M68.09,59.5A4.969,4.969,0,0,0,71.8,57.843,4.889,4.889,0,0,1,73,61.059v.946a1,1,0,0,1-1,1h-7.83a1,1,0,0,1-1-1v-.946a4.889,4.889,0,0,1,1.2-3.216A4.969,4.969,0,0,0,68.09,59.5Z" fill="#fff"/>
    <path id="Path_4335" data-name="Path 4335" d="M68.089,57.51a2.988,2.988,0,1,1,2.988-2.989A2.988,2.988,0,0,1,68.089,57.51Z" fill="#fff"/>
    <path id="Path_4336" data-name="Path 4336" d="M40.2,57.843a4.972,4.972,0,0,0,7.414,0,4.889,4.889,0,0,1,1.2,3.216v.946a1,1,0,0,1-1,1H40a1,1,0,0,1-1-1v-.946A4.888,4.888,0,0,1,40.2,57.843Z" fill="#fff"/>
    <path id="Path_4337" data-name="Path 4337" d="M43.911,57.509A2.988,2.988,0,1,1,46.9,54.521,2.988,2.988,0,0,1,43.911,57.509Z" fill="#fff"/>
    <path id="Path_4338" data-name="Path 4338" d="M56,59.5a4.969,4.969,0,0,0,3.707-1.659,4.889,4.889,0,0,1,1.2,3.216v.946a1,1,0,0,1-1,1h-7.83a1,1,0,0,1-1-1v-.946a4.888,4.888,0,0,1,1.2-3.216A4.969,4.969,0,0,0,56,59.5Z" fill="#fff"/>
    <path id="Path_4339" data-name="Path 4339" d="M58.989,54.521A2.988,2.988,0,1,1,56,51.532,2.992,2.992,0,0,1,58.989,54.521Z" fill="#fff"/>
  </g>
</svg>
