<svg xmlns="http://www.w3.org/2000/svg" width="13.969" height="13.969" viewBox="0 0 13.969 13.969">
  <path id="Path_5176" data-name="Path 5176" d="M162.6,311.256a.873.873,0,0,1,.072,1.152l-.072.082-4.62,4.621H168.1a.873.873,0,0,1,.1,1.74l-.1.006H157.981l4.62,4.621a.873.873,0,0,1,.072,1.152l-.072.082a.873.873,0,0,1-1.152.072l-.082-.072-6.111-6.111a.816.816,0,0,1-.085-.1l-.062-.1-.047-.1-.031-.092-.022-.1-.006-.051,0-.079,0-.065.015-.11.026-.1.038-.1.045-.086.056-.08.072-.082,6.111-6.111A.872.872,0,0,1,162.6,311.256Z" transform="translate(-155 -311)" fill="#1da1f2" fill-rule="evenodd"/>
</svg>
