<svg id="Icon" xmlns="http://www.w3.org/2000/svg" width="110" height="110" viewBox="0 0 110 110">
  <rect id="Rectangle_473" data-name="Rectangle 473" width="100" height="100" rx="25" transform="translate(0 10)" fill="#efefef"/>
  <path id="Path_4547" data-name="Path 4547" d="M50,43.81a1.907,1.907,0,1,1,2-1.9A1.954,1.954,0,0,1,50,43.81Z" fill="#ffa873"/>
  <path id="Path_4548" data-name="Path 4548" d="M28,53.333a1.907,1.907,0,1,1,2-1.9A1.954,1.954,0,0,1,28,53.333Z" fill="#ffa873"/>
  <path id="Path_4549" data-name="Path 4549" d="M72,53.333a1.907,1.907,0,1,1,2-1.9A1.954,1.954,0,0,1,72,53.333Z" fill="#ffa873"/>
  <path id="Path_4550" data-name="Path 4550" d="M68.049,72.381H31.95l-3.9-16.73a1.82,1.82,0,0,1,.092-1.112,1.924,1.924,0,0,1,.73-.872,2.083,2.083,0,0,1,2.24-.013l10.115,6.422,6.986-13.308A1.941,1.941,0,0,1,48.949,46a2.085,2.085,0,0,1,2.1,0,1.942,1.942,0,0,1,.737.768l6.986,13.308,10.116-6.422a2.083,2.083,0,0,1,2.24.014,1.924,1.924,0,0,1,.73.872,1.819,1.819,0,0,1,.092,1.112Z" fill="#ffa873"/>
  <path id="Path_4551" data-name="Path 4551" d="M68,74.286V78.1a1.86,1.86,0,0,1-.586,1.347A2.052,2.052,0,0,1,66,80H34a2.052,2.052,0,0,1-1.414-.558A1.86,1.86,0,0,1,32,78.1v-3.81Z" fill="#ffa873"/>
  <path id="Path_4552" data-name="Path 4552" d="M92,1.5A16.5,16.5,0,1,0,108.5,18,16.517,16.517,0,0,0,92,1.5Z" fill="#43d4d4" stroke="#fff" stroke-width="3"/>
  <path id="Path_4553" data-name="Path 4553" d="M99.6,14.821l-8.125,8.125a1.249,1.249,0,0,1-1.767,0l-4.062-4.062a1.25,1.25,0,0,1,1.767-1.767L90.594,20.3l7.241-7.241A1.25,1.25,0,0,1,99.6,14.821Z" fill="#fafafa"/>
</svg>
