<svg xmlns="http://www.w3.org/2000/svg" width="25.398" height="22.222" viewBox="0 0 25.398 22.222">
  <path id="Credit_Card" data-name="Credit Card" d="M25.417,3.071,19.861.69a.8.8,0,0,0-.627,0L13.678,3.071A.792.792,0,0,0,13.2,3.8V6.974c0,4.367,1.614,6.919,5.954,9.419a.8.8,0,0,0,.79,0C24.283,13.9,25.9,11.347,25.9,6.974V3.8A.791.791,0,0,0,25.417,3.071ZM22.55,6.677l-3.175,3.968a.8.8,0,0,1-.621.3h-.033a.8.8,0,0,1-.627-.352L16.507,8.209a.793.793,0,0,1,1.321-.879l.986,1.478,2.5-3.121a.794.794,0,0,1,1.241.99Zm-10.939.3V5.387H2.087A1.59,1.59,0,0,0,.5,6.974v3.175H11.946A14.212,14.212,0,0,1,11.611,6.974Zm9.122,10.8a14.277,14.277,0,0,0,5.1-4.446H25.9V21.26a1.588,1.588,0,0,1-1.587,1.587H2.087A1.589,1.589,0,0,1,.5,21.26V13.323H13.267a14.349,14.349,0,0,0,5.1,4.449,2.384,2.384,0,0,0,2.367,0Zm-16.265.316H7.643a.794.794,0,1,0,0-1.587H4.468a.794.794,0,1,0,0,1.587Z" transform="translate(-0.5 -0.625)" fill="#1da1f2" fill-rule="evenodd"/>
</svg>
