<svg xmlns="http://www.w3.org/2000/svg" width="19.092" height="19.02" viewBox="0 0 19.092 19.02">
  <g id="Group_5465" data-name="Group 5465" transform="translate(-132.282 -103.678)">
    <path id="Path_5135" data-name="Path 5135" d="M116.092,88.748V91.62H97V88.748a1.842,1.842,0,0,1,1.173-1.718l4.026-1.583L105.34,88.9l.986-2.009v0l.22-.45.224.45.986,2.013,3.138-3.453,4.03,1.583A1.848,1.848,0,0,1,116.092,88.748Z" transform="translate(35.282 31.078)" fill="#f2f2f2"/>
    <path id="Path_5136" data-name="Path 5136" d="M107.569,85.448h0V83.813a8.761,8.761,0,0,1-.734.959l-.39.429a1.9,1.9,0,0,1-1.4.617h-.6a1.9,1.9,0,0,1-1.4-.617l-.39-.429a8.534,8.534,0,0,1-.739-.97v1.642l.005,0,2.455,1.384.361.2.363-.2Z" transform="translate(37.076 30.479)" fill="#f8b64c"/>
    <g id="Group_1432" data-name="Group 1432" transform="translate(140.789 114.302)" opacity="0.1">
      <g id="Group_1431" data-name="Group 1431" opacity="0.1">
        <path id="Path_5137" data-name="Path 5137" d="M103.271,85.668l-.007,0-.012,0-.014,0,1.5,1.114,2.355-1.329h0V83.817c0,.006-.559.733-.734.95l-.39.43a1.9,1.9,0,0,1-1.4.616h-.6a1.7,1.7,0,0,1-.355-.038A1.86,1.86,0,0,1,103.271,85.668Z" transform="translate(-103.238 -83.817)" fill="#40596b" opacity="0.1"/>
      </g>
    </g>
    <path id="Path_5138" data-name="Path 5138" d="M102.428,81.693c.063.714-.284,1.328-.773,1.37s-.938-.5-1-1.215.285-1.327.775-1.37S102.367,80.978,102.428,81.693Z" transform="translate(36.609 29.27)" fill="#f8b64c"/>
    <path id="Path_5139" data-name="Path 5139" d="M107.826,81.848c-.063.714-.511,1.258-1,1.215s-.836-.656-.773-1.37.51-1.259,1-1.216S107.889,81.133,107.826,81.848Z" transform="translate(38.572 29.27)" fill="#f8b64c"/>
    <path id="Path_5140" data-name="Path 5140" d="M109.159,83.05a7.811,7.811,0,0,1-1.973,4.287l-.39.43a1.9,1.9,0,0,1-1.4.617h-.6a1.9,1.9,0,0,1-1.4-.617l-.39-.43a7.828,7.828,0,0,1-1.972-4.287,15.347,15.347,0,0,1,0-2.864,4.113,4.113,0,0,1,8.114,0A15.594,15.594,0,0,1,109.159,83.05Z" transform="translate(36.729 27.914)" fill="#ffd15c"/>
    <path id="Path_5141" data-name="Path 5141" d="M102.195,78.018s.027-2.678,3.921-1.823a6.737,6.737,0,0,1,3.175,2.4s1.166,1.694.532,3.118a3.428,3.428,0,0,0-.4,1.417s-.217-.9-.345-1.655a3.524,3.524,0,0,0-.8-1.7l-.012-.015a2.727,2.727,0,0,0-2.727-.889,4.892,4.892,0,0,0-1.615.788,1.558,1.558,0,0,0-2.423.817,10.246,10.246,0,0,0-.307,2.493S98.964,78.294,102.195,78.018Z" transform="translate(36.535 27.651)" fill="#40596b"/>
    <path id="Path_5142" data-name="Path 5142" d="M108.615,86.789a3.344,3.344,0,0,0-.15-.938,1.428,1.428,0,0,0-1.066-.776l-1.281-.259v.263h0l-.184.1,1.4.286a1.018,1.018,0,0,1,.772.56,1,1,0,0,1,.108.613l-.008.1a7.464,7.464,0,0,0-2.179,2.836,1.017,1.017,0,0,0,.02.891.614.614,0,0,0,.44.275l.04-.4a.227.227,0,0,1-.15-.1.689.689,0,0,1,.027-.537,5.919,5.919,0,0,1,.955-1.532.853.853,0,0,1,1.126.334,6.071,6.071,0,0,1-.1,1.83c-.076.247-.18.41-.295.453a.2.2,0,0,1-.176-.008l-.1.175-.1.172a.6.6,0,0,0,.3.08.545.545,0,0,0,.215-.044,1.016,1.016,0,0,0,.54-.712A7.873,7.873,0,0,0,108.615,86.789Zm-.528,1.03a1.162,1.162,0,0,0-.367-.047c.172-.187.361-.378.577-.572.06.278.1.545.135.8A1.174,1.174,0,0,0,108.087,87.82Z" transform="translate(38.53 30.849)" fill="#acb3ba"/>
    <path id="Path_5143" data-name="Path 5143" d="M106.709,89.164a.3.3,0,0,1-.348.233c-.16-.031-.045-.611.115-.579A.3.3,0,0,1,106.709,89.164Z" transform="translate(38.659 32.303)" fill="#f8b64c"/>
    <path id="Path_5144" data-name="Path 5144" d="M107.076,89.263a.294.294,0,0,0,.145.391c.149.068.394-.468.247-.537A.3.3,0,0,0,107.076,89.263Z" transform="translate(38.937 32.403)" fill="#f8b64c"/>
    <path id="Path_5145" data-name="Path 5145" d="M102.824,85.079l-.007,0v-.259l-.859.177a3.086,3.086,0,0,0-2.2,4.264l.364-.16a2.687,2.687,0,0,1,1.919-3.714l.972-.2Z" transform="translate(36.188 30.849)" fill="#acb3ba"/>
    <path id="Path_5146" data-name="Path 5146" d="M108.348,85.607l-2.935,3.85L104,86.6l.361-.2,2.455-1.384h0l0,0Z" transform="translate(37.828 30.917)" fill="#cdd6e0"/>
    <path id="Path_5147" data-name="Path 5147" d="M100.812,85.607l2.94,3.85,1.407-2.86-.361-.2-2.455-1.384-.008,0Z" transform="translate(36.669 30.917)" fill="#cdd6e0"/>
    <path id="Path_5148" data-name="Path 5148" d="M102.968,91.356l.8-1.83-.346-.509-.254-.382.985-2.012.22-.45.224.45v0l.986,2.008-.259.378-.346.513.809,1.83Z" transform="translate(37.453 31.342)" fill="#334a5e"/>
    <path id="Path_5149" data-name="Path 5149" d="M105.531,88.635l-.259.378-.946-1.937-.955,1.941-.255-.382.986-2.012.22-.45.224.45v0Z" transform="translate(37.507 31.342)" fill="#2a4356"/>
    <path id="Path_5150" data-name="Path 5150" d="M101.174,88.77a.9.9,0,1,1-.9-.9A.9.9,0,0,1,101.174,88.77Z" transform="translate(36.145 31.959)" fill="#ff7058"/>
    <path id="Path_5151" data-name="Path 5151" d="M100.8,88.692a.605.605,0,1,1-.6-.6A.6.6,0,0,1,100.8,88.692Z" transform="translate(36.224 32.038)" fill="#f2f2f2"/>
    <path id="Path_5152" data-name="Path 5152" d="M100.57,88.643a.424.424,0,1,1-.423-.424A.423.423,0,0,1,100.57,88.643Z" transform="translate(36.273 32.086)" fill="#acb3ba"/>
  </g>
</svg>
