<svg id="Group_124" data-name="Group 124" xmlns="http://www.w3.org/2000/svg" width="60.085" height="51.13" viewBox="0 0 60.085 51.13">
  <path id="Path_4965" data-name="Path 4965" d="M7.929,36.194H4.616a.963.963,0,0,1-.963-.963V29.746H8.892v5.485A.963.963,0,0,1,7.929,36.194Z" transform="translate(1.834 14.936)" fill="#5d6d7d"/>
  <path id="Path_4966" data-name="Path 4966" d="M37.135,36.194H33.822a.963.963,0,0,1-.963-.963V29.746H38.1v5.485A.963.963,0,0,1,37.135,36.194Z" transform="translate(16.5 14.936)" fill="#5d6d7d"/>
  <path id="Path_4967" data-name="Path 4967" d="M58.351,47.05H1.734A1.734,1.734,0,0,1,0,45.317V1.734A1.734,1.734,0,0,1,1.734,0H58.351a1.734,1.734,0,0,1,1.734,1.734V45.317A1.734,1.734,0,0,1,58.351,47.05Z" fill="#e1effb"/>
  <path id="Path_4968" data-name="Path 4968" d="M40.233,0h-4.15V47.05h4.15a1.734,1.734,0,0,0,1.734-1.734V1.734A1.734,1.734,0,0,0,40.233,0Z" transform="translate(18.118)" fill="#baced8"/>
  <path id="Path_4969" data-name="Path 4969" d="M2.7,35.8V3.194A.494.494,0,0,1,3.194,2.7H54.18a.494.494,0,0,1,.494.494V35.8a.494.494,0,0,1-.494.494H3.194A.494.494,0,0,1,2.7,35.8Z" transform="translate(1.356 1.356)" fill="#24d9de"/>
  <path id="Path_4970" data-name="Path 4970" d="M38.793,2.7h-5.45V36.3h5.45a.494.494,0,0,0,.494-.494V3.194A.494.494,0,0,0,38.793,2.7Z" transform="translate(16.743 1.356)" fill="#11b9c1"/>
  <path id="Path_4971" data-name="Path 4971" d="M35.649,5.433A2.656,2.656,0,0,0,32.81,6.442a2.656,2.656,0,0,0-2.839-1.009c-2.146.646-2.133,3.989,1.48,6.346.427.278,1.1.664,1.323.791h.071c.221-.127.9-.512,1.323-.791C37.782,9.422,37.8,6.079,35.649,5.433Z" transform="translate(14.318 2.671)" fill="#f9644b"/>
  <path id="Path_4972" data-name="Path 4972" d="M35.961,30.668a1.831,1.831,0,1,0-1.831-1.831A1.831,1.831,0,0,0,35.961,30.668Z" transform="translate(17.138 13.56)" fill="#ffb123"/>
  <path id="Path_4973" data-name="Path 4973" d="M33.9,22.083a1.317,1.317,0,0,1-.933-.388l-4.1-4.1H24.606a1.314,1.314,0,0,1-.93-.383l-3.439-3.408v6.943a1.322,1.322,0,0,1-2.256.934l-4.2-4.2H7.1a.907.907,0,1,1,0-1.813h6.88a1.313,1.313,0,0,1,.934.387l3.5,3.5V12.627a1.322,1.322,0,0,1,2.252-.939l4.134,4.1h4.263a1.313,1.313,0,0,1,.934.387l3.4,3.4V12.579a1.322,1.322,0,0,1,2.218-.971l4.526,4.182h6.605a.907.907,0,1,1,0,1.813h-6.8a1.317,1.317,0,0,1-.9-.351L35.221,13.7v7.057A1.324,1.324,0,0,1,33.9,22.083Z" transform="translate(3.112 5.653)" fill="#fff"/>
  <path id="Path_4974" data-name="Path 4974" d="M35.788,29.433H13.14a.907.907,0,0,1,0-1.813H35.788a.907.907,0,1,1,0,1.813Z" transform="translate(6.143 13.869)" fill="#2c5871"/>
</svg>
