<svg xmlns="http://www.w3.org/2000/svg" width="206.66" height="206.66" viewBox="0 0 206.66 206.66">
  <g id="surface1" transform="translate(-77.723 -71.137)">
    <path id="Path_11" data-name="Path 11" d="M270.945,277.8H91.16a13.463,13.463,0,0,1-13.437-13.442V84.574A13.459,13.459,0,0,1,91.16,71.137H270.945a13.459,13.459,0,0,1,13.438,13.438V264.355A13.463,13.463,0,0,1,270.945,277.8Zm0,0" fill="#127ddd"/>
    <g id="Group_17" data-name="Group 17">
      <g id="Group_16" data-name="Group 16" transform="translate(185.078 190.476)">
        <path id="Path_12" data-name="Path 12" d="M7.02.234a6.24,6.24,0,0,0,6.312-6.293A6.282,6.282,0,0,0,7.02-12.4,6.282,6.282,0,0,0,.7-6.059,6.24,6.24,0,0,0,7.02.234Zm0-2.246A3.871,3.871,0,0,1,3.156-6.059,3.884,3.884,0,0,1,7.02-10.152a3.883,3.883,0,0,1,3.859,4.094A3.87,3.87,0,0,1,7.02-2.012Zm0,0" fill="#fff"/>
      </g>
    </g>
    <g id="Group_19" data-name="Group 19">
      <g id="Group_18" data-name="Group 18" transform="translate(199.113 190.476)">
        <path id="Path_13" data-name="Path 13" d="M8.188-12.352a4.452,4.452,0,0,0-4.375,3.3v-3.109H1.285V0H3.813V-5.73A4.448,4.448,0,0,1,8.258-9.941a3.32,3.32,0,0,1,.656.047V-12.3A3.665,3.665,0,0,0,8.188-12.352Zm0,0" fill="#fff"/>
      </g>
    </g>
    <g id="Group_21" data-name="Group 21">
      <g id="Group_20" data-name="Group 20" transform="translate(208.726 190.476)">
        <path id="Path_14" data-name="Path 14" d="M10.926-16.539v6.363h-.141A4.516,4.516,0,0,0,6.738-12.4,6.055,6.055,0,0,0,.7-6.082,6.055,6.055,0,0,0,6.738.234a4.516,4.516,0,0,0,4.047-2.223h.141V0h2.523V-16.539ZM7.066-2.012a3.861,3.861,0,0,1-3.91-4.07,3.861,3.861,0,0,1,3.91-4.07A3.877,3.877,0,0,1,11-6.082,3.878,3.878,0,0,1,7.066-2.012Zm0,0" fill="#fff"/>
      </g>
    </g>
    <g id="Group_23" data-name="Group 23">
      <g id="Group_22" data-name="Group 22" transform="translate(223.462 190.476)">
        <path id="Path_15" data-name="Path 15" d="M6.738.234a4.516,4.516,0,0,0,4.047-2.223h.141V0h2.523V-12.164H10.926v1.988h-.141A4.516,4.516,0,0,0,6.738-12.4,6.055,6.055,0,0,0,.7-6.082,6.055,6.055,0,0,0,6.738.234Zm.328-2.246a3.861,3.861,0,0,1-3.91-4.07,3.861,3.861,0,0,1,3.91-4.07A3.877,3.877,0,0,1,11-6.082,3.878,3.878,0,0,1,7.066-2.012Zm0,0" fill="#fff"/>
      </g>
    </g>
    <g id="Group_25" data-name="Group 25">
      <g id="Group_24" data-name="Group 24" transform="translate(238.199 190.476)">
        <path id="Path_16" data-name="Path 16" d="M7.367-10.059v-2.105H4.8v-3.109H2.27v3.109H.586v2.105H2.27v7.367C2.27-.469,3.555.141,5.262.141A4.675,4.675,0,0,0,7.367-.3V-2.387a4.035,4.035,0,0,1-1.426.281C5.031-2.105,4.8-2.6,4.8-3.25v-6.809Zm0,0" fill="#fff"/>
      </g>
    </g>
    <g id="Group_27" data-name="Group 27">
      <g id="Group_26" data-name="Group 26" transform="translate(246.385 190.476)">
        <path id="Path_17" data-name="Path 17" d="M7.02.234a6.24,6.24,0,0,0,6.312-6.293A6.282,6.282,0,0,0,7.02-12.4,6.282,6.282,0,0,0,.7-6.059,6.24,6.24,0,0,0,7.02.234Zm0-2.246A3.871,3.871,0,0,1,3.156-6.059,3.884,3.884,0,0,1,7.02-10.152a3.883,3.883,0,0,1,3.859,4.094A3.87,3.87,0,0,1,7.02-2.012Zm0,0" fill="#fff"/>
      </g>
    </g>
    <g id="Group_29" data-name="Group 29">
      <g id="Group_28" data-name="Group 28" transform="translate(105.399 257.128)">
        <path id="Path_18" data-name="Path 18" d="M90.406,2.2c20.9,0,38.938-6.379,52.793-18.7L122.082-41.355a48.861,48.861,0,0,1-29.477,10.34c-27.055,0-45.75-19.359-45.75-45.973s18.7-45.977,45.75-45.977a51.766,51.766,0,0,1,28.379,9.02l21.336-23.977C128.9-149.578,111.086-156.18,90.406-156.18,46.855-156.18,9.9-123.844,9.9-76.988S46.855,2.2,90.406,2.2Zm0,0" fill="#fff"/>
      </g>
    </g>
  </g>
</svg>
