<svg xmlns="http://www.w3.org/2000/svg" width="214.844" height="421.327" viewBox="0 0 214.854 421.328">
  <g id="female_body_back" data-name="female body back" transform="translate(5623.519 -18011)">
    <g id="female_body_back-2" data-name="female body back" transform="translate(-5623.512 18011)">
      <g data-type="innerShadowGroup">
        <path id="Head Back" d="M-6739.89,18046.281c-3.371-6.295-2.866-9.49-2.866-9.49l1.412-14.549s2.319-8.389,3.752-10.463,3.383-7.311,7.978-10.064c4.721-2.332,5.564-3.814,12.14-2.205,2.867-.678,5.691-2.16,12.688,2.754s10.119,15.664,10.119,15.664l1.5,9.523.854,11.1s-.631,4.85-1.984,6.426-6.365,6.99-7.292,7.287-4.637,1.783-4.637,1.783-7.2,4.621-19.312,1.469S-6736.519,18052.574-6739.89,18046.281Z" transform="translate(6825.085 -17998.762)" fill="#6eb1ce" opacity="0"/>
        <path id="Back Head" data-name="Head" d="M-6739.89,18046.281c-3.371-6.295-2.866-9.49-2.866-9.49l1.412-14.549s2.319-8.389,3.752-10.463,3.383-7.311,7.978-10.064c4.721-2.332,5.564-3.814,12.14-2.205,2.867-.678,5.691-2.16,12.688,2.754s10.119,15.664,10.119,15.664l1.5,9.523.854,11.1s-.631,4.85-1.984,6.426-6.365,6.99-7.292,7.287-4.637,1.783-4.637,1.783-7.2,4.621-19.312,1.469S-6736.519,18052.574-6739.89,18046.281Z" transform="translate(6825.085 -17998.762)" fill="#fff" opacity="0"/>
      </g>
      <path id="Neck" d="M-6729.631,18109.43c-.071,1.287-14.949,7.889-15.875,8.389s13.952,6.217,21.5,6.574,29.38-2.6,33.583-6.4a69.974,69.974,0,0,1-7.082-3.771c-2.28-1.5-9.048-2.576-9.974-4.795S-6710.86,18112.83-6729.631,18109.43Z" transform="translate(6825.823 -18052.145)" fill="#6eb1ce" opacity="0"/>
      <path id="Upper Back" data-name="upper back" d="M-7228.041,14287.6c-.112-6.8-.372-24.6,6.9-31.931-.208-.261,15.939,9.423,51.087,0-.155,0,11.059,8.376,8.567,31.931s-4.569,22.508-4.569,22.508h-59.81S-7227.929,14294.4-7228.041,14287.6Z" transform="translate(7302.898 -14186.776)" fill="#6eb1ce" opacity="0"/>
      <path id="Left Shoulder" data-name="left shoulder" d="M-7243,14300.218c-10.493-4.083-17.263-7.146-18.278-14.291s4.063-25.178,11.17-27.219,10.155-6.125,15.57-3.4C-7233.864,14255.306-7247.065,14266.873-7243,14300.218Z" transform="translate(7316.819 -14188.277)" fill="#6eb1ce" opacity="0"/>
      <path id="Right Shoulder" data-name="right shoulder" d="M-7252.923,14300.218c10.493-4.084,17.263-7.146,18.278-14.291s-4.062-25.178-11.17-27.219-10.154-6.125-15.57-3.4C-7262.062,14255.306-7248.862,14266.873-7252.923,14300.218Z" transform="translate(7394.729 -14188.277)" fill="#6eb1ce" opacity="0"/>
      <path id="Back" d="M-7228.019,14353.232l4.183,11.967s13.6,9.755,9.342,25.862c.119.155,35.361,0,35.361,0s-1.124-21.527,9.994-25.708c.236-.465,2.641-12.121,2.641-12.121Z" transform="translate(7304.441 -14229.896)" fill="#6eb1ce" opacity="0"/>
      <path id="Lower Back" data-name="lower back" d="M-7237.413,14439.31s39.269-10.43,76.5,0a47,47,0,0,0-3.052-7.14c-2.265,0-16.234-4.035-17.2-10.7-.647-.162-36.237,0-36.237,0s-10.28,9.728-16.144,10.7C-7233.75,14432.17-7237.413,14439.31-7237.413,14439.31Z" transform="translate(7307.261 -14260.16)" fill="#6eb1ce" opacity="0"/>
      <path id="Right Flank" data-name="right flank" d="M-5479.2,18257.2c-.285,4.369-3.134,20.908,6.839,35.3.569.432-14.534-4.512-16.528-12.744S-5484.189,18258.484-5479.2,18257.2Z" transform="translate(5613.699 -18121.08)" fill="#6eb1ce" opacity="0"/>
      <path id="Left Flank" data-name="left flank" d="M-5482.4,18257.2c.285,4.369,3.135,20.908-6.839,35.3-.57.432,14.533-4.512,16.528-12.744S-5477.411,18258.484-5482.4,18257.2Z" transform="translate(5563.098 -18121.08)" fill="#6eb1ce" opacity="0"/>
      <path id="Tail Bone" data-name="tail bone" d="M-7178.831,14447.944s7.252,3.646,9.57,9.216c3.072-2.684,8.159-6.886,12.842-7.343.051.153-3.273-4.808-11.785-4.252S-7178.831,14447.944-7178.831,14447.944Z" transform="translate(7276.825 -14271.041)" fill="#6eb1ce" opacity="0"/>
      <path id="Buttocks" d="M5.99,45.335h0c-3.067,0-5.045-.377-5.722-1.09A.9.9,0,0,1,0,43.567C13.834,26.665,17.317,15.614,13.31,1.336A36.037,36.037,0,0,1,22.575,0a22.731,22.731,0,0,1,7.3,1.134,19.2,19.2,0,0,1,5.276,2.76,26.878,26.878,0,0,1,6,6.545c.831,1.184,1.38,1.967,1.829,2.03,1.185-2.314,3.5-4.333,6.882-6A44.23,44.23,0,0,1,59.935,3.157,83.836,83.836,0,0,1,73,1.453a28.1,28.1,0,0,0-.866,3.836A42.471,42.471,0,0,0,71.7,15.1a40.905,40.905,0,0,0,13.42,27.353,66.779,66.779,0,0,1-15.277,1.894c-13.879,0-21.529-5.2-24.043-6.908-.334-.227-.576-.391-.724-.469-.826-.432-1.352-2.885-1.648-4.867-.316-2.116-.444-4.148-.449-4.236,0,0,0,.013,0,.026-.093.591-.356,2.151-.771,3.858-.456,1.875-1.2,4.3-2.127,5.218a17.71,17.71,0,0,1-5.815,3.149,73.675,73.675,0,0,1-9.154,2.671A93.946,93.946,0,0,1,5.99,45.335ZM42.588,18.3a4.147,4.147,0,1,0,4.125,4.147A4.14,4.14,0,0,0,42.588,18.3Z" transform="translate(64.947 176.593)" fill="#6eb1ce" opacity="0"/>
      <ellipse id="rectom" cx="4.4" cy="4.423" rx="4.4" ry="4.423" transform="translate(103.135 194.617)" fill="#6eb1ce" opacity="0"/>
      <path id="Left Hip" data-name="left hip" d="M-5505.763,18373.639c.482,1.332,13.123-13.07,14.207-23.6a55.114,55.114,0,0,0-.964-18.154l-8.186,1.816S-5507.929,18364.078-5505.763,18373.639Z" transform="translate(5570.709 -18154.473)" fill="#6eb1ce" opacity="0"/>
      <path id="Right Hip" data-name="right hip" d="M-5491.646,18373.639c-.48,1.332-13.122-13.07-14.206-23.6a55.107,55.107,0,0,1,.963-18.154l8.187,1.816S-5489.479,18364.078-5491.646,18373.639Z" transform="translate(5642.889 -18154.473)" fill="#6eb1ce" opacity="0"/>
      <path id="Right Hamstring" data-name="right hamstring" d="M-6735.44,18336.311a109.614,109.614,0,0,1-1.273,33.512c.12,4.115-5.288,21.9-10.464,34.613-.723,4.115-21.707-.883-21.959-3.551s-.736-30.748-1.361-37.514-3.287-30.992-3.287-30.992A51.945,51.945,0,0,0-6735.44,18336.311Z" transform="translate(6884.168 -18116.66)" fill="#6eb1ce" opacity="0"/>
      <path id="Left Hamstring" data-name="left hamstring" d="M-6773.066,18336.311a109.6,109.6,0,0,0,1.273,33.512c-.12,4.115,5.288,21.9,10.465,34.613.723,4.115,21.707-.883,21.959-3.551s.736-30.748,1.361-37.514,3.287-30.992,3.287-30.992A51.945,51.945,0,0,1-6773.066,18336.311Z" transform="translate(6838.733 -18116.66)" fill="#6eb1ce" opacity="0"/>
      <path id="Right Back of knee" data-name="right back of knee" d="M-5416.29,18525.168s12.41,6.795,21.671,5.025c.741-.092-.185,20.947,2.037,26.254.278.279-18.152.279-19.078-2.607s-3.7-10.8-4.63-12.1S-5416.29,18525.168-5416.29,18525.168Z" transform="translate(5530.451 -18240.889)" fill="#6eb1ce" opacity="0"/>
      <path id="Left Back of knee" data-name="left back of knee" d="M-5392.989,18525.168s-12.41,6.795-21.672,5.025c-.74-.092.186,20.947-2.037,26.254-.278.279,18.152.279,19.078-2.607s3.705-10.8,4.631-12.1S-5392.989,18525.168-5392.989,18525.168Z" transform="translate(5493.599 -18240.889)" fill="#6eb1ce" opacity="0"/>
      <path id="Left Calf" data-name="left calf" d="M-5485.882,18579.85c2.846-.25,19.28-.25,19.907-2.453s.626,20.139,1.409,23.912,2.035,13.217,0,18.881a22.43,22.43,0,0,0-1.409,9.914s-16.277,1.416-17.53,0-4.7-15.1-5.008-16.678S-5486.85,18584.189-5485.882,18579.85Z" transform="translate(5562.779 -18264.174)" fill="#6eb1ce" opacity="0"/>
      <path id="Right Calf" data-name="rght calf" d="M-5466.127,18579.85c-2.846-.25-19.28-.25-19.906-2.453s-.626,20.139-1.409,23.912-2.034,13.217,0,18.881a22.438,22.438,0,0,1,1.409,9.914s16.278,1.416,17.53,0,4.7-15.1,5.008-16.678S-5465.159,18584.189-5466.127,18579.85Z" transform="translate(5603.946 -18264.174)" fill="#6eb1ce" opacity="0"/>
      <path id="Left Ankle" data-name="left ankle" d="M-5479.38,18672.457s16.9-.785,18.312-1.887c-.313,3.145-2.191,25.8-.783,27.371s.313,3.938,1.878,8.027,0,3.934,0,3.934l-14.086-1.1s1.1-9.281,0-12.746S-5479.38,18672.457-5479.38,18672.457Z" transform="translate(5558.655 -18305.902)" fill="#6eb1ce" opacity="0"/>
      <path id="Right Ankle" data-name="right ankle" d="M-5459.277,18672.457s-16.9-.785-18.312-1.887c.313,3.145,2.192,25.8.783,27.371s-.313,3.938-1.878,8.027,0,3.934,0,3.934l14.087-1.1s-1.1-9.281,0-12.746S-5459.277,18672.457-5459.277,18672.457Z" transform="translate(5595.14 -18305.902)" fill="#6eb1ce" opacity="0"/>
      <path id="Left Foot" data-name="left foot" d="M-5473.52,18738.975s-3.251,5.688-5.3,6.293,0,7.625,0,7.625l9.632,4.719s7.223,1.092,7.344-1.812,1.686-7.627,1.806-8.594,0-6.658,0-6.658Z" transform="translate(5558.812 -18336.484)" fill="#6eb1ce" opacity="0"/>
      <path id="Right Foot" data-name="right foot" d="M-5466.188,18738.975s3.25,5.688,5.3,6.293,0,7.625,0,7.625l-9.631,4.719s-7.224,1.092-7.344-1.812-1.686-7.627-1.806-8.594,0-6.658,0-6.658Z" transform="translate(5596.212 -18336.484)" fill="#6eb1ce" opacity="0"/>
      <path id="Left Toe" data-name="left toe" d="M-5484.992,18751.836a57.216,57.216,0,0,0,.549,6.186c.295.807-6.955-3.092-6.955-3.092s-.3-2.5.969-2.713S-5484.992,18751.836-5484.992,18751.836Z" transform="translate(5564.078 -18342.236)" fill="#6eb1ce" opacity="0"/>
      <path id="Right Toe" data-name="right toe" d="M-5490.869,18751.836a57.233,57.233,0,0,1-.55,6.186c-.294.807,6.956-3.092,6.956-3.092s.3-2.5-.969-2.713S-5490.869,18751.836-5490.869,18751.836Z" transform="translate(5626.741 -18342.236)" fill="#6eb1ce" opacity="0"/>
      <path id="Left Upper Arm" data-name="left upper arm" d="M-5528.73,18187.754c-.081-1.258,1.328,10.7,17.292,13.217.626.314-8.608,21.713-8.922,24.543s-15.651-5.35-15.651-5.35,3.6-16.992,4.382-19.193S-5528.649,18189.014-5528.73,18187.754Z" transform="translate(5584.139 -18089.988)" fill="#6eb1ce" opacity="0"/>
      <path id="Right Upper Arm" data-name="right upper arm" d="M-5518.689,18187.754c.082-1.258-1.327,10.7-17.292,13.217-.626.314,8.607,21.713,8.921,24.543s15.651-5.35,15.651-5.35-3.6-16.992-4.382-19.193S-5518.77,18189.014-5518.689,18187.754Z" transform="translate(5678.331 -18089.988)" fill="#6eb1ce" opacity="0"/>
      <path id="Left Elbow" data-name="left elbow" d="M-5541.709,18246.875s-.7,9.912-6.965,15.262c.156.156,15.182,9.756,15.182,9.756s2.661-7.24,3.913-8.027.783-3.459.783-5.033,2.661-3.617,2.661-3.617v-2.676Z" transform="translate(5589.836 -18116.463)" fill="#6eb1ce" opacity="0"/>
      <path id="Right Elbow" data-name="right elbow" d="M-5533.1,18246.875s.7,9.912,6.965,15.262c-.157.156-15.182,9.756-15.182,9.756s-2.661-7.24-3.913-8.027-.782-3.459-.782-5.033-2.661-3.617-2.661-3.617v-2.676Z" transform="translate(5700.322 -18116.463)" fill="#6eb1ce" opacity="0"/>
      <path id="Right Forearm" data-name="right forearm" d="M-6829.619,18265.648c-.567-.187-17.7,4.723-17.7,4.723s3.01,5.809,3.611,6.777,7.706,16.58,12.04,22.025,3.712,5.717,3.712,5.717l13.742-4.32a25.409,25.409,0,0,0-1.9-3.984c-.716-.934-4.167-10.975-4.723-13.02A58.128,58.128,0,0,0-6829.619,18265.648Z" transform="translate(7004.949 -18118.021)" fill="#6eb1ce" opacity="0"/>
      <path id="Left Forearm" data-name="left forearm" d="M-6831.909,18265.648c.567-.187,17.7,4.723,17.7,4.723s-3.011,5.809-3.612,6.777-7.706,16.58-12.04,22.025-3.712,5.717-3.712,5.717l-13.741-4.32a25.4,25.4,0,0,1,1.9-3.984c.717-.934,4.167-10.975,4.723-13.02A58.141,58.141,0,0,1-6831.909,18265.648Z" transform="translate(6872.476 -18118.574)" fill="#6eb1ce" opacity="0"/>
      <path id="Right Wrist" data-name="right wrist" d="M-6846.875,18328.785s1.714,6.424,2.177,8.285a39.313,39.313,0,0,1,3.148,4.377l1.946,1.211-12.781,5.119a2.86,2.86,0,0,0-.647-3.072c-1.39-1.3-7.5-11.355-7.5-11.355Z" transform="translate(7038.067 -18146.523)" fill="#6eb1ce" opacity="0"/>
      <path id="Left Wrist" data-name="left wrist" d="M-6853.264,18328.785s-1.714,6.424-2.178,8.285a39.346,39.346,0,0,0-3.148,4.377l-1.945,1.211,12.78,5.121a2.862,2.862,0,0,1,.648-3.074c1.389-1.3,7.5-11.355,7.5-11.355Z" transform="translate(6878.011 -18147.078)" fill="#6eb1ce" opacity="0"/>
      <path id="Left Hand" data-name="left hand" d="M-6865.616,18353.957c2.137-.357,13.179,5.443,13.179,5.443a28.69,28.69,0,0,1-1.5,15.039,17.426,17.426,0,0,0-1.14,2.506l-15.958-3.652S-6871.1,18355.605-6865.616,18353.957Z" transform="translate(6879.977 -18159.324)" fill="#6eb1ce" opacity="0"/>
      <path id="Right Hand" data-name="right hand" d="M-6857.449,18353.957c-2.138-.357-13.179,5.443-13.179,5.443a28.681,28.681,0,0,0,1.5,15.039,17.349,17.349,0,0,1,1.14,2.506l15.958-3.652S-6851.964,18355.605-6857.449,18353.957Z" transform="translate(7058.183 -18159.324)" fill="#6eb1ce" opacity="0"/>
      <path id="Right Fingers" data-name="right fingers" d="M12.72,0a21.69,21.69,0,0,1,6.573,7.632,55.95,55.95,0,0,0,3.61,6.33s2.168,1.344,1.8,2.387-.749,1.678-1.8,1.486a4.787,4.787,0,0,1-3.069-1.794c-.94-1.176-3.3-4.454-3.3-4.454l.519,7.647L18.31,33.939s.257,3.936-.747,4.425A1.293,1.293,0,0,1,16,38.231s.177,1.513-.665,2.107a1.735,1.735,0,0,1-2.185.134c-.443-.445-1.136-1.29-1.136-1.29s-.37,1.409-1.594.743a4.529,4.529,0,0,1-1.785-2L6.716,32.388s-.528,1.215-1.425.463A9.256,9.256,0,0,1,3.1,29.342c-.379-1.1-2.232-7.034-2.232-7.034l-.874-2.224s14.163,2.242,14.038-3.436S12.72,0,12.72,0Z" transform="translate(187.998 195.92) rotate(-3)" fill="#6eb1ce" opacity="0"/>
      <path id="Left Fingers" data-name="left fingers" d="M12.731,40.8A21.7,21.7,0,0,0,19.3,33.171a55.985,55.985,0,0,1,3.61-6.329s2.168-1.345,1.8-2.387-.749-1.678-1.8-1.485a4.786,4.786,0,0,0-3.069,1.793c-.94,1.176-3.3,4.455-3.3,4.455l.519-7.647L18.321,6.861s.257-3.936-.747-4.425a1.292,1.292,0,0,0-1.564.133s.177-1.513-.665-2.107A1.736,1.736,0,0,0,13.16.327c-.442.445-1.136,1.29-1.136,1.29S11.655.208,10.43.875a4.528,4.528,0,0,0-1.785,2L6.727,8.412S6.2,7.2,5.3,7.949a9.251,9.251,0,0,0-2.19,3.509c-.379,1.1-2.233,7.034-2.233,7.034L.006,20.716s14.163-2.242,14.038,3.436S12.731,40.8,12.731,40.8Z" transform="translate(24.718 236.665) rotate(-177)" fill="#6eb1ce" opacity="0"/>
    </g>
  </g>
</svg>
