<svg xmlns="http://www.w3.org/2000/svg" width="214.844" height="421.327" viewBox="0 0 214.85 421.326">
  <g id="Female_body_front" data-name="Female body front" transform="translate(6026.685 -18011.303)">
    <g id="Female_body_front-2" data-name="Female body front" transform="translate(-6026.685 18011.303)">
      <path id="Left Eye" data-name="Left Eye" d="M-6725.261,18045.725s.7-2.84,5.1-2.84,7.764.426,7.9,1.4a10.536,10.536,0,0,1-.306,3.816c-.305.59-2.224,1.311-3.62,1.441s-5.8-.553-7.328-1.441A3.6,3.6,0,0,1-6725.261,18045.725Z" transform="translate(6816.428 -18018.416)" fill="#6eb1ce" opacity="0"/>
      <path id="Right Eye" data-name="Riight Eye" d="M-6712.213,18045.725s-.7-2.84-5.1-2.84-7.764.426-7.895,1.4a10.547,10.547,0,0,0,.305,3.816c.305.59,2.224,1.311,3.621,1.441s5.8-.553,7.328-1.441A3.6,3.6,0,0,0-6712.213,18045.725Z" transform="translate(6835.78 -18018.416)" fill="#6eb1ce" opacity="0"/>
      <path id="Forehead" d="M-6725.383,18032.961c-1.062-.287,3.288-4.443,7.268-5.229a32.814,32.814,0,0,0,7.3-2.437l1.769-1.578s1.254,2.293,3.244,2.293,11.573,3.654,12.605,6.16-3.1,0-3.1,0-7-1-8.993-.717-10.1.074-12.238,0S-6724.322,18033.246-6725.383,18032.961Z" transform="translate(6816.551 -18009.85)" fill="#6eb1ce" opacity="0"/>
      <path id="Nose" d="M-6753.465,14178.14c-.736,1.6-2.664,9.645-2.664,9.645s-.455,3.031,1.134,3.527,6.866,1.02,9.31.138c1.162-.576,1.343-1.932.465-3.665-1.361-2.259-2.4-7.937-2.97-9.2C-6749.042,14176.155-6752.729,14176.542-6753.465,14178.14Z" transform="translate(6857.898 -14151.27)" fill="#6eb1ce" opacity="0"/>
      <path id="Mouth" d="M-6761.122,14196.679c1.417-2.922,4.2-5.125,7.371-3.859s4.991,0,4.991,0,4.708-.825,6.182,3.528-5.218,6.173-9.187,5.786C-6753.692,14201.914-6760.782,14200.922-6761.122,14196.679Z" transform="translate(6859.067 -14152.157)" fill="#6eb1ce" opacity="0"/>
      <path id="Left Ear" data-name="left ear" d="M4.653,3.6A30.678,30.678,0,0,1,1.984.457,1.11,1.11,0,0,0,0,.9L.007,5.581S1.6,10.378,2,11.15s1.367,4.082,1.821,4.358,2.552.5,2.209-1.43A35.258,35.258,0,0,1,5.155,9C5.193,7.824,5.114,4.151,4.653,3.6Z" transform="translate(84.469 24.986) rotate(-3)" fill="#6eb1ce" opacity="0"/>
      <path id="Right Ear" data-name="right ear" d="M4.653,12.085a30.667,30.667,0,0,0-2.67,3.146A1.11,1.11,0,0,1,0,14.792l.007-4.685S1.6,5.311,2,4.538,3.367.457,3.821.181s2.552-.5,2.209,1.431a35.258,35.258,0,0,0-.875,5.076C5.193,7.864,5.114,11.538,4.653,12.085Z" transform="translate(129.231 40.653) rotate(-177)" fill="#6eb1ce" opacity="0"/>
      <path id="Jaw" d="M-6774.84,14183.647c-.351-1.514,8.761,13.158,11.677,13.534s8.751.373,9.664,0,10.915-10.163,11.28-12.786-.546,5.243-.637,6.18-.273,3.465-2.279,4.961a35.272,35.272,0,0,0-5.558,6.181c-.547.842-7.653,6.272-14.579.842-2.643-3-3.007-4.025-4.191-5.148s-4.227-4.141-4.5-6.2S-6774.489,14185.163-6774.84,14183.647Z" transform="translate(6865.667 -14149.943)" fill="#6eb1ce" opacity="0"/>
      <path id="Face" d="M-6763.378,14169.457c.059-.217-6.4,5.289-13.114,0,.1-.056.258,5.29.464,6.172a23.293,23.293,0,0,0,.569,3.087,14.7,14.7,0,0,1,.361,4.573c-.155.883,6.608-1.6,9.139-1.047s10.894.276,12.856,0,7.59-.937,8.106,0,.349-1.966.9-4.444a35.118,35.118,0,0,0,.473-6.547v-2.011s-8.335,3.595-13.009.217c-.092-.119.3,6.169,1.5,8.341s-.458,3.834-1.161,3.834-7.577.522-8.523-.423-.764-2.935-.49-3.881S-6763.436,14169.672-6763.378,14169.457Z" transform="translate(6867.457 -14141.23)" fill="#6eb1ce" opacity="0"/>
      <path id="Scalp" d="M-6713.479,18012.277c.474-.213-1.814,1.873-4.083,2.424s-10.944,1.873-13.042,8.432-6.182-7.221-4.424-9.975,5.913-10.607,11.98-13.309,9.569,0,9.569,0,5.629-3.8,13.624,2.645,8.706,12.047,9.148,15.057-4.311,6.266-6.228,3.686-7.739-6.189-10.172-6.535S-6713.952,18012.486-6713.479,18012.277Z" transform="translate(6820.821 -17998.648)" fill="#6eb1ce" opacity="0"/>
      <path id="Neck" d="M-6733.2,18080.717s2.875,6.086,2.949,16.117c-.074,1.291-17.029,6.807-17.987,7.309s16,7.307,23.812,7.666,31.33-3.367,35.68-7.166c-.074,0-5.9-1.5-8.257-3.006s-9.362-2.58-10.32-4.8,1.769-15.76,1.769-15.76-7.3,8.381-10.983,9.17-6.34.213-10.689-3.8C-6729.738,18084.227-6733.2,18080.717-6733.2,18080.717Z" transform="translate(6826.346 -18035.322)" fill="#6eb1ce" opacity="0"/>
      <path id="Left Shin" data-name="left shin" d="M-6751.233,18559.486s-5.8,29.693-5.429,33.205,4.547,23.066,9.032,30.814c1.619,4.359,14.2-.414,16.186-7.434a61.392,61.392,0,0,0,.829-10.984s.873-4.152,1.352-5.637-1.2-21.312-1.636-22.453a35.713,35.713,0,0,1-1.272-11.945c.413-5.479,2.757-11.307,2.909-12.1C-6728.957,18551.336-6751.233,18559.486-6751.233,18559.486Z" transform="translate(6829.964 -18246.248)" fill="#6eb1ce" opacity="0"/>
      <path id="Right Shin" data-name="right shin" d="M-6734.623,18559.486s5.8,29.693,5.428,33.205-4.547,23.066-9.032,30.814c-1.62,4.359-14.2-.414-16.186-7.434a61.292,61.292,0,0,1-.829-10.984s-.873-4.152-1.352-5.637,1.2-21.312,1.635-22.453a35.657,35.657,0,0,0,1.272-11.945c-.412-5.479-2.756-11.307-2.908-12.1C-6756.9,18551.336-6734.623,18559.486-6734.623,18559.486Z" transform="translate(6870.471 -18246.5)" fill="#6eb1ce" opacity="0"/>
      <path id="Left Knee" data-name="left knee" d="M-6749.986,18506.76s.5,14.893,1.5,20.221,21.853-6.191,21.853-6.191,1.985-22.705,1.767-26.732S-6754.782,18491.02-6749.986,18506.76Z" transform="translate(6827.876 -18215.256)" fill="#6eb1ce" opacity="0"/>
      <path id="Right Knee" data-name="right knee" d="M-6725.377,18506.76s-.5,14.893-1.5,20.221-21.854-6.191-21.854-6.191-1.985-22.705-1.767-26.732S-6720.582,18491.02-6725.377,18506.76Z" transform="translate(6862.594 -18215.256)" fill="#6eb1ce" opacity="0"/>
      <path id="Left Thigh" data-name="left thigh" d="M-6772.14,18343.281c-.748,11.262-.873,21.613-1,25.73s-1.184,19.492,4.173,32.207c.748,4.111,4.36,21.309,4.36,21.309l4.8,15.738s25.333-8.676,25.115-12.7-.981-19.121-.72-21.789.905-24.047,2.214-28.035,1.693-18.807,1.693-18.807,3.229,2.729-4.954-4.865S-6771.392,18332.016-6772.14,18343.281Z" transform="translate(6837.127 -18150.633)" fill="#6eb1ce" opacity="0"/>
      <path id="Right Thigh" data-name="right thigh" d="M-6732.039,18343.281c.748,11.262.872,21.613,1,25.73s1.183,19.492-4.173,32.207c-.748,4.111-4.361,21.309-4.361,21.309l-4.8,15.738s-25.333-8.676-25.114-12.7.98-19.121.719-21.789-.905-24.047-2.214-28.035-1.693-18.807-1.693-18.807-3.229,2.729,4.955-4.865S-6732.787,18332.016-6732.039,18343.281Z" transform="translate(6881.764 -18150.633)" fill="#6eb1ce" opacity="0"/>
      <path id="Sternum" d="M-6755.249,14306.108c.162.158,6.964-2.675,12.633,0-.486-.314-6.8-22.19,0-28.8,0-.314-6.317,5.039-12.633,0C-6754.762,14277.777-6746.989,14294.3-6755.249,14306.108Z" transform="translate(6856.255 -14180.663)" fill="#6eb1ce" opacity="0"/>
      <path id="Hathway" d="M-6746.286,18129.041s-.842,15.754-7.579,24.146c-.632.816,36.845-10.645,64.217,0,.631-.205-13.265-14.732-8.423-24.146C-6697.86,18129.041-6722.494,18142.957-6746.286,18129.041Z" transform="translate(6828.756 -18056.916)" fill="#6eb1ce" opacity="0"/>
      <path id="Right Shoulder" data-name="right shoulder" d="M-6848.369,14247.532c2.591-.156,8.908,2.52,11.662,4.565s11.175,10.546,11.337,21.407-.972,11.176-.972,11.176-12.957-.472-17.33-11.176-9.232-20.463-8.421-21.407S-6850.96,14247.69-6848.369,14247.532Z" transform="translate(6984.061 -14178.978)" fill="#6eb1ce" opacity="0"/>
      <path id="Right Shoulder" data-name="right shoulder" d="M-6829.169,14247.532c-2.592-.156-8.909,2.52-11.662,4.565s-11.175,10.546-11.336,21.406.972,11.177.972,11.177,12.956-.474,17.33-11.177,9.231-20.462,8.422-21.406S-6826.578,14247.69-6829.169,14247.532Z" transform="translate(6908.122 -14178.978)" fill="#6eb1ce" opacity="0"/>
      <path id="Right Armpit" data-name="right armpit" d="M-6634.68,18182.553s-5.471,4.727-5.914,6.234,2.064,4.441,2.064,4.441a9.108,9.108,0,0,1,2.064,4.584c.221,2.508,4.128-12.182,3.612-13.971S-6634.68,18182.553-6634.68,18182.553Z" transform="translate(6779.973 -18080.799)" fill="#6eb1ce" opacity="0"/>
      <path id="Left Armpit" data-name="left armpit" d="M-6638.771,18182.553s5.47,4.727,5.913,6.234-2.064,4.441-2.064,4.441a9.1,9.1,0,0,0-2.064,4.584c-.222,2.508-4.128-12.182-3.613-13.971S-6638.771,18182.553-6638.771,18182.553Z" transform="translate(6707.688 -18080.799)" fill="#6eb1ce" opacity="0"/>
      <path id="Left Upper Arm" data-name="left upper arm" d="M-6794.561,18187.961s-4.03,6.131-5.179,9.389-4.6,18.908-4.6,18.908l14.843,3.283,4.734-9.322,6.1-11.018s-4.984-7.99-4.984-13.437C-6790.121,18189.152-6794.561,18187.961-6794.561,18187.961Z" transform="translate(6850.5 -18082.264)" fill="#6eb1ce" opacity="0"/>
      <path id="Left Upper Arm" data-name="left upper arm" d="M-6788.439,18187.961s4.03,6.131,5.18,9.389,4.6,18.908,4.6,18.908l-14.843,3.283-4.734-9.322-6.1-11.018s4.984-7.99,4.984-13.437C-6792.878,18189.152-6788.439,18187.961-6788.439,18187.961Z" transform="translate(6947.587 -18082.264)" fill="#6eb1ce" opacity="0"/>
      <path id="Left Elbow" data-name="left elbow" d="M-6810.787,18240.889c.7-1.088,14.658,3.512,14.658,3.512s-1.62,4.359-1.62,5.57a27.139,27.139,0,0,1-3.24,9.324c.374,0-18.314-4.846-18.314-4.846s4.237-5.205,4.859-6.658S-6811.49,18241.979-6810.787,18240.889Z" transform="translate(6856.945 -18106.82)" fill="#6eb1ce" opacity="0"/>
      <path id="Right Elbow" data-name="right elbow" d="M-6804.645,18240.889c-.7-1.088-14.657,3.512-14.657,3.512s1.619,4.359,1.619,5.57a27.16,27.16,0,0,0,3.24,9.324c-.374,0,18.314-4.846,18.314-4.846s-4.236-5.205-4.859-6.658S-6803.941,18241.979-6804.645,18240.889Z" transform="translate(6973.298 -18106.82)" fill="#6eb1ce" opacity="0"/>
      <path id="Left Forearm" data-name="left forearm" d="M-6831.372,18265.648c.587-.191,18.313,4.721,18.313,4.721s-3.115,5.814-3.737,6.783-7.975,16.586-12.459,22.035-3.84,5.717-3.84,5.717l-14.221-4.32a24.95,24.95,0,0,1,1.963-3.984c.741-.934,4.312-10.98,4.888-13.029A57.314,57.314,0,0,1-6831.372,18265.648Z" transform="translate(6869.014 -18117.955)" fill="#6eb1ce" opacity="0"/>
      <path id="Right Forearm" data-name="right forearm" d="M-6829,18265.648c-.587-.191-18.313,4.721-18.313,4.721s3.114,5.814,3.737,6.783,7.974,16.586,12.459,22.035,3.84,5.717,3.84,5.717l14.221-4.32a25.036,25.036,0,0,0-1.963-3.984c-.742-.934-4.313-10.98-4.888-13.029A57.343,57.343,0,0,0-6829,18265.648Z" transform="translate(7005.872 -18117.955)" fill="#6eb1ce" opacity="0"/>
      <path id="Left Wrist" data-name="left wrist" d="M-6853.011,18328.785s-1.774,6.428-2.253,8.287a39.442,39.442,0,0,0-3.258,4.379l-2.013,1.213,13.226,5.119a2.784,2.784,0,0,1,.67-3.072c1.437-1.3,7.762-11.361,7.762-11.361Z" transform="translate(6874.71 -18146.172)" fill="#6eb1ce" opacity="0"/>
      <path id="Right Wrist" data-name="right wrist" d="M-6846.4,18328.785s1.773,6.428,2.252,8.287a39.511,39.511,0,0,1,3.258,4.379l2.013,1.213-13.225,5.119a2.786,2.786,0,0,0-.671-3.072c-1.437-1.3-7.763-11.361-7.763-11.361Z" transform="translate(7039.213 -18146.172)" fill="#6eb1ce" opacity="0"/>
      <path id="Left Hand" data-name="left hand" d="M-6865.427,18353.957c2.211-.359,13.638,5.445,13.638,5.445a27.8,27.8,0,0,1-1.548,15.045,17.06,17.06,0,0,0-1.18,2.508l-16.513-3.654S-6871.1,18355.6-6865.427,18353.957Z" transform="translate(6879.231 -18157.414)" fill="#6eb1ce" opacity="0"/>
      <path id="Right Hand" data-name="right hand" d="M-6856.976,18353.957c-2.212-.359-13.638,5.445-13.638,5.445a27.793,27.793,0,0,0,1.547,15.045,16.933,16.933,0,0,1,1.18,2.508l16.513-3.654S-6851.3,18355.6-6856.976,18353.957Z" transform="translate(7057.706 -18157.414)" fill="#6eb1ce" opacity="0"/>
      <path id="Left Fingers" data-name="Left fingers" d="M-6872.988,18355a22.005,22.005,0,0,0-6.8,7.639,55.724,55.724,0,0,1-3.737,6.332s-2.245,1.346-1.867,2.389.775,1.678,1.867,1.484a4.989,4.989,0,0,0,3.176-1.793c.973-1.178,3.414-4.459,3.414-4.459l-.539,7.652-1.3,14.715s-.266,3.938.772,4.426a1.37,1.37,0,0,0,1.619-.133s-.184,1.516.687,2.107a1.842,1.842,0,0,0,2.261.135c.458-.445,1.176-1.291,1.176-1.291a1.1,1.1,0,0,0,1.65.742,4.573,4.573,0,0,0,1.848-2l1.986-5.537s.545,1.217,1.475.463a9.225,9.225,0,0,0,2.267-3.512c.393-1.1,2.312-7.037,2.312-7.037l.9-2.227s-14.656,2.248-14.526-3.434S-6872.988,18355-6872.988,18355Z" transform="translate(6885.439 -18157.889)" fill="#6eb1ce" opacity="0"/>
      <path id="Right Fingers" data-name="right fingers" d="M-6872.277,18355a22,22,0,0,1,6.8,7.639,55.478,55.478,0,0,0,3.738,6.332s2.244,1.346,1.866,2.389-.775,1.678-1.866,1.484a4.987,4.987,0,0,1-3.177-1.793c-.973-1.178-3.415-4.459-3.415-4.459l.54,7.652,1.3,14.715s.268,3.938-.771,4.426a1.368,1.368,0,0,1-1.619-.133s.183,1.516-.687,2.107a1.842,1.842,0,0,1-2.26.135c-.459-.445-1.177-1.291-1.177-1.291a1.1,1.1,0,0,1-1.649.742,4.573,4.573,0,0,1-1.848-2l-1.985-5.537s-.546,1.217-1.475.463a9.219,9.219,0,0,1-2.267-3.512c-.393-1.1-2.312-7.037-2.312-7.037l-.9-2.227s14.656,2.248,14.525-3.434S-6872.277,18355-6872.277,18355Z" transform="translate(7074.676 -18157.889)" fill="#6eb1ce" opacity="0"/>
      <path id="Chest" d="M-6753.873,18220.7s4.045-1.451,5.79,0,12.334,6.055,20.931,1.092,14.078,1.574,14.078,1.574,14.577,3.875,19.81-5.33c3.613-2.418,4.609,3.756,4.609,3.756l-1.744,4.721s-49.336,4-61.919,0A42.19,42.19,0,0,0-6753.873,18220.7Z" transform="translate(6828.756 -18096.434)" fill="#6eb1ce" opacity="0"/>
      <path id="Upper Central Abdomen" data-name="upper central abdomen" d="M-6771.848,14354.015c1.295-1.1,15.063-7.713,29.153,0,.162-.314.162,11.646,1.62,18.258s.325,10.232-1.62,11.176-21.055,6.453-31.421-1.258c-1.619-2.52,1.3-13.537,1.3-13.537S-6771.2,14355.589-6771.848,14354.015Z" transform="translate(6864.515 -14218.918)" fill="#6eb1ce" opacity="0"/>
      <path id="Upper Abdomen" data-name="upper abdomen" d="M-6754.222,18236.217s17.317,2.064,16.944,3.275-1,17.316-1.869,19.01-1.868,8.6-1.121,8.961,2.492,4.479,13.83,4.842,19.186-3.145,19.31-3.752,1.994-6.541.25-11.02-1.745-18.041-1.745-18.041,16.195-3.146,16.071,0-3.613,12.717-2.242,19.01a68.522,68.522,0,0,0,6.354,16.467c1.371,2.178-42.92,12.109-68.9-1.332-.312-.363,6.915-7.99,6.042-18.646A127.079,127.079,0,0,0-6754.222,18236.217Z" transform="translate(6830.252 -18104.807)" fill="#6eb1ce" opacity="0"/>
      <path id="Lower Abdomen" data-name="lower abdomen" d="M-6761.5,18304.713a62.7,62.7,0,0,0-4.194,8.813c-.81,2.361-1.3,4.41-1.3,4.41s49.884,15.107,79.038,0c.972-.16-2.268-9.289-4.373-12.279C-6692.49,18305.971-6724.268,18318.248-6761.5,18304.713Z" transform="translate(6834.408 -18135.416)" fill="#6eb1ce" opacity="0"/>
      <path id="Pelvic" d="M-6768.713,18328.326s58.7,14.254,79.546-.555c.24.371,2.349,7.357,2.349,7.357s-36.035,6.053-40.54,17.787c.288-.187-3.737,0-3.737,0s-22.977-21.91-39.892-17.787C-6771.035,18334.873-6768.713,18328.326-6768.713,18328.326Z" transform="translate(6836.129 -18145.721)" fill="#6eb1ce" opacity="0"/>
      <path id="Above Pubic Bone" data-name="above pubic bone" d="M-6731.781,18343.049c.34.771,6.182,3.086,7.939,4.574,4.2-1.818,20.982-2.205,24.043-.332,1.291-.275,8.265-5.674,11-5.84-.07-.166-1.375-3.693-1.375-3.693s-26.043,3.42-41-.824C-6731.157,18337.371-6732.121,18342.279-6731.781,18343.049Z" transform="translate(6819.268 -18149.813)" fill="#6eb1ce" opacity="0"/>
      <path id="Genital" d="M-6717.068,18354.766c-.043-.7,12.825-3.537,23.773-.4.306,0-9.684,5.854-10.861,9.793-.131-.295-2.354,1.146-4.013-.508S-6717.024,18355.465-6717.068,18354.766Z" transform="translate(6812.898 -18156.955)" fill="#6eb1ce" opacity="0"/>
      <path id="Right Groin" data-name="right groin" d="M-6694.062,18364.074c.251-1.074,10.219-11.785,16.256-11.318s-16.065,18.627-15.813,17.23S-6694.314,18365.152-6694.062,18364.074Z" transform="translate(6803.005 -18156.879)" fill="#6eb1ce" opacity="0"/>
      <path id="Left Groin" data-name="left groin" d="M-6676.8,18364.074c-.252-1.074-10.219-11.785-16.256-11.318s16.064,18.627,15.813,17.23S-6676.551,18365.152-6676.8,18364.074Z" transform="translate(6782.515 -18156.775)" fill="#6eb1ce" opacity="0"/>
      <path id="Left Ankle" data-name="left ankle" d="M-6739.779,18677.541s12.824-.2,15.311-6.785c-.3-.051-.588,19.205.5,21.705s2.181,6.654,2.006,8.014.469,4.385.469,5.105-14.351.385-14.351.385a3.424,3.424,0,0,0,1-2.076,48.074,48.074,0,0,1-.393-5.6c.131-2.289-3.921-19.076-3.921-19.076Z" transform="translate(6822.683 -18298.984)" fill="#6eb1ce" opacity="0"/>
      <path id="Right Ankle" data-name="right ankle" d="M-6721.491,18677.541s-12.824-.2-15.311-6.785c.3-.051.588,19.205-.5,21.705s-2.181,6.654-2.006,8.014-.469,4.385-.469,5.105,14.351.385,14.351.385a3.424,3.424,0,0,1-1-2.076,47.987,47.987,0,0,0,.392-5.6c-.13-2.289,3.921-19.076,3.921-19.076Z" transform="translate(6853.571 -18298.984)" fill="#6eb1ce" opacity="0"/>
      <path id="Left Foot" data-name="left foot" d="M-6738.042,18734.221c1.875.311,13.964-.4,13.964-.4l.442,7.664s-20.346-.717-21.526-.855S-6741.393,18739.576-6738.042,18734.221Z" transform="translate(6825.079 -18327.16)" fill="#6eb1ce" opacity="0"/>
      <path id="Right Foot" data-name="right foot" d="M-6730.933,18734.221c-1.875.311-13.965-.4-13.965-.4l-.442,7.664s20.347-.717,21.526-.855S-6727.584,18739.576-6730.933,18734.221Z" transform="translate(6858.66 -18327.16)" fill="#6eb1ce" opacity="0"/>
      <path id="Left Toe" data-name="left toe" d="M-6747.97,18746.225s-4.817,1.891-3.106,5.508a2.527,2.527,0,0,0,3.106.592s1.86,1.4,3.237.26c.033.225,1.409,1.6,3.925.391.034,0,3.523,1.826,5.3-.816.3.326.369,2.381,2.785,1.76s6.645-.979,6.645-2.186-.168-4.758-.168-4.758Z" transform="translate(6827.708 -18332.709)" fill="#6eb1ce" opacity="0"/>
      <path id="Right Toe" data-name="right toe" d="M-6729.551,18746.225s4.817,1.891,3.106,5.508a2.527,2.527,0,0,1-3.106.592s-1.86,1.4-3.236.26c-.033.225-1.409,1.6-3.926.391-.034,0-3.523,1.826-5.3-.816-.3.326-.369,2.381-2.785,1.76s-6.644-.979-6.644-2.186.168-4.758.168-4.758Z" transform="translate(6864.764 -18332.709)" fill="#6eb1ce" opacity="0"/>
      <path id="Left Breast" data-name="left breast" d="M-6755.726,18179.379c.249-.078,1.993,1.01,2.243,5.248s.124,11.385,4.983,13.441,10.714,4.963,15.572,2.662,8.473-6.174,8.722-10.652-2.118-16.951-4.361-19.5-4.733-4.842-8.6-3.752-16.445,4.115-17.567,3.752S-6754.106,18177.883-6755.726,18179.379Z" transform="translate(6829.554 -18073.678)" fill="#6eb1ce" opacity="0"/>
      <path id="Right Breast" data-name="right breast" d="M-6724.187,18179.379c-.249-.078-1.993,1.01-2.243,5.248s-.125,11.385-4.983,13.441-10.714,4.963-15.573,2.662-8.472-6.174-8.721-10.652,2.117-16.951,4.36-19.5,4.733-4.842,8.6-3.752,16.445,4.115,17.566,3.752S-6725.807,18177.883-6724.187,18179.379Z" transform="translate(6864.669 -18073.678)" fill="#6eb1ce" opacity="0"/>
    </g>
  </g>
</svg>
