<svg xmlns="http://www.w3.org/2000/svg" width="27.94" height="31.967" viewBox="0 0 27.94 31.967">
  <path id="Path_82" data-name="Path 82" d="M48.513,40.439c-.169,4.149-.109,8.159,1.321,9.732a.6.6,0,0,1-.237.974A13.072,13.072,0,0,1,45,51.967a14.437,14.437,0,0,1-3.757-.508A14.752,14.752,0,0,1,37.8,50.069a10.989,10.989,0,0,1-3.56,0,15.085,15.085,0,0,1-7.221,1.9,12.953,12.953,0,0,1-4.574-.82.605.605,0,0,1-.237-.974c1.43-1.574,1.49-5.584,1.321-9.733a3.163,3.163,0,0,1-.217-4.417c-.208-4.231-.318-7.061,1.033-9.675.076-.146.156-.293.24-.435a5.912,5.912,0,0,1,4.76-2.849,8.361,8.361,0,0,1,6.159-3.053,14.572,14.572,0,0,1,7.762,1.91A10.935,10.935,0,0,1,47.7,26.347c1.35,2.613,1.24,5.443,1.032,9.674a3.163,3.163,0,0,1-.217,4.418Zm-1.581-4.08v3.012c0,.211-.007.421-.019.63a1.968,1.968,0,0,0,.019-3.758v.092C46.932,36.343,46.932,36.351,46.932,36.359ZM25.432,26.9c.066-.128.136-.255.209-.38a4.7,4.7,0,0,1,4.013-2.257h.008a.612.612,0,0,0,.472-.237,7.151,7.151,0,0,1,5.415-2.806,13.349,13.349,0,0,1,7.109,1.749A9.742,9.742,0,0,1,46.612,26.9c1.081,2.091,1.113,4.366.936,8.275a3.2,3.2,0,0,0-.616-.184v-.617a.61.61,0,0,0-1.221,0v1.378c-8.407.089-12.959-3.936-14.173-5.195a.612.612,0,0,0-1.005.189,5.419,5.419,0,0,1-4.877,3.531.608.608,0,0,0-.544.6v.111a3.193,3.193,0,0,0-.616.184C24.318,31.269,24.35,28.994,25.432,26.9ZM23.738,38.119A1.977,1.977,0,0,0,25.13,40c-.012-.209-.019-.418-.019-.63V36.243A1.976,1.976,0,0,0,23.738,38.119Zm-.1,12.148c1.088-1.846,1.277-4.916,1.139-9.1a3.2,3.2,0,0,0,.5.11,10.9,10.9,0,0,0,7.148,8.337A13.1,13.1,0,0,1,23.639,50.267Zm2.693-10.9a9.69,9.69,0,0,0,19.379,0v-2.4a22.684,22.684,0,0,1-10.122-2.112,17.956,17.956,0,0,1-4.3-2.849,6.456,6.456,0,0,1-4.952,3.405ZM41.6,50.3a14.5,14.5,0,0,1-1.991-.688,10.9,10.9,0,0,0,7.151-8.338,3.2,3.2,0,0,0,.5-.11c-.139,4.189.05,7.259,1.139,9.1A12.317,12.317,0,0,1,41.6,50.3ZM33.91,44.153a3,3,0,0,0,4.224,0,.613.613,0,0,1,.863,0,.6.6,0,0,1,0,.858,4.231,4.231,0,0,1-5.95,0,.6.6,0,0,1,0-.858A.613.613,0,0,1,33.91,44.153Zm-5.183-6.58a.6.6,0,0,0,0,.858.613.613,0,0,0,.863,0,1.009,1.009,0,0,1,1.419,0,.613.613,0,0,0,.863,0,.6.6,0,0,0,0-.858A2.236,2.236,0,0,0,28.726,37.573Zm14.591,0a.6.6,0,0,1,0,.858.613.613,0,0,1-.863,0,1.009,1.009,0,0,0-1.419,0,.613.613,0,0,1-.863,0,.6.6,0,0,1,0-.858A2.236,2.236,0,0,1,43.317,37.573Z" transform="translate(-22.052 -20)" fill="#9393aa" fill-rule="evenodd"/>
</svg>
