<svg xmlns="http://www.w3.org/2000/svg" width="52.474" height="52.474" viewBox="0 0 52.474 52.474">
  <g id="Group_5463" data-name="Group 5463" transform="translate(-383.016 -88.157)">
    <g id="Group_1362" data-name="Group 1362" transform="translate(383.016 88.157)" opacity="0.2">
      <path id="Path_4946" data-name="Path 4946" d="M247.742,67.2h20.99a15.743,15.743,0,0,1,15.742,15.742v20.99a15.743,15.743,0,0,1-15.742,15.742h-20.99A15.743,15.743,0,0,1,232,103.932V82.942A15.743,15.743,0,0,1,247.742,67.2Z" transform="translate(-232 -67.2)" fill="#e0e0e0" fill-rule="evenodd"/>
    </g>
    <rect id="Rectangle_539" data-name="Rectangle 539" width="31.485" height="31.485" transform="translate(393.511 98.651)" opacity="0.01"/>
    <path id="Path_4947" data-name="Path 4947" d="M264.114,79.824V89.958a1.25,1.25,0,1,0,2.5,0V78.468a1.263,1.263,0,0,0-1.249-1.268H244.249A1.263,1.263,0,0,0,243,78.468v23.7a1.263,1.263,0,0,0,1.249,1.268h9.516a1.262,1.262,0,0,0,1.249-1.268,1.341,1.341,0,0,0-1.249-1.356h-8.141V79.824Zm-2.748,14.43a1.312,1.312,0,1,1,2.624,0v2.624h2.624a1.312,1.312,0,1,1,0,2.624H263.99v2.624a1.312,1.312,0,1,1-2.624,0V99.5h-2.624a1.312,1.312,0,1,1,0-2.624h2.624Zm-1.474-10.495h-10.17a1.321,1.321,0,1,0,0,2.624h10.17a1.321,1.321,0,1,0,0-2.624Zm1.474,6.559a1.4,1.4,0,0,0-1.474-1.312h-10.17a1.321,1.321,0,1,0,0,2.624h10.17A1.4,1.4,0,0,0,261.366,90.319ZM249.7,94.254a1.319,1.319,0,1,0,0,2.624h2.346a1.319,1.319,0,1,0,0-2.624Z" transform="translate(154.446 24.075)" fill="#9393aa" fill-rule="evenodd"/>
  </g>
</svg>
