<svg xmlns="http://www.w3.org/2000/svg" xmlns:xlink="http://www.w3.org/1999/xlink" width="334.649" height="261.142" viewBox="0 0 334.649 261.142">
  <defs>
    <clipPath id="clip-path">
      <rect id="Rectangle_33" data-name="Rectangle 33" width="137.534" height="137.534" rx="68.767" fill="#46abb0"/>
    </clipPath>
  </defs>
  <g id="Group_166" data-name="Group 166" transform="translate(-49.562 -344.119)">
    <g id="Group_119" data-name="Group 119" transform="translate(49.562 374.359)">
      <path id="Path_87" data-name="Path 87" d="M49.685,721.646c.231-1.161.463-2.323.72-3.484s.549-2.317.883-3.467a29.412,29.412,0,0,1,2.778-6.7,19.05,19.05,0,0,1,2.186-3,17.59,17.59,0,0,1,2.777-2.531,14.489,14.489,0,0,1,3.362-1.842,12.489,12.489,0,0,1,3.84-.817c.329-.006.659-.026.988-.008.165.007.33.006.495.02l.494.043a13.294,13.294,0,0,1,1.945.352l.239.06.235.07c.157.048.315.093.47.144.307.11.618.213.917.34a17.373,17.373,0,0,1,1.753.821c.568.3,1.109.632,1.643.972s1.044.705,1.539,1.082c1,.746,1.936,1.543,2.847,2.352,1.815,1.616,3.494,3.323,5.184,4.886a46.05,46.05,0,0,0,5.313,4.227c.934.635,1.891,1.231,2.861,1.8s1.969,1.076,2.977,1.555,2.038.9,3.077,1.277,2.093.7,3.153.961a31.393,31.393,0,0,0,3.2.606,26.9,26.9,0,0,0,3.2.207,23.619,23.619,0,0,0,3.145-.241,20.82,20.82,0,0,0,3.033-.709l.735-.249c.243-.087.48-.191.721-.284.12-.049.241-.093.359-.145l.354-.162.354-.161c.118-.054.232-.117.348-.175a22.442,22.442,0,0,0,2.687-1.6,29.294,29.294,0,0,0,4.787-4.279,54.142,54.142,0,0,0,4.164-5.257c1.315-1.861,2.59-3.8,3.877-5.78.644-.988,1.292-1.987,1.955-2.988s1.329-2,2.07-3.034a54.292,54.292,0,0,1,4.823-5.836q1.319-1.383,2.78-2.658a38.13,38.13,0,0,1,3.066-2.426,28.694,28.694,0,0,1,7.178-3.747,21.4,21.4,0,0,1,4.133-.985,19.85,19.85,0,0,1,4.348-.108,19.438,19.438,0,0,1,4.29.859c.176.053.347.114.519.176s.344.122.515.188c.336.138.679.268,1.006.423a21.038,21.038,0,0,1,1.926.988,23.426,23.426,0,0,1,3.443,2.459c.533.449,1.029.924,1.519,1.4s.949.981,1.388,1.492a37.222,37.222,0,0,1,4.485,6.511c.31.569.612,1.141.9,1.72.145.288.283.579.42.87s.262.573.393.861c.522,1.146.987,2.289,1.443,3.423.9,2.264,1.717,4.5,2.561,6.629a39.9,39.9,0,0,0,6.143,11.29,29.9,29.9,0,0,0,9.764,7.616,31.12,31.12,0,0,0,12.037,3.138c.259.014.518.016.776.026l.388.012c.129,0,.258,0,.388,0l.775-.007.773-.039c.129-.007.258-.011.386-.02l.384-.035c.256-.025.513-.043.768-.072.508-.073,1.021-.123,1.523-.223.252-.047.506-.082.756-.138l.749-.165c.249-.047.5-.13.752-.195l.754-.205.377-.1.372-.125.745-.25.373-.124.186-.063.184-.073.736-.291a46.307,46.307,0,0,0,11.171-6.648c1.766-1.37,3.488-2.839,5.181-4.374.421-.388.847-.767,1.265-1.163l1.256-1.185,1.25-1.205,1.252-1.227c3.342-3.287,6.7-6.708,10.363-9.962,1.832-1.626,3.737-3.211,5.744-4.706a59.794,59.794,0,0,1,6.338-4.154c.563-.3,1.121-.612,1.688-.912l.876-.436.886-.413c1.188-.537,2.4-1.009,3.635-1.427a38.6,38.6,0,0,1,7.621-1.756,35.323,35.323,0,0,1,3.942-.274,32.223,32.223,0,0,1,3.987.2A28.983,28.983,0,0,1,299,689.8a24.854,24.854,0,0,1,3.864,1.338,24.5,24.5,0,0,1,3.621,1.974l.431.286c.142.1.28.2.419.3.278.2.56.4.823.622s.536.426.79.653.515.446.759.681a31.679,31.679,0,0,1,5,6.115,63.884,63.884,0,0,1,3.59,6.528c1.061,2.17,2.044,4.309,3.074,6.361.514,1.026,1.04,2.03,1.59,3l.208.363c.069.119.139.247.207.355.138.223.268.451.412.671s.284.444.436.66.3.436.459.648A25.712,25.712,0,0,0,329.033,725a18.577,18.577,0,0,0,5.306,3.139,10.551,10.551,0,0,0,5.6.587,8.733,8.733,0,0,0,2.592-.963A9.738,9.738,0,0,0,344.792,726a14.2,14.2,0,0,0,1.861-2.437,27.038,27.038,0,0,0,1.53-2.9c.938-2.04,1.734-4.238,2.607-6.472.437-1.117.894-2.246,1.406-3.372a28.757,28.757,0,0,1,1.766-3.336,17.579,17.579,0,0,1,2.408-3.09A13.1,13.1,0,0,1,359.6,702l.452-.225.461-.2c.313-.126.63-.253.954-.351a11.319,11.319,0,0,1,1.971-.448,12.872,12.872,0,0,1,3.949.093,14.993,14.993,0,0,1,1.885.458,16.906,16.906,0,0,1,1.791.685,17.26,17.26,0,0,1,3.257,1.925,17.88,17.88,0,0,1,2.758,2.542,23.157,23.157,0,0,1,2.18,2.978,34.206,34.206,0,0,1,3.029,6.566c.4,1.128.757,2.263,1.089,3.4s.639,2.286.945,3.429l-.433.137c-.72-2.252-1.439-4.5-2.315-6.687a33.417,33.417,0,0,0-3.2-6.259A22.578,22.578,0,0,0,376.2,707.3q-.6-.633-1.263-1.2a17.306,17.306,0,0,0-1.382-1.065,15.862,15.862,0,0,0-1.484-.917,15.306,15.306,0,0,0-3.215-1.323,13.5,13.5,0,0,0-1.7-.357,11.259,11.259,0,0,0-3.445.023,10.082,10.082,0,0,0-3.236,1.138,11.194,11.194,0,0,0-2.705,2.126,15.519,15.519,0,0,0-2.052,2.8,38.772,38.772,0,0,0-2.816,6.438c-.8,2.22-1.537,4.475-2.467,6.671a28.273,28.273,0,0,1-1.587,3.217,16.9,16.9,0,0,1-2.116,2.929,12.46,12.46,0,0,1-2.8,2.317,11.521,11.521,0,0,1-3.376,1.37,12.042,12.042,0,0,1-3.632.237,14.875,14.875,0,0,1-3.545-.754,21.506,21.506,0,0,1-6.273-3.494,28.513,28.513,0,0,1-5.026-5.111c-.184-.236-.355-.482-.534-.723s-.34-.494-.51-.74-.323-.5-.486-.757-.308-.51-.462-.765c-.606-1.025-1.176-2.068-1.728-3.119-1.1-2.1-2.13-4.234-3.2-6.334a63.463,63.463,0,0,0-3.489-6.125,28.1,28.1,0,0,0-4.483-5.352,20.568,20.568,0,0,0-5.832-3.746,23.365,23.365,0,0,0-6.742-1.7,28.23,28.23,0,0,0-3.493-.142,31.267,31.267,0,0,0-3.49.281,34.519,34.519,0,0,0-6.806,1.647,36.66,36.66,0,0,0-6.365,2.937,66.362,66.362,0,0,0-11.273,8.425c-3.493,3.165-6.792,6.549-10.147,9.888a119.889,119.889,0,0,1-10.544,9.558l-.706.546c-.236.181-.468.367-.711.539l-1.446,1.048-1.48,1c-.5.325-1.009.635-1.514.953a44.131,44.131,0,0,1-6.391,3.225l-.834.332-.208.083-.212.073-.425.143-.851.287-.426.143-.433.12-.866.239c-.29.076-.575.168-.87.226l-.879.195c-.293.066-.59.109-.885.164-.589.116-1.186.18-1.78.264-.3.034-.6.057-.9.087l-.448.042c-.15.011-.3.017-.449.025l-.9.047-.9.011c-.15,0-.3.005-.45,0l-.449-.012c-.3-.01-.6-.013-.9-.028a35.552,35.552,0,0,1-13.806-3.627,34.318,34.318,0,0,1-11.222-8.815c-.369-.473-.756-.931-1.1-1.424-.174-.244-.357-.482-.524-.731l-.5-.75c-.171-.247-.318-.507-.475-.762s-.315-.509-.46-.771c-.288-.524-.59-1.04-.855-1.575-.558-1.057-1.048-2.144-1.531-3.231-.467-1.094-.922-2.193-1.346-3.3-.86-2.211-1.66-4.436-2.52-6.631-.433-1.1-.873-2.187-1.352-3.26s-.98-2.13-1.534-3.161a32.92,32.92,0,0,0-3.917-5.793c-.375-.445-.775-.869-1.178-1.287s-.828-.815-1.27-1.192a19.183,19.183,0,0,0-2.806-2.039,16.849,16.849,0,0,0-1.534-.8c-.259-.127-.529-.228-.795-.341-.134-.052-.27-.1-.405-.15s-.27-.1-.408-.142l-.411-.132c-.138-.042-.277-.077-.416-.116-.276-.083-.56-.134-.841-.2-.141-.029-.281-.065-.423-.089l-.427-.065-.427-.065c-.143-.017-.287-.027-.43-.041a16.54,16.54,0,0,0-6.829.823,24.787,24.787,0,0,0-6.2,3.164,38,38,0,0,0-5.34,4.543,50.581,50.581,0,0,0-4.557,5.359c-.7.943-1.366,1.916-2.033,2.889s-1.324,1.956-1.985,2.937c-1.322,1.962-2.648,3.927-4.057,5.839a57.19,57.19,0,0,1-4.54,5.506,32.5,32.5,0,0,1-5.438,4.66,23.061,23.061,0,0,1-10.018,3.791,26.654,26.654,0,0,1-3.592.19,29.883,29.883,0,0,1-3.578-.316,32.98,32.98,0,0,1-3.506-.756c-1.152-.319-2.283-.706-3.4-1.134s-2.2-.929-3.268-1.457-2.106-1.119-3.125-1.736-2.009-1.282-2.973-1.983a48.425,48.425,0,0,1-5.45-4.608c-1.694-1.666-3.306-3.392-5.013-5.013-.855-.807-1.726-1.6-2.643-2.324-.455-.369-.927-.713-1.4-1.051s-.97-.649-1.477-.934a15.511,15.511,0,0,0-1.554-.784c-.263-.122-.536-.219-.805-.326-.136-.049-.274-.093-.411-.139l-.206-.069-.208-.059a11.616,11.616,0,0,0-1.692-.361l-.429-.051c-.143-.017-.287-.02-.431-.031-.287-.026-.576-.016-.865-.021a10.982,10.982,0,0,0-3.391.613,13.363,13.363,0,0,0-3.093,1.565,17.355,17.355,0,0,0-4.814,5,28.585,28.585,0,0,0-2.947,6.367c-.75,2.23-1.323,4.521-1.892,6.816Z" transform="translate(-49.671 -672.088)" fill="#bdeeee"/>
      <path id="Path_88" data-name="Path 88" d="M384.2,758.987c-.231,1.161-.463,2.324-.72,3.484s-.549,2.317-.884,3.467a29.409,29.409,0,0,1-2.778,6.7,19.028,19.028,0,0,1-2.186,3,17.589,17.589,0,0,1-2.777,2.531,14.494,14.494,0,0,1-3.362,1.842,12.493,12.493,0,0,1-3.84.817c-.329.006-.659.026-.988.008-.165-.007-.33-.006-.495-.021l-.494-.043a13.294,13.294,0,0,1-1.945-.352l-.239-.06-.235-.07c-.157-.048-.315-.093-.47-.144-.307-.11-.618-.213-.917-.34a17.387,17.387,0,0,1-1.753-.821c-.568-.3-1.108-.632-1.642-.972s-1.044-.7-1.539-1.082c-1-.746-1.936-1.544-2.847-2.352-1.815-1.616-3.494-3.323-5.184-4.886a46.057,46.057,0,0,0-5.313-4.227c-.934-.635-1.891-1.231-2.861-1.8s-1.969-1.076-2.977-1.555-2.038-.9-3.077-1.277-2.093-.7-3.153-.962a31.432,31.432,0,0,0-3.2-.606,26.92,26.92,0,0,0-3.2-.207,23.608,23.608,0,0,0-3.145.241,20.811,20.811,0,0,0-3.033.709l-.735.249c-.243.087-.48.191-.721.284-.12.049-.24.093-.359.145l-.354.162-.354.161c-.118.054-.232.117-.348.175a22.446,22.446,0,0,0-2.687,1.6,29.3,29.3,0,0,0-4.788,4.279,54.119,54.119,0,0,0-4.164,5.258c-1.315,1.861-2.59,3.8-3.877,5.78-.644.988-1.292,1.987-1.955,2.988s-1.329,2-2.07,3.034a54.283,54.283,0,0,1-4.823,5.836q-1.319,1.383-2.78,2.658a38.136,38.136,0,0,1-3.066,2.426,28.7,28.7,0,0,1-7.178,3.747,21.415,21.415,0,0,1-4.133.985,19.866,19.866,0,0,1-4.348.108,19.434,19.434,0,0,1-4.29-.859c-.176-.052-.347-.114-.519-.176s-.344-.122-.515-.188c-.336-.138-.679-.268-1.006-.423a21,21,0,0,1-1.926-.988,23.43,23.43,0,0,1-3.443-2.459c-.533-.449-1.029-.925-1.519-1.4s-.949-.981-1.388-1.492a37.209,37.209,0,0,1-4.485-6.511c-.31-.569-.612-1.141-.9-1.72-.145-.288-.283-.579-.42-.87s-.262-.573-.393-.861c-.522-1.146-.987-2.289-1.443-3.423-.9-2.264-1.717-4.5-2.561-6.629a39.9,39.9,0,0,0-6.143-11.29,29.906,29.906,0,0,0-9.764-7.616,31.12,31.12,0,0,0-12.037-3.138c-.259-.014-.518-.016-.776-.026l-.388-.012c-.129,0-.258,0-.387,0l-.775.007-.773.039c-.129.007-.258.011-.386.02l-.384.036c-.256.025-.513.043-.768.072-.508.072-1.021.123-1.523.223-.252.047-.506.081-.756.138l-.749.165c-.249.047-.5.13-.752.195l-.754.206-.377.1-.372.125-.745.25-.373.124-.186.063-.184.073-.736.292a46.306,46.306,0,0,0-11.171,6.647c-1.766,1.37-3.487,2.839-5.181,4.374-.421.388-.847.767-1.265,1.163l-1.256,1.185-1.25,1.205-1.252,1.227c-3.343,3.287-6.7,6.708-10.363,9.962-1.832,1.626-3.737,3.211-5.744,4.706a59.825,59.825,0,0,1-6.338,4.153c-.563.3-1.121.611-1.688.912l-.876.436-.886.413c-1.188.537-2.4,1.009-3.635,1.427a38.6,38.6,0,0,1-7.621,1.756,35.31,35.31,0,0,1-3.942.274,32.212,32.212,0,0,1-3.987-.2,29.01,29.01,0,0,1-3.973-.735,24.842,24.842,0,0,1-3.864-1.339,24.515,24.515,0,0,1-3.621-1.974l-.431-.286c-.142-.1-.28-.2-.419-.3-.278-.2-.56-.4-.823-.622s-.536-.426-.79-.653-.515-.446-.759-.681a31.667,31.667,0,0,1-5-6.115,63.871,63.871,0,0,1-3.59-6.527c-1.061-2.17-2.044-4.309-3.074-6.361-.514-1.026-1.04-2.03-1.59-3l-.208-.363c-.069-.119-.139-.247-.207-.355-.138-.223-.268-.451-.412-.671s-.284-.444-.436-.66-.3-.436-.459-.648a25.723,25.723,0,0,0-4.355-4.636,18.581,18.581,0,0,0-5.306-3.139,10.551,10.551,0,0,0-5.6-.587,8.729,8.729,0,0,0-2.592.963,9.738,9.738,0,0,0-2.259,1.763,14.192,14.192,0,0,0-1.861,2.437,27.065,27.065,0,0,0-1.53,2.9c-.938,2.04-1.734,4.238-2.607,6.472-.437,1.117-.894,2.246-1.406,3.372a28.762,28.762,0,0,1-1.766,3.336,17.579,17.579,0,0,1-2.408,3.09,13.1,13.1,0,0,1-3.23,2.393l-.452.225-.461.2c-.314.126-.63.253-.954.352a11.331,11.331,0,0,1-1.971.448,12.87,12.87,0,0,1-3.949-.093,15.031,15.031,0,0,1-1.885-.458,16.881,16.881,0,0,1-1.791-.685,17.253,17.253,0,0,1-3.257-1.925,17.869,17.869,0,0,1-2.758-2.542,23.154,23.154,0,0,1-2.18-2.978,34.211,34.211,0,0,1-3.029-6.566c-.4-1.128-.757-2.263-1.089-3.4s-.639-2.286-.945-3.429l.433-.137c.72,2.251,1.439,4.5,2.315,6.687a33.426,33.426,0,0,0,3.2,6.259,22.593,22.593,0,0,0,2.169,2.748q.6.633,1.263,1.2a17.341,17.341,0,0,0,1.382,1.066,15.849,15.849,0,0,0,1.484.917,15.322,15.322,0,0,0,3.215,1.323,13.491,13.491,0,0,0,1.7.357,11.263,11.263,0,0,0,3.446-.023,10.084,10.084,0,0,0,3.236-1.138,11.2,11.2,0,0,0,2.705-2.126,15.516,15.516,0,0,0,2.052-2.8,38.782,38.782,0,0,0,2.816-6.438c.8-2.22,1.537-4.475,2.467-6.671a28.277,28.277,0,0,1,1.587-3.217,16.9,16.9,0,0,1,2.116-2.929,12.462,12.462,0,0,1,2.8-2.317,11.517,11.517,0,0,1,3.376-1.37,12.033,12.033,0,0,1,3.632-.237,14.89,14.89,0,0,1,3.545.754,21.508,21.508,0,0,1,6.273,3.495,28.51,28.51,0,0,1,5.026,5.111c.184.236.355.482.534.723s.34.494.51.74.323.5.486.757.308.51.462.765c.606,1.025,1.176,2.068,1.728,3.119,1.1,2.1,2.13,4.234,3.2,6.334a63.441,63.441,0,0,0,3.489,6.125,28.1,28.1,0,0,0,4.483,5.352,20.565,20.565,0,0,0,5.832,3.746,23.364,23.364,0,0,0,6.742,1.7,28.218,28.218,0,0,0,3.493.142,31.313,31.313,0,0,0,3.49-.281,34.528,34.528,0,0,0,6.806-1.647,36.661,36.661,0,0,0,6.365-2.937,66.362,66.362,0,0,0,11.273-8.426c3.493-3.165,6.792-6.549,10.147-9.888a119.907,119.907,0,0,1,10.544-9.558l.706-.546c.236-.181.468-.367.711-.539l1.446-1.048,1.48-1c.5-.325,1.009-.635,1.514-.953a44.113,44.113,0,0,1,6.391-3.225l.834-.332.208-.083.212-.073.425-.143.851-.287.426-.143.433-.119.866-.239c.29-.076.575-.168.87-.226l.879-.195c.293-.066.59-.109.885-.164.589-.116,1.186-.18,1.78-.264.3-.034.6-.057.9-.087l.448-.042c.15-.011.3-.016.449-.025l.9-.047.9-.011c.15,0,.3-.005.45,0l.449.012c.3.01.6.013.9.028a35.55,35.55,0,0,1,13.806,3.627,34.318,34.318,0,0,1,11.222,8.815c.369.473.756.931,1.1,1.423.174.244.357.482.524.731l.5.75c.171.247.318.507.475.762s.315.51.46.771c.288.524.59,1.041.855,1.575.558,1.057,1.048,2.144,1.531,3.231.467,1.094.922,2.193,1.346,3.3.86,2.211,1.66,4.436,2.52,6.631.433,1.1.873,2.188,1.352,3.26s.98,2.13,1.534,3.161a32.912,32.912,0,0,0,3.916,5.793c.375.446.775.869,1.178,1.287s.828.815,1.27,1.192a19.2,19.2,0,0,0,2.806,2.039,16.876,16.876,0,0,0,1.534.8c.259.127.529.228.794.341.134.053.27.1.405.151s.27.1.408.142l.412.132c.138.042.277.077.416.116.276.083.56.134.841.2.141.029.281.065.423.089l.427.065.427.066c.143.017.287.027.43.041a16.54,16.54,0,0,0,6.829-.823,24.784,24.784,0,0,0,6.2-3.164,37.979,37.979,0,0,0,5.34-4.543,50.585,50.585,0,0,0,4.557-5.359c.7-.944,1.366-1.916,2.033-2.89s1.324-1.956,1.985-2.937c1.322-1.962,2.648-3.927,4.057-5.839a57.216,57.216,0,0,1,4.54-5.506,32.488,32.488,0,0,1,5.439-4.66,23.065,23.065,0,0,1,10.018-3.791,26.664,26.664,0,0,1,3.592-.19,29.908,29.908,0,0,1,3.578.316,32.957,32.957,0,0,1,3.506.756c1.152.319,2.283.706,3.4,1.134s2.2.929,3.268,1.457,2.106,1.119,3.125,1.736,2.009,1.282,2.973,1.983a48.442,48.442,0,0,1,5.45,4.608c1.694,1.666,3.306,3.392,5.013,5.013.855.807,1.726,1.6,2.643,2.324.455.369.927.713,1.4,1.051s.97.649,1.477.934a15.5,15.5,0,0,0,1.554.785c.263.122.536.219.805.326.136.049.274.093.411.139l.206.069.208.059a11.607,11.607,0,0,0,1.692.361l.429.051c.143.017.287.02.431.031.288.026.576.016.865.021a10.985,10.985,0,0,0,3.391-.613,13.366,13.366,0,0,0,3.093-1.565,17.358,17.358,0,0,0,4.814-5,28.584,28.584,0,0,0,2.947-6.367c.75-2.23,1.323-4.521,1.892-6.816Z" transform="translate(-49.562 -729.225)" fill="#94e6da"/>
      <g id="Group_118" data-name="Group 118" transform="translate(12.93 0)">
        <g id="Group_116" data-name="Group 116">
          <path id="Path_89" data-name="Path 89" d="M818.47,689.784a.771.771,0,0,1-.771-.771V607.025a.771.771,0,0,1,1.542,0v81.988A.771.771,0,0,1,818.47,689.784Z" transform="translate(-742.015 -606.254)" fill="#b9dcf7"/>
          <path id="Path_90" data-name="Path 90" d="M763.8,716.323a.771.771,0,0,1-.771-.771V641.524a.771.771,0,1,1,1.542,0v74.028A.771.771,0,0,1,763.8,716.323Z" transform="translate(-693.652 -636.773)" fill="#b9dcf7"/>
          <path id="Path_91" data-name="Path 91" d="M709.128,814.521a.771.771,0,0,1-.771-.771V769.174a.771.771,0,0,1,1.542,0V813.75A.771.771,0,0,1,709.128,814.521Z" transform="translate(-645.287 -749.697)" fill="#b9dcf7"/>
          <path id="Path_92" data-name="Path 92" d="M654.456,870.257a.771.771,0,0,1-.771-.771v-27.86a.771.771,0,0,1,1.542,0v27.86A.771.771,0,0,1,654.456,870.257Z" transform="translate(-596.922 -813.791)" fill="#b9dcf7"/>
          <path id="Path_93" data-name="Path 93" d="M599.784,918.029a.771.771,0,0,1-.771-.771V903.726a.771.771,0,0,1,1.542,0v13.532A.771.771,0,0,1,599.784,918.029Z" transform="translate(-548.557 -868.727)" fill="#b9dcf7"/>
          <path id="Path_94" data-name="Path 94" d="M545.112,940.211a.771.771,0,0,1-.771-.771v-6.879a.771.771,0,1,1,1.542,0v6.879A.771.771,0,0,1,545.112,940.211Z" transform="translate(-500.192 -894.236)" fill="#b9dcf7"/>
          <path id="Path_95" data-name="Path 95" d="M490.44,863.067a.771.771,0,0,1-.771-.771V832.28a.771.771,0,1,1,1.542,0V862.3A.771.771,0,0,1,490.44,863.067Z" transform="translate(-451.827 -805.523)" fill="#b9dcf7"/>
          <path id="Path_96" data-name="Path 96" d="M435.77,831.792a.771.771,0,0,1-.771-.771v-39.4a.771.771,0,1,1,1.542,0v39.4A.771.771,0,0,1,435.77,831.792Z" transform="translate(-403.464 -769.558)" fill="#b9dcf7"/>
          <path id="Path_97" data-name="Path 97" d="M381.1,765.071a.771.771,0,0,1-.771-.771V704.893a.771.771,0,1,1,1.542,0V764.3A.771.771,0,0,1,381.1,765.071Z" transform="translate(-355.099 -692.832)" fill="#b9dcf7"/>
          <path id="Path_98" data-name="Path 98" d="M326.426,760.9a.771.771,0,0,1-.771-.771V699.473a.771.771,0,0,1,1.542,0v60.658A.771.771,0,0,1,326.426,760.9Z" transform="translate(-306.734 -688.037)" fill="#b9dcf7"/>
          <path id="Path_99" data-name="Path 99" d="M271.754,869.322a.771.771,0,0,1-.771-.771v-28.14a.771.771,0,1,1,1.542,0v28.14A.771.771,0,0,1,271.754,869.322Z" transform="translate(-258.369 -812.716)" fill="#b9dcf7"/>
          <path id="Path_100" data-name="Path 100" d="M217.082,892.257a.771.771,0,0,1-.771-.771V870.224a.771.771,0,0,1,1.542,0v21.262A.771.771,0,0,1,217.082,892.257Z" transform="translate(-210.004 -839.09)" fill="#b9dcf7"/>
          <path id="Path_101" data-name="Path 101" d="M162.412,933.956a.771.771,0,0,1-.771-.771V924.43a.771.771,0,1,1,1.542,0v8.755A.771.771,0,0,1,162.412,933.956Z" transform="translate(-161.641 -887.043)" fill="#b9dcf7"/>
        </g>
        <g id="Group_117" data-name="Group 117" transform="translate(231.546)">
          <path id="Path_102" data-name="Path 102" d="M2169.546,689.784a.771.771,0,0,0,.771-.771V607.025a.771.771,0,0,0-1.542,0v81.988A.771.771,0,0,0,2169.546,689.784Z" transform="translate(-2168.775 -606.254)" fill="#b9dcf7"/>
          <path id="Path_103" data-name="Path 103" d="M2224.215,716.323a.771.771,0,0,0,.771-.771V641.524a.771.771,0,1,0-1.542,0v74.028A.771.771,0,0,0,2224.215,716.323Z" transform="translate(-2217.137 -636.773)" fill="#b9dcf7"/>
          <path id="Path_104" data-name="Path 104" d="M2278.888,814.521a.771.771,0,0,0,.771-.771V769.174a.771.771,0,0,0-1.542,0V813.75A.771.771,0,0,0,2278.888,814.521Z" transform="translate(-2265.503 -749.697)" fill="#b9dcf7"/>
          <path id="Path_105" data-name="Path 105" d="M2333.56,870.257a.771.771,0,0,0,.771-.771v-27.86a.771.771,0,0,0-1.542,0v27.86A.771.771,0,0,0,2333.56,870.257Z" transform="translate(-2313.868 -813.791)" fill="#b9dcf7"/>
          <path id="Path_106" data-name="Path 106" d="M2388.232,918.029a.771.771,0,0,0,.771-.771V903.726a.771.771,0,1,0-1.542,0v13.532A.771.771,0,0,0,2388.232,918.029Z" transform="translate(-2362.233 -868.727)" fill="#b9dcf7"/>
          <path id="Path_107" data-name="Path 107" d="M2442.9,940.211a.771.771,0,0,0,.771-.771v-6.879a.771.771,0,1,0-1.542,0v6.879A.771.771,0,0,0,2442.9,940.211Z" transform="translate(-2410.598 -894.236)" fill="#b9dcf7"/>
          <path id="Path_108" data-name="Path 108" d="M2497.576,863.067a.771.771,0,0,0,.771-.771V832.28a.771.771,0,0,0-1.542,0V862.3A.771.771,0,0,0,2497.576,863.067Z" transform="translate(-2458.963 -805.523)" fill="#b9dcf7"/>
          <path id="Path_109" data-name="Path 109" d="M2552.246,831.792a.771.771,0,0,0,.771-.771v-39.4a.771.771,0,1,0-1.542,0v39.4A.771.771,0,0,0,2552.246,831.792Z" transform="translate(-2507.326 -769.558)" fill="#b9dcf7"/>
          <path id="Path_110" data-name="Path 110" d="M2606.918,765.071a.771.771,0,0,0,.771-.771V704.893a.771.771,0,1,0-1.542,0V764.3A.771.771,0,0,0,2606.918,765.071Z" transform="translate(-2555.691 -692.832)" fill="#b9dcf7"/>
          <path id="Path_111" data-name="Path 111" d="M2661.59,760.9a.771.771,0,0,0,.771-.771V699.473a.771.771,0,0,0-1.542,0v60.658A.771.771,0,0,0,2661.59,760.9Z" transform="translate(-2604.056 -688.037)" fill="#b9dcf7"/>
          <path id="Path_112" data-name="Path 112" d="M2716.262,869.322a.771.771,0,0,0,.771-.771v-28.14a.771.771,0,1,0-1.542,0v28.14A.771.771,0,0,0,2716.262,869.322Z" transform="translate(-2652.421 -812.716)" fill="#b9dcf7"/>
          <path id="Path_113" data-name="Path 113" d="M2770.934,892.257a.771.771,0,0,0,.771-.771V870.224a.771.771,0,0,0-1.542,0v21.262A.771.771,0,0,0,2770.934,892.257Z" transform="translate(-2700.786 -839.09)" fill="#b9dcf7"/>
          <path id="Path_114" data-name="Path 114" d="M2825.6,933.956a.771.771,0,0,0,.771-.771V924.43a.771.771,0,1,0-1.542,0v8.755A.771.771,0,0,0,2825.6,933.956Z" transform="translate(-2749.149 -887.043)" fill="#b9dcf7"/>
        </g>
      </g>
    </g>
    <g id="Group_158" data-name="Group 158" transform="translate(142.338 344.119)">
      <path id="Path_115" data-name="Path 115" d="M998.216,380.331a59.25,59.25,0,0,0-54.632-36.212H913.075a59.25,59.25,0,0,0-59.294,59.294v30.509a59.25,59.25,0,0,0,59.294,59.294h30.509a59.25,59.25,0,0,0,59.294-59.294V403.413A58.933,58.933,0,0,0,998.216,380.331Zm.543,53.591A55.131,55.131,0,0,1,943.584,489.1H913.075A55.13,55.13,0,0,1,857.9,433.922V403.413a55.131,55.131,0,0,1,55.175-55.175h30.509a55.131,55.131,0,0,1,55.175,55.175Z" transform="translate(-853.781 -344.119)" fill="#b8ab9c"/>
      <g id="Group_153" data-name="Group 153" transform="translate(5.782 5.782)">
        <g id="Group_152" data-name="Group 152">
          <g id="Group_151" data-name="Group 151">
            <rect id="Rectangle_32" data-name="Rectangle 32" width="137.534" height="137.534" rx="68.767" fill="#6992b3"/>
            <g id="Group_150" data-name="Group 150" clip-path="url(#clip-path)">
              <g id="Group_149" data-name="Group 149" transform="translate(5.31 6.46)">
                <g id="Group_138" data-name="Group 138">
                  <path id="Path_116" data-name="Path 116" d="M968.669,1156.888c7.283-9.309,12.043-42.443,18.657-54.173,1.689-2.995,1.947-6.648,1.764-10.1s-.753-10.932-3.873-13.326c-9.339-.658-12.719,1.489-16.017,8.644-3.283,7.122-8.6,34.839-12.166,43.186-1.449,3.394-6.072,18.518-7.035,25.7C948.821,1165.612,962.4,1164.9,968.669,1156.888Z" transform="translate(-949.928 -1006.624)" fill="#e78657"/>
                  <path id="Path_117" data-name="Path 117" d="M996.639,1071.18s-8.653-2.286-13.275,4.184-18.024,52.453-18.024,52.453,15.437,7.13,31.969,3.435c0,0-.628-23.792.77-29.841S1000.772,1071.667,996.639,1071.18Z" transform="translate(-963.563 -999.2)" fill="#dde2eb"/>
                  <path id="Path_118" data-name="Path 118" d="M1730.509,1156.888c-7.284-9.309-12.043-42.443-18.657-54.173-1.689-2.995-1.947-6.648-1.764-10.1s.754-10.932,3.873-13.326c9.339-.658,12.719,1.489,16.017,8.644,3.283,7.122,8.6,34.839,12.166,43.186,1.449,3.394,6.072,18.518,7.035,25.7C1750.357,1165.612,1736.777,1164.9,1730.509,1156.888Z" transform="translate(-1622.35 -1006.624)" fill="#e78657"/>
                  <path id="Path_119" data-name="Path 119" d="M1741.8,1071.18s8.653-2.286,13.275,4.184,18.024,52.453,18.024,52.453-15.437,7.13-31.969,3.435c0,0,.628-23.792-.77-29.841S1737.663,1071.667,1741.8,1071.18Z" transform="translate(-1647.972 -999.2)" fill="#dde2eb"/>
                  <g id="Group_120" data-name="Group 120" transform="translate(44.299 46.595)">
                    <path id="Path_120" data-name="Path 120" d="M1372.461,878.7c-1.191-.246-6.429-.707-8.142-5.219s-3.659-19.338-3.659-19.338H1345.9s-1.946,14.826-3.659,19.338-6.951,4.974-8.142,5.219,3.955,5.93,8.142,9.125c3.872,2.956,7.2,2.336,11.037,2.227,3.84.11,7.165.729,11.037-2.227C1368.505,884.625,1373.651,878.941,1372.461,878.7Z" transform="translate(-1333.929 -854.138)" fill="#e78657"/>
                    <path id="Path_121" data-name="Path 121" d="M1406.095,864.557c5.779,2.43,12.92,2.2,15.4-1.673-.768-4.584-1.315-8.746-1.315-8.746h-14.757s-1.946,14.826-3.659,19.338a7.02,7.02,0,0,1-.554,1.139C1404.446,871.4,1404.177,864.724,1406.095,864.557Z" transform="translate(-1393.453 -854.138)" fill="#9c4e2b"/>
                  </g>
                  <g id="Group_121" data-name="Group 121" transform="translate(26.887 67.9)">
                    <path id="Path_122" data-name="Path 122" d="M1256.258,1085.164l.313-42.266c-6.976-.765-24.146-4.075-24.146-4.075.088,6.393-5.115,8.916-12.667,8.916s-12.706-2.523-12.618-8.916l-24.146,4.075.314,42.266,2.732,42.79s9.78,7.76,33.126,8.025v.008c.208,0,.411,0,.616,0s.408,0,.616,0v-.008c23.346-.265,33.126-8.025,33.126-8.025Z" transform="translate(-1182.995 -1038.823)" fill="#26b29c"/>
                  </g>
                  <g id="Group_137" data-name="Group 137" transform="translate(42.042)">
                    <g id="Group_123" data-name="Group 123" transform="translate(0 26.575)">
                      <g id="Group_122" data-name="Group 122">
                        <path id="Path_123" data-name="Path 123" d="M1322.946,692.784c.145.97-1.357,1.707-2.553,1.454a3.557,3.557,0,0,1-2.427-2.067c-.427-.917-.582-1.9-1.047-2.809-.838-1.633-2.416-3.026-2.547-4.784-.107-1.445,1.18-3.071,2.864-3.709,2.412-.914,4.5.65,5.477,1.875Z" transform="translate(-1314.366 -680.595)" fill="#e78657"/>
                        <path id="Path_124" data-name="Path 124" d="M1324.979,700.377a.1.1,0,0,0,.024,0,.1.1,0,0,0,.07-.119c-.067-.258-.119-.526-.17-.786a4.57,4.57,0,0,0-1.451-2.937,5.839,5.839,0,0,1-.893-1.147,2.838,2.838,0,0,1,3.761-3.885.1.1,0,0,0,.086-.175,3.033,3.033,0,0,0-4.019,4.152,5.988,5.988,0,0,0,.921,1.187,4.387,4.387,0,0,1,1.4,2.843c.051.263.1.534.173.8A.1.1,0,0,0,1324.979,700.377Z" transform="translate(-1321.156 -689.82)" fill="#9c4e2b"/>
                      </g>
                    </g>
                    <g id="Group_125" data-name="Group 125" transform="translate(35.315 26.575)">
                      <g id="Group_124" data-name="Group 124">
                        <path id="Path_125" data-name="Path 125" d="M1620.5,692.784c-.145.97,1.358,1.707,2.553,1.454a3.557,3.557,0,0,0,2.427-2.067c.427-.917.582-1.9,1.047-2.809.838-1.633,2.416-3.026,2.547-4.784.108-1.445-1.179-3.071-2.864-3.709-2.412-.914-4.5.65-5.477,1.875Z" transform="translate(-1620.487 -680.595)" fill="#e78657"/>
                        <path id="Path_126" data-name="Path 126" d="M1650.447,700.377a.094.094,0,0,1-.024,0,.1.1,0,0,1-.07-.119c.066-.258.119-.526.17-.786a4.57,4.57,0,0,1,1.451-2.937,5.839,5.839,0,0,0,.893-1.147,2.838,2.838,0,0,0-3.761-3.885.1.1,0,0,1-.086-.175,3.033,3.033,0,0,1,4.019,4.152,5.988,5.988,0,0,1-.921,1.187,4.385,4.385,0,0,0-1.4,2.843c-.052.263-.1.534-.173.8A.1.1,0,0,1,1650.447,700.377Z" transform="translate(-1645.68 -689.82)" fill="#9c4e2b"/>
                      </g>
                    </g>
                    <path id="Path_127" data-name="Path 127" d="M1377.016,509.978a25.663,25.663,0,0,0-12.376,3.279c-2.164,1.339-2.938,3.957-3.141,6.493l-1.11,13.871c-.252,3.152-.5,6.389.4,9.421.838,2.826,3.85,7.766,5.432,10.146a28.345,28.345,0,0,0,4.218,5.362c1.657,1.515,11.494,1.511,13.151,0a28.339,28.339,0,0,0,4.218-5.362c1.582-2.38,4.594-7.319,5.432-10.146.9-3.032.655-6.269.4-9.421q-.555-6.935-1.11-13.871c-.2-2.536-.977-5.154-3.141-6.493a25.635,25.635,0,0,0-12.334-3.277Z" transform="translate(-1354.875 -503.084)" fill="#e78657"/>
                    <path id="Path_128" data-name="Path 128" d="M1406.555,807.519s.634,4.95-.136,7.659c.264.415.511.795.73,1.124a28.339,28.339,0,0,0,4.218,5.362c1.657,1.515,11.494,1.511,13.151,0a28.343,28.343,0,0,0,4.217-5.362c.286-.431.62-.947.979-1.517-.957-2.279-.6-7.379-.6-7.379Z" transform="translate(-1395.8 -766.199)" fill="#49547a"/>
                    <g id="Group_135" data-name="Group 135" transform="translate(7.876 24.722)">
                      <g id="Group_127" data-name="Group 127" transform="translate(18.466 2.298)">
                        <g id="Group_126" data-name="Group 126" transform="translate(0 0.877)">
                          <path id="Path_129" data-name="Path 129" d="M1542.949,695.476q-.126-.144-.243-.3a6,6,0,0,1,4.233-2.274,5.788,5.788,0,0,1,4.163,1.492,5.3,5.3,0,0,1-3.879,2.821A4.95,4.95,0,0,1,1542.949,695.476Z" transform="translate(-1542.706 -692.797)" fill="#f5f5f5"/>
                          <ellipse id="Ellipse_10" data-name="Ellipse 10" cx="1.88" cy="1.834" rx="1.88" ry="1.834" transform="translate(1.934 0.44)" fill="#381d14"/>
                          <path id="Path_130" data-name="Path 130" d="M1542.958,694.75l-.009-.009q-.126-.144-.243-.3a6.054,6.054,0,0,1,4.2-2.371,5.963,5.963,0,0,1,4.2,1.589c-.047.087-.1.172-.147.256C1548.394,692.437,1544.927,692.121,1542.958,694.75Z" transform="translate(-1542.707 -692.061)" fill="#381d14"/>
                        </g>
                        <path id="Path_131" data-name="Path 131" d="M1543.872,686.585a.089.089,0,0,0,.058-.022,7.647,7.647,0,0,1,7.7-1.391.1.1,0,0,0,.124-.069.115.115,0,0,0-.061-.141,7.825,7.825,0,0,0-7.878,1.423.121.121,0,0,0-.02.155A.094.094,0,0,0,1543.872,686.585Z" transform="translate(-1543.651 -684.459)" fill="#9c4e2b"/>
                      </g>
                      <g id="Group_129" data-name="Group 129" transform="translate(1.983 2.298)">
                        <g id="Group_128" data-name="Group 128" transform="translate(0 0.877)">
                          <path id="Path_132" data-name="Path 132" d="M1407.98,695.476q.126-.144.243-.3a6,6,0,0,0-4.233-2.274,5.787,5.787,0,0,0-4.163,1.492,5.3,5.3,0,0,0,3.879,2.821A4.95,4.95,0,0,0,1407.98,695.476Z" transform="translate(-1399.826 -692.797)" fill="#f5f5f5"/>
                          <ellipse id="Ellipse_11" data-name="Ellipse 11" cx="1.88" cy="1.834" rx="1.88" ry="1.834" transform="translate(2.702 0.44)" fill="#381d14"/>
                          <path id="Path_133" data-name="Path 133" d="M1407.971,694.75l.009-.009q.126-.144.243-.3a6.054,6.054,0,0,0-4.2-2.371,5.963,5.963,0,0,0-4.2,1.589c.047.087.1.172.147.256C1402.536,692.437,1406,692.121,1407.971,694.75Z" transform="translate(-1399.826 -692.061)" fill="#381d14"/>
                        </g>
                        <path id="Path_134" data-name="Path 134" d="M1410.226,686.585a.089.089,0,0,1-.058-.022,7.647,7.647,0,0,0-7.7-1.391.1.1,0,0,1-.123-.069.115.115,0,0,1,.061-.141,7.825,7.825,0,0,1,7.878,1.423.121.121,0,0,1,.02.155A.094.094,0,0,1,1410.226,686.585Z" transform="translate(-1402.05 -684.459)" fill="#9c4e2b"/>
                      </g>
                      <g id="Group_133" data-name="Group 133" transform="translate(7.731 17.251)">
                        <g id="Group_132" data-name="Group 132">
                          <g id="Group_131" data-name="Group 131">
                            <g id="Group_130" data-name="Group 130">
                              <path id="Path_135" data-name="Path 135" d="M1462.894,814.3a16.1,16.1,0,0,0-2.578,2.2c-.658.755-1.608,1.3-3.765,1.306-2.005,0-3.389-.512-4.1-1.3a17.5,17.5,0,0,0-2.8-2.316c-.1-.028,1.48.053,2.692-.089s3.244.493,4.018.5a15.839,15.839,0,0,1,5.189-.415A6.037,6.037,0,0,1,1462.894,814.3Z" transform="translate(-1449.65 -814.077)" fill="#e75a3e"/>
                            </g>
                          </g>
                        </g>
                        <path id="Path_136" data-name="Path 136" d="M1459.955,817.384a15.014,15.014,0,0,1-2.925-.279,13.058,13.058,0,0,1-3.416-1.293.046.046,0,0,1,0-.085.15.15,0,0,1,.141,0,12.793,12.793,0,0,0,3.343,1.266,13.117,13.117,0,0,0,5.3.009c1.106-.314,3.529-1.272,3.553-1.281a.144.144,0,0,1,.138.017c.03.028.017.065-.029.083-.024.01-2.459.973-3.578,1.29A9.861,9.861,0,0,1,1459.955,817.384Z" transform="translate(-1453.129 -815.52)" fill="#ad442f"/>
                      </g>
                      <path id="Path_137" data-name="Path 137" d="M1542.73,666.291c-.554.026-.383-.716.3-1.319s4.61-.4,5.816-.4,4.12,2.11,4.12,2.11S1543.763,666.243,1542.73,666.291Z" transform="translate(-1523.969 -664.538)" fill="#3b2120"/>
                      <path id="Path_138" data-name="Path 138" d="M1392.874,666.291c.554.026.383-.716-.3-1.319s-4.61-.4-5.816-.4-4.12,2.11-4.12,2.11S1391.841,666.243,1392.874,666.291Z" transform="translate(-1382.636 -664.538)" fill="#3b2120"/>
                      <g id="Group_134" data-name="Group 134" transform="translate(10.38 2.864)">
                        <path id="Path_139" data-name="Path 139" d="M1474.38,702.624a1.974,1.974,0,0,1-.6-.093,1.8,1.8,0,0,1-1.162-1.059.182.182,0,1,1,.341-.124,1.519,1.519,0,0,0,2.174.69,3.21,3.21,0,0,0,.278-.226,1.853,1.853,0,0,1,.648-.422,1.873,1.873,0,0,1,1.26.182,1.675,1.675,0,0,0,1,.184,1.108,1.108,0,0,0,.606-1.309,3.921,3.921,0,0,0-.575-1.232c-.076-.125-.152-.249-.224-.375-1.537-2.7-1.109-5.951-.49-9.328a.182.182,0,0,1,.357.065c-.606,3.309-1.028,6.493.449,9.083.07.123.144.244.219.366a4.247,4.247,0,0,1,.621,1.35,1.457,1.457,0,0,1-.867,1.732,1.959,1.959,0,0,1-1.227-.2,1.59,1.59,0,0,0-1.019-.174,1.562,1.562,0,0,0-.518.349,3.494,3.494,0,0,1-.31.251A1.689,1.689,0,0,1,1474.38,702.624Z" transform="translate(-1472.61 -689.363)" fill="#9c4e2b"/>
                        <path id="Path_140" data-name="Path 140" d="M1532.49,785.791a.195.195,0,0,1-.07-.377,1.3,1.3,0,0,0,.814-1.216.194.194,0,0,1,.189-.2.191.191,0,0,1,.2.19,1.7,1.7,0,0,1-1.064,1.589A.194.194,0,0,1,1532.49,785.791Z" transform="translate(-1525.41 -773.081)" fill="#9c4e2b"/>
                      </g>
                    </g>
                    <g id="Group_136" data-name="Group 136" transform="translate(1.102)">
                      <path id="Path_141" data-name="Path 141" d="M1324.459,488.944c-.944-4.751-1.027-7.319,2.963-10.793,1.237-1.076,3.255-1.944,4.735-1.11a10.756,10.756,0,0,1,3.6-4.619c4-3.005-5.951,13.072-5.951,14.971,0,6.24-.163,6.23-1.1,18.446C1327.633,505.541,1324.868,491,1324.459,488.944Z" transform="translate(-1323.921 -469.533)" fill="#49547a"/>
                      <path id="Path_142" data-name="Path 142" d="M1384.524,478.391c2.085-10.664,2.349-16-1.641-19.476-1.237-1.076-3.255-1.944-4.735-1.11a10.754,10.754,0,0,0-3.6-4.618c-4-3.006-10.036-3.592-15.193-2.314s-7.865,4.009-11.551,7.284c-1.3,1.155.729,4.14,3.257,5.746,1.621,1.03,2.918,2.373,4.448,3.5a20.963,20.963,0,0,0,19.005,2.337c1.058-.4,2.184-1.034,2.318-2,0,0,.927,3.858,4.2,5.2l.888,13.571C1382.989,486.207,1384,481.073,1384.524,478.391Z" transform="translate(-1344.693 -450.236)" fill="#49547a"/>
                    </g>
                  </g>
                </g>
                <g id="Group_139" data-name="Group 139" transform="translate(45.5 66.408)">
                  <path id="Path_143" data-name="Path 143" d="M1517.694,1025.891s3.083.946,4.817,1.492,1.946,6.927,2.026,10.83-6.945,18.893-6.945,18.893-1.054-20.015-10.514-20.8C1507.078,1036.3,1517.751,1034.486,1517.694,1025.891Z" transform="translate(-1488.304 -1025.891)" fill="#89d1c4"/>
                  <path id="Path_144" data-name="Path 144" d="M1351.185,1026.773s-3.083.946-4.816,1.492-1.946,6.927-2.026,10.83,6.945,18.892,6.945,18.892,1.054-20.117,10.514-20.906C1361.8,1037.081,1351.128,1035.368,1351.185,1026.773Z" transform="translate(-1344.341 -1026.671)" fill="#89d1c4"/>
                </g>
                <path id="Path_145" data-name="Path 145" d="M1215.91,1125.958l-.45,0h-.333l-.45,0h-.589v-.016c-11.83-.2-20.072-2.352-24.929-4.139a30.87,30.87,0,0,1-7.969-4l-.2-.16-2.75-43.064-.318-42.329,25.322-5.4-.01,1.375c-.031,2.224,7.276,70.723,12.037,70.723,4.783,0,12.116-68.51,12.085-70.723l-.01-1.391,25.322,5.519-.318,42.226-2.75,43.064-.2.16a30.872,30.872,0,0,1-7.969,4c-4.858,1.787-13.1,3.94-24.933,4.139v.008Z" transform="translate(-1151.619 -960.313)" fill="#dde2eb"/>
                <g id="Group_148" data-name="Group 148" transform="translate(34.645 63.775)">
                  <path id="Path_146" data-name="Path 146" d="M1600.71,1021.5l-.005-.031c-1.271-6.8-3.06-11.663-5.468-14.865a12.993,12.993,0,0,0-3.9-3.535c-.23-.133.5,2.2.718,2.386,3.328,2.786,5.581,8.055,7.121,16.284l3.359,20.87,1.533-.224Z" transform="translate(-1551.951 -1003.065)" fill="#333"/>
                  <path id="Path_147" data-name="Path 147" d="M1311.623,1004.065a13.593,13.593,0,0,0-3.922,3.572c-2.526,3.34-4.265,8.161-5.318,14.738-1.987,12.414-3.761,23.364-3.779,23.473l1.53.248c.018-.109,1.792-11.06,3.779-23.476,1.252-7.825,3.529-13.151,6.894-16.062C1311.409,1006.037,1311.623,1004.065,1311.623,1004.065Z" transform="translate(-1293.026 -1003.95)" fill="#333"/>
                  <g id="Group_140" data-name="Group 140" transform="translate(0 37.768)">
                    <path id="Path_148" data-name="Path 148" d="M1268.463,1342.422c-2.411-.238-4.108-3.112-3.782-6.407s2.552-5.782,4.963-5.544,4.108,3.112,3.782,6.407S1270.874,1342.66,1268.463,1342.422Z" transform="translate(-1262.979 -1330.455)" fill="#b6bfc6"/>
                    <path id="Path_149" data-name="Path 149" d="M1265.674,1343.771c-2.316-.229-3.948-2.977-3.636-6.127s2.449-5.527,4.765-5.3,3.948,2.977,3.637,6.128S1267.99,1344,1265.674,1343.771Z" transform="translate(-1260.643 -1332.115)" fill="#c0d1dd"/>
                    <ellipse id="Ellipse_12" data-name="Ellipse 12" cx="5.212" cy="3.692" rx="5.212" ry="3.692" transform="matrix(0.098, -0.995, 0.995, 0.098, 1.408, 10.768)" fill="#80a9da"/>
                    <ellipse id="Ellipse_13" data-name="Ellipse 13" cx="3.568" cy="2.444" rx="3.568" ry="2.444" transform="translate(0 8.792) rotate(-84.36)" fill="#daedf5"/>
                    <path id="Path_150" data-name="Path 150" d="M1257.11,1357.333c-1.116-.11-1.888-1.576-1.721-3.268s1.211-2.979,2.327-2.868,1.888,1.577,1.721,3.268S1258.227,1357.443,1257.11,1357.333Z" transform="translate(-1254.775 -1348.798)" fill="#80a9da"/>
                  </g>
                  <g id="Group_147" data-name="Group 147" transform="translate(42.333 37.676)">
                    <g id="Group_146" data-name="Group 146">
                      <g id="Group_145" data-name="Group 145">
                        <g id="Group_144" data-name="Group 144">
                          <g id="Group_143" data-name="Group 143">
                            <g id="Group_141" data-name="Group 141" transform="translate(1.299 16.899)">
                              <path id="Path_151" data-name="Path 151" d="M1643.44,1499.47c-3.057-.015-9.654-1.492-10.919-5.9-1.088-3.79-4.011-16.507-4.041-16.635a.648.648,0,1,1,1.263-.29c.029.127,2.944,12.811,4.023,16.567.927,3.23,6.212,4.944,9.679,4.961a.648.648,0,1,1-.006,1.3Z" transform="translate(-1628.464 -1476.142)" fill="#a2a9ae"/>
                              <path id="Path_152" data-name="Path 152" d="M1751.083,1666.564l-1.094-.054a1.028,1.028,0,0,1-.973-1.074h0a1.027,1.027,0,0,1,1.074-.972l1.094.054a1.027,1.027,0,0,1,.973,1.074h0A1.027,1.027,0,0,1,1751.083,1666.564Z" transform="translate(-1735.108 -1642.737)" fill="#c1c6c9"/>
                            </g>
                            <g id="Group_142" data-name="Group 142" transform="translate(10.337 14.433)">
                              <path id="Path_153" data-name="Path 153" d="M1719.336,1480.757c2.938-.846,8.885-4.061,8.9-8.646.017-3.943-.745-16.976-.752-17.107-.018-.357-1.312-.293-1.294.064.006.131.767,13.128.75,17.037-.014,3.361-4.634,6.446-7.966,7.406a.648.648,0,1,0,.358,1.246Z" transform="translate(-1717.159 -1454.766)" fill="#a2a9ae"/>
                              <path id="Path_154" data-name="Path 154" d="M1708.161,1668.6l1.039-.35a1.028,1.028,0,0,0,.644-1.3h0a1.028,1.028,0,0,0-1.3-.644l-1.039.35a1.028,1.028,0,0,0-.644,1.3h0A1.028,1.028,0,0,0,1708.161,1668.6Z" transform="translate(-1706.81 -1641.855)" fill="#c1c6c9"/>
                            </g>
                            <path id="Path_155" data-name="Path 155" d="M1620.157,1347.555l-1.925.415-.929-6.7a10.208,10.208,0,0,1,20.222-2.8l.637,6.61-1.888.261-.637-6.61a8.3,8.3,0,0,0-16.446,2.278Z" transform="translate(-1617.206 -1329.657)" fill="#333"/>
                          </g>
                        </g>
                      </g>
                    </g>
                  </g>
                </g>
              </g>
            </g>
          </g>
        </g>
      </g>
      <g id="Group_157" data-name="Group 157" transform="translate(88.207 101.794)">
        <g id="Group_156" data-name="Group 156" transform="translate(0 0)">
          <circle id="Ellipse_14" data-name="Ellipse 14" cx="18.934" cy="18.934" r="18.934" transform="translate(0 26.777) rotate(-45)" fill="#e6e6e6"/>
          <circle id="Ellipse_15" data-name="Ellipse 15" cx="18.542" cy="18.542" r="18.542" transform="translate(0.555 26.777) rotate(-45)" fill="#fff"/>
          <g id="Group_155" data-name="Group 155" transform="translate(20.826 15.725)">
            <g id="Group_154" data-name="Group 154">
              <path id="Path_156" data-name="Path 156" d="M1809.823,1418.679v4.133a4.879,4.879,0,0,1-4.855,4.9,4.78,4.78,0,0,1-4.693-4.773v-4.26a.676.676,0,0,0-.676-.676h0a.676.676,0,0,0-.676.676v4.109a6.225,6.225,0,0,0,5.889,6.272,6.133,6.133,0,0,0,6.362-6.121v-4.26a.676.676,0,0,0-.676-.676h0A.676.676,0,0,0,1809.823,1418.679Z" transform="translate(-1798.923 -1411.638)" fill="#49547a"/>
              <rect id="Rectangle_34" data-name="Rectangle 34" width="7.115" height="14.858" rx="3.558" transform="translate(2.568)" fill="#49547a"/>
              <path id="Rectangle_35" data-name="Rectangle 35" d="M0,0H1.682a0,0,0,0,1,0,0V4.731a.841.841,0,0,1-.841.841h0A.841.841,0,0,1,0,4.731V0A0,0,0,0,1,0,0Z" transform="translate(5.285 16.532)" fill="#49547a"/>
              <path id="Path_157" data-name="Path 157" d="M1827.367,1548.522h-5.65a.761.761,0,0,1-.759-.759h0a.761.761,0,0,1,.759-.759h5.65a.761.761,0,0,1,.759.759h0A.761.761,0,0,1,1827.367,1548.522Z" transform="translate(-1818.417 -1525.758)" fill="#49547a"/>
            </g>
          </g>
        </g>
      </g>
    </g>
    <g id="Group_162" data-name="Group 162" transform="translate(149.653 507.932)">
      <g id="Group_161" data-name="Group 161">
        <g id="Group_159" data-name="Group 159">
          <rect id="Rectangle_36" data-name="Rectangle 36" width="28.84" height="28.84" rx="14.42" fill="#1da1f2"/>
        </g>
        <g id="Group_160" data-name="Group 160" transform="translate(3.859 3.527)">
          <rect id="Rectangle_37" data-name="Rectangle 37" width="3.765" height="21.787" rx="1.883" transform="translate(8.678)" fill="#fff"/>
          <rect id="Rectangle_38" data-name="Rectangle 38" width="3.765" height="21.787" rx="1.883" transform="matrix(0.454, 0.891, -0.891, 0.454, 19.412, 4.27)" fill="#fff"/>
          <rect id="Rectangle_39" data-name="Rectangle 39" width="3.765" height="21.787" rx="1.883" transform="matrix(-0.454, 0.891, -0.891, -0.454, 21.122, 14.162)" fill="#fff"/>
        </g>
      </g>
      <rect id="Rectangle_40" data-name="Rectangle 40" width="98.253" height="17.421" rx="8.711" transform="translate(36.214 5.71)" fill="#a6e8e8"/>
    </g>
    <g id="Group_165" data-name="Group 165" transform="translate(125.838 558.528)">
      <rect id="Rectangle_41" data-name="Rectangle 41" width="182.098" height="7.198" rx="3.599" transform="translate(0 19.46)" fill="#beeded" opacity="0.7"/>
      <g id="Group_163" data-name="Group 163" transform="translate(38.141 39.535)">
        <rect id="Rectangle_42" data-name="Rectangle 42" width="63.158" height="7.198" rx="3.599" fill="#beeded" opacity="0.7"/>
        <rect id="Rectangle_43" data-name="Rectangle 43" width="30.772" height="7.198" rx="3.599" transform="translate(75.044)" fill="#beeded" opacity="0.7"/>
      </g>
      <g id="Group_164" data-name="Group 164" transform="translate(39.693 0)">
        <rect id="Rectangle_44" data-name="Rectangle 44" width="102.712" height="7.198" rx="3.599" fill="#beeded" opacity="0.7"/>
      </g>
    </g>
  </g>
</svg>
