<svg xmlns="http://www.w3.org/2000/svg" width="31.23" height="20.461" viewBox="0 0 31.23 20.461">
  <g id="united-states-svgrepo-com" transform="translate(0 -88.275)">
    <path id="Path_4684" data-name="Path 4684" d="M28.891,88.276H2.339A2.339,2.339,0,0,0,0,90.615V106.4a2.339,2.339,0,0,0,2.339,2.339H28.891A2.339,2.339,0,0,0,31.23,106.4V90.615A2.339,2.339,0,0,0,28.891,88.276Z" transform="translate(0 -0.001)" fill="#f5f5f5"/>
    <g id="Group_1273" data-name="Group 1273" transform="translate(0 88.275)">
      <path id="Path_4685" data-name="Path 4685" d="M2.109,89.85H33.082a2.339,2.339,0,0,0-2.21-1.574H4.319A2.339,2.339,0,0,0,2.109,89.85Z" transform="translate(-1.98 -88.276)" fill="#ff4b55"/>
      <rect id="Rectangle_480" data-name="Rectangle 480" width="31.23" height="1.574" transform="translate(0 6.296)" fill="#ff4b55"/>
      <rect id="Rectangle_481" data-name="Rectangle 481" width="31.23" height="1.574" transform="translate(0 3.148)" fill="#ff4b55"/>
      <path id="Path_4686" data-name="Path 4686" d="M0,244.133a.539.539,0,0,0,.538.538H31.23V243.1H0Z" transform="translate(0 -233.654)" fill="#ff4b55"/>
      <rect id="Rectangle_482" data-name="Rectangle 482" width="31.23" height="1.574" transform="translate(0 15.74)" fill="#ff4b55"/>
      <path id="Path_4687" data-name="Path 4687" d="M33.082,397.92H2.109a2.339,2.339,0,0,0,2.21,1.574H30.871A2.339,2.339,0,0,0,33.082,397.92Z" transform="translate(-1.98 -379.033)" fill="#ff4b55"/>
      <rect id="Rectangle_483" data-name="Rectangle 483" width="31.23" height="1.574" transform="translate(0 12.592)" fill="#ff4b55"/>
    </g>
    <path id="Path_4688" data-name="Path 4688" d="M.538,99.293H14a.539.539,0,0,0,.538-.538V88.813A.538.538,0,0,0,14,88.275H2.339A2.339,2.339,0,0,0,0,90.614v8.14A.538.538,0,0,0,.538,99.293Z" fill="#41479b"/>
    <g id="Group_1274" data-name="Group 1274" transform="translate(0.869 89.476)">
      <path id="Path_4689" data-name="Path 4689" d="M14.9,108l.119.357.377,0a.051.051,0,0,1,.03.092l-.3.224.114.359a.051.051,0,0,1-.078.057l-.307-.219-.307.219a.051.051,0,0,1-.078-.057l.114-.359-.3-.224a.051.051,0,0,1,.03-.092l.377,0L14.8,108A.051.051,0,0,1,14.9,108Z" transform="translate(-14.253 -107.968)" fill="#f5f5f5"/>
      <path id="Path_4690" data-name="Path 4690" d="M14.9,138.657l.119.357.377,0a.051.051,0,0,1,.03.092l-.3.224.114.359a.051.051,0,0,1-.078.057l-.307-.219-.307.219a.051.051,0,0,1-.078-.057l.114-.359-.3-.224a.051.051,0,0,1,.03-.092l.377,0,.119-.357A.051.051,0,0,1,14.9,138.657Z" transform="translate(-14.253 -136.753)" fill="#f5f5f5"/>
      <path id="Path_4691" data-name="Path 4691" d="M14.9,169.312l.119.357.377,0a.051.051,0,0,1,.03.092l-.3.224.114.359a.051.051,0,0,1-.078.057l-.307-.219-.307.219a.051.051,0,0,1-.078-.057l.114-.359-.3-.224a.051.051,0,0,1,.03-.092l.377,0,.119-.357A.051.051,0,0,1,14.9,169.312Z" transform="translate(-14.253 -165.537)" fill="#f5f5f5"/>
      <path id="Path_4692" data-name="Path 4692" d="M14.9,199.966l.119.357.377,0a.051.051,0,0,1,.03.092l-.3.224.114.359a.051.051,0,0,1-.078.057l-.307-.219-.307.219a.051.051,0,0,1-.078-.057l.114-.359-.3-.224a.051.051,0,0,1,.03-.092l.377,0,.119-.357A.051.051,0,0,1,14.9,199.966Z" transform="translate(-14.253 -194.321)" fill="#f5f5f5"/>
      <path id="Path_4693" data-name="Path 4693" d="M14.9,230.62l.119.357.377,0a.051.051,0,0,1,.03.092l-.3.224.114.359a.051.051,0,0,1-.078.057l-.307-.219-.307.219a.051.051,0,0,1-.078-.057l.114-.359-.3-.224a.051.051,0,0,1,.03-.092l.377,0,.119-.357A.051.051,0,0,1,14.9,230.62Z" transform="translate(-14.253 -223.106)" fill="#f5f5f5"/>
      <path id="Path_4694" data-name="Path 4694" d="M38.688,123.032l.119.357.377,0a.051.051,0,0,1,.03.092l-.3.224.114.359a.051.051,0,0,1-.078.057l-.307-.219-.307.219a.051.051,0,0,1-.078-.057l.114-.359-.3-.224a.051.051,0,0,1,.03-.092l.377,0,.119-.357A.051.051,0,0,1,38.688,123.032Z" transform="translate(-36.594 -122.081)" fill="#f5f5f5"/>
      <path id="Path_4695" data-name="Path 4695" d="M38.688,153.686l.119.357.377,0a.051.051,0,0,1,.03.092l-.3.224.114.359a.051.051,0,0,1-.078.057l-.307-.219-.307.219a.051.051,0,0,1-.078-.057l.114-.359-.3-.224a.051.051,0,0,1,.03-.092l.377,0,.119-.357A.051.051,0,0,1,38.688,153.686Z" transform="translate(-36.594 -150.865)" fill="#f5f5f5"/>
      <path id="Path_4696" data-name="Path 4696" d="M38.688,184.34l.119.357.377,0a.051.051,0,0,1,.03.092l-.3.224.114.359a.051.051,0,0,1-.078.057l-.307-.219-.307.219a.051.051,0,0,1-.078-.057l.114-.359-.3-.224a.051.051,0,0,1,.03-.092l.377,0,.119-.357A.051.051,0,0,1,38.688,184.34Z" transform="translate(-36.594 -179.649)" fill="#f5f5f5"/>
      <path id="Path_4697" data-name="Path 4697" d="M38.688,215l.119.357.377,0a.051.051,0,0,1,.03.092l-.3.224.114.359a.051.051,0,0,1-.078.057l-.307-.219-.307.219a.051.051,0,0,1-.078-.057l.114-.359-.3-.224a.051.051,0,0,1,.03-.092l.377,0,.119-.357A.051.051,0,0,1,38.688,215Z" transform="translate(-36.594 -208.434)" fill="#f5f5f5"/>
      <path id="Path_4698" data-name="Path 4698" d="M62.481,108l.119.357.377,0a.051.051,0,0,1,.03.092l-.3.224.114.359a.051.051,0,0,1-.078.057l-.306-.219-.307.219a.051.051,0,0,1-.078-.057l.114-.359-.3-.224a.051.051,0,0,1,.03-.092l.377,0,.119-.357A.051.051,0,0,1,62.481,108Z" transform="translate(-58.936 -107.968)" fill="#f5f5f5"/>
      <path id="Path_4699" data-name="Path 4699" d="M62.481,138.657l.119.357.377,0a.051.051,0,0,1,.03.092l-.3.224.114.359a.051.051,0,0,1-.078.057l-.306-.219-.307.219a.051.051,0,0,1-.078-.057l.114-.359-.3-.224a.051.051,0,0,1,.03-.092l.377,0,.119-.357A.051.051,0,0,1,62.481,138.657Z" transform="translate(-58.936 -136.753)" fill="#f5f5f5"/>
      <path id="Path_4700" data-name="Path 4700" d="M62.481,169.311l.119.357.377,0a.051.051,0,0,1,.03.092l-.3.224.114.359a.051.051,0,0,1-.078.057l-.306-.219-.307.219a.051.051,0,0,1-.078-.057l.114-.359-.3-.224a.051.051,0,0,1,.03-.092l.377,0,.119-.357A.051.051,0,0,1,62.481,169.311Z" transform="translate(-58.936 -165.537)" fill="#f5f5f5"/>
      <path id="Path_4701" data-name="Path 4701" d="M62.481,199.965l.119.357.377,0a.051.051,0,0,1,.03.092l-.3.224.114.359a.051.051,0,0,1-.078.057l-.306-.219-.307.219a.051.051,0,0,1-.078-.057l.114-.359-.3-.224a.051.051,0,0,1,.03-.092l.377,0,.119-.357A.051.051,0,0,1,62.481,199.965Z" transform="translate(-58.936 -194.321)" fill="#f5f5f5"/>
      <path id="Path_4702" data-name="Path 4702" d="M62.481,230.62l.119.357.377,0a.051.051,0,0,1,.03.092l-.3.224.114.359a.051.051,0,0,1-.078.057l-.306-.219-.307.219a.051.051,0,0,1-.078-.057l.114-.359-.3-.224a.051.051,0,0,1,.03-.092l.377,0,.119-.357A.051.051,0,0,1,62.481,230.62Z" transform="translate(-58.936 -223.106)" fill="#f5f5f5"/>
      <path id="Path_4703" data-name="Path 4703" d="M86.275,123.032l.119.357.377,0a.051.051,0,0,1,.03.092l-.3.224.114.359a.051.051,0,0,1-.078.057l-.307-.219-.307.219a.051.051,0,0,1-.078-.057l.114-.359-.3-.224a.051.051,0,0,1,.03-.092l.377,0,.119-.357A.051.051,0,0,1,86.275,123.032Z" transform="translate(-81.279 -122.081)" fill="#f5f5f5"/>
      <path id="Path_4704" data-name="Path 4704" d="M86.275,153.686l.119.357.377,0a.051.051,0,0,1,.03.092l-.3.224.114.359a.051.051,0,0,1-.078.057l-.307-.219-.307.219a.051.051,0,0,1-.078-.057l.114-.359-.3-.224a.051.051,0,0,1,.03-.092l.377,0,.119-.357A.051.051,0,0,1,86.275,153.686Z" transform="translate(-81.279 -150.865)" fill="#f5f5f5"/>
      <path id="Path_4705" data-name="Path 4705" d="M86.275,184.34l.119.357.377,0a.051.051,0,0,1,.03.092l-.3.224.114.359a.051.051,0,0,1-.078.057l-.307-.219-.307.219a.051.051,0,0,1-.078-.057l.114-.359-.3-.224a.051.051,0,0,1,.03-.092l.377,0,.119-.357A.051.051,0,0,1,86.275,184.34Z" transform="translate(-81.279 -179.649)" fill="#f5f5f5"/>
      <path id="Path_4706" data-name="Path 4706" d="M86.275,215l.119.357.377,0a.051.051,0,0,1,.03.092l-.3.224.114.359a.051.051,0,0,1-.078.057l-.307-.219-.307.219a.051.051,0,0,1-.078-.057l.114-.359-.3-.224a.051.051,0,0,1,.03-.092l.377,0,.119-.357A.051.051,0,0,1,86.275,215Z" transform="translate(-81.279 -208.434)" fill="#f5f5f5"/>
      <path id="Path_4707" data-name="Path 4707" d="M110.067,108l.119.357.377,0a.051.051,0,0,1,.03.092l-.3.224.114.359a.051.051,0,0,1-.078.057l-.307-.219-.306.219a.051.051,0,0,1-.078-.057l.114-.359-.3-.224a.051.051,0,0,1,.03-.092l.377,0,.119-.357A.051.051,0,0,1,110.067,108Z" transform="translate(-103.62 -107.968)" fill="#f5f5f5"/>
      <path id="Path_4708" data-name="Path 4708" d="M110.067,138.657l.119.357.377,0a.051.051,0,0,1,.03.092l-.3.224.114.359a.051.051,0,0,1-.078.057l-.307-.219-.306.219a.051.051,0,0,1-.078-.057l.114-.359-.3-.224a.051.051,0,0,1,.03-.092l.377,0,.119-.357A.051.051,0,0,1,110.067,138.657Z" transform="translate(-103.62 -136.753)" fill="#f5f5f5"/>
      <path id="Path_4709" data-name="Path 4709" d="M110.067,169.311l.119.357.377,0a.051.051,0,0,1,.03.092l-.3.224.114.359a.051.051,0,0,1-.078.057l-.307-.219-.306.219a.051.051,0,0,1-.078-.057l.114-.359-.3-.224a.051.051,0,0,1,.03-.092l.377,0,.119-.357A.051.051,0,0,1,110.067,169.311Z" transform="translate(-103.62 -165.537)" fill="#f5f5f5"/>
      <path id="Path_4710" data-name="Path 4710" d="M110.067,199.965l.119.357.377,0a.051.051,0,0,1,.03.092l-.3.224.114.359a.051.051,0,0,1-.078.057l-.307-.219-.306.219a.051.051,0,0,1-.078-.057l.114-.359-.3-.224a.051.051,0,0,1,.03-.092l.377,0,.119-.357A.051.051,0,0,1,110.067,199.965Z" transform="translate(-103.62 -194.321)" fill="#f5f5f5"/>
      <path id="Path_4711" data-name="Path 4711" d="M110.067,230.62l.119.357.377,0a.051.051,0,0,1,.03.092l-.3.224.114.359a.051.051,0,0,1-.078.057l-.307-.219-.306.219a.051.051,0,0,1-.078-.057l.114-.359-.3-.224a.051.051,0,0,1,.03-.092l.377,0,.119-.357A.051.051,0,0,1,110.067,230.62Z" transform="translate(-103.62 -223.106)" fill="#f5f5f5"/>
      <path id="Path_4712" data-name="Path 4712" d="M133.861,123.032l.119.357.377,0a.051.051,0,0,1,.03.092l-.3.224.114.359a.051.051,0,0,1-.078.057l-.307-.219-.307.219a.051.051,0,0,1-.078-.057l.114-.359-.3-.224a.051.051,0,0,1,.03-.092l.377,0,.119-.357A.051.051,0,0,1,133.861,123.032Z" transform="translate(-125.962 -122.081)" fill="#f5f5f5"/>
      <path id="Path_4713" data-name="Path 4713" d="M133.861,153.686l.119.357.377,0a.051.051,0,0,1,.03.092l-.3.224.114.359a.051.051,0,0,1-.078.057l-.307-.219-.307.219a.051.051,0,0,1-.078-.057l.114-.359-.3-.224a.051.051,0,0,1,.03-.092l.377,0,.119-.357A.051.051,0,0,1,133.861,153.686Z" transform="translate(-125.962 -150.865)" fill="#f5f5f5"/>
      <path id="Path_4714" data-name="Path 4714" d="M133.861,184.34l.119.357.377,0a.051.051,0,0,1,.03.092l-.3.224.114.359a.051.051,0,0,1-.078.057l-.307-.219-.307.219a.051.051,0,0,1-.078-.057l.114-.359-.3-.224a.051.051,0,0,1,.03-.092l.377,0,.119-.357A.051.051,0,0,1,133.861,184.34Z" transform="translate(-125.962 -179.649)" fill="#f5f5f5"/>
      <path id="Path_4715" data-name="Path 4715" d="M133.861,215l.119.357.377,0a.051.051,0,0,1,.03.092l-.3.224.114.359a.051.051,0,0,1-.078.057l-.307-.219-.307.219a.051.051,0,0,1-.078-.057l.114-.359-.3-.224a.051.051,0,0,1,.03-.092l.377,0,.119-.357A.051.051,0,0,1,133.861,215Z" transform="translate(-125.962 -208.434)" fill="#f5f5f5"/>
      <path id="Path_4716" data-name="Path 4716" d="M157.655,108l.119.357.377,0a.051.051,0,0,1,.03.092l-.3.224.114.359a.051.051,0,0,1-.078.057l-.307-.219-.307.219a.051.051,0,0,1-.078-.057l.114-.359-.3-.224a.051.051,0,0,1,.03-.092l.377,0,.119-.357A.051.051,0,0,1,157.655,108Z" transform="translate(-148.305 -107.968)" fill="#f5f5f5"/>
      <path id="Path_4717" data-name="Path 4717" d="M157.655,138.657l.119.357.377,0a.051.051,0,0,1,.03.092l-.3.224.114.359a.051.051,0,0,1-.078.057l-.307-.219-.307.219a.051.051,0,0,1-.078-.057l.114-.359-.3-.224a.051.051,0,0,1,.03-.092l.377,0,.119-.357A.051.051,0,0,1,157.655,138.657Z" transform="translate(-148.305 -136.753)" fill="#f5f5f5"/>
      <path id="Path_4718" data-name="Path 4718" d="M157.655,169.311l.119.357.377,0a.051.051,0,0,1,.03.092l-.3.224.114.359a.051.051,0,0,1-.078.057l-.307-.219-.307.219a.051.051,0,0,1-.078-.057l.114-.359-.3-.224a.051.051,0,0,1,.03-.092l.377,0,.119-.357A.051.051,0,0,1,157.655,169.311Z" transform="translate(-148.305 -165.537)" fill="#f5f5f5"/>
      <path id="Path_4719" data-name="Path 4719" d="M157.655,199.965l.119.357.377,0a.051.051,0,0,1,.03.092l-.3.224.114.359a.051.051,0,0,1-.078.057l-.307-.219-.307.219a.051.051,0,0,1-.078-.057l.114-.359-.3-.224a.051.051,0,0,1,.03-.092l.377,0,.119-.357A.051.051,0,0,1,157.655,199.965Z" transform="translate(-148.305 -194.321)" fill="#f5f5f5"/>
      <path id="Path_4720" data-name="Path 4720" d="M157.655,230.62l.119.357.377,0a.051.051,0,0,1,.03.092l-.3.224.114.359a.051.051,0,0,1-.078.057l-.307-.219-.307.219a.051.051,0,0,1-.078-.057l.114-.359-.3-.224a.051.051,0,0,1,.03-.092l.377,0,.119-.357A.051.051,0,0,1,157.655,230.62Z" transform="translate(-148.305 -223.106)" fill="#f5f5f5"/>
      <path id="Path_4721" data-name="Path 4721" d="M181.448,123.032l.119.357.377,0a.051.051,0,0,1,.03.092l-.3.224.114.359a.051.051,0,0,1-.078.057l-.306-.219-.307.219a.051.051,0,0,1-.078-.057l.114-.359-.3-.224a.051.051,0,0,1,.03-.092l.377,0,.119-.357A.051.051,0,0,1,181.448,123.032Z" transform="translate(-170.647 -122.081)" fill="#f5f5f5"/>
      <path id="Path_4722" data-name="Path 4722" d="M181.448,153.686l.119.357.377,0a.051.051,0,0,1,.03.092l-.3.224.114.359a.051.051,0,0,1-.078.057l-.306-.219-.307.219a.051.051,0,0,1-.078-.057l.114-.359-.3-.224a.051.051,0,0,1,.03-.092l.377,0,.119-.357A.051.051,0,0,1,181.448,153.686Z" transform="translate(-170.647 -150.865)" fill="#f5f5f5"/>
      <path id="Path_4723" data-name="Path 4723" d="M181.448,184.34l.119.357.377,0a.051.051,0,0,1,.03.092l-.3.224.114.359a.051.051,0,0,1-.078.057l-.306-.219-.307.219a.051.051,0,0,1-.078-.057l.114-.359-.3-.224a.051.051,0,0,1,.03-.092l.377,0,.119-.357A.051.051,0,0,1,181.448,184.34Z" transform="translate(-170.647 -179.649)" fill="#f5f5f5"/>
      <path id="Path_4724" data-name="Path 4724" d="M181.448,215l.119.357.377,0a.051.051,0,0,1,.03.092l-.3.224.114.359a.051.051,0,0,1-.078.057l-.306-.219-.307.219a.051.051,0,0,1-.078-.057l.114-.359-.3-.224a.051.051,0,0,1,.03-.092l.377,0,.119-.357A.051.051,0,0,1,181.448,215Z" transform="translate(-170.647 -208.434)" fill="#f5f5f5"/>
      <path id="Path_4725" data-name="Path 4725" d="M205.242,108l.119.357.377,0a.051.051,0,0,1,.03.092l-.3.224.114.359a.051.051,0,0,1-.078.057l-.307-.219-.307.219a.051.051,0,0,1-.078-.057l.114-.359-.3-.224a.051.051,0,0,1,.03-.092l.377,0,.119-.357A.051.051,0,0,1,205.242,108Z" transform="translate(-192.989 -107.968)" fill="#f5f5f5"/>
      <path id="Path_4726" data-name="Path 4726" d="M205.242,138.657l.119.357.377,0a.051.051,0,0,1,.03.092l-.3.224.114.359a.051.051,0,0,1-.078.057l-.307-.219-.307.219a.051.051,0,0,1-.078-.057l.114-.359-.3-.224a.051.051,0,0,1,.03-.092l.377,0,.119-.357A.051.051,0,0,1,205.242,138.657Z" transform="translate(-192.989 -136.753)" fill="#f5f5f5"/>
      <path id="Path_4727" data-name="Path 4727" d="M205.242,169.311l.119.357.377,0a.051.051,0,0,1,.03.092l-.3.224.114.359a.051.051,0,0,1-.078.057l-.307-.219-.307.219a.051.051,0,0,1-.078-.057l.114-.359-.3-.224a.051.051,0,0,1,.03-.092l.377,0,.119-.357A.051.051,0,0,1,205.242,169.311Z" transform="translate(-192.989 -165.537)" fill="#f5f5f5"/>
      <path id="Path_4728" data-name="Path 4728" d="M205.242,199.965l.119.357.377,0a.051.051,0,0,1,.03.092l-.3.224.114.359a.051.051,0,0,1-.078.057l-.307-.219-.307.219a.051.051,0,0,1-.078-.057l.114-.359-.3-.224a.051.051,0,0,1,.03-.092l.377,0,.119-.357A.051.051,0,0,1,205.242,199.965Z" transform="translate(-192.989 -194.321)" fill="#f5f5f5"/>
      <path id="Path_4729" data-name="Path 4729" d="M205.242,230.62l.119.357.377,0a.051.051,0,0,1,.03.092l-.3.224.114.359a.051.051,0,0,1-.078.057l-.307-.219-.307.219a.051.051,0,0,1-.078-.057l.114-.359-.3-.224a.051.051,0,0,1,.03-.092l.377,0,.119-.357A.051.051,0,0,1,205.242,230.62Z" transform="translate(-192.989 -223.106)" fill="#f5f5f5"/>
    </g>
  </g>
</svg>
