<svg xmlns="http://www.w3.org/2000/svg" width="25.627" height="25.626" viewBox="0 0 25.627 25.626">
  <path id="Icon_ionic-md-settings" data-name="Icon ionic-md-settings" d="M25.919,17.47a8.013,8.013,0,0,0,.065-1.281c0-.449-.065-.833-.065-1.281l2.752-2.114a.588.588,0,0,0,.131-.833L26.181,7.539a.638.638,0,0,0-.786-.257L22.118,8.564a9.537,9.537,0,0,0-2.228-1.281l-.459-3.4a.7.7,0,0,0-.655-.512H13.534a.7.7,0,0,0-.655.512l-.524,3.4a11.1,11.1,0,0,0-2.228,1.281L6.85,7.283a.614.614,0,0,0-.786.257L3.443,11.96a.774.774,0,0,0,.131.833l2.818,2.114c0,.449-.065.833-.065,1.281s.065.833.065,1.281L3.64,19.584a.588.588,0,0,0-.131.833L6.13,24.837a.638.638,0,0,0,.786.257l3.276-1.281a9.536,9.536,0,0,0,2.228,1.281l.524,3.4A.635.635,0,0,0,13.6,29h5.242a.7.7,0,0,0,.655-.512l.525-3.4a11.09,11.09,0,0,0,2.228-1.281l3.276,1.281a.614.614,0,0,0,.786-.257l2.621-4.421a.773.773,0,0,0-.131-.833Zm-9.764,3.2a4.486,4.486,0,1,1,4.587-4.485A4.508,4.508,0,0,1,16.155,20.673Z" transform="translate(-3.375 -3.375)" fill="#3a2c70"/>
</svg>
