<svg xmlns="http://www.w3.org/2000/svg" xmlns:xlink="http://www.w3.org/1999/xlink" width="24" height="24" viewBox="0 0 24 24">
  <defs>
    <clipPath id="clip-path">
      <rect id="Rectangle_563" data-name="Rectangle 563" width="24" height="24" fill="#3a2c70" stroke="#3a2c70" stroke-width="0.5"/>
    </clipPath>
  </defs>
  <g id="vaccine_1" data-name="vaccine 1" clip-path="url(#clip-path)">
    <path id="Path_5090" data-name="Path 5090" d="M7.2,0a.4.4,0,0,0-.4.4V4.8H6A1.2,1.2,0,0,0,4.8,6v.4A1.2,1.2,0,0,0,3.6,7.6v9.2H2.8a.4.4,0,0,0-.4.4v.4A1.6,1.6,0,0,0,4,19.2H5.6v2.4H4.8a1.2,1.2,0,0,0-1.2,1.2v.8A.4.4,0,0,0,4,24h6.4a.4.4,0,0,0,.4-.4v-.8a1.2,1.2,0,0,0-1.2-1.2H8.8V19.2h1.6A1.6,1.6,0,0,0,12,17.6v-.4a.4.4,0,0,0-.4-.4h-.8V7.6A1.2,1.2,0,0,0,9.6,6.4V6A1.2,1.2,0,0,0,8.4,4.8H7.6V.4A.4.4,0,0,0,7.2,0ZM10,22.8v.4H4.4v-.4a.4.4,0,0,1,.4-.4H9.6A.4.4,0,0,1,10,22.8ZM8,21.6H6.4V19.2H8Zm2.4-3.2H4a.8.8,0,0,1-.8-.8h8A.8.8,0,0,1,10.4,18.4Zm-6-1.6V16h.8a.4.4,0,0,0,0-.8H4.4V13.862a3.436,3.436,0,0,0,2,.538,4.557,4.557,0,0,0,2.434-.7A3.565,3.565,0,0,1,10,13.236V16.8ZM10,7.6v4.826A4.092,4.092,0,0,0,8.449,13a3.781,3.781,0,0,1-2.049.6c-1.452,0-1.9-.687-2-.882V12.4h.8a.4.4,0,1,0,0-.8H4.4V10.4h.8a.4.4,0,1,0,0-.8H4.4v-2a.4.4,0,0,1,.4-.4H9.6A.4.4,0,0,1,10,7.6ZM8.8,6v.4H5.6V6A.4.4,0,0,1,6,5.6H8.4A.4.4,0,0,1,8.8,6Z" fill="#3a2c70" stroke="#3a2c70" stroke-width="0.5"/>
    <path id="Path_5091" data-name="Path 5091" d="M14.449,12.986l-1.063,1.063a1.986,1.986,0,0,0-.586,1.414V22.8A1.2,1.2,0,0,0,14,24h6.4a1.2,1.2,0,0,0,1.2-1.2V15.463a1.987,1.987,0,0,0-.586-1.414l-1.062-1.063a1.206,1.206,0,0,1-.352-.848V12a.8.8,0,0,0,.8-.8v-.8a.8.8,0,0,0-.8-.8h-.4V9.2A1.2,1.2,0,0,0,18,8H16.4a1.2,1.2,0,0,0-1.2,1.2v.4h-.4a.8.8,0,0,0-.8.8v.8a.8.8,0,0,0,.8.8v.137A1.209,1.209,0,0,1,14.449,12.986ZM20.8,20.8H13.6v-4h7.2Zm-.4,2.4H14a.4.4,0,0,1-.4-.4V21.6h7.2v1.2A.4.4,0,0,1,20.4,23.2ZM16,9.2a.4.4,0,0,1,.4-.4H18a.4.4,0,0,1,.4.4v.4H16Zm-1.2,1.2h4.8v.8H14.8Zm.214,3.151a1.987,1.987,0,0,0,.586-1.414V12h3.2v.137a1.987,1.987,0,0,0,.586,1.414l1.062,1.063a1.207,1.207,0,0,1,.352.848V16H13.6v-.537a1.208,1.208,0,0,1,.351-.848Z" fill="#3a2c70" stroke="#3a2c70" stroke-width="0.5"/>
    <path id="Path_5092" data-name="Path 5092" d="M16.4,19.2h.4v.4a.4.4,0,0,0,.8,0v-.4H18a.4.4,0,0,0,0-.8h-.4V18a.4.4,0,0,0-.8,0v.4h-.4a.4.4,0,0,0,0,.8Z" fill="#3a2c70" stroke="#3a2c70" stroke-width="0.5"/>
  </g>
</svg>
