<?xml version="1.0" encoding="UTF-8"?>
<svg xmlns="http://www.w3.org/2000/svg" xmlns:xlink="http://www.w3.org/1999/xlink" width="181.5pt" height="83.999999pt" viewBox="0 0 181.5 83.999999" version="1.2">
<defs>
<clipPath id="clip1">
  <path d="M 0 0.117188 L 181 0.117188 L 181 83.882812 L 0 83.882812 Z M 0 0.117188 "/>
</clipPath>
<clipPath id="clip2">
  <path d="M 50.96875 2.878906 L 130.46875 2.878906 L 130.46875 82.378906 L 50.96875 82.378906 Z M 50.96875 2.878906 "/>
</clipPath>
</defs>
<g id="surface1">
<g clip-path="url(#clip1)" clip-rule="nonzero">
<path style=" stroke:none;fill-rule:nonzero;fill:rgb(100%,100%,100%);fill-opacity:1;" d="M 0 0.117188 L 181.5 0.117188 L 181.5 267.117188 L 0 267.117188 Z M 0 0.117188 "/>
<path style=" stroke:none;fill-rule:nonzero;fill:rgb(100%,100%,100%);fill-opacity:1;" d="M 0 0.117188 L 181.5 0.117188 L 181.5 84.117188 L 0 84.117188 Z M 0 0.117188 "/>
<path style=" stroke:none;fill-rule:nonzero;fill:rgb(100%,100%,100%);fill-opacity:1;" d="M 0 0.117188 L 181.5 0.117188 L 181.5 84.117188 L 0 84.117188 Z M 0 0.117188 "/>
</g>
<g clip-path="url(#clip2)" clip-rule="nonzero">
<path style=" stroke:none;fill-rule:nonzero;fill:rgb(85.099792%,85.099792%,85.099792%);fill-opacity:1;" d="M 115.09375 49.738281 L 97.832031 49.738281 L 97.832031 67 L 83.582031 67 L 83.582031 49.738281 L 66.324219 49.738281 L 66.324219 35.492188 L 83.582031 35.492188 L 83.582031 18.230469 L 97.832031 18.230469 L 97.832031 35.492188 L 115.09375 35.492188 Z M 90.707031 2.867188 C 68.757812 2.867188 50.960938 20.664062 50.960938 42.617188 C 50.960938 64.566406 68.757812 82.363281 90.707031 82.363281 C 112.660156 82.363281 130.457031 64.566406 130.457031 42.617188 C 130.457031 20.664062 112.660156 2.867188 90.707031 2.867188 "/>
</g>
</g>
</svg>
