<?xml version="1.0" encoding="UTF-8"?>
<svg xmlns="http://www.w3.org/2000/svg" xmlns:xlink="http://www.w3.org/1999/xlink" width="181.5pt" height="83.999999pt" viewBox="0 0 181.5 83.999999" version="1.2">
<defs>
<clipPath id="clip1">
  <path d="M 0 0.117188 L 181 0.117188 L 181 83.882812 L 0 83.882812 Z M 0 0.117188 "/>
</clipPath>
<clipPath id="clip2">
  <path d="M 53 38 L 128 38 L 128 83.371094 L 53 83.371094 Z M 53 38 "/>
</clipPath>
<clipPath id="clip3">
  <path d="M 42.636719 0.871094 L 137.136719 0.871094 L 137.136719 47 L 42.636719 47 Z M 42.636719 0.871094 "/>
</clipPath>
</defs>
<g id="surface1">
<g clip-path="url(#clip1)" clip-rule="nonzero">
<path style=" stroke:none;fill-rule:nonzero;fill:rgb(100%,100%,100%);fill-opacity:1;" d="M 0 0.117188 L 181.5 0.117188 L 181.5 84.117188 L 0 84.117188 Z M 0 0.117188 "/>
<path style=" stroke:none;fill-rule:nonzero;fill:rgb(100%,100%,100%);fill-opacity:1;" d="M 0 0.117188 L 181.5 0.117188 L 181.5 84.117188 L 0 84.117188 Z M 0 0.117188 "/>
</g>
<g clip-path="url(#clip2)" clip-rule="nonzero">
<path style=" stroke:none;fill-rule:nonzero;fill:rgb(85.099792%,85.099792%,85.099792%);fill-opacity:1;" d="M 104.679688 48.421875 C 103.28125 48.421875 102.023438 47.570312 101.5 46.273438 L 99.171875 40.511719 L 92.179688 59.410156 C 91.679688 60.761719 90.390625 61.652344 88.964844 61.652344 C 88.894531 61.652344 88.824219 61.648438 88.757812 61.644531 C 87.246094 61.554688 85.972656 60.488281 85.621094 59.015625 L 80.636719 38.171875 L 78.109375 46.824219 C 77.683594 48.285156 76.339844 49.292969 74.816406 49.292969 L 53.339844 49.292969 L 61.070312 56.785156 C 72.792969 68.0625 87.941406 82.492188 88.09375 82.636719 C 88.589844 83.113281 89.226562 83.347656 89.867188 83.347656 C 90.507812 83.347656 91.148438 83.109375 91.644531 82.636719 C 91.914062 82.378906 116.445312 58.960938 127.316406 48.421875 Z M 104.679688 48.421875 "/>
</g>
<g clip-path="url(#clip3)" clip-rule="nonzero">
<path style=" stroke:none;fill-rule:nonzero;fill:rgb(85.099792%,85.099792%,85.099792%);fill-opacity:1;" d="M 72.242188 42.425781 L 77.671875 23.828125 C 78.105469 22.332031 79.496094 21.324219 81.050781 21.355469 C 82.605469 21.394531 83.941406 22.476562 84.304688 23.992188 L 89.667969 46.410156 L 95.8125 29.804688 C 96.300781 28.476562 97.5625 27.585938 98.980469 27.5625 L 99.03125 27.5625 C 100.429688 27.5625 101.6875 28.410156 102.210938 29.710938 L 106.996094 41.550781 L 133.273438 41.550781 C 135.757812 37.453125 137.128906 32.496094 137.128906 27.300781 C 137.128906 12.742188 125.949219 0.894531 112.210938 0.894531 C 102.429688 0.894531 93.945312 6.902344 89.867188 15.617188 C 85.792969 6.902344 77.3125 0.894531 67.527344 0.894531 C 53.789062 0.894531 42.613281 12.742188 42.613281 27.300781 C 42.613281 32.878906 44.179688 38.175781 47.011719 42.421875 L 72.242188 42.421875 Z M 72.242188 42.425781 "/>
</g>
</g>
</svg>
