<svg width="80" height="80" viewBox="0 0 80 80" fill="none" xmlns="http://www.w3.org/2000/svg">
<path d="M24 0.5H56C68.9787 0.5 79.5 11.0213 79.5 24V56C79.5 68.9787 68.9787 79.5 56 79.5H24C11.0213 79.5 0.5 68.9787 0.5 56V24C0.5 11.0213 11.0213 0.5 24 0.5Z" fill="white" stroke="#F0F0F0"/>
<path d="M50.488 25.1708C57.3841 25.2044 62.9664 30.7865 63 37.6828C63 50.3174 40.0001 62.8295 40.0001 62.8295C40.0001 62.8295 17 50.1335 17 37.6828C17 30.7727 22.6018 25.1708 29.512 25.1708C33.742 25.1378 37.6966 27.2654 40.0001 30.8134C42.3192 27.2826 46.2636 25.1606 50.488 25.1708Z" fill="#EE4970"/>
</svg>
