<svg xmlns="http://www.w3.org/2000/svg" width="30.032" height="23.354" viewBox="0 0 30.032 23.354">
  <path id="Icon_awesome-home" data-name="Icon awesome-home" d="M14.617,8.312,5,16.229v8.544a.834.834,0,0,0,.834.834l5.842-.015a.834.834,0,0,0,.83-.834v-4.99a.834.834,0,0,1,.834-.834h3.337a.834.834,0,0,1,.834.834v4.986a.834.834,0,0,0,.834.837l5.84.016a.834.834,0,0,0,.834-.834v-8.55l-9.61-7.911A.636.636,0,0,0,14.617,8.312ZM29.8,13.693,25.442,10.1V2.879a.626.626,0,0,0-.626-.626H21.9a.626.626,0,0,0-.626.626V6.665L16.6,2.824a2.5,2.5,0,0,0-3.18,0L.226,13.693a.626.626,0,0,0-.083.881L1.472,16.19a.626.626,0,0,0,.882.085l12.263-10.1a.636.636,0,0,1,.8,0l12.264,10.1a.626.626,0,0,0,.881-.083l1.329-1.616a.626.626,0,0,0-.089-.883Z" transform="translate(0.001 -2.254)" fill="#666"/>
</svg>
