<svg xmlns="http://www.w3.org/2000/svg" width="29.25" height="29.25" viewBox="0 0 29.25 29.25">
  <g id="Icon_ionic-ios-help-circle-outline" data-name="Icon ionic-ios-help-circle-outline" transform="translate(-3.375 -3.375)">
    <path id="Path_4962" data-name="Path 4962" d="M18,5.344A12.651,12.651,0,1,1,9.049,9.049,12.573,12.573,0,0,1,18,5.344m0-1.969A14.625,14.625,0,1,0,32.625,18,14.623,14.623,0,0,0,18,3.375Z" fill="#12b2b3"/>
    <path id="Path_4963" data-name="Path 4963" d="M18.049,11.25c2.637,0,4.451,1.462,4.451,3.565a3.439,3.439,0,0,1-1.976,3.122c-1.223.71-1.638,1.23-1.638,2.13v.555h-2.44l-.021-.6a2.927,2.927,0,0,1,1.659-3.094c1.188-.71,1.688-1.16,1.688-2.032A1.707,1.707,0,0,0,17.88,13.38,1.779,1.779,0,0,0,16,15.11H13.5C13.549,12.846,15.223,11.25,18.049,11.25ZM16.2,23.3a1.509,1.509,0,1,1,1.5,1.448A1.473,1.473,0,0,1,16.2,23.3Z" fill="#12b2b3"/>
  </g>
</svg>
