<svg xmlns="http://www.w3.org/2000/svg" xmlns:xlink="http://www.w3.org/1999/xlink" width="19" height="17" viewBox="0 0 19 17">
  <defs>
    <clipPath id="clip-path">
      <rect id="Rectangle_597" data-name="Rectangle 597" width="19" height="17" transform="translate(-0.142 0.485)" fill="#fff"/>
    </clipPath>
  </defs>
  <g id="Group_1433" data-name="Group 1433" transform="translate(0.142 -0.485)" clip-path="url(#clip-path)">
    <path id="Path_5154" data-name="Path 5154" d="M179.167,53.1l-1.886-1.347A2.06,2.06,0,0,0,175.246,50h-7.189A2.06,2.06,0,0,0,166,52.057v7.189a2.06,2.06,0,0,0,2.056,2.057h6.291a.56.56,0,0,0,.56-.559.554.554,0,0,0-.165-.4l1.606-1.605a.559.559,0,0,0,.955-.4V55.34l1.863-1.33a.561.561,0,0,0,0-.91Z" transform="translate(-166.142 -50.432)" fill="#00d8e0"/>
    <path id="Path_5155" data-name="Path 5155" d="M177.649,53.1l-1.886-1.347A2.06,2.06,0,0,0,173.728,50h-3.554V61.3h2.655a.559.559,0,0,0,.559-.559.553.553,0,0,0-.164-.4l1.605-1.605a.56.56,0,0,0,.956-.4V55.34l1.863-1.33a.561.561,0,0,0,0-.91Z" transform="translate(-164.624 -50.432)" fill="#00acb3"/>
    <path id="Path_5156" data-name="Path 5156" d="M172.406,56.31a2.377,2.377,0,0,1-1.225-.338,3.009,3.009,0,0,0,.79-1.735h.435a.315.315,0,0,0,0-.631H171v-.766a.316.316,0,0,0-.631,0v.766h-1.4a.315.315,0,0,0,0,.631h.435a3.007,3.007,0,0,0,.788,1.735,2.371,2.371,0,0,1-1.223.338.315.315,0,0,0,0,.631,3,3,0,0,0,1.718-.539,3,3,0,0,0,1.72.539.315.315,0,0,0,0-.631Zm-1.07-2.073a2.389,2.389,0,0,1-.649,1.34,2.378,2.378,0,0,1-.648-1.34Z" transform="translate(-165.178 -49.513)" fill="#fef4f5"/>
    <path id="Path_5157" data-name="Path 5157" d="M181.517,55.711h-7.189a2.06,2.06,0,0,0-2.058,2.057v3.906L170.407,63a.561.561,0,0,0,0,.91l1.886,1.347a2.06,2.06,0,0,0,2.035,1.753h7.189a2.06,2.06,0,0,0,2.056-2.057V57.768A2.059,2.059,0,0,0,181.517,55.711Z" transform="translate(-164.624 -48.354)" fill="#54e360"/>
    <path id="Path_5158" data-name="Path 5158" d="M179.451,55.711h-3.595v11.3h3.595a2.06,2.06,0,0,0,2.056-2.057V57.768a2.059,2.059,0,0,0-2.056-2.057Z" transform="translate(-162.558 -48.354)" fill="#00ab5e"/>
    <path id="Path_5159" data-name="Path 5159" d="M174.632,62.329a.416.416,0,0,1,.012-.06L175.8,58.5c.053-.18.275-.264.5-.264a.492.492,0,0,1,.5.264l1.155,3.768a.229.229,0,0,1,.012.06c0,.186-.281.323-.491.323-.132,0-.233-.042-.263-.156l-.228-.8h-1.372l-.228.8c-.03.114-.132.156-.265.156-.209,0-.491-.132-.491-.323Zm2.187-1.24-.522-1.839-.521,1.839Z" transform="translate(-163.003 -47.436)" fill="#fef4f5"/>
    <path id="Path_5160" data-name="Path 5160" d="M171.851,54.237a.315.315,0,1,0,0-.631h-1.4V52.84a.316.316,0,0,0-.276-.313v1.709h.608a2.4,2.4,0,0,1-.608,1.3v.894a3,3,0,0,0,1.677.512.315.315,0,1,0,0-.631,2.375,2.375,0,0,1-1.223-.338,3.008,3.008,0,0,0,.79-1.735Z" transform="translate(-164.624 -49.512)" fill="#d5eded"/>
    <path id="Path_5161" data-name="Path 5161" d="M177.512,62.269,176.355,58.5c-.053-.179-.273-.263-.5-.264V59.26l.52,1.829h-.52V61.7h.687l.226.8c.031.114.132.156.265.156.21,0,.491-.138.491-.323a.227.227,0,0,0-.012-.06Z" transform="translate(-162.558 -47.436)" fill="#d5eded"/>
  </g>
</svg>
