<svg xmlns="http://www.w3.org/2000/svg" width="214.844" height="421.327" viewBox="0 0 214.851 421.33">
  <g id="Male_Body_Back" data-name="Male Body Back" transform="translate(13990.527 -13544.539)">
    <g id="Male_Back_Body" data-name="Male Back Body" transform="translate(-13990.527 13544.54)">
      <path id="Right Hamstring" data-name="right thigh" d="M-6791.689,14585.075c-2.139,2.02-24.884,0-24.884,0a258.84,258.84,0,0,1,0-29.487c-.194-10.5-3.111-33.929-3.111-33.929s24.5.809,38.3-18.782c.584.2.973,21.205,0,29.687S-6789.552,14583.055-6791.689,14585.075Z" transform="translate(6929.156 -14292.521)" fill="#6eb1ce" opacity="0"/>
      <path id="Left Hamstring" data-name="left thigh" d="M-6808.788,14585.075c2.138,2.02,24.884,0,24.884,0a258.84,258.84,0,0,0,0-29.487c.194-10.5,3.11-33.929,3.11-33.929s-24.495.809-38.3-18.782c-.583.2-.972,21.205,0,29.687S-6810.926,14583.055-6808.788,14585.075Z" transform="translate(6885.375 -14292.521)" fill="#6eb1ce" opacity="0"/>
      <path id="Left Back of knee" data-name="left back of knee" d="M-7210.252,14660.784c5.637.329,24.5.129,25.078-1.085s2.139,19.188-5.055,24.64-20.023,1.615-20.023,1.615S-7206.558,14665.5-7210.252,14660.784Z" transform="translate(7287.279 -14367.331)" fill="#6eb1ce" opacity="0"/>
      <path id="Right Back of knee" data-name="right back of knee" d="M-7184.62,14660.784c-5.638.329-24.5.129-25.078-1.085s-2.139,19.188,5.055,24.64,20.023,1.615,20.023,1.615S-7188.313,14665.5-7184.62,14660.784Z" transform="translate(7321.982 -14367.331)" fill="#6eb1ce" opacity="0"/>
      <path id="Left Calf" data-name="left calf" d="M-7213.574,14706.2c-.7,3.464-3.806,18.044-3.806,20.913s1.85,14.339,3.566,19.837a52.975,52.975,0,0,1,2.07,8.484s19.095,2.987,19.326,0,0-12.549,0-12.549,2.53-5.257,2.53-8.006-.576-14.817-2.53-19.358c-.575-2.868.115-10.278-1.266-11S-7198.036,14710.146-7213.574,14706.2Z" transform="translate(7290.602 -14387.293)" fill="#6eb1ce" opacity="0"/>
      <path id="Right Calf" data-name="right calf" d="M-7193.692,14706.2c.7,3.464,3.806,18.044,3.806,20.913s-1.85,14.339-3.566,19.837a52.93,52.93,0,0,0-2.071,8.484s-19.095,2.987-19.325,0,0-12.549,0-12.549-2.53-5.257-2.53-8.006.575-14.817,2.53-19.358c.575-2.868-.115-10.278,1.266-11S-7209.23,14710.146-7193.692,14706.2Z" transform="translate(7330.643 -14387.293)" fill="#6eb1ce" opacity="0"/>
      <path id="Left Hip" data-name="left hip" d="M-7223.612,14452.844s5.084,16,6.281,25.015.9,17.4,2.991,19.264a13.381,13.381,0,0,1,2.991,3.729s-16.749-8.7-17.945-13.673a12.687,12.687,0,0,0,.923-4.928,112.97,112.97,0,0,1,1.087-12.637c.6-3.264,2.86-9.258,2.819-10.3S-7223.612,14452.844-7223.612,14452.844Z" transform="translate(7296.154 -14275.228)" fill="#6eb1ce" opacity="0"/>
      <path id="Right Hip" data-name="right hip" d="M-7217.032,14452.844s-5.084,16-6.281,25.015-.9,17.4-2.991,19.264a13.384,13.384,0,0,0-2.991,3.729s16.749-8.7,17.945-13.673a12.687,12.687,0,0,1-.924-4.928,112.739,112.739,0,0,0-1.087-12.637c-.6-3.264-2.86-9.258-2.819-10.3S-7217.032,14452.844-7217.032,14452.844Z" transform="translate(7358.648 -14275.228)" fill="#6eb1ce" opacity="0"/>
      <path id="Buttocks" d="M-7218.029,14450.328c4.612,16.988,7.73,33.636,7.477,39.149s16.268,10.345,23.343,3.255c2.076-2.112,3.341-10.835,3.341-10.835s.575,9.84,2.416,10.835,6.959,7.37,23.927,0c1.093-.8,2.358-19.8,3.509-24.578s4.717-17.687,4.717-17.687-28.586,1.039-34.568,13.109C-7186.326,14463.222-7191.709,14443.026-7218.029,14450.328Z" transform="translate(7290.904 -14273.401)" fill="#6eb1ce" opacity="0"/>
      <path id="Tail Bone" data-name="tail bone" d="M-7178.83,14448.905s9.8,5.093,12.933,12.871c4.152-3.748,11.027-9.618,17.357-10.254.068.212-4.424-6.718-15.928-5.94S-7178.83,14448.905-7178.83,14448.905Z" transform="translate(7272.633 -14271.968)" fill="#6eb1ce" opacity="0"/>
      <path id="Back 2" d="M-7219.716,14256c11.718,4.438,47.366,6.484,62.479,0,5.256,0,11.827,14.676,9.856,31.4s-4.6,22.526-4.6,22.526-2.957,21.846-5.256,25.257,1.643,20.14,3.285,22.87,0,5.8,0,5.8-26.777-12.63-68.667-2.049c-.493,0,4.983-18.772,2.9-26.623s-6.352-25.938-7.338-33.448S-7230.449,14267.946-7219.716,14256Z" transform="translate(7295.55 -14187.562)" fill="#6eb1ce" opacity="0"/>
      <path id="Lower Back" data-name="lower back" d="M-7218.029,14434.775s44.868-8.647,68.877,2.259a14.989,14.989,0,0,0-1.458-8.685c-2.722,0-11.47,1.414-12.636-6.866-.778-.2-43.548,0-43.548,0a14.233,14.233,0,0,1-9.915,6.866C-7216.952,14428.35-7218.029,14434.775-7218.029,14434.775Z" transform="translate(7290.904 -14261.223)" fill="#6eb1ce" opacity="0"/>
      <path id="Left Flank" data-name="left flank" d="M-7217.431,14408.357s10.064-2.51,11.075-9.075-2.868-19.166-11.923-23.629c-1.22-.264,1.822,10.365,2.353,11.194s1.416,11.306,0,15.166A22.846,22.846,0,0,0-7217.431,14408.357Z" transform="translate(7291.153 -14240.849)" fill="#6eb1ce" opacity="0"/>
      <path id="Right Flank" data-name="right flank" d="M-7207.334,14408.357s-10.064-2.51-11.075-9.075,2.868-19.166,11.922-23.629c1.22-.264-1.822,10.365-2.353,11.194s-1.416,11.306,0,15.166A22.839,22.839,0,0,1-7207.334,14408.357Z" transform="translate(7347.211 -14240.849)" fill="#6eb1ce" opacity="0"/>
      <path id="Back" data-name="back" d="M-7223.641,14353.232l2.244,12s17.2,9.786,11.814,25.943c.15.155,44.713,0,44.713,0s-1.42-21.595,12.637-25.79c.3-.465,2.579-12.157,2.579-12.157Z" transform="translate(7293.52 -14230.866)" fill="#6eb1ce" opacity="0"/>
      <path id="Upper Back" data-name="upper back" d="M-7228.032,14287.7c-.136-6.826-.452-24.68,8.394-32.033-.253-.262,19.4,9.453,62.171,0-.189,0,13.458,8.4,10.425,32.033s-5.56,22.58-5.56,22.58h-72.787S-7227.9,14294.523-7228.032,14287.7Z" transform="translate(7295.585 -14187.409)" fill="#6eb1ce" opacity="0"/>
      <path id="Neck" d="M699.327,287.992c.127-.246,7.522-2.462,10.485-4.719s9.875-5.335,9.875-5.335.068-9.922-1.315-13.821c.041-.467,4.309-.061,5.759,0s4.8-.019,7.1,0,4.515-.275,6.649-.231a42.914,42.914,0,0,0,5.84,0h4.108s-1.069,13.229-.251,14.052,8.648,4.586,11.336,6.286a59.21,59.21,0,0,0,8.3,3.768S740.591,297.822,699.327,287.992Z" transform="translate(-625.929 -219.276)" fill="#6eb1ce" opacity="0"/>
      <path id="Left Shoulder" data-name="left shoulder" d="M-7243.543,14300.361c-10.186-4.1-16.756-7.168-17.742-14.335s3.942-25.259,10.842-27.306,9.857-6.145,15.113-3.414C-7234.672,14255.307-7247.486,14266.912-7243.543,14300.361Z" transform="translate(7311.124 -14186.848)" fill="#6eb1ce" opacity="0"/>
      <path id="Right Shoulder" data-name="right shoulder" d="M-7253.172,14300.361c10.186-4.1,16.757-7.168,17.742-14.335s-3.943-25.259-10.842-27.306-9.856-6.145-15.113-3.414C-7262.043,14255.307-7249.229,14266.912-7253.172,14300.361Z" transform="translate(7400.444 -14185.664)" fill="#6eb1ce" opacity="0"/>
      <path id="Left Upper Arm" data-name="left arm" d="M-7264.085,14320.807s11.017,8.753,16.2,9.157c-.13,4.711,0,12.116-2.592,16.29-.259,1.483-1.685,9.022-1.685,9.022l-17.755-5.388s1.556-12.655,1.685-13.463-.259-5.922.907-7.136S-7264.085,14320.807-7264.085,14320.807Z" transform="translate(7315.089 -14216.424)" fill="#6eb1ce" opacity="0"/>
      <path id="Right Upper Arm" data-name="right arm" d="M-7253.717,14320.807s-11.016,8.753-16.2,9.157c.128,4.711,0,12.116,2.591,16.29.259,1.483,1.685,9.022,1.685,9.022l17.756-5.388s-1.555-12.655-1.685-13.463.26-5.922-.907-7.136S-7253.717,14320.807-7253.717,14320.807Z" transform="translate(7416.765 -14215.676)" fill="#6eb1ce" opacity="0"/>
      <path id="Left Elbow" data-name="left elbow" d="M-7278.055,14373.128c-.25-1.2,17.594,5.654,17.594,5.654l-1.944,6.867a19.569,19.569,0,0,1,.588,4.336,10.215,10.215,0,0,0-1.77,2.828l-2.256,6.04-21.534-8.868s3.589-4.8,5.384-6.874S-7277.805,14374.331-7278.055,14373.128Z" transform="translate(7323.228 -14239.663)" fill="#6eb1ce" opacity="0"/>
      <path id="Right Elbow" data-name="right elbow" d="M-7269.783,14373.128c.249-1.2-17.594,5.654-17.594,5.654l1.944,6.867a19.584,19.584,0,0,0-.587,4.336,10.222,10.222,0,0,1,1.769,2.828l2.256,6.04,21.534-8.868s-3.589-4.8-5.384-6.874S-7270.032,14374.331-7269.783,14373.128Z" transform="translate(7439.059 -14239.663)" fill="#6eb1ce" opacity="0"/>
      <path id="Left Forearm" data-name="left forearms" d="M-7299.042,14403.615l21.09,9.762s-8.827,21.89-16.8,28.4c.293.239-3.4,4.7-3.4,4.7l-14.257-6.318s1.5-2.7,3.291-6.215a73.872,73.872,0,0,0,4.885-14.811C-7303.929,14416.642-7299.042,14403.615-7299.042,14403.615Z" transform="translate(7334.893 -14253.305)" fill="#6eb1ce" opacity="0"/>
      <path id="Right Forearm" data-name="right forearms" d="M-7291.313,14403.615l-21.09,9.762s8.827,21.89,16.8,28.4c-.293.239,3.4,4.7,3.4,4.7l14.256-6.318s-1.5-2.7-3.291-6.215a73.809,73.809,0,0,1-4.885-14.811C-7286.426,14416.642-7291.313,14403.615-7291.313,14403.615Z" transform="translate(7469.119 -14253.305)" fill="#6eb1ce" opacity="0"/>
      <path id="Left Wrist" data-name="left wrist" d="M-7320.6,14470.163s-1.487,5.116-2.524,5.789-2.074,3.637-3.759,4.714a18.737,18.737,0,0,1-3.111,1.614s15.942,7.675,18.145,8.079a17.6,17.6,0,0,1,0-5.52c.518-2.021,5.962-8.888,5.962-8.888Z" transform="translate(7343.095 -14282.941)" fill="#6eb1ce" opacity="0"/>
      <path id="Right Wrist" data-name="right wrist" d="M-7315.286,14470.163s1.487,5.116,2.525,5.789,2.074,3.637,3.758,4.714a18.744,18.744,0,0,0,3.11,1.614s-15.941,7.675-18.144,8.079a17.6,17.6,0,0,0,0-5.52c-.519-2.021-5.962-8.888-5.962-8.888Z" transform="translate(7506.977 -14282.941)" fill="#6eb1ce" opacity="0"/>
      <path id="Left Palm" data-name="left palm" d="M-7334.647,14492.086s-4.573,4.441-5.221,6.193,1.944,5.52,1.944,5.52.648,6.732,4.147,8.887,14.646,1.887,14.646,1.887,3.629-11.715,2.981-14S-7334.647,14492.086-7334.647,14492.086Z" transform="translate(7347.743 -14292.705)" fill="#6eb1ce" opacity="0"/>
      <path id="Right Palm" data-name="right palm" d="M-7321.4,14492.086s4.573,4.441,5.221,6.193-1.945,5.52-1.945,5.52-.648,6.732-4.147,8.887-14.646,1.887-14.646,1.887-3.629-11.715-2.98-14S-7321.4,14492.086-7321.4,14492.086Z" transform="translate(7522.858 -14292.705)" fill="#6eb1ce" opacity="0"/>
      <path id="Left Fingers" data-name="left fingers" d="M-7346.757,14504.228s-3.493,5.657-4.012,6.732-3.758,1.886-3.758,2.827,1.555,3.905,3.758,2.021a82.526,82.526,0,0,0,5.962-6.192s-.26,8.615,0,11.443-1.038,11.444,0,13.2,2.592,2.423,2.98.671-1.157,2.4,1.192,3.14a3,3,0,0,0,3.085-2.2c.259-1.346-1.192,2.909,2,1.012,1.814-1.077,3.518-7.533,3.518-7.533s.7,3.521,3,0,3.333-9.833,3.333-9.833-15.337-.061-16.518-4.227.708-7.54-.708-8.948A10.452,10.452,0,0,0-7346.757,14504.228Z" transform="translate(7354.527 -14298.112)" fill="#6eb1ce" opacity="0"/>
      <path id="Right Fingers" data-name="right fingers" d="M-7333.464,14504.228s3.493,5.657,4.012,6.732,3.759,1.886,3.759,2.827-1.556,3.905-3.759,2.021a82.484,82.484,0,0,1-5.962-6.192s.26,8.615,0,11.443,1.037,11.444,0,13.2-2.592,2.423-2.98.671,1.157,2.4-1.192,3.14a3,3,0,0,1-3.084-2.2c-.259-1.346,1.192,2.909-2,1.012-1.814-1.077-3.518-7.533-3.518-7.533s-.7,3.521-3,0-3.333-9.833-3.333-9.833,15.337-.061,16.518-4.227-.708-7.54.708-8.948A10.448,10.448,0,0,1-7333.464,14504.228Z" transform="translate(7540.543 -14298.112)" fill="#6eb1ce" opacity="0"/>
      <path id="Back Head" d="M-6284.253,14164.71l-.709-5.956s-1.35.56-2.068,0-4.045-8.22-4.134-9.713-.27-7,1.347-5.322,3.327,3.547,3.327,3.547-2.519-12.888-.541-16.342,7.551-9.665,13.844-10.46,14.2,1.727,16.541,4.53,5.843,6.442,5.573,11.581a77.222,77.222,0,0,1-1.258,9.99s3.686-4.761,4.045-2.847a21.731,21.731,0,0,1,0,7.237c-.449,1.868-3.506,7.8-3.506,7.8a11.469,11.469,0,0,1-2.517.514c-.09,0-.9,5.883-.9,5.883Z" transform="translate(6377.163 -14120.316)" fill="#6eb1ce" opacity="0"/>
      <path id="Left Ankle" data-name="left ankle" d="M-7205.827,14796.5h18.535s.152,27.934.759,28.408-13.065,0-13.065,0Z" transform="translate(7285.216 -14428.28)" fill="#6eb1ce" opacity="0"/>
      <path id="right_ankle" data-name="right ankle" d="M-7186.512,14796.5h-18.535s-.152,27.934-.76,28.408,13.066,0,13.066,0Z" transform="translate(7322.054 -14428.28)" fill="#6eb1ce" opacity="0"/>
      <path id="Left Foot" data-name="left foot" d="M-7199.029,14848.1s-1.168,8.465-5.259,11.259c.234.365-1.169,6.92-1.169,6.92s6.9,4.249,7.6,4.614a37.446,37.446,0,0,0,6.312,1.7,37.733,37.733,0,0,0,5.142-1.7s-.7-3.765,0-5.343a24.3,24.3,0,0,0,1.052-2.429,36.1,36.1,0,0,0,.972-7.209c.05-.747.08-1.439.08-1.653,0-.728-.7-6.249-2.1-6.159S-7199.029,14848.1-7199.029,14848.1Z" transform="translate(7285.044 -14451.26)" fill="#6eb1ce" opacity="0"/>
      <path id="Right Foot" data-name="right foot" d="M-7190.732,14848.1s1.168,8.465,5.259,11.259c-.234.365,1.169,6.92,1.169,6.92s-6.895,4.249-7.6,4.614a37.453,37.453,0,0,1-6.311,1.7,37.733,37.733,0,0,1-5.142-1.7s.7-3.765,0-5.343a24.183,24.183,0,0,1-1.052-2.429,36.1,36.1,0,0,1-.973-7.209c-.049-.747-.08-1.439-.08-1.653,0-.728.7-6.249,2.1-6.159S-7190.732,14848.1-7190.732,14848.1Z" transform="translate(7319.846 -14451.26)" fill="#6eb1ce" opacity="0"/>
      <path id="Left Toe" data-name="left toe" d="M-7211.49,14867.742c.468.485-1.636,7.771-1.636,7.771s-6.9-1.941-7.363-2.793a2.089,2.089,0,0,1,1.871-2.913C-7216.749,14869.807-7212.659,14868.349-7211.49,14867.742Z" transform="translate(7292.129 -14460.008)" fill="#6eb1ce" opacity="0"/>
      <path id="Right Toe" data-name="right toe" d="M-7220.589,14867.742c-.467.485,1.637,7.771,1.637,7.771s6.894-1.941,7.362-2.793a2.088,2.088,0,0,0-1.87-2.913C-7215.33,14869.807-7219.42,14868.349-7220.589,14867.742Z" transform="translate(7354.594 -14460.008)" fill="#6eb1ce" opacity="0"/>
    </g>
  </g>
</svg>
