<svg xmlns="http://www.w3.org/2000/svg" width="214.844" height="421.327" viewBox="0 0 214.844 421.327">
  <g id="Male_Body_Parts_selection" data-name="Male Body Parts selection" transform="translate(7112.798 -14191.778)">
    <path id="Neck" d="M699.327,286.553c.132-.245,7.758-2.445,10.814-4.685s10.185-5.3,10.185-5.3.437-11.6-.989-15.467c.042-.464,3.249,3.459,4.262,4.346s3.883,5.4,5.866,5.951,4.811,2.574,11.394-.422a31.372,31.372,0,0,0,4.03-4.494l4.853-5.4s-1.5,14.672-.656,15.488,8.919,4.553,11.691,6.241a62.282,62.282,0,0,0,8.558,3.74S741.886,296.313,699.327,286.553Z" transform="translate(-7739.882 13975.602)" fill="#6eb1ce" opacity="0"/>
    <path id="Upper central abdomen" data-name="upper central abdomen" d="M-6771.937,14354c1.253-1.1,14.572-7.677,28.2,0,.157-.314.157,11.593,1.567,18.175s.314,10.185-1.567,11.124-20.37,6.426-30.4-1.252c-1.567-2.508,1.254-13.476,1.254-13.476S-6771.311,14355.568-6771.937,14354Z" transform="translate(-247.533 -30.899)" fill="#6eb1ce" opacity="0"/>
    <path id="Lower abdomen" data-name="lower abdomen" d="M-6808.041,14430.887c.1.529-2.238,3.135,0,8.952s17.311,3.165,23.21,13,22.927,6.343,25.373,0,8.963-8.177,8.963-8.177l12.629-5.908-1.222-7.864S-6798.571,14438.912-6808.041,14430.887Z" transform="translate(-232.071 -66.883)" fill="#6eb1ce" opacity="0"/>
    <path id="Upper abdomen" data-name="upper abdomen" d="M-6813.35,14364.4c5.908-7.33,17.314-8.556,24.24-8.758,1.019,0-1.222,13.444-1.222,13.444s-2.444,9.981-1.833,12.833,3.463,4.89,6.926,5.7,20.166,1.019,22.61-1.222,4.278-1.628,3.463-7.333-1.63-23.426-1.63-23.426,21.592,2.241,23.426,8.758c-.814.612-6.519,12.019-5.5,17.52s.408,8.556,1.426,13.647c.815.814-48.276,9.166-68.646,1.427C-6808.461,14388.646-6806.423,14378.665-6813.35,14364.4Z" transform="translate(-230.121 -33.256)" fill="#6eb1ce" opacity="0"/>
    <path id="Scalp" d="M-6779.719,14160.862l-.927-5.777a13.267,13.267,0,0,1,.177-6.924c-.037-.013.949-4.122,2.771-5.994s3.771-4.813,11.487-6.96a18.663,18.663,0,0,1,16,3.4s4.6,3,5.571,6.372c.971,2.532,1.729,4.134,1.729,7.215a50.833,50.833,0,0,1-1.456,8.884s-.886-15.571-18.442-15.529S-6779.719,14160.862-6779.719,14160.862Z" transform="translate(-244.099 57.08)" fill="#6eb1ce" opacity="0"/>
    <path id="Forehead" d="M-6780.5,14162.677c9.453-1.521,16.438-3.051,37.157,0a7.627,7.627,0,0,0,.319-1.671c.093-1.392.464-2.319,0-3.06s-20.443-16.5-36.251-.835c-1.159,1.854-1.994,2.225-1.623,3.895S-6780.693,14161.862-6780.5,14162.677Z" transform="translate(-243.459 52.319)" fill="#6eb1ce" opacity="0"/>
    <path id="Nose" d="M-6753.554,14178.135c-.712,1.591-2.578,9.6-2.578,9.6s-.44,3.019,1.1,3.512,6.644,1.016,9.008.138c1.124-.575,1.3-1.924.449-3.649-1.316-2.248-2.325-7.9-2.874-9.161C-6749.275,14176.158-6752.841,14176.545-6753.554,14178.135Z" transform="translate(-255.026 39.033)" fill="#6eb1ce" opacity="0"/>
    <path id="Mouth" d="M-6761.123,14196.659c1.371-2.907,4.06-5.1,7.132-3.84s4.828,0,4.828,0,4.554-.822,5.98,3.512-5.047,6.145-8.888,5.761C-6753.936,14201.872-6760.793,14200.885-6761.123,14196.659Z" transform="translate(-253.591 38.435)" fill="#6eb1ce" opacity="0"/>
    <path id="Face" d="M-6762.557,14169.455c.062-.214-6.8,5.268-13.935,0,.109-.054.273,5.269.493,6.146a21.893,21.893,0,0,0,.6,3.072,13.711,13.711,0,0,1,.383,4.554c-.164.878,7.023-1.592,9.712-1.042s11.575.274,13.661,0,8.063-.932,8.612,0,.371-1.957.961-4.426a32.775,32.775,0,0,0,.5-6.516v-2s-8.856,3.579-13.824.214c-.1-.117.324,6.143,1.59,8.3a2.473,2.473,0,0,1-1.233,3.817c-.747,0-8.051.52-9.058-.423s-.811-2.921-.519-3.861S-6762.617,14169.671-6762.557,14169.455Z" transform="translate(-246.619 48.922)" fill="#6eb1ce" opacity="0"/>
    <path id="Jaw" d="M-6774.84,14183.648c-.357-1.5,8.915,13.03,11.882,13.4s8.9.372,9.833,0,11.106-10.062,11.477-12.659-.556,5.19-.648,6.118-.279,3.429-2.318,4.914a35.269,35.269,0,0,0-5.655,6.119c-.557.834-7.789,6.211-14.835.834-2.689-2.967-3.06-3.984-4.266-5.1s-4.3-4.1-4.579-6.139S-6774.483,14185.147-6774.84,14183.648Z" transform="translate(-247.423 43.393)" fill="#6eb1ce" opacity="0"/>
    <path id="Left Ear" data-name="left ear" d="M-6780.25,14167.06a30.24,30.24,0,0,1-2.58-3.129,1.066,1.066,0,0,0-1.919.44v4.664s1.536,4.772,1.919,5.54,1.317,4.061,1.756,4.335,2.468.493,2.139-1.428a36.012,36.012,0,0,1-.84-5.049C-6779.734,14171.259-6779.806,14167.6-6780.25,14167.06Z" transform="translate(-243.068 52.408)" fill="#6eb1ce" opacity="0"/>
    <path id="Right Ear" data-name="right ear" d="M-6783.4,14167.06a30.236,30.236,0,0,0,2.578-3.129,1.066,1.066,0,0,1,1.92.44v4.664s-1.537,4.772-1.92,5.54-1.316,4.061-1.756,4.335-2.468.493-2.14-1.428a35.784,35.784,0,0,0,.839-5.049C-6783.911,14171.259-6783.84,14167.6-6783.4,14167.06Z" transform="translate(-204.335 52.408)" fill="#6eb1ce" opacity="0"/>
    <path id="Left Eye" data-name="Left Eye" d="M-6776.419,14161.4l6.57-1.427s8.273-.284,8.772.713-1.213,3.922-2.782,4.635-6.7,1.43-7.417,1-5.009-1.142-5.144-2.067A18.971,18.971,0,0,1-6776.419,14161.4Z" transform="translate(-246.74 54.001)" fill="#6eb1ce" opacity="0"/>
    <path id="Right Eye" data-name="Right Eye" d="M-6761.048,14161.4l-6.57-1.427s-8.273-.284-8.772.713,1.212,3.922,2.782,4.635,6.7,1.43,7.417,1,5.008-1.142,5.143-2.067A19.04,19.04,0,0,0-6761.048,14161.4Z" transform="translate(-227.369 54.001)" fill="#6eb1ce" opacity="0"/>
    <path id="Upper Chest" data-name="upper chest" d="M-6817.851,14246.983c2.2-.6,46.524,11.33,71.956,0-.241.482,7.473,1.808,7.473,1.808s-20.34,17.478-87.987,1.567C-6826.98,14250.117-6820.05,14247.587-6817.851,14246.983Z" transform="translate(-224.248 14.895)" fill="#6eb1ce" opacity="0"/>
    <path id="Left Chest" data-name="left chest" d="M-6781.046,14262.438c-9.113-.3-21.889-.9-30.326-3.312s-13.258,22.661-11.691,26.277,4.1,11.449,3.736,14.1a75.789,75.789,0,0,0,0,9.281s12.655-9.523,20.129-9.281,16.754-2.771,18.152-7.593C-6779.479,14289.019-6779.525,14265.026-6781.046,14262.438Z" transform="translate(-225.754 9.914)" fill="#6eb1ce" opacity="0"/>
    <path id="Right Chest" data-name="right chest" d="M-6822.2,14262.438c9.113-.3,21.889-.9,30.326-3.312s13.258,22.661,11.692,26.277-4.1,11.449-3.736,14.1a75.891,75.891,0,0,1,0,9.281s-12.655-9.523-20.129-9.281-16.754-2.771-18.153-7.593C-6823.766,14289.019-6823.719,14265.026-6822.2,14262.438Z" transform="translate(-182.027 10.468)" fill="#6eb1ce" opacity="0"/>
    <path id="Lower Chest" data-name="lower chest" d="M-6815.7,14347.625c-.61-.613-.979-5.359-.572-6.785s42.535-23.565,78.588,1.082c.408.611.611,3.461-1.019,7.128S-6762.947,14323.18-6815.7,14347.625Z" transform="translate(-228.731 -21.997)" fill="#6eb1ce" opacity="0"/>
    <path id="Sternum" d="M-6755.249,14305.982c.157.156,6.737-2.665,12.222,0-.47-.312-6.581-22.092,0-28.675,0-.313-6.111,5.016-12.222,0C-6754.779,14277.778-6747.258,14294.23-6755.249,14305.982Z" transform="translate(-256.229 1.705)" fill="#6eb1ce" opacity="0"/>
    <path id="Left Shoulder" data-name="left shoulder" d="M-6829.918,14247.534c-2.506-.155-8.618,2.507-11.281,4.543s-10.812,10.5-10.968,21.312.94,11.126.94,11.126,12.535-.471,16.766-11.126,8.931-20.371,8.148-21.312S-6827.411,14247.691-6829.918,14247.534Z" transform="translate(-212.922 15.006)" fill="#6eb1ce" opacity="0"/>
    <path id="Right Shoulder" data-name="right shoulder" d="M-6848.493,14247.534c2.507-.155,8.618,2.507,11.282,4.543s10.813,10.5,10.969,21.312-.941,11.126-.941,11.126-12.535-.471-16.766-11.126-8.932-20.371-8.148-21.312S-6851,14247.691-6848.493,14247.534Z" transform="translate(-119.915 15.006)" fill="#6eb1ce" opacity="0"/>
    <path id="Left Armpit" data-name="left armpit" d="M-6827.088,14298.675c.44-.713-.383,5.651.659,7.517a6.623,6.623,0,0,1,1.042,2.742l-.549,5.433s-3.511,2.306-5.1-1.755-4.115-5.928-1.152-8.725A45.593,45.593,0,0,0-6827.088,14298.675Z" transform="translate(-221.261 -7.833)" fill="#6eb1ce" opacity="0"/>
    <path id="Right Armpit" data-name="rght armpit" d="M-6831.86,14298.675c-.439-.713.383,5.651-.658,7.517a6.621,6.621,0,0,0-1.043,2.742l.549,5.433s3.511,2.306,5.1-1.755,4.115-5.928,1.152-8.725A45.614,45.614,0,0,1-6831.86,14298.675Z" transform="translate(-130.511 -7.833)" fill="#6eb1ce" opacity="0"/>
    <path id="Left Upper Arm" data-name="left upper arm" d="M-6853.78,14312.071s7.111-2.021,9.16-2.865-1.687-.3,0,2.865,1.567,5.331,2.169,5.691,4.1,3.858,5.062,1.084-4.218,23.144-5.062,25.192-17.837-2.169-16.271-5.183,2.411-11.934,2.411-13.26.6-7.593,1.687-10.483S-6853.78,14312.071-6853.78,14312.071Z" transform="translate(-209.963 -12.377)" fill="#6eb1ce" opacity="0"/>
    <path id="Right Upper Arm" data-name="right upper arm" d="M-6842.312,14312.071s-7.111-2.021-9.161-2.865,1.688-.3,0,2.865-1.566,5.331-2.169,5.691-4.1,3.858-5.062,1.084,4.218,23.144,5.062,25.192,17.839-2.169,16.272-5.183-2.411-11.934-2.411-13.26-.6-7.593-1.687-10.483S-6842.312,14312.071-6842.312,14312.071Z" transform="translate(-105.199 -12.377)" fill="#6eb1ce" opacity="0"/>
    <path id="Left Elbow" data-name="left elbow" d="M-6864.572,14364.829c-.549.929,8.815,5.378,16.14,4.637.277.094-.742,2.595-.556,3.895s1.483,3.059,1.113,4.357-2.411,3.987-2.411,4.449-.926,3.711-.926,3.711-20.768-7.141-20.4-10.2C-6870.591,14374.659-6864.858,14366.591-6864.572,14364.829Z" transform="translate(-204.249 -37.397)" fill="#6eb1ce" opacity="0"/>
    <path id="Right Elbow" data-name="right elbow" d="M-6854.854,14364.829c.549.929-8.815,5.378-16.14,4.637-.279.094.742,2.595.557,3.895s-1.483,3.059-1.113,4.357,2.411,3.987,2.411,4.449.926,3.711.926,3.711,20.768-7.141,20.4-10.2C-6848.834,14374.659-6854.568,14366.591-6854.854,14364.829Z" transform="translate(-87.444 -37.397)" fill="#6eb1ce" opacity="0"/>
    <path id="Left Forearm" data-name="left forearm" d="M-6881.779,14385.163c1.31,1.757,3.252,5,20.646,9.86.313-.157-8.3,20.369-15.669,27.89,0,.471-19.117-1.725-17.549-3.761a24.816,24.816,0,0,0,4.544-10.968C-6889.182,14403.484-6888.452,14395.052-6881.779,14385.163Z" transform="translate(-194.188 -46.447)" fill="#6eb1ce" opacity="0"/>
    <path id="Right Forearm" data-name="right forearm" d="M-6873.791,14385.163c-1.31,1.757-3.252,5-20.644,9.86-.314-.157,8.3,20.369,15.668,27.89,0,.471,19.116-1.725,17.549-3.761a24.816,24.816,0,0,1-4.543-10.968C-6866.388,14403.484-6867.117,14395.052-6873.791,14385.163Z" transform="translate(-61.127 -46.447)" fill="#6eb1ce" opacity="0"/>
    <path id="Left Wrist" data-name="left wrist" d="M-6900.2,14447.546s11.08,4.278,17.57,3.494c.214-.142-11.125,14.479-10.7,16.547s-9.629-6.2-13.908-5.135c-.356.285,3.5-2.646,4.07-5.569A89.1,89.1,0,0,1-6900.2,14447.546Z" transform="translate(-188.428 -74.34)" fill="#6eb1ce" opacity="0"/>
    <path id="Right Wrist" data-name="right wrist" d="M-6889.687,14447.546s-11.082,4.278-17.571,3.494c-.214-.142,11.125,14.479,10.7,16.547s9.629-6.2,13.908-5.135c.356.285-3.5-2.646-4.07-5.569A89.216,89.216,0,0,0-6889.687,14447.546Z" transform="translate(-32.751 -74.34)" fill="#6eb1ce" opacity="0"/>
    <path id="Left Fingers" data-name="left fingers" d="M-6929.062,14484.3s-3.432,4.9-3.986,5.922-2.132,4.079-2.875,4.728-2.874,1.854-2.317,2.782,2.646,1.9,4.778-.048,4.739-5.748,5.064-5.1-.683,3.051-.455,5.355,0,9.479,0,9.479-.373,7.84,0,8.911.146,1.624.893,2.013,1.753.39,1.916-.617-.585.745.195,1.819,2.045,2.595,3.831-.424c.422.65,1.623,1.979,3.247-.163s2.759-6.523,2.759-6.523,1.233,2.986,2.856.488,4.293-10.885,4.293-10.885-15.526,1.614-15.526-3.6-2.532-14.758-4.008-14.429S-6929.062,14484.3-6929.062,14484.3Z" transform="translate(-174.467 -90.583)" fill="#6eb1ce" opacity="0"/>
    <path id="Right Fingers" data-name="right fingers" d="M-6918.134,14484.3s3.43,4.9,3.987,5.922,2.132,4.079,2.875,4.728,2.873,1.854,2.318,2.782-2.646,1.9-4.779-.048-4.74-5.748-5.064-5.1.682,3.051.454,5.355,0,9.479,0,9.479.374,7.84,0,8.911-.146,1.624-.893,2.013-1.753.39-1.915-.617.584.745-.2,1.819-2.044,2.595-3.83-.424c-.422.65-1.624,1.979-3.247-.163s-2.759-6.523-2.759-6.523-1.234,2.986-2.857.488-4.293-10.885-4.293-10.885,15.525,1.614,15.525-3.6,2.532-14.758,4.01-14.429S-6918.134,14484.3-6918.134,14484.3Z" transform="translate(10.91 -90.583)" fill="#6eb1ce" opacity="0"/>
    <path id="Left Hand" data-name="left hand" d="M-6913.4,14474.172c-1.12.465-3.067,2.226-3.994,2.226s-3.523,3.432-3.523,3.432,2.132,1.761,3.523,9.735,1.2,7.786,7.046,8.251a46.992,46.992,0,0,0,9.179,0s3.059-8.437,2.6-11.125-.741-6.861-.741-6.861S-6910.329,14473.43-6913.4,14474.172Z" transform="translate(-182.294 -86.196)" fill="#6eb1ce" opacity="0"/>
    <path id="Right Hand" data-name="right hand" d="M-6906.039,14474.172c1.121.465,3.067,2.226,3.994,2.226s3.523,3.432,3.523,3.432-2.132,1.761-3.523,9.735-1.205,7.786-7.046,8.251a46.985,46.985,0,0,1-9.179,0s-3.059-8.437-2.6-11.125.741-6.861.741-6.861S-6909.106,14473.43-6906.039,14474.172Z" transform="translate(-9.481 -86.196)" fill="#6eb1ce" opacity="0"/>
    <path id="Above Pubic Bone" data-name="above pubic bone" d="M-6771.89,14463.167a18.2,18.2,0,0,0,2.142,11.466c.5,5.042,16.886,5.042,19.028,2.521s5.671-11.087,5.671-11.087,0-4.412-6.3-4.412-20.288.628-20.54,1.513" transform="translate(-245.879 -78.072)" fill="#6eb1ce" opacity="0"/>
    <path id="Pelvic" d="M-6813.275,14443.159c.674,1.1.2,4.388,8.821,6.111a32.114,32.114,0,0,1,14.572,7.521s-1.724,9.4,2.037,12.692,13.633,4.7,18.646,2.508c4.7-4.545,6.424-12.066,6.424-12.066s-1.41.312-.94-1.724,12.378-13.317,21.624-13.474c1.1.625.626,2.976,0,4.543-.6,1.49,5.157,10.51,5.171,16.766,0,.147-.127-1.4-.157-1.1-.627,6.268-31.651,18.177-32.122,18.334s5.642-9.872,3.918-11.282-4.388,3.446-11.282,2.193-11.125-1.254-13.319-4.7,0,2.508,0,2.508,2.037,8.3,2.037,11.282-29.614-4.859-30.4-7.521.314-15.67,2.351-18.961,2.1-7.05,2.617-7.521S-6814.419,14445.667-6813.275,14443.159Z" transform="translate(-227.809 -72.333)" fill="#6eb1ce" opacity="0"/>
    <path id="Genitals" d="M-6767.065,14490.133c-.548.278,3.9,24.385,3.994,26.332s7.047-1.113,7.047-1.113h2.874s4.45,4.636,5.007,1.113,3.894-20.957,4.542-22.533-1.483,1.395-6.3,1.484S-6765.111,14494.025-6767.065,14490.133Z" transform="translate(-250.903 -93.342)" fill="#6eb1ce" opacity="0"/>
    <path id="Left Thigh" data-name="left thigh" d="M-6808.446,14584.482c2.206,2.008,25.666,0,25.666,0a247.527,247.527,0,0,0,0-29.273c.2-10.426,3.208-33.685,3.208-33.685s-25.264.8-39.5-18.647c-.6.2-1,21.054,0,29.474S-6810.651,14582.479-6808.446,14584.482Z" transform="translate(-227.402 -98.858)" fill="#6eb1ce" opacity="0"/>
    <path id="Right Thigh" data-name="right thigh" d="M-6790.809,14584.482c-2.206,2.008-25.666,0-25.666,0a247.527,247.527,0,0,1,0-29.273c-.2-10.426-3.208-33.685-3.208-33.685s25.264.8,39.5-18.647c.6.2,1,21.054,0,29.474S-6788.6,14582.479-6790.809,14584.482Z" transform="translate(-184.022 -98.858)" fill="#6eb1ce" opacity="0"/>
    <path id="Left Knee" data-name="left knee" d="M-6797.225,14651.769c0,2.819.474,12.905.83,13.973s.119,7.948,0,9.607,20.17,2.613,20.17,2.613,4.508-23.318,3.559-26.193S-6774.446,14652.453-6797.225,14651.769Z" transform="translate(-237.457 -165.016)" fill="#6eb1ce" opacity="0"/>
    <path id="Right Knee" data-name="right knee" d="M-6772.535,14651.769c0,2.819-.475,12.905-.831,13.973s-.119,7.948,0,9.607-20.169,2.613-20.169,2.613-4.508-23.318-3.559-26.193S-6795.314,14652.453-6772.535,14651.769Z" transform="translate(-203.688 -165.016)" fill="#6eb1ce" opacity="0"/>
    <path id="Left Shin" data-name="left shin" d="M-6799.73,14696.329s-6.216,18.448-6.015,24.663,8.622,31.881,8.622,31.881,16.642,2.205,16.642,0,2.205-18.044,1.6-19.449,1.8-8.221,1.8-8.221-2.252-19.861-3.747-24.472c.5-1.537.665-2.244.665-2.244Z" transform="translate(-233.644 -185.045)" fill="#6eb1ce" opacity="0"/>
    <path id="Right Shin" data-name="right shin" d="M-6783.093,14696.329s6.216,18.448,6.016,24.663-8.622,31.881-8.622,31.881-16.642,2.205-16.642,0-2.206-18.044-1.6-19.449-1.8-8.221-1.8-8.221,2.252-19.861,3.748-24.472c-.5-1.537-.665-2.244-.665-2.244Z" transform="translate(-194.596 -185.045)" fill="#6eb1ce" opacity="0"/>
    <path id="Left Ankle" data-name="left ankle" d="M-6789.687,14798.979c.807.353,15.163,1.265,16.286.353s.493,15.584.493,15.584,2.948,8.423,2.667,9.617-12.354,3.914-13.268,3.281-.562-3.86-.421-4.562S-6788.493,14800.332-6789.687,14798.979Z" transform="translate(-240.834 -231.172)" fill="#6eb1ce" opacity="0"/>
    <path id="Right Ankle" data-name="right ankle" d="M-6770.222,14798.979c-.808.353-15.165,1.265-16.287.353s-.492,15.584-.492,15.584-2.948,8.423-2.667,9.617,12.355,3.914,13.269,3.281.562-3.86.421-4.562S-6771.416,14800.332-6770.222,14798.979Z" transform="translate(-209.933 -231.172)" fill="#6eb1ce" opacity="0"/>
    <path id="Left Foot" data-name="left foot" d="M-6784.65,14848.99s-3.089,7.928-7.653,8.488c-.21.141,19.938,1.406,21.481.352,0,.212-.069-7.58-.42-8.213a16.6,16.6,0,0,1-.42-3.721s-9.688,3.369-12.987,2.737" transform="translate(-239.661 -252.254)" fill="#6eb1ce" opacity="0"/>
    <path id="Right Foot" data-name="right foot" d="M-6778.474,14848.99s3.089,7.928,7.652,8.488c.211.141-19.937,1.406-21.481.352,0,.212.07-7.58.421-8.213a16.581,16.581,0,0,0,.421-3.721s9.688,3.369,12.988,2.737" transform="translate(-208.066 -252.254)" fill="#6eb1ce" opacity="0"/>
    <path id="Left Toe" data-name="left toe" d="M-6795.513,14867.122a126.791,126.791,0,0,0,20.921.353c.21,0,1.4,5.547.562,5.686s-2.458,1.614-5.266,1.614-4.142-.7-4.142-1.614-1.4.7-1.544.983a8.237,8.237,0,0,1-4.493.631c-1.031-.386-2.6.657-4.519-.631-.02-.009-.231-.214-.393-.363-.39-.215-1.978,1.4-3.243-.2.041-.064-2.462,1.652-2.854-.937a3.814,3.814,0,0,1,1.367-3.767Z" transform="translate(-235.972 -261.792)" fill="#6eb1ce" opacity="0"/>
    <path id="Right Toe" data-name="right toe" d="M-6778.762,14867.122a126.789,126.789,0,0,1-20.92.353c-.211,0-1.4,5.547-.561,5.686s2.457,1.614,5.265,1.614,4.143-.7,4.143-1.614,1.4.7,1.544.983a8.236,8.236,0,0,0,4.493.631c1.03-.386,2.6.657,4.519-.631.019-.009.231-.214.393-.363.39-.215,1.978,1.4,3.243-.2-.041-.064,2.461,1.652,2.854-.937a3.814,3.814,0,0,0-1.368-3.767Z" transform="translate(-200.54 -261.792)" fill="#6eb1ce" opacity="0"/>
    <path id="Left Groin" data-name="left groin" d="M-6677.738,18363.773c-.238-1.045-9.667-11.473-15.378-11.018s15.2,18.131,14.959,16.771S-6677.5,18364.82-6677.738,18363.773Z" transform="translate(-6680.478 -5121.232) rotate(-19)" fill="#6eb1ce" opacity="0"/>
    <path id="Right Groin" data-name="right groin" d="M-6694.064,18363.773c.239-1.045,9.667-11.473,15.378-11.018s-15.2,18.131-14.958,16.771S-6694.3,18364.82-6694.064,18363.773Z" transform="translate(3077.094 -2332.586) rotate(11)" fill="#6eb1ce" opacity="0"/>
  </g>
</svg>
