<svg xmlns="http://www.w3.org/2000/svg" width="19.092" height="19.092" viewBox="0 0 19.092 19.092">
  <g id="Group_5464" data-name="Group 5464" transform="translate(-132.282 -68.186)">
    <path id="Path_5133" data-name="Path 5133" d="M107.105,55.071a5.053,5.053,0,1,0-5.593,5v3.387H99.834a.559.559,0,0,0,0,1.119h1.679v1.678a.559.559,0,1,0,1.118,0V64.58h1.677a.559.559,0,1,0,0-1.119h-1.677V60.074a5.041,5.041,0,0,0,4.474-5Zm-8.986,0a3.934,3.934,0,1,1,3.953,3.915A3.957,3.957,0,0,1,98.119,55.071Z" transform="translate(35.282 18.186)" fill="#12b2b3"/>
    <path id="Path_5134" data-name="Path 5134" d="M109.183,58.411V53.578l1.283,1.283a.559.559,0,1,0,.791-.791l-2.238-2.237a.559.559,0,0,0-.791,0l-2.236,2.237a.559.559,0,0,0,.791.791l1.282-1.283v4.834a5.054,5.054,0,0,0,.559,10.074,5.052,5.052,0,0,0,.559-10.075Zm-.559,8.956a3.934,3.934,0,1,1,3.953-3.953A3.939,3.939,0,0,1,108.623,67.367Z" transform="translate(37.679 18.792)" fill="#12b2b3"/>
  </g>
</svg>
