<svg xmlns="http://www.w3.org/2000/svg" width="27.965" height="31.943" viewBox="0 0 27.965 31.943">
  <path id="Path_85" data-name="Path 85" d="M61.991,39.138A3.331,3.331,0,0,0,59.3,35.853V25.776a3.9,3.9,0,0,0-1.711-3.242,3.765,3.765,0,0,0-3.386-.428l-3.72-1.284a14.535,14.535,0,0,0-8.7-.293c-3.71,1.041-5.838,3.241-6.166,6.369a4.6,4.6,0,0,0-.678,1.3l-.289.868a1.039,1.039,0,0,0,.425,1.219,1,1,0,0,0,1.266-.132,2.074,2.074,0,0,1,.385-.3v6a3.348,3.348,0,0,0,.185,6.6,11.631,11.631,0,0,0,3.111,6.077,11.059,11.059,0,0,0,7.992,3.414h0a11.124,11.124,0,0,0,7.981-3.361,11.456,11.456,0,0,0,3.14-6.132A3.327,3.327,0,0,0,61.991,39.138Zm-5.06-15.6a2.657,2.657,0,0,1,1.181,2.238v7.882A3.9,3.9,0,0,1,54.861,29.8l-.049-6.623A2.56,2.56,0,0,1,56.931,23.538ZM36.056,28.584l-.115.346a3.168,3.168,0,0,1,3.581-.033A10.28,10.28,0,0,0,47.2,30.438a10.4,10.4,0,0,0,6.472-4.146l-.046-3.112L50.1,21.963a13.373,13.373,0,0,0-8.006-.272c-2.623.736-4.29,2.05-4.979,3.917.1-.054.207-.106.314-.153a4.443,4.443,0,0,1,3.675.059,3.3,3.3,0,0,0,3.887-.823l.147-.169a.586.586,0,0,1,.836-.052.609.609,0,0,1,.051.85l-.147.169A4.48,4.48,0,0,1,40.6,26.605a3.274,3.274,0,0,0-2.708-.043A3.357,3.357,0,0,0,36.056,28.584Zm-.844,10.554a2.135,2.135,0,0,1,1.509-2.049v3.265q0,.423.029.841A2.134,2.134,0,0,1,35.212,39.138Zm12.8,11.6a9.956,9.956,0,0,0,7.143-3.008,10.289,10.289,0,0,0,2.959-7.262V34.873A5.09,5.09,0,0,1,53.675,29.8V28.163a11.521,11.521,0,0,1-14.8,1.743,2.025,2.025,0,0,0-.969-.335V40.354a10.467,10.467,0,0,0,2.956,7.329,9.893,9.893,0,0,0,7.148,3.055Zm11.265-9.544c.015-.241.023-.482.023-.725V37.089a2.145,2.145,0,0,1-.023,4.1Zm-17.4-5.09a2.235,2.235,0,0,0-1.6.675.609.609,0,0,0,0,.852.586.586,0,0,0,.838,0,1.071,1.071,0,0,1,1.532,0,.586.586,0,0,0,.838,0,.609.609,0,0,0,0-.852A2.235,2.235,0,0,0,41.873,36.1Zm1.109,3.616a1.109,1.109,0,1,1-1.109-1.127A1.118,1.118,0,0,1,42.982,39.719Zm12.271,0a1.109,1.109,0,1,1-1.109-1.127A1.118,1.118,0,0,1,55.254,39.719Zm-2.713-2.089a.609.609,0,0,1,0-.852,2.245,2.245,0,0,1,3.208,0,.609.609,0,0,1,0,.852.586.586,0,0,1-.838,0,1.072,1.072,0,0,0-1.532,0A.586.586,0,0,1,52.541,37.631Zm-3.39,6.876a1.6,1.6,0,0,1-2.283,0,.586.586,0,0,0-.838,0,.609.609,0,0,0,0,.852,2.767,2.767,0,0,0,3.959,0,.609.609,0,0,0,0-.852A.586.586,0,0,0,49.15,44.506Z" transform="translate(-34.027 -20)" fill="#9393aa" fill-rule="evenodd"/>
</svg>
