<svg xmlns="http://www.w3.org/2000/svg" width="55.865" height="60" viewBox="0 0 55.865 60">
  <g id="fever_1" data-name="fever 1" transform="translate(-5.031 -2.156)">
    <path id="Path_4039" data-name="Path 4039" d="M33.354,2.156H25.188A4.083,4.083,0,0,0,21.1,6.24,2.042,2.042,0,0,0,19.063,4.2H17.021a4.083,4.083,0,0,0-4.083,4.083V22.573H41.521V10.323a8.167,8.167,0,0,0-8.167-8.167Z" transform="translate(3.635)" fill="#414042"/>
    <path id="Path_4040" data-name="Path 4040" d="M19.063,3.594H17.021a4.083,4.083,0,0,0-4.083,4.083V21.969H21.1V5.635a2.042,2.042,0,0,0-2.042-2.042Z" transform="translate(3.499 0.604)" fill="#58595b"/>
    <path id="Path_4041" data-name="Path 4041" d="M55.671,38.661a10.158,10.158,0,0,0-3.355-6.553,10.44,10.44,0,0,0-6.949-2.639H38.511c-1.274,3.6-4.194,6.125-7.591,6.125s-6.312-2.521-7.591-6.125H17.056A10.444,10.444,0,0,0,10.3,31.942a10.171,10.171,0,0,0-3.483,6.221L5.031,49.886H56.81Z" transform="translate(0 12.271)" fill="#006df0"/>
    <path id="Path_4042" data-name="Path 4042" d="M14.979,45.958H12.938V39.833a1.021,1.021,0,0,1,2.042,0Z" transform="translate(3.479 16.198)" fill="#005ece"/>
    <path id="Path_4043" data-name="Path 4043" d="M33.667,45.958H31.625V39.833a1.021,1.021,0,0,1,2.042,0Z" transform="translate(11.701 16.198)" fill="#005ece"/>
    <path id="Path_4044" data-name="Path 4044" d="M43.788,38.661a10.209,10.209,0,0,0-10.157-9.193H31.589a10.209,10.209,0,0,1,10.157,9.193l1.123,11.224h2.042Z" transform="translate(11.899 12.271)" fill="#005ece"/>
    <path id="Path_4045" data-name="Path 4045" d="M11.99,14.865c0-1.128-2.042-4.083-2.042-4.083s-2.042,2.955-2.042,4.083a2.042,2.042,0,1,0,4.083,0Z" transform="translate(1.208 3.808)" fill="#57a4ff"/>
    <path id="Path_4046" data-name="Path 4046" d="M27.8,11.271c0-1.128-2.042-4.083-2.042-4.083s-2.042,2.955-2.042,4.083a2.042,2.042,0,0,0,4.083,0Z" transform="translate(8.237 2.115)" fill="#9bc9ff"/>
    <path id="Path_4047" data-name="Path 4047" d="M10.969,29.729a3.063,3.063,0,0,0,3.063-3.063c0-1.691-3.063-5.1-3.063-5.1s-3.063,3.413-3.063,5.1a3.063,3.063,0,0,0,3.063,3.063Z" transform="translate(1.208 8.584)" fill="#57a4ff"/>
    <path id="Path_4048" data-name="Path 4048" d="M30.188,15.094H33.25a2.042,2.042,0,0,1,2.042,2.042V20.2A2.042,2.042,0,0,1,33.25,22.24H30.188Z" transform="translate(11.099 5.717)" fill="#ffac96"/>
    <path id="Path_4049" data-name="Path 4049" d="M17.323,22.24H14.26A2.042,2.042,0,0,1,12.219,20.2V17.135a2.042,2.042,0,0,1,2.042-2.042h3.063Z" transform="translate(3.171 5.717)" fill="#ffac96"/>
    <path id="Path_4050" data-name="Path 4050" d="M25.214,37.168c3.348,0,6.222-2.521,7.483-6.125H32.36c-.028,0-.053-.007-.08-.008A2.042,2.042,0,0,1,30.318,29V25.724a11.163,11.163,0,0,1-10.208,0V29a2.042,2.042,0,0,1-1.962,2.034c-.027,0-.052.008-.08.008h-.337C18.992,34.646,21.866,37.168,25.214,37.168Z" transform="translate(5.669 10.46)" fill="#ffac96"/>
    <path id="Path_4051" data-name="Path 4051" d="M29.615,27.766V25.724a11.164,11.164,0,0,1-10.209,0v2.042a11.164,11.164,0,0,0,10.209,0Z" transform="translate(6.377 10.379)" fill="#ff9478"/>
    <path id="Path_4052" data-name="Path 4052" d="M48.073,46.733a7.344,7.344,0,0,1-.992,3.693,7.2,7.2,0,0,1-2.7,2.667,7.052,7.052,0,0,1-7.268-.22,7.217,7.217,0,0,1-2.542-2.826,7.352,7.352,0,0,1,.439-7.371,7.177,7.177,0,0,1,2.859-2.494V5.266a3.134,3.134,0,0,1,.9-2.2,3.03,3.03,0,0,1,4.331,0,3.135,3.135,0,0,1,.9,2.2V40.181a7.151,7.151,0,0,1,2.98,2.673A7.31,7.31,0,0,1,48.073,46.733Z" transform="translate(12.82 0)" fill="#ff9811"/>
    <path id="Path_4053" data-name="Path 4053" d="M42.177,40.181V5.266a3.118,3.118,0,0,0-.335-1.435,3.068,3.068,0,0,0-.953-1.112,3,3,0,0,0-2.8-.372,3.029,3.029,0,0,1,1.483,1.126,3.1,3.1,0,0,1,.559,1.793V40.181a7.187,7.187,0,0,1,3.246,3.144,7.332,7.332,0,0,1-1.272,8.552,7.1,7.1,0,0,1-4.015,2.03,7.05,7.05,0,0,0,4.86-1.056,7.238,7.238,0,0,0,3-4.021,7.354,7.354,0,0,0-.309-5.037A7.2,7.2,0,0,0,42.177,40.181Z" transform="translate(14.633 0)" fill="#ee8700"/>
    <path id="Path_4054" data-name="Path 4054" d="M39.417,35.708a2.042,2.042,0,1,0-2.042-2.042A2.042,2.042,0,0,0,39.417,35.708Z" transform="translate(14.331 12.986)" fill="#d80027"/>
    <path id="Path_4055" data-name="Path 4055" d="M19.177,9.344H33.469a4.083,4.083,0,0,1,4.083,4.083v9.188a11.229,11.229,0,1,1-22.458,0V13.427a4.083,4.083,0,0,1,4.083-4.083Z" transform="translate(4.552 3.254)" fill="#ffbcab"/>
    <path id="Path_4056" data-name="Path 4056" d="M23.719,11.271a2.042,2.042,0,0,0,4.083,0c0-1.128-2.042-4.083-2.042-4.083S23.719,10.148,23.719,11.271Z" transform="translate(8.237 2.115)" fill="#2488ff"/>
    <path id="Path_4057" data-name="Path 4057" d="M26.554,24.43A1.021,1.021,0,1,0,28,22.985l-.175-.174a5.1,5.1,0,0,0-7.216,0l-.176.175a1.021,1.021,0,1,0,1.441,1.445l.177-.176a3.133,3.133,0,0,1,4.331,0Z" transform="translate(6.676 8.439)" fill="#6d6e71"/>
    <path id="Path_4058" data-name="Path 4058" d="M21.779,21.542a1.02,1.02,0,0,0,.8.393h2.042a1.021,1.021,0,0,0,0-2.042h-.734l.7-2.814a1.021,1.021,0,0,0-1.98-.5l-1.021,4.083a1.021,1.021,0,0,0,.186.876Z" transform="translate(7.287 6.031)" fill="#6d6e71"/>
    <path id="Path_4059" data-name="Path 4059" d="M24.1,14.684l-.245.245a7.685,7.685,0,0,1-1.5,1.143v.949a1.021,1.021,0,0,1-2.042,0v-.163a7.46,7.46,0,0,1-1.521.163h-.521a1.021,1.021,0,1,1,0-2.042h.521a5.079,5.079,0,0,0,3.614-1.49l.245-.255a1.025,1.025,0,0,1,1.45,1.45Z" transform="translate(5.402 4.754)" fill="#6d6e71"/>
    <path id="Path_4060" data-name="Path 4060" d="M30.866,16a1.021,1.021,0,0,1-1.021,1.021h-.521a7.459,7.459,0,0,1-1.521-.163v.163a1.021,1.021,0,0,1-2.042,0v-.949a7.329,7.329,0,0,1-1.49-1.143l-.255-.245a1.025,1.025,0,0,1,1.45-1.45l.245.255a5.079,5.079,0,0,0,3.614,1.49h.521A1.021,1.021,0,0,1,30.866,16Z" transform="translate(8.261 4.754)" fill="#6d6e71"/>
    <path id="Path_4061" data-name="Path 4061" d="M38.813,5.75h3.063V7.792H38.813Z" transform="translate(14.935 1.51)" fill="#aa6100"/>
    <path id="Path_4062" data-name="Path 4062" d="M38.813,8.625h3.063v2.042H38.813Z" transform="translate(14.935 2.719)" fill="#aa6100"/>
    <path id="Path_4063" data-name="Path 4063" d="M38.813,11.5h3.063v2.042H38.813Z" transform="translate(14.935 4.111)" fill="#aa6100"/>
    <path id="Path_4064" data-name="Path 4064" d="M38.813,14.375h3.063v2.042H38.813Z" transform="translate(14.935 5.376)" fill="#aa6100"/>
    <path id="Path_4065" data-name="Path 4065" d="M38.813,17.25h3.063v2.042H38.813Z" transform="translate(14.935 6.641)" fill="#aa6100"/>
    <path id="Path_4066" data-name="Path 4066" d="M38.813,20.125h3.063v2.042H38.813Z" transform="translate(14.935 7.905)" fill="#aa6100"/>
    <path id="Path_4067" data-name="Path 4067" d="M38.813,23h3.063v2.042H38.813Z" transform="translate(14.935 9.17)" fill="#aa6100"/>
    <path id="Path_4068" data-name="Path 4068" d="M38.813,25.875h3.063v2.042H38.813Z" transform="translate(14.935 10.435)" fill="#aa6100"/>
    <path id="Path_4069" data-name="Path 4069" d="M38.094,11.5h2.042V42.125H38.094Z" transform="translate(14.633 4.294)" fill="#d80027"/>
  </g>
</svg>
