<svg id="Flat" xmlns="http://www.w3.org/2000/svg" width="57.999" height="59.021" viewBox="0 0 57.999 59.021">
  <path id="Path_4824" data-name="Path 4824" d="M49.206,0h-24a3,3,0,0,0-3,3V35a3,3,0,0,0,3,3h24a3,3,0,0,0,3-3V3A3,3,0,0,0,49.206,0Z" transform="translate(5.793)" fill="#17588f"/>
  <path id="Path_4825" data-name="Path 4825" d="M45.885,14.931a8,8,0,0,0-.766-1.845l-.08-.14-1.715-3a4,4,0,0,0-3.473-2.015H32.494a4,4,0,0,0-3.473,2.015l-1.715,3-.08.14a8.013,8.013,0,0,0-1.054,3.97V24.81a5.106,5.106,0,0,0,1.072,3.134h0a5.118,5.118,0,0,0,4.049,1.986h9.757a5.121,5.121,0,0,0,3.621-1.5,5.051,5.051,0,0,0,.427-.486h0a5.106,5.106,0,0,0,1.072-3.134V17.056A7.986,7.986,0,0,0,45.885,14.931Z" transform="translate(6.827 2.069)" fill="#2d7dbf"/>
  <path id="Path_4826" data-name="Path 4826" d="M42.284,13.893h.476a8.01,8.01,0,0,0-.766-1.845l-.08-.14a4.593,4.593,0,0,0-3.761,2.537l1.79.9a2.6,2.6,0,0,1,2.341-1.447Z" transform="translate(9.952 3.106)" fill="#17588f"/>
  <path id="Path_4827" data-name="Path 4827" d="M42.512,19.732a2.6,2.6,0,0,1-2.071-1.017A6.849,6.849,0,0,0,41,17.607l.2-.5-1.857-.743-.2.5c-.461,1.152-1.177,1.868-1.87,1.868v2a3.218,3.218,0,0,0,1.78-.555,4.589,4.589,0,0,0,3.456,1.555h.764v-2Z" transform="translate(9.724 4.268)" fill="#17588f"/>
  <path id="Path_4828" data-name="Path 4828" d="M39.094,23.061a3.51,3.51,0,0,1,.707,2.292v.54a5.1,5.1,0,0,0,1.927-1.526h0a4.986,4.986,0,0,0-1.22-2.72Z" transform="translate(10.198 5.646)" fill="#17588f"/>
  <path id="Path_4829" data-name="Path 4829" d="M36.116,25.919V20.931a2,2,0,0,1,2-2h1v-2h-1a2,2,0,0,1-2-2V13.923a4.589,4.589,0,0,0,3.894-2.545l-1.789-.895a2.6,2.6,0,0,1-2.106,1.435V7.931h-2v3.988a2.6,2.6,0,0,1-2.106-1.435l-1.789.895a4.589,4.589,0,0,0,3.894,2.545v1.008a2,2,0,0,1-2,2h-1v2h1a2,2,0,0,1,2,2v4.988a2.6,2.6,0,0,1-2.106-1.435l-1.789.894a4.589,4.589,0,0,0,3.894,2.545v2.008h2V27.923a4.589,4.589,0,0,0,3.894-2.545l-1.789-.894a2.6,2.6,0,0,1-2.106,1.435Z" transform="translate(7.883 2.069)" fill="#17588f"/>
  <path id="Path_4830" data-name="Path 4830" d="M29.218,15.341l1.79-.9a4.593,4.593,0,0,0-3.761-2.537l-.08.14a8,8,0,0,0-.766,1.845h.476a2.6,2.6,0,0,1,2.341,1.447Z" transform="translate(6.887 3.106)" fill="#17588f"/>
  <path id="Path_4831" data-name="Path 4831" d="M32.172,18.732c-.693,0-1.409-.716-1.87-1.867l-.2-.5-1.857.743.2.5a6.858,6.858,0,0,0,.562,1.108,2.6,2.6,0,0,1-2.071,1.017h-.764v2h.764a4.59,4.59,0,0,0,3.457-1.555,3.217,3.217,0,0,0,1.78.555Z" transform="translate(6.827 4.268)" fill="#17588f"/>
  <path id="Path_4832" data-name="Path 4832" d="M27.023,24.366h0a5.1,5.1,0,0,0,1.928,1.526v-.54a3.509,3.509,0,0,1,.707-2.292l-1.415-1.415A4.988,4.988,0,0,0,27.023,24.366Z" transform="translate(7.049 5.646)" fill="#17588f"/>
  <path id="Path_4833" data-name="Path 4833" d="M26.966,2.379h4v2h-4Z" transform="translate(7.034 0.621)" fill="#2d7dbf"/>
  <path id="Path_4834" data-name="Path 4834" d="M26.966,5.552h2v2h-2Z" transform="translate(7.034 1.448)" fill="#2d7dbf"/>
  <path id="Path_4835" data-name="Path 4835" d="M31.724,2.379h2v2h-2Z" transform="translate(8.275 0.621)" fill="#2d7dbf"/>
  <path id="Path_4836" data-name="Path 4836" d="M34.9,2.379h10v2h-10Z" transform="translate(9.103 0.621)" fill="#2d7dbf"/>
  <path id="Path_4837" data-name="Path 4837" d="M37,53.62H30l-3-11H26v11H0V34.743a4,4,0,0,1,3.03-3.88L8,29.621l2-1,2-2v-6h8v6l2,2,2,1,5.642,1.41a4,4,0,0,1,2.92,2.955Z" transform="translate(0 5.379)" fill="#fec9a3"/>
  <path id="Path_4838" data-name="Path 4838" d="M17.517,20.621v4.064a9.012,9.012,0,0,1-8,0V20.621Z" transform="translate(2.483 5.379)" fill="#feb784"/>
  <path id="Path_4839" data-name="Path 4839" d="M32.562,32.744a4,4,0,0,0-2.921-2.954L24,28.379l-2-1-2-2-4,6-4-6-2,2-2,1L3.03,29.622A4,4,0,0,0,0,33.5V52.379H26v-11h1l3,11h7Z" transform="translate(0 6.62)" fill="#cfcfcd"/>
  <path id="Path_4840" data-name="Path 4840" d="M3.966,10.31h22v3h-22Z" transform="translate(1.034 2.689)" fill="#7a432a"/>
  <path id="Path_4841" data-name="Path 4841" d="M21.655,11.586a5,5,0,1,0-5-5A5,5,0,0,0,21.655,11.586Z" transform="translate(4.345 0.414)" fill="#663723"/>
  <path id="Path_4842" data-name="Path 4842" d="M5.379,17.9h2v-6h-2a3,3,0,0,0,0,6Z" transform="translate(0.621 3.103)" fill="#fec093"/>
  <path id="Path_4843" data-name="Path 4843" d="M19.034,11.9h2a3,3,0,1,1,0,6h-2Z" transform="translate(4.965 3.103)" fill="#fec093"/>
  <path id="Path_4844" data-name="Path 4844" d="M5.172,49.689l-.086-4a7.765,7.765,0,0,1-.175-10h8.261l2,5,2-5h8.175a7.764,7.764,0,0,1-.175,10v4Z" transform="translate(0.828 9.31)" fill="#cfcfcd"/>
  <path id="Path_4845" data-name="Path 4845" d="M14.552,27.965a9,9,0,0,1-9-9v-7a8,8,0,0,1,8-8h2a8,8,0,0,1,8,8v7a9,9,0,0,1-9,9Z" transform="translate(1.448 1.034)" fill="#fec9a3"/>
  <path id="Path_4846" data-name="Path 4846" d="M13.31,19.655a3,3,0,0,1-3-3h2a1,1,0,0,0,2,0h2a3,3,0,0,1-3,3Z" transform="translate(2.689 4.345)" fill="#feb784"/>
  <path id="Path_4847" data-name="Path 4847" d="M7.931,27.379l6,16,6-16-2-2-4,6-4-6Z" transform="translate(2.069 6.62)" fill="#3ba6d4"/>
  <path id="Path_4848" data-name="Path 4848" d="M9.931,25.379l4,6-3,4-3-8Z" transform="translate(2.069 6.62)" fill="#4db7e5"/>
  <path id="Path_4849" data-name="Path 4849" d="M16.69,25.379l-4,6,3,4,3-8Z" transform="translate(3.31 6.62)" fill="#4db7e5"/>
  <path id="Path_4850" data-name="Path 4850" d="M13.965,1.586a10,10,0,0,0-10,10v3h2l14-8,4,8h2v-3a10,10,0,0,0-10-10Z" transform="translate(1.034 0.414)" fill="#7a432a"/>
  <path id="Path_4851" data-name="Path 4851" d="M6.759,27.966l2-1,6,16-7-6,1-2-4-2Z" transform="translate(1.241 7.034)" fill="#e0e0de"/>
  <path id="Path_4852" data-name="Path 4852" d="M20.69,27.966l-2-1-6,16,7-6-1-2,4-2Z" transform="translate(3.31 7.034)" fill="#e0e0de"/>
  <path id="Path_4853" data-name="Path 4853" d="M11.9,39.655h2v9h-2Z" transform="translate(3.103 10.344)" fill="#bfbfbd"/>
  <path id="Path_4854" data-name="Path 4854" d="M8.724,39.655h2v2h-2Z" transform="translate(2.276 10.344)" fill="#bfbfbd"/>
  <path id="Path_4855" data-name="Path 4855" d="M8.724,45.207h2v2h-2Z" transform="translate(2.276 11.792)" fill="#bfbfbd"/>
  <path id="Path_4856" data-name="Path 4856" d="M29.793,33.31l-6,17h7l6-17Z" transform="translate(6.207 8.689)" fill="#e0e0de"/>
  <path id="Path_4857" data-name="Path 4857" d="M42.552,28.552h-5l-1,2H31.894a3,3,0,0,0-2.91,2.272l-.432,1.728h9.611a4,4,0,0,0,3.946-3.342Z" transform="translate(7.448 7.448)" fill="#fec9a3"/>
  <path id="Path_4858" data-name="Path 4858" d="M35.862,33.31l-1.5,4h-7l1.5-4Z" transform="translate(7.137 8.689)" fill="#4db7e5"/>
  <path id="Path_4859" data-name="Path 4859" d="M4.38,49.844,4.3,46.185a8.735,8.735,0,0,1,.053-11.007l1.529,1.288a6.759,6.759,0,0,0,.176,8.712,1,1,0,0,1,.234.622l.086,4Z" transform="translate(0.62 9.176)" fill="#bfbfbd"/>
  <path id="Path_4860" data-name="Path 4860" d="M21.828,49.823h-2v-4a1,1,0,0,1,.234-.643,6.758,6.758,0,0,0,.176-8.712l1.53-1.288a8.735,8.735,0,0,1,.06,11Z" transform="translate(5.172 9.176)" fill="#bfbfbd"/>
  <path id="Path_4861" data-name="Path 4861" d="M10.552,11.1h-2.5a2.5,2.5,0,1,0,0,5h2.5a2.5,2.5,0,0,0,0-5Z" transform="translate(1.448 2.896)" fill="#e0e0de"/>
  <path id="Path_4862" data-name="Path 4862" d="M18.879,11.1h-2.5a2.5,2.5,0,1,0,0,5h2.5a2.5,2.5,0,1,0,0-5Z" transform="translate(3.62 2.896)" fill="#e0e0de"/>
  <path id="Path_4863" data-name="Path 4863" d="M21.258,10.31h-2.5a3.5,3.5,0,0,0-3.162,2H13.92a3.5,3.5,0,0,0-3.162-2h-2.5a3.5,3.5,0,1,0,0,7h2.5a3.5,3.5,0,0,0,3.464-3h1.072a3.5,3.5,0,0,0,3.464,3h2.5a3.5,3.5,0,1,0,0-7Zm-10.5,5h-2.5a1.5,1.5,0,0,1,0-3h2.5a1.5,1.5,0,1,1,0,3Zm10.5,0h-2.5a1.5,1.5,0,0,1,0-3h2.5a1.5,1.5,0,1,1,0,3Z" transform="translate(1.241 2.689)" fill="#3ba6d4"/>
</svg>
