<svg id="Group" xmlns="http://www.w3.org/2000/svg" width="60.086" height="60" viewBox="0 0 60.086 60">
  <path id="Path_4070" data-name="Path 4070" d="M41.94,3.84a12.82,12.82,0,0,1,3.854,9.281A12.82,12.82,0,0,1,41.94,22.4L29.513,34.908,10.951,16.267,23.378,3.84A13.135,13.135,0,0,1,41.94,3.84Z" transform="translate(5.869)" fill="#f23b9f"/>
  <path id="Path_4071" data-name="Path 4071" d="M16.425,10.846,34.987,29.487,22.56,41.993a13.371,13.371,0,0,1-18.719,0,13.135,13.135,0,0,1,0-18.562Z" transform="translate(0 5.816)" fill="#4ed9da"/>
  <path id="Path_4072" data-name="Path 4072" d="M19.494,14.287a1.573,1.573,0,0,1-1.1-.472,1.651,1.651,0,0,1,0-2.281l5.191-5.112a1.573,1.573,0,0,1,2.2.079,1.494,1.494,0,0,1,.091,2.111q-.043.047-.091.091L20.6,13.814A1.573,1.573,0,0,1,19.494,14.287Z" transform="translate(9.171 3.073)" fill="#d4e1f4"/>
  <path id="Path_4073" data-name="Path 4073" d="M27.862,27.755a11.4,11.4,0,0,1,15.023-1.023L26.84,42.856A11.483,11.483,0,0,1,27.862,27.755Zm16.2,16.281a11.168,11.168,0,0,1-8.1,3.382,11.483,11.483,0,0,1-6.921-2.359L45.166,29.013A11.484,11.484,0,0,1,44.065,44.036Z" transform="translate(12.632 12.582)" fill="#ffbf67"/>
</svg>
