<svg xmlns="http://www.w3.org/2000/svg" width="20" height="20" viewBox="0 0 20 20">
  <path id="Fill" d="M9.116.366a1.25,1.25,0,0,0-.1,1.65l.1.118L15.731,8.75H1.25A1.25,1.25,0,0,0,1.1,11.242l.146.008H15.731L9.116,17.866a1.25,1.25,0,0,0-.1,1.65l.1.118a1.25,1.25,0,0,0,1.65.1l.118-.1,8.75-8.75a1.263,1.263,0,0,0,.121-.14l.09-.139.067-.141.044-.132.031-.147L20,10.112,20,10l0-.094-.022-.157-.037-.139-.055-.139-.065-.122-.08-.115-.1-.118L10.884.366A1.25,1.25,0,0,0,9.116.366Z" fill="#fff" fill-rule="evenodd"/>
</svg>
