<svg xmlns="http://www.w3.org/2000/svg" width="54.047" height="54.047" viewBox="0 0 54.047 54.047">
  <g id="Group_3839" data-name="Group 3839" opacity="0.5">
    <path id="Path_5274" data-name="Path 5274" d="M32.214,364H53.833a16.214,16.214,0,0,1,16.214,16.214v21.619a16.214,16.214,0,0,1-16.214,16.214H32.214A16.214,16.214,0,0,1,16,401.833V380.214A16.214,16.214,0,0,1,32.214,364Z" transform="translate(-16 -364)" fill="#12b2b3" fill-rule="evenodd"/>
    <rect id="Rectangle_648" data-name="Rectangle 648" width="32" height="32" transform="translate(11.114 10.876)" opacity="0.01"/>
    <path id="Path_5275" data-name="Path 5275" d="M52.683,377.394A2.71,2.71,0,0,0,50.321,376H28.7a2.71,2.71,0,0,0-2.362,1.394,1.378,1.378,0,0,1,.29.112l.145.089,12.737,8.915L52.249,377.6A1.329,1.329,0,0,1,52.683,377.394Zm.34,2.958-12.737,8.915a1.354,1.354,0,0,1-1.389.1l-.16-.1L26,380.352v14.564a2.71,2.71,0,0,0,2.7,2.7H50.321a2.71,2.71,0,0,0,2.7-2.7Z" transform="translate(-12.488 -359.786)" fill="#fff" fill-rule="evenodd"/>
  </g>
</svg>
