<svg xmlns="http://www.w3.org/2000/svg" width="54.047" height="54.047" viewBox="0 0 54.047 54.047">
  <g id="Group_3838" data-name="Group 3838" opacity="0.5">
    <path id="Path_5270" data-name="Path 5270" d="M32.214,560H53.833a16.214,16.214,0,0,1,16.214,16.214v21.619a16.214,16.214,0,0,1-16.214,16.214H32.214A16.214,16.214,0,0,1,16,597.833V576.214A16.214,16.214,0,0,1,32.214,560Z" transform="translate(-16 -560)" fill="#2574ff" fill-rule="evenodd"/>
    <rect id="Rectangle_647" data-name="Rectangle 647" width="32" height="32" transform="translate(11.114 11.047)" opacity="0.01"/>
    <path id="Path_5271" data-name="Path 5271" d="M27.351,595.672H51.672a1.351,1.351,0,0,0,1.351-1.351V580.809H26v13.512A1.351,1.351,0,0,0,27.351,595.672ZM53.023,572.7v5.4H26v-5.4a1.351,1.351,0,0,1,1.351-1.351h5.4a1.351,1.351,0,0,1,2.7,0h8.107a1.351,1.351,0,0,1,2.7,0h5.4A1.351,1.351,0,0,1,53.023,572.7ZM37.541,591.386a1.222,1.222,0,0,0,1.484-.189l5.573-5.6a1.22,1.22,0,1,0-1.726-1.725l-4.711,4.737-1.97-1.725a1.22,1.22,0,0,0-1.727,1.725L37.3,591.2A1.234,1.234,0,0,0,37.541,591.386Z" transform="translate(-12.488 -556.488)" fill="#fff" fill-rule="evenodd"/>
  </g>
</svg>
