<svg xmlns="http://www.w3.org/2000/svg" width="54.047" height="54.047" viewBox="0 0 54.047 54.047">
  <g id="Group_3836" data-name="Group 3836" opacity="0.5">
    <path id="Path_5262" data-name="Path 5262" d="M32.214,266H53.833a16.214,16.214,0,0,1,16.214,16.214v21.619a16.214,16.214,0,0,1-16.214,16.214H32.214A16.214,16.214,0,0,1,16,303.833V282.214A16.214,16.214,0,0,1,32.214,266Z" transform="translate(-16 -266)" fill="#fa4169" fill-rule="evenodd"/>
    <rect id="Rectangle_645" data-name="Rectangle 645" width="32" height="32" transform="translate(11.114 11.291)" opacity="0.01"/>
    <path id="Path_5263" data-name="Path 5263" d="M51,294.015a14.719,14.719,0,0,1-4.954-.788,2.16,2.16,0,0,0-2.027.45l-3.153,2.365a17.234,17.234,0,0,1-7.882-7.881l2.365-3.152a1.958,1.958,0,0,0,.45-2.027,18.232,18.232,0,0,1-.788-4.955A2.019,2.019,0,0,0,32.981,276H28.027A2.019,2.019,0,0,0,26,278.027a25.084,25.084,0,0,0,25,25A2.019,2.019,0,0,0,53.023,301V295.93A2,2,0,0,0,51,294.015Z" transform="translate(-12.488 -262.488)" fill="#fff" fill-rule="evenodd"/>
  </g>
</svg>
