<svg xmlns="http://www.w3.org/2000/svg" width="54.047" height="54.047" viewBox="0 0 54.047 54.047">
  <g id="Group_5460" data-name="Group 5460" transform="translate(-21.619 -2)">
    <path id="Path_5258" data-name="Path 5258" d="M32.214,2H53.833A16.214,16.214,0,0,1,70.047,18.214V39.833A16.214,16.214,0,0,1,53.833,56.047H32.214A16.214,16.214,0,0,1,16,39.833V18.214A16.214,16.214,0,0,1,32.214,2Z" transform="translate(5.619)" fill="#2574ff" fill-rule="evenodd"/>
    <path id="Path_5259" data-name="Path 5259" d="M27.351,37.672H51.672a1.351,1.351,0,0,0,1.351-1.351V22.809H26V36.321A1.351,1.351,0,0,0,27.351,37.672ZM53.023,14.7v5.4H26V14.7a1.351,1.351,0,0,1,1.351-1.351h5.4a1.351,1.351,0,0,1,2.7,0h8.107a1.351,1.351,0,0,1,2.7,0h5.4A1.351,1.351,0,0,1,53.023,14.7ZM37.541,33.386a1.221,1.221,0,0,0,1.484-.189L44.6,27.6a1.221,1.221,0,1,0-1.726-1.726l-4.711,4.738-1.97-1.727a1.221,1.221,0,1,0-1.727,1.727L37.3,33.2A1.233,1.233,0,0,0,37.541,33.386Z" transform="translate(9.13 3.512)" fill="#fff" fill-rule="evenodd"/>
  </g>
</svg>
