<svg xmlns="http://www.w3.org/2000/svg" width="54.047" height="54.047" viewBox="0 0 54.047 54.047">
  <g id="Group_5461" data-name="Group 5461" transform="translate(-21.619 -158.14)">
    <path id="Path_5278" data-name="Path 5278" d="M32.214,122H53.833a16.214,16.214,0,0,1,16.214,16.214v21.619a16.214,16.214,0,0,1-16.214,16.214H32.214A16.214,16.214,0,0,1,16,159.833V138.214A16.214,16.214,0,0,1,32.214,122Z" transform="translate(5.619 36.14)" fill="#f0f0f0" fill-rule="evenodd"/>
    <path id="Path_5279" data-name="Path 5279" d="M39.512,132a7.431,7.431,0,0,1,7.431,7.431v3.648a7.431,7.431,0,0,1-14.863,0v-3.648A7.431,7.431,0,0,1,39.512,132Zm0,2.7a4.729,4.729,0,0,0-4.729,4.729v3.648a4.729,4.729,0,0,0,9.458,0v-3.648A4.729,4.729,0,0,0,39.512,134.7Zm6.124,13.829a1.353,1.353,0,0,0,.569,1.825,6.948,6.948,0,0,1,4.092,5.964H28.758c.277-3.191,1.59-5.075,3.954-5.883a1.351,1.351,0,1,0-.874-2.556c-3.885,1.328-5.837,4.7-5.837,9.791v1.351H52.938L53,157.742a9.765,9.765,0,0,0-5.545-9.78A1.352,1.352,0,0,0,45.635,148.532Z" transform="translate(9.13 39.652)" fill="#9393aa" fill-rule="evenodd"/>
  </g>
</svg>
