<svg xmlns="http://www.w3.org/2000/svg" width="247.404" height="257.985" viewBox="0 0 247.404 257.985">
  <g id="Group_1208" data-name="Group 1208" transform="translate(-240.009 -153.416)">
    <g id="Group_1170" data-name="Group 1170" transform="translate(240.009 153.416)">
      <path id="Path_4074" data-name="Path 4074" d="M533.954,612.924s.01-.694.028-2.039c.007-.336,0-.713.021-1.13l.054-1.369c.023-.5.032-1.031.071-1.6s.076-1.184.118-1.834c.19-2.594.491-5.793,1.075-9.522a113.523,113.523,0,0,1,2.74-12.669c.081-.293.158-.588.243-.884l.265-.891q.27-.9.545-1.814c.4-1.215.787-2.467,1.248-3.728.434-1.27.934-2.548,1.433-3.86.53-1.3,1.058-2.633,1.66-3.967a111.777,111.777,0,0,1,9.037-16.628,113.654,113.654,0,0,1,31.791-32.023,115.412,115.412,0,0,1,10.965-6.463,111.879,111.879,0,0,1,12.08-5.353,110.02,110.02,0,0,1,13.066-4.005c1.122-.285,2.261-.517,3.4-.767.568-.13,1.145-.228,1.719-.341s1.15-.223,1.728-.324l1.742-.287.873-.144.879-.122,1.761-.245c.588-.076,1.18-.136,1.772-.205,1.182-.147,2.374-.238,3.568-.345.6-.059,1.2-.085,1.8-.126s1.2-.08,1.8-.108l1.816-.067.91-.033.906-.01,1.816-.021c.622,0,1.222.015,1.836.02,1.222,0,2.447.067,3.675.112.615.016,1.229.071,1.844.107s1.232.07,1.848.127c1.232.115,2.469.206,3.7.363.618.073,1.237.137,1.855.219l1.855.261c.621.082,1.238.186,1.856.291s1.238.2,1.857.313c1.233.244,2.476.459,3.707.743,2.474.518,4.932,1.165,7.388,1.858,1.223.366,2.452.721,3.666,1.13,1.223.385,2.431.826,3.645,1.253.606.217,1.206.456,1.809.683l.9.345c.3.117.6.243.9.365l1.8.737,1.782.782a112.8,112.8,0,0,1-.107,206.191l-1.78.776-1.794.732c-.3.121-.6.246-.9.363l-.9.341c-.6.225-1.2.462-1.806.677-1.213.424-2.417.861-3.638,1.242-1.213.406-2.439.759-3.659,1.121-2.451.685-4.9,1.326-7.372,1.837-1.229.282-2.468.493-3.7.734-.617.11-1.236.206-1.852.309s-1.233.206-1.851.285l-1.85.257c-.617.08-1.234.143-1.85.215-1.231.154-2.465.242-3.692.354-.614.055-1.229.081-1.843.124s-1.225.088-1.838.1c-1.225.043-2.449.1-3.664.1-.61,0-1.213.017-1.825.017l-1.818-.025-.908-.012-.905-.035-1.806-.07c-.6-.03-1.2-.075-1.8-.111s-1.2-.069-1.79-.129c-1.19-.108-2.378-.2-3.556-.352-.59-.07-1.179-.131-1.766-.208l-1.754-.247-.875-.123-.87-.145-1.735-.289c-.576-.1-1.149-.219-1.722-.328s-1.146-.212-1.712-.343c-1.135-.25-2.269-.484-3.386-.771a109.6,109.6,0,0,1-13.008-4.016,111.46,111.46,0,0,1-12.021-5.356,114.719,114.719,0,0,1-10.906-6.458,113.126,113.126,0,0,1-31.574-31.934,111.225,111.225,0,0,1-8.955-16.555c-.6-1.329-1.117-2.656-1.642-3.949-.494-1.305-.988-2.578-1.417-3.842-.456-1.253-.837-2.5-1.233-3.708q-.273-.914-.538-1.8l-.262-.885c-.085-.294-.16-.588-.24-.88a112.733,112.733,0,0,1-2.7-12.6c-.572-3.708-.864-6.888-1.048-9.466q-.06-.968-.114-1.822c-.037-.57-.045-1.1-.067-1.594s-.035-.947-.051-1.36-.013-.788-.019-1.122c-.016-1.336-.024-2.026-.024-2.026Zm.722,0s.009.69.028,2.026c.007.334,0,.708.022,1.122s.034.868.053,1.36.031,1.024.07,1.594.075,1.177.117,1.821c.19,2.579.488,5.757,1.068,9.462a112.6,112.6,0,0,0,2.723,12.587c.08.291.156.585.241.878s.176.588.264.884l.541,1.8c.4,1.206.782,2.451,1.24,3.7.431,1.262.928,2.532,1.424,3.835.528,1.291,1.052,2.616,1.649,3.942a111.1,111.1,0,0,0,8.981,16.522,112.959,112.959,0,0,0,31.588,31.819,114.183,114.183,0,0,0,10.9,6.422,111.2,111.2,0,0,0,12,5.318A109.344,109.344,0,0,0,620.566,722c1.114.283,2.246.514,3.378.761.565.13,1.137.227,1.708.339s1.143.222,1.717.323l1.73.285.868.143.873.121,1.75.243c.584.075,1.172.135,1.76.2,1.174.147,2.359.237,3.546.343.593.059,1.19.085,1.786.125s1.194.079,1.793.107l1.8.067.9.033.9.011,1.813.021c.6,0,1.212-.014,1.82-.02,1.217,0,2.432-.066,3.652-.112.609-.016,1.22-.071,1.832-.106s1.224-.07,1.836-.127c1.223-.115,2.453-.2,3.679-.36.613-.074,1.229-.137,1.843-.218l1.843-.26c.616-.081,1.229-.184,1.844-.288s1.231-.2,1.845-.312c1.225-.243,2.46-.456,3.683-.739,2.458-.514,4.9-1.158,7.34-1.845,1.215-.364,2.436-.716,3.643-1.124,1.215-.382,2.415-.82,3.621-1.245.6-.215,1.2-.453,1.8-.678l.9-.343c.3-.116.595-.242.892-.362l1.785-.733,1.771-.776a112.073,112.073,0,0,0-.108-204.871l-1.768-.771-1.782-.727c-.3-.12-.592-.245-.891-.36l-.9-.34c-.6-.224-1.193-.46-1.794-.673-1.2-.421-2.4-.856-3.615-1.234-1.205-.4-2.423-.753-3.635-1.113-2.435-.681-4.872-1.318-7.324-1.825-1.221-.28-2.453-.49-3.675-.729-.613-.11-1.227-.205-1.84-.307s-1.224-.2-1.839-.284l-1.838-.255c-.613-.08-1.227-.142-1.839-.213-1.223-.153-2.449-.241-3.669-.352-.61-.056-1.221-.081-1.831-.123s-1.218-.087-1.827-.1c-1.217-.042-2.43-.1-3.641-.1-.6-.005-1.216-.018-1.807-.017l-1.816.025-.906.012-.9.035-1.791.07c-.6.029-1.192.074-1.787.111s-1.188.067-1.779.128c-1.183.108-2.363.2-3.533.349-.586.07-1.172.131-1.755.207l-1.742.246-.87.123-.864.144-1.724.288c-.573.1-1.141.217-1.711.325s-1.139.21-1.7.34c-1.127.25-2.254.481-3.364.766a108.957,108.957,0,0,0-12.924,3.99,110.735,110.735,0,0,0-11.943,5.321,114.133,114.133,0,0,0-10.835,6.416,112.422,112.422,0,0,0-31.372,31.73,110.411,110.411,0,0,0-8.9,16.45c-.592,1.319-1.11,2.639-1.632,3.923-.49,1.3-.982,2.56-1.408,3.816-.453,1.246-.831,2.484-1.225,3.685l-.535,1.792-.261.88c-.083.293-.159.585-.238.874a111.936,111.936,0,0,0-2.681,12.516c-.568,3.684-.858,6.843-1.042,9.406q-.06.962-.113,1.811c-.036.566-.044,1.094-.066,1.584s-.035.94-.049,1.351-.013.784-.02,1.116c-.016,1.328-.023,2.013-.023,2.013Z" transform="translate(-517.813 -480.966)" fill="#fff"/>
      <path id="Path_4075" data-name="Path 4075" d="M3933.23,1147.593a19.862,19.862,0,1,0,19.862-19.863A19.862,19.862,0,0,0,3933.23,1147.593Z" transform="translate(-3730.428 -1074.228)" fill="#a6e8e8"/>
      <circle id="Ellipse_84" data-name="Ellipse 84" cx="21.857" cy="21.857" r="21.857" transform="translate(152.701 0)" fill="#a6e8e8"/>
      <path id="Path_4076" data-name="Path 4076" d="M1331.955,230.678a22.634,22.634,0,1,0,22.634-22.634A22.634,22.634,0,0,0,1331.955,230.678Z" transform="translate(-1271.994 -205.044)" fill="#a6e8e8"/>
      <path id="Path_4077" data-name="Path 4077" d="M387.059,1226.829a20.488,20.488,0,1,1-20.487-20.488A20.487,20.487,0,0,1,387.059,1226.829Z" transform="translate(-340.259 -1148.523)" fill="#a6e8e8"/>
      <circle id="Ellipse_85" data-name="Ellipse 85" cx="15.295" cy="15.295" r="15.295" transform="translate(216.815 126.982)" fill="#0c8b96"/>
      <path id="Path_4078" data-name="Path 4078" d="M1731.322,4227.618A17.615,17.615,0,1,0,1748.937,4210,17.615,17.615,0,0,0,1731.322,4227.618Z" transform="translate(-1649.431 -3987.248)" fill="#a6e8e8"/>
      <path id="Path_4079" data-name="Path 4079" d="M3977.034,3497.645a19.862,19.862,0,1,0,19.862-19.864A19.862,19.862,0,0,0,3977.034,3497.645Z" transform="translate(-3771.827 -3295.234)" fill="#a6e8e8"/>
      <circle id="Ellipse_86" data-name="Ellipse 86" cx="21.857" cy="21.857" r="21.857" transform="translate(0 204.013) rotate(-45)" fill="#0c8b96"/>
      <path id="Path_4080" data-name="Path 4080" d="M250.842,2431.825a19.862,19.862,0,1,0,19.863-19.863A19.862,19.862,0,0,0,250.842,2431.825Z" transform="translate(-250.247 -2287.941)" fill="#a6e8e8"/>
      <g id="Group_1123" data-name="Group 1123" transform="translate(86.488 227.934)">
        <g id="Group_1120" data-name="Group 1120" transform="translate(7.819 8.021)">
          <g id="Group_1119" data-name="Group 1119">
            <g id="Group_1118" data-name="Group 1118">
              <path id="Path_4081" data-name="Path 4081" d="M1964.409,4461.727h-3.491v-3.493h-3.494v-4.365h3.492v-3.491h3.492v3.491h3.492v4.365h-3.492Z" transform="translate(-1957.424 -4450.378)" fill="#fff"/>
            </g>
          </g>
        </g>
        <g id="Group_1121" data-name="Group 1121" transform="translate(7.819 8.021)">
          <path id="Path_4082" data-name="Path 4082" d="M1960.916,4450.378h3.492v3.491h3.492v4.365h-3.492v3.493h-3.491v-3.493h-3.494v-4.365h3.492Z" transform="translate(-1957.424 -4450.378)" fill="none"/>
        </g>
        <g id="Group_1122" data-name="Group 1122">
          <path id="Path_4083" data-name="Path 4083" d="M1960.916,4450.378h3.492v3.491h3.492v4.365h-3.492v3.493h-3.491v-3.493h-3.494v-4.365h3.492Z" transform="translate(-1949.605 -4442.357)" fill="none"/>
          <path id="Path_4084" data-name="Path 4084" d="M1815.033,4389.685v12.04a3.267,3.267,0,0,0,3.258,3.258h19.6a3.268,3.268,0,0,0,3.261-3.258v-12.04a3.082,3.082,0,0,0-3.261-3.033H1834.2v-.007h-1.747v.007h-14.165A3.081,3.081,0,0,0,1815.033,4389.685Zm7.819,3.95h3.492v-3.491h3.492v3.491h3.492V4398h-3.492v3.493h-3.491V4398h-3.494Z" transform="translate(-1815.033 -4382.125)" fill="#d03033"/>
          <path id="Path_4085" data-name="Path 4085" d="M1952.027,4307.576a1.563,1.563,0,0,0-1.513-1.515h-5.7a1.564,1.564,0,0,0-1.512,1.515v1.268h-1.746v-1.268a3.267,3.267,0,0,1,3.258-3.26h5.7a3.271,3.271,0,0,1,3.261,3.26v1.26h-1.748Z" transform="translate(-1934.604 -4304.315)" fill="#d03033"/>
        </g>
      </g>
      <g id="Group_1134" data-name="Group 1134" transform="translate(64.325 12.191)">
        <path id="Path_4086" data-name="Path 4086" d="M1437.866,502.644l-1.025,7.824-5.309,1.583s-.28,3.819-1.118,4.284a4.1,4.1,0,0,1-2.515-.093v-3.726l3.633-3.446,1.583-5.868Z" transform="translate(-1426.995 -495.659)" fill="#fff"/>
        <rect id="Rectangle_384" data-name="Rectangle 384" width="11.41" height="9.524" transform="translate(17.559 6.61)" fill="#fff"/>
        <g id="Group_1133" data-name="Group 1133">
          <g id="Group_1132" data-name="Group 1132">
            <g id="Group_1130" data-name="Group 1130" transform="translate(4.673 5.61)">
              <g id="Group_1129" data-name="Group 1129">
                <g id="Group_1125" data-name="Group 1125" transform="translate(0 12.925)">
                  <g id="Group_1124" data-name="Group 1124">
                    <path id="Path_4087" data-name="Path 4087" d="M1496.519,716.636a3.648,3.648,0,1,0,3.648-3.649A3.649,3.649,0,0,0,1496.519,716.636Zm4.385.8a1.089,1.089,0,0,1-1.826-.8,1.089,1.089,0,0,1,2.16-.2,1.12,1.12,0,0,1,.018.2A1.085,1.085,0,0,1,1500.9,717.437Z" transform="translate(-1496.519 -712.987)" fill="#d03033"/>
                  </g>
                </g>
                <path id="Path_4088" data-name="Path 4088" d="M1901,716.636a3.649,3.649,0,1,0,3.648-3.649A3.649,3.649,0,0,0,1901,716.636Zm2.559,0a1.089,1.089,0,0,1,2.178,0,1.089,1.089,0,0,1-2.178,0Z" transform="translate(-1878.789 -700.062)" fill="#d03033"/>
                <g id="Group_1128" data-name="Group 1128" transform="translate(11.177)">
                  <g id="Group_1127" data-name="Group 1127">
                    <g id="Group_1126" data-name="Group 1126">
                      <path id="Path_4089" data-name="Path 4089" d="M1700.069,477.6v11.915h13.541V477.6Zm3.191,4.729h2.639v-2.639h2.639v2.639h2.639v2.639h-2.639v2.639H1705.9v-2.639h-2.639Z" transform="translate(-1700.069 -477.602)" fill="#d03033"/>
                    </g>
                  </g>
                </g>
              </g>
            </g>
            <g id="Group_1131" data-name="Group 1131">
              <path id="Path_4090" data-name="Path 4090" d="M1411.422,467.248c0,.58.015,1.176.015,1.757,1.39,0,2.78,0,4.171-.015a4.225,4.225,0,0,1,4.522-3.331,4.479,4.479,0,0,1,3.725,3.289v.149h14.065a4.088,4.088,0,0,1,8.08,0h.746V451.78h-17.192v-.057h-4.033c0,.021,0,.04,0,.057h-1.666v.938c-2.138-.015-4.277-.03-6.429,0,.168,2.108-.841,4.018-1.329,6.02-.306.764-.26,1.864-1.161,2.215-.9.443-1.818.856-2.719,1.268-.062,1.666-.016,3.316-.031,4.981Zm17.662-8.057a5.337,5.337,0,1,1,5.337,5.337A5.337,5.337,0,0,1,1429.084,459.192Zm-12.666,1.456c.428-1.619.947-3.208,1.375-4.812,1.085-.046,2.185-.03,3.27-.03.061,1.619.031,3.239.015,4.858C1419.52,460.663,1417.977,460.679,1416.418,460.648Zm-4.04,5q1.416-.025,2.832,0c.016.57.016,1.123,0,1.693-.944.016-1.9.016-2.848-.017C1412.345,466.771,1412.345,466.217,1412.378,465.648Z" transform="translate(-1411.422 -447.534)" fill="#2d353e"/>
              <path id="Path_4091" data-name="Path 4091" d="M1668.157,377.453a2.019,2.019,0,0,1,4.038,0c0,.376,0,1.738,0,2.171h-4.033C1668.157,379.183,1668.157,377.829,1668.157,377.453Z" transform="translate(-1654.059 -375.434)" fill="#d03033"/>
            </g>
          </g>
          <path id="Path_4092" data-name="Path 4092" d="M1662.5,443.889a.366.366,0,0,0,.366.366h4.054a.366.366,0,0,0,.366-.366h0a.366.366,0,0,0-.366-.366h-4.054a.366.366,0,0,0-.366.366Z" transform="translate(-1648.711 -439.784)" fill="#2d353e"/>
        </g>
      </g>
      <g id="Group_1135" data-name="Group 1135" transform="translate(159.133 11.585)">
        <path id="Path_4093" data-name="Path 4093" d="M3137.976,372.58a8.238,8.238,0,0,0,.225,1.909c.005.021.011.042.015.064s.019.073.027.109a11.751,11.751,0,0,0,1.4,3.265,21.059,21.059,0,0,0,2.962,3.731h8.473a.659.659,0,0,1,.615.421l1.375,3.582,4.86-12.053a.661.661,0,0,1,.589-.412.676.676,0,0,1,.614.369l2.234,4.6h4.205a.572.572,0,0,1,.1.01,13.887,13.887,0,0,0,.916-1.692,10.537,10.537,0,0,0,.635-1.818c.008-.037.019-.073.027-.109s.01-.042.015-.064a8.265,8.265,0,0,0,.225-1.909c0-.036,0-.072,0-.108a8.183,8.183,0,0,0-4.913-7.395c-.115-.04-.23-.077-.346-.111a8.07,8.07,0,0,0-9.33,2.53c-.1.078-.157.123-.157.123l-.009-.007h0a8.169,8.169,0,0,0-6.5-3.213h-.072a8.156,8.156,0,0,0-3.268.679,7.292,7.292,0,0,0-3.86,3.419,8.937,8.937,0,0,0-.514,1.058,7.367,7.367,0,0,0-.54,2.918C3137.976,372.508,3137.976,372.544,3137.976,372.58Zm27.1-.008a.322.322,0,0,1-.031-.119,6,6,0,0,0-5.553-5.551c-.231-.013-.423-.294-.428-.629a.527.527,0,0,1,.515-.58,7.221,7.221,0,0,1,6.675,6.676.437.437,0,0,1-.039.2.573.573,0,0,1-.542.309A.666.666,0,0,1,3165.079,372.572Z" transform="translate(-3137.975 -364.398)" fill="#d03033"/>
        <path id="Path_4094" data-name="Path 4094" d="M3255.657,578.329a.657.657,0,0,0,.608.422h.006a.657.657,0,0,0,.61-.413l4.931-12.229,1.766,3.633a.658.658,0,0,0,.592.369h3.806a35.379,35.379,0,0,1-7.884,7.082c-.869.609-1.973,1.3-2.824,1.826-.82.531-1.309.8-1.309.8l-.01-.006-.01.006s-.489-.269-1.309-.8c-.852-.522-1.956-1.217-2.825-1.826a43.448,43.448,0,0,1-4.615-3.587h6.654Z" transform="translate(-3241.192 -555.033)" fill="#d03033"/>
      </g>
      <g id="Group_1143" data-name="Group 1143" transform="translate(12.87 194.381)">
        <path id="Path_4095" data-name="Path 4095" d="M638.407,3768.316l-16.13-9.285-1.336.764-1.187,2.513.764,1.336,15.641,8.732Z" transform="translate(-611.772 -3755.42)" fill="#fff"/>
        <g id="Group_1138" data-name="Group 1138" transform="translate(8.796 4.431)">
          <g id="Group_1137" data-name="Group 1137">
            <rect id="Rectangle_385" data-name="Rectangle 385" width="2.444" height="0.547" transform="translate(10.477 8.913) rotate(-60.171)" fill="#2d353e"/>
            <path id="Path_4096" data-name="Path 4096" d="M870.978,3925.941l1.215-2.12-.474-.272-1.216,2.12Z" transform="translate(-857.549 -3915.336)" fill="#2d353e"/>
            <rect id="Rectangle_386" data-name="Rectangle 386" width="1.809" height="0.547" transform="translate(11.716 9.623) rotate(-60.177)" fill="#2d353e"/>
            <rect id="Rectangle_387" data-name="Rectangle 387" width="1.809" height="0.547" transform="translate(14.193 11.044) rotate(-60.178)" fill="#2d353e"/>
            <g id="Group_1136" data-name="Group 1136">
              <path id="Path_4097" data-name="Path 4097" d="M634.989,3775.031s.684-1.592,1.955-.863l9.2,5.276-1.756,3.062-9.41-5.395S634.082,3776.6,634.989,3775.031Z" transform="translate(-634.584 -3773.978)" fill="#d03033"/>
            </g>
          </g>
        </g>
        <g id="Group_1139" data-name="Group 1139" transform="translate(7.807 3.865)">
          <path id="Path_4098" data-name="Path 4098" d="M631.445,3767.809l15.117,8.667-.265.462-.01.016-1.557,2.716-.009.016-.266.464-15.22-8.727s-.926-.853.048-2.552C629.284,3768.873,630.14,3767.061,631.445,3767.809Z" transform="translate(-628.164 -3767.41)" fill="none"/>
          <path id="Path_4099" data-name="Path 4099" d="M616.574,3802.479l.006-.019h0Z" transform="translate(-616.574 -3800.33)" fill="#2d353e"/>
          <path id="Path_4100" data-name="Path 4100" d="M634.986,3764a3.525,3.525,0,0,1,.356-.342,3.46,3.46,0,0,0-.344.353Z" transform="translate(-633.975 -3763.659)" fill="#2d353e"/>
        </g>
        <g id="Group_1140" data-name="Group 1140">
          <path id="Path_4101" data-name="Path 4101" d="M595.617,3775.151l.012-.022h0Z" transform="translate(-588.961 -3770.635)" fill="none"/>
          <path id="Path_4102" data-name="Path 4102" d="M601.113,3765.565l.012-.021-.012.021Z" transform="translate(-594.155 -3761.575)" fill="none"/>
          <path id="Path_4103" data-name="Path 4103" d="M595.211,3762.473l.012-.021c.128-.223.516-.241.868-.04l.569.326a.268.268,0,0,1,.411-.048,4.7,4.7,0,0,0-1.005,1.789.3.3,0,0,1-.072-.027.277.277,0,0,1-.112-.357l-.569-.326c-.352-.2-.533-.546-.4-.77l.012-.021h0l.29-.5Z" transform="translate(-588.252 -3758.483)" fill="#159590"/>
          <path id="Path_4104" data-name="Path 4104" d="M474.393,3693.278l6.958,3.989-.29.505-6.1-3.5Z" transform="translate(-474.393 -3693.278)" fill="#fff"/>
        </g>
        <g id="Group_1141" data-name="Group 1141" transform="translate(7.639 3.36)">
          <path id="Path_4105" data-name="Path 4105" d="M631.445,3767.809l15.117,8.667-.265.462-.01.016-1.557,2.716-.009.016-.266.464-15.22-8.727s-.926-.853.048-2.552C629.284,3768.873,630.14,3767.061,631.445,3767.809Z" transform="translate(-627.996 -3766.905)" fill="none"/>
          <path id="Path_4106" data-name="Path 4106" d="M614.242,3759.338h0l15.373,8.814-.307.536.957.548.259-.451.511-.892,1.838-3.228.019-.011.657-1.146-.957-.548-.3.525-15.373-8.814a1.537,1.537,0,0,0-1.886.3,3.478,3.478,0,0,0-.343.353l-.012-.011a4.7,4.7,0,0,0-1.005,1.789h0l-.007.018A1.713,1.713,0,0,0,614.242,3759.338Zm.544-2.908s.856-1.812,2.161-1.064l15.117,8.667-.265.462-.01.016-1.557,2.717-.009.016-.266.464-15.22-8.726S613.811,3758.129,614.786,3756.431Z" transform="translate(-613.497 -3754.463)" fill="#2d353e"/>
        </g>
        <g id="Group_1142" data-name="Group 1142" transform="translate(25.176 13.551)">
          <path id="Path_4107" data-name="Path 4107" d="M932.879,3943.294l1.838-3.228.019-.011-.132.231,6.621,3.8-1.725,3.008Z" transform="translate(-932.879 -3940.056)" fill="#3f4c59"/>
          <path id="Path_4108" data-name="Path 4108" d="M1037.862,3982.955l1.014-1.768,1.243.712-3.745,6.531-1.243-.712,1.006-1.755Z" transform="translate(-1029.516 -3978.929)" fill="#2d353e"/>
        </g>
      </g>
      <g id="Group_1145" data-name="Group 1145" transform="translate(17.448 63.199)">
        <rect id="Rectangle_388" data-name="Rectangle 388" width="9.376" height="2.91" transform="translate(5.164 3.863)" fill="#22282c"/>
        <path id="Path_4109" data-name="Path 4109" d="M557.749,1408.437c0-3.758,2.649-6.8,5.918-6.8h7.868c3.269,0,5.918,3.047,5.918,6.8v15.247c0,.209-.012.415-.029.619a.953.953,0,0,1,.009.1.937.937,0,0,1-.059.33c0,.025-.005.051-.008.076h-.027a.715.715,0,0,1-.632.43H558.5a.715.715,0,0,1-.631-.43h-.028c0-.026-.005-.052-.009-.077a.949.949,0,0,1-.058-.328.868.868,0,0,1,.01-.1c-.018-.2-.03-.411-.03-.621Z" transform="translate(-557.749 -1396.289)" fill="#333a43"/>
        <path id="Path_4110" data-name="Path 4110" d="M585.316,1549.914a3.649,3.649,0,0,0,3.37,3.875h9.936a3.648,3.648,0,0,0,3.37-3.875v-2.626a3.649,3.649,0,0,0-3.37-3.875h-9.936a3.649,3.649,0,0,0-3.37,3.875Z" transform="translate(-583.802 -1530.286)" fill="#e4f4f2"/>
        <rect id="Rectangle_389" data-name="Rectangle 389" width="11.864" height="1.567" transform="translate(3.92 14.789)" fill="#ffb955"/>
        <rect id="Rectangle_390" data-name="Rectangle 390" width="11.864" height="1.567" transform="translate(3.92 17.66)" fill="#ffb955"/>
        <rect id="Rectangle_391" data-name="Rectangle 391" width="9.292" height="1.567" transform="translate(5.206 20.53)" fill="#ffb955"/>
        <g id="Group_1144" data-name="Group 1144" transform="translate(3.236)">
          <rect id="Rectangle_392" data-name="Rectangle 392" width="0.47" height="3.863" transform="translate(4.242)" fill="#f17c15"/>
          <rect id="Rectangle_393" data-name="Rectangle 393" width="0.47" height="3.863" transform="translate(5.316)" fill="#f17c15"/>
          <rect id="Rectangle_394" data-name="Rectangle 394" width="0.47" height="3.863" transform="translate(11.764)" fill="#f17c15"/>
          <rect id="Rectangle_395" data-name="Rectangle 395" width="0.47" height="3.863" transform="translate(10.69)" fill="#f17c15"/>
          <rect id="Rectangle_396" data-name="Rectangle 396" width="0.47" height="3.863" transform="translate(6.391)" fill="#f17c15"/>
          <rect id="Rectangle_397" data-name="Rectangle 397" width="0.47" height="3.863" transform="translate(7.465)" fill="#f17c15"/>
          <rect id="Rectangle_398" data-name="Rectangle 398" width="0.47" height="3.863" transform="translate(3.167)" fill="#f17c15"/>
          <rect id="Rectangle_399" data-name="Rectangle 399" width="0.47" height="3.863" transform="translate(9.615)" fill="#f17c15"/>
          <rect id="Rectangle_400" data-name="Rectangle 400" width="0.47" height="3.863" transform="translate(2.092)" fill="#f17c15"/>
          <rect id="Rectangle_401" data-name="Rectangle 401" width="0.47" height="3.863" transform="translate(1.018)" fill="#f17c15"/>
          <rect id="Rectangle_402" data-name="Rectangle 402" width="0.47" height="3.863" transform="translate(8.54)" fill="#f17c15"/>
          <rect id="Rectangle_403" data-name="Rectangle 403" width="0.413" height="3.863" fill="#f17c15"/>
          <rect id="Rectangle_404" data-name="Rectangle 404" width="0.394" height="3.863" transform="translate(12.839)" fill="#f17c15"/>
          <line id="Line_13" data-name="Line 13" x1="0.605" transform="translate(12.234)" fill="#b51e81"/>
          <rect id="Rectangle_405" data-name="Rectangle 405" width="0.605" height="3.863" transform="translate(12.234)" fill="#dd9d4f"/>
          <line id="Line_14" data-name="Line 14" x1="0.605" transform="translate(11.159)" fill="#b51e81"/>
          <rect id="Rectangle_406" data-name="Rectangle 406" width="0.605" height="3.863" transform="translate(11.159)" fill="#dd9d4f"/>
          <line id="Line_15" data-name="Line 15" x1="0.605" transform="translate(10.085)" fill="#b51e81"/>
          <rect id="Rectangle_407" data-name="Rectangle 407" width="0.605" height="3.863" transform="translate(10.085)" fill="#dd9d4f"/>
          <line id="Line_16" data-name="Line 16" x1="0.605" transform="translate(9.01)" fill="#b51e81"/>
          <rect id="Rectangle_408" data-name="Rectangle 408" width="0.605" height="3.863" transform="translate(9.01)" fill="#dd9d4f"/>
          <line id="Line_17" data-name="Line 17" x1="0.605" transform="translate(7.935)" fill="#b51e81"/>
          <rect id="Rectangle_409" data-name="Rectangle 409" width="0.605" height="3.863" transform="translate(7.935)" fill="#dd9d4f"/>
          <line id="Line_18" data-name="Line 18" x1="0.605" transform="translate(6.861)" fill="#b51e81"/>
          <rect id="Rectangle_410" data-name="Rectangle 410" width="0.605" height="3.863" transform="translate(6.861)" fill="#dd9d4f"/>
          <line id="Line_19" data-name="Line 19" x1="0.605" transform="translate(5.786)" fill="#b51e81"/>
          <rect id="Rectangle_411" data-name="Rectangle 411" width="0.605" height="3.863" transform="translate(5.786)" fill="#dd9d4f"/>
          <line id="Line_20" data-name="Line 20" x1="0.605" transform="translate(4.711)" fill="#b51e81"/>
          <rect id="Rectangle_412" data-name="Rectangle 412" width="0.605" height="3.863" transform="translate(4.711)" fill="#dd9d4f"/>
          <line id="Line_21" data-name="Line 21" x1="0.605" transform="translate(3.637)" fill="#b51e81"/>
          <rect id="Rectangle_413" data-name="Rectangle 413" width="0.605" height="3.863" transform="translate(3.637)" fill="#dd9d4f"/>
          <line id="Line_22" data-name="Line 22" x1="0.605" transform="translate(2.562)" fill="#b51e81"/>
          <rect id="Rectangle_414" data-name="Rectangle 414" width="0.605" height="3.863" transform="translate(2.562)" fill="#dd9d4f"/>
          <line id="Line_23" data-name="Line 23" x1="0.605" transform="translate(1.488)" fill="#b51e81"/>
          <rect id="Rectangle_415" data-name="Rectangle 415" width="0.605" height="3.863" transform="translate(1.488)" fill="#dd9d4f"/>
          <line id="Line_24" data-name="Line 24" x1="0.604" transform="translate(0.413)" fill="#b51e81"/>
          <rect id="Rectangle_416" data-name="Rectangle 416" width="0.604" height="3.863" transform="translate(0.413)" fill="#dd9d4f"/>
        </g>
      </g>
      <g id="Group_1147" data-name="Group 1147" transform="translate(17.291 86.718)">
        <g id="Group_1146" data-name="Group 1146">
          <path id="Path_4111" data-name="Path 4111" d="M569.937,1733.062a2.586,2.586,0,0,1,.888,3.292l-4.268-2.842A2.587,2.587,0,0,1,569.937,1733.062Z" transform="translate(-565.917 -1732.628)" fill="#fff"/>
          <path id="Path_4112" data-name="Path 4112" d="M556.057,1762.276a2.587,2.587,0,0,1-.888-3.292l4.268,2.842A2.587,2.587,0,0,1,556.057,1762.276Z" transform="translate(-554.904 -1757.536)" fill="#fff"/>
        </g>
      </g>
      <g id="Group_1149" data-name="Group 1149" transform="translate(223.555 130.568)">
        <g id="Group_1148" data-name="Group 1148">
          <path id="Path_4113" data-name="Path 4113" d="M4311.274,2546.788c.032-4.062,2.893-6.714,6.71-7.552v-6.406h-.557a.821.821,0,1,1,0-1.641h2.4v15.6Z" transform="translate(-4311.269 -2531.189)" fill="#e4e0dc"/>
          <path id="Path_4114" data-name="Path 4114" d="M4466.952,2531.189h2.4a.821.821,0,1,1,0,1.641h-.559v6.406c3.819.837,6.678,3.49,6.711,7.552h-8.548Z" transform="translate(-4458.397 -2531.189)" fill="#fff8f3"/>
          <path id="Path_4115" data-name="Path 4115" d="M4475.5,2815.263c0,.024.006.046.006.069,0,4.724-3.747,7.75-8.472,7.75-.027,0-.055,0-.083,0v-7.816Z" transform="translate(-4458.397 -2799.664)" fill="#d64247"/>
          <path id="Path_4116" data-name="Path 4116" d="M4311.171,2815.332c0-.023.005-.045.005-.069h8.549v7.816C4315.039,2823.044,4311.171,2820.027,4311.171,2815.332Z" transform="translate(-4311.171 -2799.664)" fill="#d03033"/>
        </g>
      </g>
      <g id="Group_1152" data-name="Group 1152" transform="translate(12.707 128.121)">
        <g id="Group_1150" data-name="Group 1150" transform="translate(7.473 5.156)">
          <path id="Path_4117" data-name="Path 4117" d="M610.669,2626.526h-2.757a.413.413,0,1,1,0-.827h2.757a.413.413,0,1,1,0,.827Z" transform="translate(-607.498 -2623.218)" fill="#2d353e"/>
          <path id="Path_4118" data-name="Path 4118" d="M610.669,2581.338h-2.757a.414.414,0,1,1,0-.827h2.757a.414.414,0,1,1,0,.827Z" transform="translate(-607.498 -2580.511)" fill="#2d353e"/>
        </g>
        <g id="Group_1151" data-name="Group 1151">
          <path id="Path_4119" data-name="Path 4119" d="M494.873,2654.851a20.351,20.351,0,0,0-3.836.508v6.183s1.515,3.057,6.61,3.057,5.77-3.283,5.77-3.283v-5.96a9.247,9.247,0,0,0-4.629.083A17.742,17.742,0,0,0,494.873,2654.851Zm2.559,6.259a.413.413,0,0,1,.414-.414H500.6a.414.414,0,1,1,0,.827h-2.757A.414.414,0,0,1,497.432,2661.109Zm0-2.275a.413.413,0,0,1,.414-.413H500.6a.414.414,0,1,1,0,.827h-2.757A.414.414,0,0,1,497.432,2658.834Zm0-2.275a.414.414,0,0,1,.414-.415H500.6a.414.414,0,1,1,0,.828h-2.757A.414.414,0,0,1,497.432,2656.559Z" transform="translate(-489.959 -2645.613)" fill="#d03033"/>
          <path id="Path_4120" data-name="Path 4120" d="M471.414,2487.724v14.392a4.7,4.7,0,0,0,4.691,4.691h.828c.016.452.552.828,1.282.959v2.67h-.025a.784.784,0,0,0-.783.781v2.712a.784.784,0,0,0,.783.782h.025v4.939h1.1v-4.939h.026a.785.785,0,0,0,.782-.782v-2.712a.785.785,0,0,0-.782-.781h-.026v-2.67c.731-.131,1.266-.507,1.282-.959h.83a4.7,4.7,0,0,0,4.69-4.691v-14.392a1.1,1.1,0,0,0-1.1-1.1h-12.5A1.1,1.1,0,0,0,471.414,2487.724Zm1.078,1.845h12.38v12.755s-.674,3.283-5.77,3.283-6.61-3.057-6.61-3.057v-12.981Z" transform="translate(-471.414 -2486.621)" fill="#2d353e"/>
        </g>
      </g>
      <g id="Group_1156" data-name="Group 1156" transform="translate(215.605 57.619)">
        <path id="Path_4121" data-name="Path 4121" d="M4215.621,1327.554l6.6,17.927-1.729,3.23-3.413-.91-6.916-18.383Z" transform="translate(-4207.757 -1320.698)" fill="#f5f6f8"/>
        <g id="Group_1155" data-name="Group 1155">
          <path id="Path_4122" data-name="Path 4122" d="M4201.864,1325.674l6.705,17.99,2.48,1.006.827-.308,1.217-2.384-6.7-17.99.9-.39,6.806,18.262-1.712,3.353,1.273,3.414-.567.211-.03.011-.566.211-1.272-3.415-3.49-1.415-6.806-18.262Z" transform="translate(-4199.03 -1316.96)" fill="#313d40"/>
          <g id="Group_1153" data-name="Group 1153" transform="translate(6.479 16.078)">
            <path id="Path_4123" data-name="Path 4123" d="M4288.271,1495.5l3.186,8.55-.994,2.192-.711.265-2.187-1.007-3.187-8.55Z" transform="translate(-4284.378 -1495.496)" fill="#d03033"/>
          </g>
          <g id="Group_1154" data-name="Group 1154">
            <path id="Path_4124" data-name="Path 4124" d="M4173.144,1213.135l-1.182-3.173a2.975,2.975,0,0,1,1.749-3.827l2.221,5.96Z" transform="translate(-4171.478 -1205.947)" fill="#d03033"/>
            <path id="Path_4125" data-name="Path 4125" d="M4207.051,1202.9a2.975,2.975,0,0,1,3.827,1.749l1.182,3.173-2.788,1.039Z" transform="translate(-4204.818 -1202.708)" fill="#b62c30"/>
            <path id="Path_4126" data-name="Path 4126" d="M4250.292,1288.327l.993-.37a1.19,1.19,0,0,1,.827,2.219l-3.781,1.409-.3-.816-.523-1.4Z" transform="translate(-4243.051 -1283.217)" fill="#242b2c"/>
            <path id="Path_4127" data-name="Path 4127" d="M4167.064,1316.091l.993-.37,2.788-1.039.523,1.4.3.815-3.781,1.409a1.19,1.19,0,0,1-.827-2.219Z" transform="translate(-4166.391 -1308.533)" fill="#313d40"/>
          </g>
        </g>
      </g>
      <g id="Group_1162" data-name="Group 1162" transform="translate(211.929 183.67)">
        <g id="Group_1159" data-name="Group 1159" transform="translate(5.775)">
          <path id="Path_4128" data-name="Path 4128" d="M4217.59,3507.159c.042.038.083.079.125.119l2.745-2.121a7.954,7.954,0,0,0-7.919-6.938,8.041,8.041,0,0,0-7.934,6.926l2.81,2.17c.107-.113.17-.17.17-.17v.008a6.375,6.375,0,0,1,5.695-1.822,7.336,7.336,0,0,1,4.294,1.813h0Zm-2.585-4.571h-1.721v1.723h-1.5v-1.723h-1.723v-1.5h1.723v-1.721h1.5v1.721H4215Z" transform="translate(-4204.607 -3498.219)" fill="#d03033"/>
          <g id="Group_1158" data-name="Group 1158" transform="translate(0.695 7.582)">
            <g id="Group_1157" data-name="Group 1157">
              <path id="Path_4129" data-name="Path 4129" d="M4224.645,3655.465l.163.32,0,0,.161-.325,2.252-4.422.07-.126.069-.146-.04-.171-.214-.913a6,6,0,0,0,.844-.484c.849,1.337,3.633,1.211,3.633,1.211-.8-1.58-.089-1.749.211-5.833h0a5.937,5.937,0,0,0,.039-1.68,7.54,7.54,0,0,0-2.16-4.575c-.042-.04-.083-.081-.125-.119l-.015-.014h0a7.334,7.334,0,0,0-4.294-1.813,6.375,6.375,0,0,0-5.695,1.821v-.008s-.064.058-.17.17a8.236,8.236,0,0,0-2.091,6.218c.3,4.084,1.01,4.253.212,5.833,0,0,2.6.117,3.541-1.082a3.784,3.784,0,0,0,.6.129,6.032,6.032,0,0,0,.716.349l-.169.719-.015.06.2.419Zm2.407-6.036a.678.678,0,0,0-.077.037,5.655,5.655,0,0,1-6.53-1.27,6.631,6.631,0,0,1-.873-4.368,12.035,12.035,0,0,0,5.668-4.251c1.554,4.251,5.2,3.458,4.118,7.048a4.344,4.344,0,0,1-1.17,2.084A5.7,5.7,0,0,1,4227.052,3649.429Zm-2.244,5.716-2.33-4.575,0-.018.15-.638a5.9,5.9,0,0,0,4.205-.108l.217.927Z" transform="translate(-4217.262 -3636.297)" fill="#242b2c"/>
              <path id="Path_4130" data-name="Path 4130" d="M4385.093,3770.647a.509.509,0,1,1,.509.509A.509.509,0,0,1,4385.093,3770.647Z" transform="translate(-4375.877 -3762.79)" fill="#313d40"/>
              <path id="Path_4131" data-name="Path 4131" d="M4301.317,3771.1a.478.478,0,1,1,.478-.478A.478.478,0,0,1,4301.317,3771.1Z" transform="translate(-4296.25 -3762.79)" fill="#313d40"/>
              <path id="Path_4132" data-name="Path 4132" d="M4364.837,3899.728a10.493,10.493,0,0,1,5.782,3.62,7.55,7.55,0,0,1,1.641,4.645h-9.72v-3.451h2.7Z" transform="translate(-4354.563 -3885.262)" fill="#242b2c"/>
            </g>
          </g>
        </g>
        <g id="Group_1160" data-name="Group 1160" transform="translate(0.069 23.247)">
          <path id="Path_4133" data-name="Path 4133" d="M4100.7,3925.969l.4-.183a3.435,3.435,0,0,1,2.786.074l.219.093.138.059.026-.525.1-2.069a1.772,1.772,0,0,0-3.54-.171Zm.58-.828.09-1.867a1.232,1.232,0,0,1,2.461.118l-.089,1.834A4.01,4.01,0,0,0,4101.279,3925.142Z" transform="translate(-4100.699 -3921.562)" fill="#242b2c"/>
          <path id="Path_4134" data-name="Path 4134" d="M4172.333,3998.4l.032.016.025.014-.07.009Z" transform="translate(-4168.387 -3994.185)" fill="#d9001c"/>
        </g>
        <g id="Group_1161" data-name="Group 1161" transform="translate(0 24.041)">
          <path id="Path_4135" data-name="Path 4135" d="M4170.99,3939.754l.031.016.026.013.368-.05a3.434,3.434,0,0,1,2.647.869l.3.248.862-2.449a1.772,1.772,0,0,0-3.342-1.177l-.066.188-.619,1.759-.165.466Zm.779-.588.621-1.763a1.232,1.232,0,0,1,2.324.818l-.61,1.732A4.013,4.013,0,0,0,4171.77,3939.165Z" transform="translate(-4167.061 -3936.038)" fill="#242b2c"/>
          <path id="Path_4136" data-name="Path 4136" d="M4099.444,3998.692a1.694,1.694,0,0,0,2.743,1.411,1.726,1.726,0,0,0,.2-.184c.026-.029.051-.057.075-.087s.054-.07.08-.107a1.677,1.677,0,0,0,.266-.658,1.7,1.7,0,0,0,.024-.212l.042-.882.042-.862.035-.723.006-.127-.021-.01-.07.009.013-.039c-.049-.024-.1-.051-.164-.078a3.591,3.591,0,0,0-2.151-.3c.015.026-.3.078-.3.078a2.806,2.806,0,0,0-.668.313l-.035.022Zm.475-2.3.8-.242a.847.847,0,0,0-.436.491c-.808,2.483.049,3.309.049,3.309C4099.135,3999.241,4099.918,3996.4,4099.918,3996.4Z" transform="translate(-4099.442 -3992.506)" fill="#d03033"/>
          <path id="Path_4137" data-name="Path 4137" d="M4158.538,4008.52c.035-.033.2-.217.208-.231s.032-.043.048-.065.032-.049.047-.074a1.674,1.674,0,0,0,.219-.584,1.7,1.7,0,0,0,.023-.212l.043-.881.076-1.585a2.545,2.545,0,0,1,1.163-.07h0a3.77,3.77,0,0,1,1.973,1.027l.037.036-.594,1.685-.27.766a1.692,1.692,0,0,1-3.07.271C4158.475,4008.575,4158.507,4008.548,4158.538,4008.52Z" transform="translate(-4155.203 -4001.004)" fill="#d03033"/>
        </g>
        <path id="Path_4138" data-name="Path 4138" d="M4225.6,3904.174c.027-.059.052-.118.078-.178l0-.008a1.242,1.242,0,0,0,.057-.114s0-.01.008-.015l.024.021.862-2.449a1.774,1.774,0,0,0-1.861-2.352,11.362,11.362,0,0,1,4.379-1.85l-.411,4.95h2.756v3.451h-6.446l.46-1.306A1.056,1.056,0,0,0,4225.6,3904.174Z" transform="translate(-4217.892 -3875.318)" fill="#242b2c"/>
      </g>
      <g id="Group_1164" data-name="Group 1164" transform="translate(162.639 220.521)">
        <g id="Group_1163" data-name="Group 1163">
          <path id="Path_4139" data-name="Path 4139" d="M3201.82,4187.253a17.939,17.939,0,1,0,17.938-17.939A17.938,17.938,0,0,0,3201.82,4187.253Z" transform="translate(-3201.82 -4169.314)" fill="#0c8b96"/>
        </g>
      </g>
      <g id="Group_1169" data-name="Group 1169" transform="translate(171.998 225.457)">
        <g id="Group_1168" data-name="Group 1168" transform="translate(0 0)">
          <g id="Group_1167" data-name="Group 1167">
            <g id="Group_1165" data-name="Group 1165" transform="translate(4.84)">
              <path id="Path_4140" data-name="Path 4140" d="M3469.276,4263.646a4.435,4.435,0,1,0-4.436,4.436A4.443,4.443,0,0,0,3469.276,4263.646Z" transform="translate(-3460.406 -4259.206)" fill="#fff"/>
            </g>
            <g id="Group_1166" data-name="Group 1166" transform="translate(0 8.876)">
              <path id="Path_4141" data-name="Path 4141" d="M3388.385,4421.337c2.754,1.056,2.731,2.99,2.74,3.084l.014,6.859a1.591,1.591,0,0,1-.369,1.02,1.156,1.156,0,0,1-.864.316h-.261Zm-16.117,13.847V4425c.352-4.175,5.123-4.161,5.331-4.16h7.421l-2.283,8.58h-1.306a1.888,1.888,0,1,0,0,3.775h5.3l0,3.2-10.89.008,0-10.425-.694.9v7.992l0,.3a1.439,1.439,0,1,1-2.878.016Zm9.739-2.59h-.576a1.28,1.28,0,1,1,0-2.56h1.088A5.506,5.506,0,0,0,3382.006,4432.594Z" transform="translate(-3372.267 -4420.845)" fill="#fff"/>
            </g>
          </g>
        </g>
        <path id="Path_4142" data-name="Path 4142" d="M3567.215,4432.855l-1.134-11.256a5.551,5.551,0,0,0-2.258-.477s-3.217,11.4-3.016,11.7c.01.013.019.028.076.028Z" transform="translate(-3550.446 -4412.231)" fill="#d03033"/>
      </g>
    </g>
    <g id="Group_1207" data-name="Group 1207" transform="translate(282.292 204.751)">
      <g id="Group_1172" data-name="Group 1172" transform="translate(8.117)">
        <g id="Group_1171" data-name="Group 1171">
          <path id="Path_4143" data-name="Path 4143" d="M1607.188,3081.583l0-.879c.052-.938.1-1.947.157-3.009l-8.272,15.873a7.51,7.51,0,0,1-5.356,3.925l-20.1.381-4.384.789-6.845,1.822a77.459,77.459,0,0,0,43.995,22.443l.166-19.939Z" transform="translate(-1540.176 -2968.453)" fill="#3795c7"/>
          <path id="Path_4144" data-name="Path 4144" d="M1313.159,1165.934a77.658,77.658,0,1,0-150.287,27.547,7.507,7.507,0,0,1,13.2-5.3q.9,3.517,2.1,6.906l1.468,12.576,3.849-.678,21.655-3.816,11.194-21.48a8.934,8.934,0,0,1,8.681-11.05c.048,0,.1,0,.144,0,0-.015,0-.03,0-.045h7.526v0a14.919,14.919,0,0,0,5.991-1.579l.035.047-.883.522-3.578,14.674,4.909,1.227-3.272,6.136,13.73,27.158,2.551,3.75,3.24,6.438.013-.34,1.426-4.072,16.65-32.935-3.272-6.136,4.909-1.227-3.578-14.674-.883-.522c.011-.016.023-.031.035-.047a14.916,14.916,0,0,0,5.991,1.579v0h8.5s4.375-.075,5.748,1.305l-5.642,20.923-.012-.007v.051l-.006.025.007.018c.023,7.066.205,14.966.678,23.162l-.171-.753.146,9.662A77.483,77.483,0,0,0,1313.159,1165.934Z" transform="translate(-1157.844 -1088.276)" fill="#bfe5ff"/>
          <path id="Path_4145" data-name="Path 4145" d="M2959.84,2605.674c-.472-8.2-.655-16.1-.677-23.162l-.007-.018.007-.025v-.051l.012.007,5.642-20.923c-1.373-1.38-5.748-1.305-5.748-1.305h-8.5v0a14.919,14.919,0,0,1-5.991-1.579c-.012.016-.024.031-.035.047l.883.522,3.578,14.674-4.909,1.227,3.272,6.136-16.65,32.935-1.426,4.071-.014.34.977,1.939-1.277,10.19a77.443,77.443,0,0,0,30.838-16.113l-.146-9.662Z" transform="translate(-2831.721 -2477.875)" fill="#f7f8f9"/>
          <path id="Path_4146" data-name="Path 4146" d="M1249.446,3004.624l2.729,23.371a7.509,7.509,0,0,0,2.974,5.151c1.305.972,3.2-.616,4.8-.616a7.52,7.52,0,0,0,1.3-.114l5.344-1.422a77.707,77.707,0,0,1-17.187-26.828C1249.416,3004.318,1249.428,3004.47,1249.446,3004.624Z" transform="translate(-1244.38 -2898.96)" fill="#f7f8f9"/>
          <path id="Path_4147" data-name="Path 4147" d="M1341.254,2630.743l.478-12.177-3.24-6.438-2.552-3.751-13.73-27.158,3.273-6.136-4.909-1.227,3.578-14.674.883-.522c-.011-.016-.024-.031-.035-.047a14.922,14.922,0,0,1-5.991,1.579v0h-7.526c0,.015,0,.03,0,.045-.048,0-.1,0-.144,0a8.935,8.935,0,0,0-8.681,11.05l-11.194,21.48-21.655,3.815-3.849.678-1.468-12.576q-1.2-3.387-2.1-6.906a7.507,7.507,0,0,0-13.2,5.3,77.706,77.706,0,0,0,17.187,26.827l6.845-1.822,4.384-.79,20.1-.381a7.51,7.51,0,0,0,5.356-3.925l8.272-15.873c-.052,1.062-.1,2.07-.156,3.009l0,.879-.637,21.406-.166,19.939a78.34,78.34,0,0,0,30.87-1.608Z" transform="translate(-1244.176 -2477.875)" fill="#f7f8f9"/>
          <path id="Path_4148" data-name="Path 4148" d="M2925.915,3662.518l1.277-10.19-.977-1.94-.479,12.177Z" transform="translate(-2828.658 -3509.697)" fill="#f7f8f9"/>
        </g>
        <path id="Path_4149" data-name="Path 4149" d="M2918.253,3707.464h0Z" transform="translate(-2821.58 -3563.639)" fill="none"/>
      </g>
      <g id="Group_1206" data-name="Group 1206" transform="translate(0 13.323)">
        <path id="Path_4150" data-name="Path 4150" d="M2613.229,2448.55c-3.491-4.8-9.478-7.231-17.792-7.231-9.421,0-16.055,2.5-19.721,7.444l-.006.009a19.322,19.322,0,0,0,3.877-1.591c3.573-2.784,8.883-4.192,15.85-4.192,6.075,0,10.786,1.353,14.061,4.028,1.155.576,2.873,1.278,3.818,1.655C2613.286,2448.632,2613.258,2448.59,2613.229,2448.55Z" transform="translate(-2489.734 -2380.344)" fill="#040505"/>
        <g id="Group_1175" data-name="Group 1175" transform="translate(26.34 86.582)">
          <g id="Group_1173" data-name="Group 1173">
            <path id="Path_4151" data-name="Path 4151" d="M1533.206,3045.3a80.881,80.881,0,0,1-5.318-11.9l1.468,12.576Z" transform="translate(-1525.792 -3026.496)" fill="none"/>
            <path id="Path_4152" data-name="Path 4152" d="M2918.247,3707.464h0Z" transform="translate(-2839.803 -3663.544)" fill="#ed4a1a"/>
            <path id="Path_4153" data-name="Path 4153" d="M1491.469,2911.665a7.471,7.471,0,0,0-1.759-4.016q.9,3.516,2.1,6.905Z" transform="translate(-1489.71 -2907.649)" fill="#f7f8f9"/>
          </g>
          <path id="Path_4154" data-name="Path 4154" d="M2918.247,3707.464h0Z" transform="translate(-2839.803 -3663.544)" fill="none"/>
          <path id="Path_4155" data-name="Path 4155" d="M2922.933,3640.579v-.21h-.683v.313l.351.847Z" transform="translate(-2843.586 -3600.134)" fill="#e0e0df"/>
          <g id="Group_1174" data-name="Group 1174" transform="translate(78.663 40.445)">
            <path id="Path_4156" data-name="Path 4156" d="M2922.6,3645.148l-.351-.847v.516h.132c.184,0,.367,0,.551,0v-.615Z" transform="translate(-2922.25 -3644.199)" fill="#e0e0df"/>
          </g>
        </g>
        <g id="Group_1176" data-name="Group 1176" transform="translate(104.784 91.219)">
          <path id="Path_4157" data-name="Path 4157" d="M3478.677,2992.148l.012-.043-.012-.007Z" transform="translate(-3447.903 -2992.097)" fill="none"/>
          <path id="Path_4158" data-name="Path 4158" d="M2918.253,3707.464h0Z" transform="translate(-2918.247 -3668.182)" fill="none"/>
          <path id="Path_4159" data-name="Path 4159" d="M3478.566,2993.068c0-.014,0-.029,0-.043l-.007.025Z" transform="translate(-3447.791 -2992.974)" fill="#003956"/>
          <path id="Path_4160" data-name="Path 4160" d="M2918.253,3707.464h0Z" transform="translate(-2918.247 -3668.182)" fill="#3cb9c8"/>
        </g>
        <g id="Group_1177" data-name="Group 1177" transform="translate(89.114 55.797)">
          <path id="Path_4161" data-name="Path 4161" d="M2723.1,2350.04l.007.006v-3.016h-18.429v4.357h-.062a15.079,15.079,0,0,1-3.193,4.564C2715.807,2357.33,2723.1,2350.04,2723.1,2350.04Z" transform="translate(-2697.657 -2347.031)" fill="#cf9e82"/>
          <path id="Path_4162" data-name="Path 4162" d="M2658.333,2404.652v-2.809l-.008-.006s-7.29,7.29-21.677,5.912a15.071,15.071,0,0,1-3.763,2.7,19.5,19.5,0,0,0,7.018,6.133v4.053h.023v.276h17.517v-.276h.889v-4.441a19.524,19.524,0,0,0,6.342-5.8A15.106,15.106,0,0,1,2658.333,2404.652Z" transform="translate(-2632.885 -2398.827)" fill="#f2bb94"/>
        </g>
        <path id="Path_4163" data-name="Path 4163" d="M2720.121,2614.635a19.315,19.315,0,0,1-25.5.767l12.843,56.732Z" transform="translate(-2602.115 -2544.143)" fill="#c6cbd4"/>
        <path id="Path_4164" data-name="Path 4164" d="M2819.623,2800.311l2.9-7.1-3.45-32.261-2.726-.8v-.034l-.06.017-.059-.017v.034l-2.726.8-3.688,34.4,4.389,8.32,2.1,5.878.687-1.222,1.718-4.847Z" transform="translate(-2710.985 -2681.64)" fill="#2f4a67"/>
        <path id="Path_4165" data-name="Path 4165" d="M2842.521,2668.686l-4.266-.585-4.268.585-.829,2.371,2.015,3.2,3.082.119,3.082-.119,2.014-3.2Z" transform="translate(-2733.046 -2594.674)" fill="#2f4a67"/>
        <path id="Path_4166" data-name="Path 4166" d="M2617.531,2534.13l13.684,7.356-9.711,9.712-7.21-15.156Z" transform="translate(-2526.2 -2468.059)" fill="#b1bfb9"/>
        <path id="Path_4167" data-name="Path 4167" d="M2936.716,2534.13l-13.684,7.356,9.711,9.712,7.033-15Z" transform="translate(-2817.986 -2468.059)" fill="#b1bfb9"/>
        <g id="Group_1178" data-name="Group 1178" transform="translate(81.801 4.85)">
          <path id="Path_4168" data-name="Path 4168" d="M2952.035,1441.076c0-16.608-9.985-21.837-22.964-21.837-.16,0-.319,0-.478,0v56.986C2941.546,1476.177,2952.035,1457.661,2952.035,1441.076Z" transform="translate(-2905.042 -1419.239)" fill="#f2bb94"/>
          <path id="Path_4169" data-name="Path 4169" d="M2522.656,1419.335c-12.507.407-22.96,5.669-22.96,21.818,0,16.38,10.234,34.771,22.96,35.136.18.006.358.018.537.018l.055,0v-56.985Q2522.951,1419.326,2522.656,1419.335Z" transform="translate(-2499.696 -1419.317)" fill="#deaa87"/>
        </g>
        <g id="Group_1182" data-name="Group 1182" transform="translate(78.313)">
          <g id="Group_1181" data-name="Group 1181">
            <g id="Group_1180" data-name="Group 1180">
              <g id="Group_1179" data-name="Group 1179">
                <path id="Path_4170" data-name="Path 4170" d="M2503.082,1355.5a33.779,33.779,0,0,0-3.59-12.8c2.026-9.037-6.422-11.554-15.329-11.772a72.737,72.737,0,0,0-17.974,1.971,15.085,15.085,0,0,1-4.25.638c-1.235.041-2.177-.006-2.177-.006a9.764,9.764,0,0,0,.443,1.117c.2.464.4.884.4.884a3.339,3.339,0,0,1-1.186-.285A47.411,47.411,0,0,1,2454.7,1333a11.888,11.888,0,0,0,.924,6.14,12.189,12.189,0,0,0,1.4,2.5,5.9,5.9,0,0,1-2-.527,16.375,16.375,0,0,0,.845,2.952c-3.171,2.313-3.906,8.994-3.964,14.219l5.434,6.346,1.879-4.555c.04.006.078.007.119.012,1.326-4.8,2.432-12.019,2.432-12.019,14.178,9.1,27.224,1.83,29.479.433.428-.469.654-.75.654-.75a27,27,0,0,0,6.963,15.269c-.514-3.868,3.923-6.9,4.254-7.121l.031-.021C2503.127,1355.748,2503.1,1355.626,2503.082,1355.5Z" transform="translate(-2451.037 -1330.908)" fill="#2d1b12"/>
                <path id="Path_4171" data-name="Path 4171" d="M3292.531,1794.632c-.887,3.389-.257,6.493,1.405,6.93s3.732-1.952,4.621-5.342.256-6.491-1.406-6.93S3293.42,1791.242,3292.531,1794.632Z" transform="translate(-3245.127 -1764.07)" fill="#f2bb94"/>
                <path id="Path_4172" data-name="Path 4172" d="M2442.124,1798.114c.922,3.312.437,6.34-1.073,6.76s-3.48-1.923-4.4-5.235-.437-6.34,1.072-6.761S2441.208,1794.8,2442.124,1798.114Z" transform="translate(-2436.185 -1767.463)" fill="#deaa87"/>
              </g>
            </g>
          </g>
        </g>
        <path id="Path_4173" data-name="Path 4173" d="M2872.848,3566.384l2.156-4.263c-1.6-1.685-4.977,1.793-4.977,1.793v.835l1.834-.317Z" transform="translate(-2767.891 -3439.165)" fill="none"/>
        <path id="Path_4174" data-name="Path 4174" d="M2569.97,2596.049l-12.843-56.732-1.174-5.187-2.354,1.391-.883.522-3.578,14.674,4.909,1.227-3.272,6.136Z" transform="translate(-2464.623 -2468.059)" fill="#e0e0df"/>
        <path id="Path_4175" data-name="Path 4175" d="M2948.949,2553.006l-3.578-14.674-.039-.023-3.282-1.756-.889,4.287-12.659,57.5,18.811-37.97-3.273-6.136Z" transform="translate(-2823.155 -2470.348)" fill="#e0e0df"/>
        <rect id="Rectangle_417" data-name="Rectangle 417" width="60.345" height="76.436" transform="translate(1.862 47.658) rotate(-11.414)" fill="#15505a"/>
        <rect id="Rectangle_418" data-name="Rectangle 418" width="53.993" height="68.39" transform="translate(5.771 50.972) rotate(-11.414)" fill="#fff"/>
        <g id="Group_1183" data-name="Group 1183" transform="translate(13.734 59.222)">
          <rect id="Rectangle_419" data-name="Rectangle 419" width="4.024" height="4.022" transform="matrix(0.98, -0.198, 0.198, 0.98, 0, 8.202)" fill="#213944"/>
          <rect id="Rectangle_420" data-name="Rectangle 420" width="33.406" height="4.022" transform="translate(7.879 6.611) rotate(-11.414)" fill="#213944"/>
        </g>
        <g id="Group_1184" data-name="Group 1184" transform="translate(15.246 67.546)">
          <rect id="Rectangle_421" data-name="Rectangle 421" width="4.022" height="4.022" transform="translate(0 7.369) rotate(-11.423)" fill="#213944"/>
          <rect id="Rectangle_422" data-name="Rectangle 422" width="29.195" height="4.022" transform="matrix(0.98, -0.198, 0.198, 0.98, 7.88, 5.778)" fill="#213944"/>
        </g>
        <g id="Group_1185" data-name="Group 1185" transform="translate(16.759 75.586)">
          <rect id="Rectangle_423" data-name="Rectangle 423" width="4.023" height="4.022" transform="translate(0 6.819) rotate(-11.416)" fill="#213944"/>
          <rect id="Rectangle_424" data-name="Rectangle 424" width="26.419" height="4.022" transform="translate(7.879 5.228) rotate(-11.414)" fill="#213944"/>
        </g>
        <g id="Group_1186" data-name="Group 1186" transform="translate(18.271 81.524)">
          <rect id="Rectangle_425" data-name="Rectangle 425" width="4.023" height="4.022" transform="translate(0 8.371) rotate(-11.415)" fill="#213944"/>
          <rect id="Rectangle_426" data-name="Rectangle 426" width="34.262" height="4.022" transform="translate(7.879 6.78) rotate(-11.414)" fill="#213944"/>
        </g>
        <g id="Group_1187" data-name="Group 1187" transform="translate(19.783 89.015)">
          <path id="Path_4176" data-name="Path 4176" d="M1375.042,3093.843l-3.943.8-.8-3.942,3.944-.8Z" transform="translate(-1370.303 -3082.325)" fill="#213944"/>
          <rect id="Rectangle_427" data-name="Rectangle 427" width="34.262" height="4.022" transform="translate(7.879 6.78) rotate(-11.414)" fill="#213944"/>
        </g>
        <g id="Group_1188" data-name="Group 1188" transform="translate(0.833 75.007)">
          <path id="Path_4177" data-name="Path 4177" d="M1028.3,2704.312a3.157,3.157,0,0,0,.444-.032l8.63-1.233a3.113,3.113,0,1,0-.881-6.164l-8.63,1.233a3.114,3.114,0,0,0,.437,6.2Z" transform="translate(-1025.19 -2696.852)" fill="#deaa87"/>
        </g>
        <g id="Group_1189" data-name="Group 1189" transform="translate(0 81.959)">
          <path id="Path_4178" data-name="Path 4178" d="M1013.527,2830.725l8.454-1.056a3.114,3.114,0,0,0-.772-6.179l-8.455,1.057a3.114,3.114,0,0,0,.382,6.2A3.156,3.156,0,0,0,1013.527,2830.725Z" transform="translate(-1010.027 -2823.466)" fill="#deaa87"/>
        </g>
        <g id="Group_1190" data-name="Group 1190" transform="translate(1.616 88.141)">
          <path id="Path_4179" data-name="Path 4179" d="M1051.6,2942.21a3.113,3.113,0,0,0-1.147-6.12l-8.454,1.585a3.113,3.113,0,1,0,1.147,6.12Z" transform="translate(-1039.459 -2936.036)" fill="#deaa87"/>
        </g>
        <g id="Group_1191" data-name="Group 1191" transform="translate(4.723 94.452)">
          <path id="Path_4180" data-name="Path 4180" d="M1109.142,3053.3a2.787,2.787,0,0,0-3.209-2.292l-7.572,1.262a2.789,2.789,0,0,0,.455,5.539,2.733,2.733,0,0,0,.462-.039l7.572-1.262A2.787,2.787,0,0,0,1109.142,3053.3Z" transform="translate(-1096.031 -3050.971)" fill="#deaa87"/>
        </g>
        <path id="Path_4181" data-name="Path 4181" d="M3401.867,2593.869c2.116,4.481.813,9.538-2.908,11.3s-8.455-.449-10.571-4.93-.814-9.538,2.908-11.3S3399.751,2589.387,3401.867,2593.869Z" transform="translate(-3256.829 -2519.286)" fill="#f7f8f9"/>
        <path id="Path_4182" data-name="Path 4182" d="M2886.067,3390.027a1.035,1.035,0,1,1-1.035-1.036A1.035,1.035,0,0,1,2886.067,3390.027Z" transform="translate(-2781.094 -3275.978)" fill="#26262a"/>
        <path id="Path_4183" data-name="Path 4183" d="M2943.461,3395.688a1.035,1.035,0,1,1-1.035-1.036A1.035,1.035,0,0,1,2943.461,3395.688Z" transform="translate(-2835.336 -3281.328)" fill="#26262a"/>
        <g id="Group_1192" data-name="Group 1192" transform="translate(109.892 110.627)">
          <path id="Path_4184" data-name="Path 4184" d="M3037.207,3350.641c-4.453-3.105-13.612-4.669-21.9-5.112l-4.034,8.232,26.216,1.235Z" transform="translate(-3011.276 -3345.529)" fill="#e0e0df"/>
        </g>
        <g id="Group_1193" data-name="Group 1193" transform="translate(82.836 66.836)">
          <path id="Path_4185" data-name="Path 4185" d="M2518.552,2560.487a22.39,22.39,0,0,0,.774,5.544l1.6-.483c-.026-.086-2.53-8.665,2.116-14.914a13.341,13.341,0,0,1,2.523-2.567,19.331,19.331,0,0,1-3.878,1.591A17.41,17.41,0,0,0,2518.552,2560.487Z" transform="translate(-2518.547 -2548.066)" fill="#040505"/>
          <path id="Path_4186" data-name="Path 4186" d="M3266.374,2968.758l.794.257-.794-.257Z" transform="translate(-3225.309 -2945.656)" fill="#040505"/>
        </g>
        <path id="Path_4187" data-name="Path 4187" d="M3194.842,2546.738c-.945-.376-2.662-1.08-3.818-1.655a13.46,13.46,0,0,1,2.378,2.511c3,4.126,3.333,9.518,3.078,13.314a34.672,34.672,0,0,1-1.319,7.44l.794.257.794.257a35.625,35.625,0,0,0,1.393-7.8C3198.538,2555.273,3197.4,2550.324,3194.842,2546.738Z" transform="translate(-3071.261 -2478.41)" fill="#040505"/>
        <g id="Group_1194" data-name="Group 1194" transform="translate(119.392 84.738)">
          <path id="Path_4188" data-name="Path 4188" d="M3201.105,2885.813a5.087,5.087,0,1,1-5.087-5.087A5.087,5.087,0,0,1,3201.105,2885.813Z" transform="translate(-3190.566 -2880.361)" fill="#e0e0df"/>
          <path id="Path_4189" data-name="Path 4189" d="M3189.73,2884.977a5.453,5.453,0,1,1,5.453-5.453A5.459,5.459,0,0,1,3189.73,2884.977Zm0-10.175a4.722,4.722,0,1,0,4.722,4.722A4.727,4.727,0,0,0,3189.73,2874.8Z" transform="translate(-3184.278 -2874.072)" fill="#040505"/>
        </g>
        <circle id="Ellipse_87" data-name="Ellipse 87" cx="3.678" cy="3.678" r="3.678" transform="translate(119.643 90.19) rotate(-45)" fill="#a5a5a5"/>
        <g id="Group_1195" data-name="Group 1195" transform="translate(76.784 82.783)">
          <path id="Path_4190" data-name="Path 4190" d="M2427.432,3139.816c-4.055-.216-4.537-2.821-4.555-2.931l-2.724-16.291,1.237-.207,2.724,16.291c.012.061.381,1.726,3.384,1.885Z" transform="translate(-2419.504 -3104.906)" fill="#a5a5a5"/>
          <path id="Path_4191" data-name="Path 4191" d="M2713.292,3077.585c3.765-1.523,3.372-4.143,3.354-4.254l-2.724-16.291-1.237.207,2.724,16.291c.008.062.2,1.756-2.587,2.884Z" transform="translate(-2695.973 -3045.037)" fill="#a5a5a5"/>
          <path id="Path_4192" data-name="Path 4192" d="M2529.86,3436.69c1.191.237,2.033,1.053,1.88,1.824s-1.244,1.2-2.435.967-2.033-1.054-1.88-1.824S2528.669,3436.453,2529.86,3436.69Z" transform="translate(-2520.868 -3403.779)" fill="#1f1d1e"/>
          <path id="Path_4193" data-name="Path 4193" d="M2670.8,3410.2c-1.049.611-1.58,1.657-1.184,2.336s1.567.734,2.616.123,1.58-1.657,1.184-2.337S2671.849,3409.587,2670.8,3410.2Z" transform="translate(-2655.144 -3378.402)" fill="#1f1d1e"/>
          <path id="Path_4194" data-name="Path 4194" d="M2408.642,2854.6a28.04,28.04,0,0,1-.13-7.236c.637-5.123,2.964-8.164,6.727-8.792,8.922-1.492,11.339,12.326,11.437,12.915l-1.856.311c-.021-.125-2.2-12.553-9.271-11.37-2.9.484-4.638,2.9-5.17,7.168a26.5,26.5,0,0,0,.118,6.694Z" transform="translate(-2408.334 -2838.461)" fill="#1f1d1e"/>
        </g>
        <path id="Path_4195" data-name="Path 4195" d="M1510.763,2244.907a5.977,5.977,0,1,0,6.975,4.773A5.977,5.977,0,0,0,1510.763,2244.907Zm5.224,6.325-2.72.51.51,2.719-2.366.444-.51-2.719-2.717.509-.443-2.365,2.717-.509-.509-2.717,2.366-.443.509,2.717,2.72-.51Z" transform="translate(-1478.658 -2194.62)" fill="#d03033"/>
        <g id="Group_1198" data-name="Group 1198" transform="translate(19.769 31.543)">
          <g id="Group_1196" data-name="Group 1196" transform="translate(0 5.077)">
            <path id="Path_4196" data-name="Path 4196" d="M1399.683,2014.194l-10.782,2.515-10.914,1.865a12.5,12.5,0,0,1,.132,7.118l11.678-2.358.846-.17,11.868-2.4A13.683,13.683,0,0,1,1399.683,2014.194Z" transform="translate(-1377.551 -2013.293)" fill="#244045"/>
            <path id="Path_4197" data-name="Path 4197" d="M1396.939,2111.167a1.292,1.292,0,0,1-1.01,1.522l-22.422,4.527a1.294,1.294,0,0,1-1.524-1.01h0a1.294,1.294,0,0,1,1.012-1.523l22.422-4.527a1.291,1.291,0,0,1,1.521,1.011Z" transform="translate(-1371.852 -2103.962)" fill="#213944"/>
            <path id="Path_4198" data-name="Path 4198" d="M1392.606,1998.737a1.166,1.166,0,0,1-.913,1.375l-20.255,4.09a1.168,1.168,0,0,1-1.376-.913h0a1.168,1.168,0,0,1,.914-1.376l20.255-4.09a1.167,1.167,0,0,1,1.375.914Z" transform="translate(-1370.039 -1997.8)" fill="#213944"/>
          </g>
          <g id="Group_1197" data-name="Group 1197" transform="translate(4.234)">
            <path id="Path_4199" data-name="Path 4199" d="M1460.319,1910.684a6.652,6.652,0,0,0-13.041,2.633l.388,1.922,13.041-2.633Zm-6.435,1.736a2.584,2.584,0,1,1,2.021-3.043A2.585,2.585,0,0,1,1453.884,1912.42Z" transform="translate(-1447.145 -1905.347)" fill="#213944"/>
          </g>
        </g>
        <path id="Path_4200" data-name="Path 4200" d="M2697.035,3134.628a7.457,7.457,0,0,0,3.473,1.738l-.771,13.952a8.4,8.4,0,0,0-4.547.551Z" transform="translate(-2602.654 -3035.582)" fill="#deaa87"/>
        <g id="Group_1205" data-name="Group 1205" transform="translate(64.134 91.138)">
          <g id="Group_1204" data-name="Group 1204">
            <g id="Group_1203" data-name="Group 1203">
              <g id="Group_1202" data-name="Group 1202">
                <path id="Path_4201" data-name="Path 4201" d="M2756.247,3127l-5.394-.262a1.354,1.354,0,0,0-1.417,1.286l-.345,7.09-.344,7.089a1.353,1.353,0,0,0,1.286,1.417l5.394.262a1.353,1.353,0,0,0,1.417-1.286l.344-7.089.345-7.09A1.353,1.353,0,0,0,2756.247,3127Z" transform="translate(-2717.403 -3119.265)" fill="#fff"/>
                <g id="Group_1201" data-name="Group 1201">
                  <g id="Group_1200" data-name="Group 1200">
                    <g id="Group_1199" data-name="Group 1199">
                      <path id="Path_4202" data-name="Path 4202" d="M2190.432,3012.377a2.177,2.177,0,0,1,2.146-2.053.164.164,0,0,0-.008-.03l-2.032-.1a2.185,2.185,0,0,1,.212-4.365l-2.182-.106a2.184,2.184,0,1,1,.212-4.364l-8.729-.425a2.184,2.184,0,1,1,.212-4.363l1.394.067,11.7.569,1.577.077a.674.674,0,0,0,.6-.472.653.653,0,0,0-.209-.723c-2.016-1.708-4.09-1.707-3.978-4.021a1.515,1.515,0,0,1,2.314-1.216l14.383,7.552a1.093,1.093,0,0,1,.513.981c-.093,1.909-.42,8.643-.62,12.747a3.276,3.276,0,0,1-3.432,3.114l-12-.583A2.19,2.19,0,0,1,2190.432,3012.377Z" transform="translate(-2177.972 -2990.626)" fill="#deaa87"/>
                    </g>
                  </g>
                </g>
              </g>
            </g>
          </g>
        </g>
        <path id="Path_4203" data-name="Path 4203" d="M2846.319,2747.2c-.132,0-.263,0-.4-.009l-50.84-2.118.788-18.916,38.646,3.046-8.317-19.7,16.246-6.19,12.282,30.076a9.467,9.467,0,0,1-8.41,13.81Z" transform="translate(-2697.063 -2627.948)" fill="#f7f8f9"/>
      </g>
    </g>
  </g>
</svg>
