<svg id="Icon_Title_2" data-name="Icon_Title 2" xmlns="http://www.w3.org/2000/svg" width="32" height="32" viewBox="0 0 32 32">
  <g id="Group_1354" data-name="Group 1354" opacity="0.16">
    <path id="Path_4914" data-name="Path 4914" d="M9.6,0H22.4A9.6,9.6,0,0,1,32,9.6V22.4A9.6,9.6,0,0,1,22.4,32H9.6A9.6,9.6,0,0,1,0,22.4V9.6A9.6,9.6,0,0,1,9.6,0Z" fill="#12b2b3" fill-rule="evenodd"/>
  </g>
  <path id="Vector" d="M14.1,1.466a5.012,5.012,0,0,0-8.314,5.09L.135,12.2A.456.456,0,0,0,0,12.526v2.579a.456.456,0,0,0,.456.456H3.036a.455.455,0,0,0,.322-.134L4,14.782a.456.456,0,0,0,.13-.375l-.08-.693.96-.09a.455.455,0,0,0,.411-.411l.09-.96.693.081a.448.448,0,0,0,.356-.112.457.457,0,0,0,.153-.341v-.849h.833a.455.455,0,0,0,.322-.134L9.041,9.745A4.937,4.937,0,0,0,14.1,8.558,5.021,5.021,0,0,0,14.1,1.466ZM12.806,4.69a1.368,1.368,0,1,1,0-1.934A1.369,1.369,0,0,1,12.806,4.69Z" transform="translate(8.218 8.221)" fill="#12b2b3"/>
</svg>
