<svg id="Icon_Title_2" data-name="Icon_Title 2" xmlns="http://www.w3.org/2000/svg" width="32" height="32" viewBox="0 0 32 32">
  <g id="Group_1354" data-name="Group 1354" opacity="0.16">
    <path id="Path_4914" data-name="Path 4914" d="M9.6,0H22.4A9.6,9.6,0,0,1,32,9.6V22.4A9.6,9.6,0,0,1,22.4,32H9.6A9.6,9.6,0,0,1,0,22.4V9.6A9.6,9.6,0,0,1,9.6,0Z" fill="#12b2b3" fill-rule="evenodd"/>
  </g>
  <path id="Path_4915" data-name="Path 4915" d="M16,6a5.5,5.5,0,0,1,5.5,5.5v2.7a5.5,5.5,0,1,1-11,0V11.5A5.5,5.5,0,0,1,16,6Zm0,2a3.5,3.5,0,0,0-3.5,3.5v2.7a3.5,3.5,0,1,0,7,0V11.5A3.5,3.5,0,0,0,16,8Zm4.532,10.235a1,1,0,0,0,.421,1.35A5.143,5.143,0,0,1,23.981,24H8.041c.2-2.362,1.177-3.756,2.926-4.354a1,1,0,1,0-.647-1.892C7.445,18.737,6,21.235,6,25v1H25.937l.049-.948a7.226,7.226,0,0,0-4.1-7.237A1,1,0,0,0,20.532,18.235Z" fill="#12b2b3" fill-rule="evenodd"/>
</svg>
