<svg id="Icon_Title" xmlns="http://www.w3.org/2000/svg" width="32" height="32" viewBox="0 0 32 32">
  <g id="Group_1357" data-name="Group 1357" opacity="0.16">
    <path id="Path_4920" data-name="Path 4920" d="M9.6,0H22.4A9.6,9.6,0,0,1,32,9.6V22.4A9.6,9.6,0,0,1,22.4,32H9.6A9.6,9.6,0,0,1,0,22.4V9.6A9.6,9.6,0,0,1,9.6,0Z" fill="#12b2b3" fill-rule="evenodd"/>
  </g>
  <rect id="Rectangle_517" data-name="Rectangle 517" width="24" height="24" transform="translate(4 4)" opacity="0.01"/>
  <path id="Path_4921" data-name="Path 4921" d="M6,16A10,10,0,1,1,16,26,10.011,10.011,0,0,1,6,16ZM16,8a8,8,0,1,0,8,8A8.009,8.009,0,0,0,16,8Zm-.238,2.34a4.156,4.156,0,0,1,2.674.768A2.678,2.678,0,0,1,19.5,13.38a2.6,2.6,0,0,1-.525,1.556,6.162,6.162,0,0,1-1.1.982l-.566.391a1.518,1.518,0,0,0-.539.747,4.62,4.62,0,0,0-.09.809.178.178,0,0,1-.194.17H14.8c-.181,0-.2-.107-.2-.159a3.542,3.542,0,0,1,.429-1.786,5.644,5.644,0,0,1,1.534-1.315,1.816,1.816,0,0,0,.413-.421,1.438,1.438,0,0,0,.03-1.843,1.251,1.251,0,0,0-1.116-.495,1.223,1.223,0,0,0-1.1.643,1.812,1.812,0,0,0-.193,1.033c0,.05,0,.1,0,.148H12.5a3.254,3.254,0,0,1,1.2-2.961A3.63,3.63,0,0,1,15.762,10.34ZM14.3,20.361a1.289,1.289,0,0,1,2.576.077,1.289,1.289,0,0,1-2.576-.077Z" fill="#12b2b3" fill-rule="evenodd"/>
</svg>
