<svg id="Component_1_1" data-name="Component 1 – 1" xmlns="http://www.w3.org/2000/svg" width="257.639" height="256.001" viewBox="0 0 257.639 256.001">
  <g id="BACKGROUND">
    <g id="Group_419" data-name="Group 419">
      <g id="Group_418" data-name="Group 418">
        <circle id="Ellipse_74" data-name="Ellipse 74" cx="31.808" cy="31.808" r="31.808" transform="translate(44.003 50.615) rotate(-45)" fill="#bfe5ff"/>
        <path id="Path_1966" data-name="Path 1966" d="M389.882,66.958a10.7,10.7,0,1,0-10.7-10.7A10.722,10.722,0,0,0,389.882,66.958Z" transform="translate(-183.476 -34.476)" fill="#bfe5ff" fill-rule="evenodd"/>
        <circle id="Ellipse_75" data-name="Ellipse 75" cx="49.049" cy="49.049" r="49.049" transform="translate(0 95.205) rotate(-45)" fill="#bfe5ff"/>
        <circle id="Ellipse_76" data-name="Ellipse 76" cx="49.049" cy="49.049" r="49.049" transform="translate(78.799 23.931) rotate(-14.12)" fill="#bfe5ff"/>
        <circle id="Ellipse_77" data-name="Ellipse 77" cx="31.808" cy="31.808" r="31.808" transform="matrix(0.939, -0.345, 0.345, 0.939, 150.413, 56.714)" fill="#bfe5ff"/>
        <circle id="Ellipse_78" data-name="Ellipse 78" cx="49.049" cy="49.049" r="49.049" transform="translate(118.907 129.688) rotate(-45)" fill="#bfe5ff"/>
        <circle id="Ellipse_79" data-name="Ellipse 79" cx="49.049" cy="49.049" r="49.049" transform="translate(13.674 165.954) rotate(-45)" fill="#bfe5ff"/>
        <circle id="Ellipse_80" data-name="Ellipse 80" cx="31.808" cy="31.808" r="31.808" transform="translate(139.245 159.919) rotate(-16.457)" fill="#bfe5ff"/>
        <circle id="Ellipse_81" data-name="Ellipse 81" cx="31.808" cy="31.808" r="31.808" transform="translate(4.861 117.943) rotate(-25.902)" fill="#bfe5ff"/>
        <path id="Path_1967" data-name="Path 1967" d="M358.565,45.138a4.756,4.756,0,1,0-4.756-4.756A4.765,4.765,0,0,0,358.565,45.138Z" transform="translate(-171.778 -29.899)" fill="#bfe5ff" fill-rule="evenodd"/>
        <path id="Path_1968" data-name="Path 1968" d="M53.425,87.918a10.7,10.7,0,1,0-10.7-10.7A10.722,10.722,0,0,0,53.425,87.918Z" transform="translate(-28.352 -44.14)" fill="#bfe5ff" fill-rule="evenodd"/>
        <path id="Path_1969" data-name="Path 1969" d="M41.964,144.421a4.756,4.756,0,1,0-4.756-4.756A4.766,4.766,0,0,0,41.964,144.421Z" transform="translate(-25.809 -75.673)" fill="#bfe5ff" fill-rule="evenodd"/>
        <path id="Path_1970" data-name="Path 1970" d="M358.565,157.658a4.756,4.756,0,1,0-4.756-4.756A4.765,4.765,0,0,0,358.565,157.658Z" transform="translate(-171.778 -81.776)" fill="#aadafa" fill-rule="evenodd"/>
        <path id="Path_1971" data-name="Path 1971" d="M167.555,89.692a4.756,4.756,0,1,0-4.757-4.756A4.765,4.765,0,0,0,167.555,89.692Z" transform="translate(-83.713 -50.44)" fill="#aadafa" fill-rule="evenodd"/>
      </g>
    </g>
  </g>
  <g id="OBJECTS" transform="translate(29.04 36.266)">
    <g id="Group_423" data-name="Group 423" transform="translate(0 0)">
      <path id="Path_1972" data-name="Path 1972" d="M239.228,108.857c-10.086-15.27-42.723-23.851-63.248-8.432-19.252,14.463-31.49,38.393-30.326,63.748,3.568,77.716,138.506,101.072,99.347,11.415C236.566,156.274,255.313,129.071,239.228,108.857Z" transform="translate(-104.813 -92.29)" fill="#21334a" fill-rule="evenodd"/>
      <path id="Path_1973" data-name="Path 1973" d="M101.553,239.475c-20.481,27.582-3.119,79.016-10.683,93.2-6.8,12.744-18.6,21.508-20.93,35.949H216.193c-7.352-10.014-22.276-21.441-21.7-30.354.779-12.075,32.252-53.318,22.535-88.283C205.4,208.155,128.678,202.944,101.553,239.475Z" transform="translate(-69.94 -148.888)" fill="#55ace6" fill-rule="evenodd"/>
      <path id="Path_1974" data-name="Path 1974" d="M134.46,277.522c-22.006,10.729,9.781,68.546,5.465,91.631-2.279,12.187-6.956,18.548-10.311,26.858h86.754c-2.674-9.223-7.051-16.981-6.84-29.243.475-27.523,29.555-11.231,18.232-85.041C220.441,281.4,152.338,268.806,134.46,277.522Z" transform="translate(-96.074 -176.277)" fill="#db638f" fill-rule="evenodd"/>
      <path id="Path_1975" data-name="Path 1975" d="M259.509,250.023c-20.278,57.5,15.585,44.775,11.945,60.834-3.526,15.553-34.447,24.018-28.186,71.314a15.407,15.407,0,0,0,.543,2.471H327.08c3.832-15.511-6.511-35.445-19.322-46.6-21.711-18.9,1.567-57.2-17.111-79.6C284.825,251.467,268.057,248.974,259.509,250.023Z" transform="translate(-149.469 -164.907)" fill="#55ace6" fill-rule="evenodd"/>
      <path id="Path_1976" data-name="Path 1976" d="M287.085,265.861c2.805-9.489,11.626-20.024-3.629-34.678C304.082,242.59,295.574,260.022,287.085,265.861Z" transform="translate(-168.382 -156.327)" fill="#3b8abf" fill-rule="evenodd"/>
      <path id="Path_1977" data-name="Path 1977" d="M259.509,250.16c-20.278,57.5,15.585,44.775,11.945,60.834-3.526,15.553-34.447,24.018-28.186,71.314a15.407,15.407,0,0,0,.543,2.471h19.05c-8.069-27.094,9.218-59.128,15.746-65.967,7.732-8.1-.369-26.141-11.046-32.032-7.377-4.07-8.954-19.741-7.4-36.689C259.938,250.111,259.721,250.134,259.509,250.16Z" transform="translate(-149.469 -165.044)" fill="#63c1ff" fill-rule="evenodd"/>
      <path id="Path_1978" data-name="Path 1978" d="M208.1,225.868l22.822,3.911-4.035,26.827c-1.831,12.178-25.322,7.849-23.5-2.888Z" transform="translate(-131.417 -153.876)" fill="#e3aa9d" fill-rule="evenodd"/>
      <path id="Path_1979" data-name="Path 1979" d="M172.318,331.784c-3.658-7.4-7.362-18.063-14.347-31.289-18.222-34.5-45.791-22.109-27.466,14.014,6.109,12.043,15.842,22.266,26.238,31.037C165.849,353.231,182.48,352.336,172.318,331.784Z" transform="translate(-95.082 -178.885)" fill="#f280aa" fill-rule="evenodd"/>
      <path id="Path_1980" data-name="Path 1980" d="M154.506,243.871c51.44,14.658.946,61.848-8.978,54.992s-20.9,24.2-8.394,36.036c9.717,9.193,28,24.945,24.668,46.625H77.556c2.255-14.2,15.8-30.358,19.95-42.819C102.96,322.346,74.563,233.5,154.506,243.871Z" transform="translate(-73.451 -161.79)" fill="#55ace6" fill-rule="evenodd"/>
      <path id="Path_1981" data-name="Path 1981" d="M238.469,110.9c25.161,7.4,21.113,35.4,10.471,57.165-8.72,17.83-19.546,30.121-37.073,25.732-19.48-4.879-21.92-25.719-17.174-46.227C199.792,125.537,214.758,103.924,238.469,110.9Z" transform="translate(-126.499 -100.256)" fill="#3b8abf" fill-rule="evenodd"/>
      <path id="Path_1982" data-name="Path 1982" d="M204.97,265.164c-5.91-7.937-20.46-29.257-14.354-43.167C177.588,239.485,192.214,260.941,204.97,265.164Z" transform="translate(-123.232 -152.091)" fill="#3b8abf" fill-rule="evenodd"/>
      <path id="Path_1983" data-name="Path 1983" d="M129.223,336.451c8.5-17.852,32.3-21.677,42.93-9.351C160.041,309.945,135.833,312.454,129.223,336.451Z" transform="translate(-97.273 -195.442)" fill="#3b8abf" fill-rule="evenodd"/>
      <path id="Path_1984" data-name="Path 1984" d="M188.789,339.561c-4.014,2.579-4.092,8.253-10.121,4.087s-19.257,23.516-8.143,34.029,28,24.945,24.668,46.625H172.822c11.131-24.814-26.592-38.262-22.535-71.242C151.776,340.96,165.688,329.755,188.789,339.561Z" transform="translate(-106.842 -204.568)" fill="#63c1ff" fill-rule="evenodd"/>
      <path id="Path_1985" data-name="Path 1985" d="M203.68,307.242c5.727,16.288,19.506,24.746,32.008,30.386,10.969,4.949,26.253-.8,16.372-16.685-5.39-8.664-32.968-27.749-38.256-27.395C206.01,294.071,199.821,296.269,203.68,307.242Z" transform="translate(-131.057 -185.078)" fill="#eb75a0" fill-rule="evenodd"/>
      <path id="Path_1986" data-name="Path 1986" d="M223.017,311.588c-8.788-2.843-22.587,17.09-32.871,29.685-7.61,9.321-.9,29.689,14.685,19.347,5.066-3.36,32.79-25.575,29.477-41.029C233.151,314.192,229.543,313.7,223.017,311.588Z" transform="translate(-123.912 -193.271)" fill="#f280aa" fill-rule="evenodd"/>
      <g id="Group_420" data-name="Group 420" transform="translate(116.704 61.244)">
        <path id="Path_1987" data-name="Path 1987" d="M297.006,206.423c-1.833-1.4-5.44.25-8.057,3.682s-3.254,7.346-1.421,8.743,5.44-.25,8.057-3.681S298.839,207.822,297.006,206.423Z" transform="translate(-286.481 -205.926)" fill="#fbc9be" fill-rule="evenodd"/>
        <path id="Path_1988" data-name="Path 1988" d="M299.684,211.395c-1.26-1.636-4.04-1.153-6.785,4.469" transform="translate(-289.44 -208.069)" fill="none" stroke="#c9897b" stroke-linecap="round" stroke-linejoin="round" stroke-width="1.2" fill-rule="evenodd"/>
        <path id="Path_1989" data-name="Path 1989" d="M295.839,215.832c1.312.808,2.454,1.968,1.6,3.725" transform="translate(-290.796 -210.493)" fill="none" stroke="#c9897b" stroke-linecap="round" stroke-linejoin="round" stroke-width="1.2" fill-rule="evenodd"/>
      </g>
      <path id="Path_1990" data-name="Path 1990" d="M237.907,101.569c25.349,7.46,23.344,37.048,12.622,58.972-8.784,17.963-22.5,30.321-39.586,25.034C173,173.834,191.788,88,237.907,101.569Z" transform="translate(-125.588 -95.899)" fill="#fbc9be" fill-rule="evenodd"/>
      <path id="Path_1991" data-name="Path 1991" d="M239.589,138.62c-9.058,3.9-24.273-.181-30.192-4.866,8.046-.213,14.236,2.578,22.263-2.1-8.461-3.9-46.648-4.247-51.79,12.013-1.6,5.053-10.214.437-13.7.059-7.66-5.734,11.553-32.6,22.014-39.463,20.622-13.54,41.335-10.271,56.75,5.847s-4.868,47.118-12.478,58.64C238.4,158.822,239.443,146.918,239.589,138.62Z" transform="translate(-113.494 -93.911)" fill="#21334a" fill-rule="evenodd"/>
      <path id="Path_1992" data-name="Path 1992" d="M242.235,209.984c5.995,1.009,6.329-2.938,6.447-8.019C250.494,206.989,249.871,213.147,242.235,209.984Z" transform="translate(-149.377 -142.856)" fill="#c9897b" fill-rule="evenodd"/>
      <path id="Path_1993" data-name="Path 1993" d="M276.421,180.568a1.067,1.067,0,0,0-1.6,1.411,15.2,15.2,0,0,0,10.493,4.522c1.373-.261,1.239-1.8-.135-1.543C280.339,184.078,277.705,182.227,276.421,180.568Z" transform="translate(-164.272 -132.82)" fill="#21334a" fill-rule="evenodd"/>
      <path id="Path_1994" data-name="Path 1994" d="M237.247,233.423c-3.08.959-8.563-.006-11.5-1.885C227.429,235.357,235.152,236.363,237.247,233.423Z" transform="translate(-141.775 -156.49)" fill="#c9897b" fill-rule="evenodd"/>
      <path id="Path_1995" data-name="Path 1995" d="M265.977,200.705c2.063,3.08,6.582,4.15,9.266,2.824" transform="translate(-160.323 -142.275)" fill="none" stroke="#21334a" stroke-linecap="round" stroke-linejoin="round" stroke-width="2.4" fill-rule="evenodd"/>
      <path id="Path_1996" data-name="Path 1996" d="M223.811,182.188c.962,3.409,5.625,4.97,8.666,4.329" transform="translate(-140.882 -133.737)" fill="none" stroke="#21334a" stroke-linecap="round" stroke-linejoin="round" stroke-width="2.4" fill-rule="evenodd"/>
      <path id="Path_1997" data-name="Path 1997" d="M219.965,191.885c4.042.9,6.881,3.593,6.341,6s-4.254,3.634-8.3,2.729-6.88-3.593-6.341-6S215.924,190.98,219.965,191.885Z" transform="translate(-135.254 -138.07)" fill="#cf386f" fill-rule="evenodd" opacity="0.1"/>
      <path id="Path_1998" data-name="Path 1998" d="M268.093,208.99c3.769,1.715,5.995,4.93,4.971,7.18s-4.91,2.682-8.68.966-5.995-4.931-4.971-7.18S264.323,207.273,268.093,208.99Z" transform="translate(-157.182 -145.61)" fill="#cf386f" fill-rule="evenodd" opacity="0.1"/>
      <path id="Path_1999" data-name="Path 1999" d="M235.749,169.546a1.066,1.066,0,0,1,.767,1.99,15.2,15.2,0,0,1-11.4-.836c-1.1-.867-.265-2.174.833-1.306C230.653,170.847,233.844,170.424,235.749,169.546Z" transform="translate(-141.249 -127.707)" fill="#21334a" fill-rule="evenodd"/>
      <path id="Path_2000" data-name="Path 2000" d="M273.039,277.069c1.691-4.971,8.453-10.819,6.747-13.556-.976-1.568-7.867,6.055-12.7,10.468,2.638-5.032,7.82-11.92,6.811-13.065-2.24-2.545-13.84,11.422-16.388,14.864.958-5.227.924-9.528.082-9.684-1.613-.3-8.642,20.937-1.552,26.783,10.119,8.343,28.739-19.959,26.285-22.747C281.32,268.988,277.369,274.039,273.039,277.069Z" transform="translate(-154.309 -169.893)" fill="#fbc9be" fill-rule="evenodd"/>
      <g id="Group_421" data-name="Group 421" transform="translate(59.932 37.345)">
        <path id="Path_2001" data-name="Path 2001" d="M185.315,161.581c2.305,0,4.173,3.5,4.173,7.814s-1.868,7.814-4.173,7.814-4.173-3.5-4.173-7.814S183.011,161.581,185.315,161.581Z" transform="translate(-181.142 -161.581)" fill="#fbc9be" fill-rule="evenodd"/>
        <path id="Path_2002" data-name="Path 2002" d="M186.116,166c1.994-.537,3.912,1.534,2.685,7.669" transform="translate(-183.435 -163.581)" fill="none" stroke="#c9897b" stroke-linecap="round" stroke-linejoin="round" stroke-width="1.2" fill-rule="evenodd"/>
        <path id="Path_2003" data-name="Path 2003" d="M188.506,174.858c-1.534-.153-3.145.077-3.528,1.994" transform="translate(-182.911 -167.684)" fill="none" stroke="#c9897b" stroke-linecap="round" stroke-linejoin="round" stroke-width="1.2" fill-rule="evenodd"/>
      </g>
      <path id="Path_2004" data-name="Path 2004" d="M283.983,310.98c17.545-2.132,31.83,14,27.615,27.926C318.746,321.549,305.261,304.479,283.983,310.98Z" transform="translate(-168.625 -192.466)" fill="#3b8abf" fill-rule="evenodd"/>
      <path id="Path_2005" data-name="Path 2005" d="M173.654,272.329c-2.365-4.688-9.873-9.54-8.564-12.489.749-1.688,8.632,4.9,14.026,8.6-3.311-4.617-9.4-10.718-8.558-11.992,1.865-2.832,15.292,9.39,18.293,12.444-1.674-5.043-2.237-9.307-1.426-9.579,1.556-.52,11.465,19.534,5.255,26.308-8.863,9.668-31.232-15.776-29.188-18.877C164.331,265.475,168.946,269.929,173.654,272.329Z" transform="translate(-113.012 -167.782)" fill="#fbc9be" fill-rule="evenodd"/>
      <path id="Path_2006" data-name="Path 2006" d="M236.608,226.413c-3.8-3.756-9.7-4.7-15.412-2.533C227.289,224,231.059,225.141,236.608,226.413Z" transform="translate(-139.677 -152.432)" fill="#c9897b" fill-rule="evenodd"/>
      <g id="Group_422" data-name="Group 422" transform="translate(66.827 45.43)">
        <path id="Path_2007" data-name="Path 2007" d="M198.126,177.1l11.207,15.4a1.254,1.254,0,0,1-.275,1.747l-.3.217,7.476,10.719c.716,1.027-.4,1.836-1.152.839l-7.9-10.411-.057.042a1.254,1.254,0,0,1-1.747-.275l-11.206-15.4a1.254,1.254,0,0,1,.275-1.747l1.931-1.4A1.254,1.254,0,0,1,198.126,177.1Z" transform="translate(-193.935 -176.583)" fill="#fff" fill-rule="evenodd"/>
        <path id="Path_2008" data-name="Path 2008" d="M214.3,201.406a.824.824,0,1,1-1.152-.182A.825.825,0,0,1,214.3,201.406Z" transform="translate(-202.637 -187.871)" fill="#f280aa" fill-rule="evenodd"/>
        <path id="Path_2009" data-name="Path 2009" d="M232.447,227.015l.988,1.417c.716,1.027-.4,1.836-1.152.839l-1.044-1.376Z" transform="translate(-211.134 -199.835)" fill="#01aae3" fill-rule="evenodd"/>
        <path id="Path_2010" data-name="Path 2010" d="M198.126,177.1l.669.919-3.954,2.877-.669-.919a1.254,1.254,0,0,1,.275-1.747l1.931-1.4A1.254,1.254,0,0,1,198.126,177.1Z" transform="translate(-193.935 -176.583)" fill="#55ace6" fill-rule="evenodd"/>
        <rect id="Rectangle_314" data-name="Rectangle 314" width="2.274" height="8.699" transform="translate(3.336 5.425) rotate(-36.043)" fill="#21334a"/>
      </g>
      <path id="Path_2011" data-name="Path 2011" d="M236.608,227.393c-1.95,3.766-8.3,2.921-15.412-2.533C227.289,224.979,231.059,226.12,236.608,227.393Z" transform="translate(-139.677 -153.411)" fill="#fbc9be" fill-rule="evenodd"/>
    </g>
  </g>
</svg>
