<svg id="Icon_Title_3" data-name="Icon_Title 3" xmlns="http://www.w3.org/2000/svg" xmlns:xlink="http://www.w3.org/1999/xlink" width="32" height="32" viewBox="0 0 32 32">
  <defs>
    <clipPath id="clip-path">
      <rect id="Rectangle_514" data-name="Rectangle 514" width="18" height="18" transform="translate(7 7)" fill="#fff"/>
    </clipPath>
  </defs>
  <g id="Group_1340" data-name="Group 1340" opacity="0.16">
    <path id="Path_4807" data-name="Path 4807" d="M9.6,0H22.4A9.6,9.6,0,0,1,32,9.6V22.4A9.6,9.6,0,0,1,22.4,32H9.6A9.6,9.6,0,0,1,0,22.4V9.6A9.6,9.6,0,0,1,9.6,0Z" fill="#12b2b3" fill-rule="evenodd"/>
  </g>
  <g id="Group_1341" data-name="Group 1341" clip-path="url(#clip-path)">
    <path id="Path_4808" data-name="Path 4808" d="M11.778,10.151a1.056,1.056,0,0,0-1.624.029A8.858,8.858,0,0,0,7.971,18.1l-.548.16c-.3.088-.147.573.349,1.082l2.12,2.182c.5.51.981.353,1.085-.35L11.4,18.32c.1-.7-.137-1.178-.538-1.062l-.726.211A6.565,6.565,0,0,1,11.6,11.953,1.473,1.473,0,0,0,11.778,10.151Z" fill="#12b2b3"/>
    <path id="Path_4809" data-name="Path 4809" d="M14.2,24.786A10.443,10.443,0,0,0,16.283,25a8.422,8.422,0,0,0,5.765-2.17l.542.522c.3.288.7-.033.9-.716l.836-2.925c.2-.683-.183-1.026-.844-.767L20.792,20c-.661.26-1.013.649-.785.868l.413.4a6.585,6.585,0,0,1-5.405,1.386,1.472,1.472,0,0,0-1.652.741A1.058,1.058,0,0,0,14.2,24.786Z" fill="#12b2b3"/>
    <path id="Path_4810" data-name="Path 4810" d="M24.7,14.547a8.88,8.88,0,0,0-4.976-6.273l.251-.722c.138-.4-.319-.634-1.021-.525l-3.006.466c-.7.109-.856.6-.343,1.087l2.082,2c.513.492,1.011.655,1.112.364l.183-.527A6.6,6.6,0,0,1,22.417,14.7a1.472,1.472,0,0,0,1.365,1.189A1.057,1.057,0,0,0,24.7,14.547Z" fill="#12b2b3"/>
  </g>
</svg>
