<svg xmlns="http://www.w3.org/2000/svg" width="28" height="28" viewBox="0 0 28 28">
  <path id="Icon" d="M22.767,13.413a1.4,1.4,0,0,1-2.715.684,4.909,4.909,0,0,0-3.789-3.6,1.4,1.4,0,0,1,.546-2.746A7.709,7.709,0,0,1,22.767,13.413Zm6.8,14.067L25.3,23.236a12.929,12.929,0,0,0,2.915-8.179A13.116,13.116,0,1,0,23.2,25.314l4.276,4.259A1.456,1.456,0,0,0,28.53,30a1.519,1.519,0,0,0,1.051-.427A1.5,1.5,0,0,0,29.565,27.48ZM4.959,15.057a10.15,10.15,0,1,1,10.15,10.11A10.146,10.146,0,0,1,4.959,15.057Z" transform="translate(-2 -2)" fill="#9393aa" fill-rule="evenodd"/>
</svg>
