<svg xmlns="http://www.w3.org/2000/svg" width="20" height="21.482" viewBox="0 0 20 21.482">
  <g id="Group_1280" data-name="Group 1280" transform="translate(-2 -134)">
    <path id="Path_4573" data-name="Path 4573" d="M2,151.778c0-5.728,3.648-9.63,8.148-9.63s8.148,3.9,8.148,9.63A17.678,17.678,0,0,1,10.148,154,19.736,19.736,0,0,1,2,151.778Z" fill="#f7d1b2"/>
    <path id="Path_4574" data-name="Path 4574" d="M10.148,142.148a4.074,4.074,0,1,0-4.074-4.074A4.074,4.074,0,0,0,10.148,142.148Z" fill="#f7d1b2"/>
    <path id="Path_4575" data-name="Path 4575" d="M17.185,155.482a4.815,4.815,0,1,0-4.815-4.815A4.815,4.815,0,0,0,17.185,155.482Z" fill="#75ab7d"/>
    <path id="Path_4576" data-name="Path 4576" d="M16.445,153.63a.369.369,0,0,1-.262-.109L14.7,152.04a.37.37,0,0,1,.524-.524l1.162,1.162L19.1,148.61a.37.37,0,0,1,.616.41l-2.963,4.445a.363.363,0,0,1-.118.112.368.368,0,0,1-.154.051Z" fill="#e9eef2"/>
  </g>
</svg>
