<svg xmlns="http://www.w3.org/2000/svg" width="21.279" height="21.281" viewBox="0 0 21.279 21.281">
  <path id="home_7_" data-name="home (7)" d="M20.707,9.255h0L12.024.573a1.959,1.959,0,0,0-2.771,0L.577,9.249l-.009.009a1.958,1.958,0,0,0,1.3,3.338l.06,0h.346v6.388A2.3,2.3,0,0,0,4.572,21.28h3.4a.624.624,0,0,0,.623-.623V15.648A1.047,1.047,0,0,1,9.638,14.6h2a1.047,1.047,0,0,1,1.046,1.046v5.008a.623.623,0,0,0,.623.623h3.4A2.3,2.3,0,0,0,19,18.987V12.6h.321a1.959,1.959,0,0,0,1.386-3.344Zm0,0" transform="translate(0 0.001)" fill="#51dddd"/>
</svg>
