<svg xmlns="http://www.w3.org/2000/svg" width="22" height="22" viewBox="0 0 22 22">
  <g id="Group_1279" data-name="Group 1279" transform="translate(-1 -194)">
    <path id="Path_4577" data-name="Path 4577" d="M5.584,198.583a2.291,2.291,0,1,0-2.292-2.291A2.294,2.294,0,0,0,5.584,198.583Z" fill="#2196f3"/>
    <path id="Path_4578" data-name="Path 4578" d="M7.646,199.5H3.521A2.523,2.523,0,0,0,1,202.021v.458a.688.688,0,0,0,.688.688H9.479a.688.688,0,0,0,.688-.688v-.458A2.523,2.523,0,0,0,7.646,199.5Z" fill="#2196f3"/>
    <path id="Path_4579" data-name="Path 4579" d="M5.584,194a2.291,2.291,0,1,0,0,4.583Z" fill="#1d83d4"/>
    <path id="Path_4580" data-name="Path 4580" d="M5.583,199.5H3.521A2.523,2.523,0,0,0,1,202.021v.458a.688.688,0,0,0,.688.688h3.9Z" fill="#1d83d4"/>
    <path id="Path_4581" data-name="Path 4581" d="M18.417,211.417a2.292,2.292,0,1,1,2.292-2.292A2.3,2.3,0,0,1,18.417,211.417Z" fill="#4caf50"/>
    <path id="Path_4582" data-name="Path 4582" d="M22.312,216H14.521a.688.688,0,0,1-.687-.687v-.459a2.524,2.524,0,0,1,2.521-2.521h4.125A2.524,2.524,0,0,1,23,214.854v.459A.688.688,0,0,1,22.312,216Z" fill="#4caf50"/>
    <path id="Path_4583" data-name="Path 4583" d="M18.417,206.833a2.292,2.292,0,0,0,0,4.584Z" fill="#429846"/>
    <path id="Path_4584" data-name="Path 4584" d="M18.416,212.333H16.354a2.524,2.524,0,0,0-2.521,2.521v.459a.688.688,0,0,0,.688.687h3.9Z" fill="#429846"/>
    <path id="Path_4585" data-name="Path 4585" d="M19.563,204.083a.688.688,0,0,1-.687-.687v-4.125a1.147,1.147,0,0,0-1.146-1.146H10.854a.688.688,0,1,1,0-1.375H17.73a2.523,2.523,0,0,1,2.521,2.521V203.4A.688.688,0,0,1,19.563,204.083Z" fill="#607d8b"/>
    <path id="Path_4586" data-name="Path 4586" d="M19.563,204.084a.682.682,0,0,1-.486-.2l-1.6-1.6a.688.688,0,0,1,.486-1.174h3.208a.688.688,0,0,1,.486,1.174l-1.6,1.6A.681.681,0,0,1,19.563,204.084Z" fill="#607d8b"/>
    <path id="Path_4587" data-name="Path 4587" d="M19.559,204.083h0Zm0,0h0Zm0,0h0Zm-.247-.048a.694.694,0,0,0,.247.048A.7.7,0,0,1,19.308,204.035Zm-1.458-6.6H10.167a.688.688,0,0,0,.688.687H17.73a1.147,1.147,0,0,1,1.146,1.146V201.1h.688V199.15A1.712,1.712,0,0,0,17.851,197.438Z" fill="#546d79"/>
    <path id="Path_4588" data-name="Path 4588" d="M19.562,201.1h-1.6a.688.688,0,0,0-.486,1.174l1.6,1.6a.688.688,0,0,0,.478.2h.008V201.1Z" fill="#546d79"/>
    <path id="Path_4589" data-name="Path 4589" d="M11.313,213.25H6.271a2.523,2.523,0,0,1-2.521-2.52V206.6a.688.688,0,1,1,1.375,0v4.125a1.147,1.147,0,0,0,1.146,1.145h5.042a.688.688,0,1,1,0,1.375Z" fill="#607d8b"/>
    <path id="Path_4590" data-name="Path 4590" d="M6.041,208.9H2.833a.687.687,0,0,1-.486-1.173l1.6-1.605a.689.689,0,0,1,.973,0l1.6,1.605a.687.687,0,0,1-.487,1.173Z" fill="#607d8b"/>
    <path id="Path_4591" data-name="Path 4591" d="M5.125,208.9H4.438v1.861a1.806,1.806,0,0,0,1.806,1.806H12a.688.688,0,0,0-.687-.688H6.271a1.147,1.147,0,0,1-1.146-1.145Zm-.2-2.779,0,0Zm0,0h0Zm0,0Zm0,0Zm-.48-.195a.69.69,0,0,1,.268.054A.681.681,0,0,0,4.438,205.917Z" fill="#546d79"/>
    <path id="Path_4592" data-name="Path 4592" d="M4.438,205.917V208.9h1.6a.687.687,0,0,0,.486-1.173l-1.6-1.6,0,0H4.916a.684.684,0,0,0-.479-.194Z" fill="#546d79"/>
  </g>
</svg>
