<svg id="check" xmlns="http://www.w3.org/2000/svg" width="22.803" height="22.803" viewBox="0 0 22.803 22.803">
  <path id="Path_5093" data-name="Path 5093" d="M11.4,0A11.4,11.4,0,1,0,22.8,11.4,11.441,11.441,0,0,0,11.4,0Z" fill="#7d0"/>
  <path id="Path_5094" data-name="Path 5094" d="M267.4,11.4A11.441,11.441,0,0,1,256,22.8V0A11.441,11.441,0,0,1,267.4,11.4Z" transform="translate(-244.598)" fill="#6b0"/>
  <path id="Path_5095" data-name="Path 5095" d="M126.18,160.777l-6.908,6.28-1.376,1.256-5-5,1.884-1.884,3.193,3.193,1.3-1.176,5.117-4.65Z" transform="translate(-107.871 -151.727)" fill="#e7e7e7"/>
  <path id="Path_5096" data-name="Path 5096" d="M262.908,160.777,256,167.057V163.45l5.117-4.65Z" transform="translate(-244.598 -151.727)" fill="#d3d3d8"/>
</svg>
