<svg xmlns="http://www.w3.org/2000/svg" width="21.6" height="18" viewBox="0 0 21.6 18">
  <g id="Group_1282" data-name="Group 1282" transform="translate(0)">
    <path id="Path_4637" data-name="Path 4637" d="M10.8,1.714A.879.879,0,0,1,9.9.857a.9.9,0,0,1,1.8,0A.879.879,0,0,1,10.8,1.714Z" fill="#ffa873"/>
    <path id="Path_4638" data-name="Path 4638" d="M.9,6a.858.858,0,1,1,0-1.714A.858.858,0,1,1,.9,6Z" fill="#ffa873"/>
    <path id="Path_4639" data-name="Path 4639" d="M20.7,6a.858.858,0,1,1,.9-.857A.879.879,0,0,1,20.7,6Z" fill="#ffa873"/>
    <g id="Group_1275" data-name="Group 1275">
      <path id="Path_4640" data-name="Path 4640" d="M18.922,14.571H2.678L.922,7.043a.819.819,0,0,1,.041-.5.866.866,0,0,1,.329-.393A.937.937,0,0,1,2.3,6.144l4.552,2.89L10,3.045a.874.874,0,0,1,.332-.346.938.938,0,0,1,.946,0,.875.875,0,0,1,.332.346l3.144,5.989L19.3,6.144a.937.937,0,0,1,1.008.006.866.866,0,0,1,.328.393.819.819,0,0,1,.041.5Z" fill="#ffa873"/>
      <path id="Path_4641" data-name="Path 4641" d="M18.9,15.429v1.714a.837.837,0,0,1-.264.606A.923.923,0,0,1,18,18H3.6a.923.923,0,0,1-.636-.251.837.837,0,0,1-.264-.606V15.429Z" fill="#ffa873"/>
    </g>
  </g>
</svg>
