<svg xmlns="http://www.w3.org/2000/svg" width="20" height="20.875" viewBox="0 0 20 20.875">
  <g id="Group_1276" data-name="Group 1276" transform="translate(-32 -758)">
    <path id="Path_4616" data-name="Path 4616" d="M15.15,436H4.463A2.466,2.466,0,0,0,2,438.463V452.63a2.466,2.466,0,0,0,2.463,2.463h8.889l4.261-7.77v-8.86A2.466,2.466,0,0,0,15.15,436Z" transform="translate(30 322)" fill="#b5b5b5"/>
    <path id="Path_4617" data-name="Path 4617" d="M8.78,441.245H5.13a.612.612,0,0,1,0-1.224H8.78a.612.612,0,0,1,0,1.224Z" transform="translate(30 322)" fill="#e2e2e7"/>
    <path id="Path_4618" data-name="Path 4618" d="M8.78,443.691H5.13a.612.612,0,1,1,0-1.223H8.78a.612.612,0,1,1,0,1.223Z" transform="translate(30 322)" fill="#e2e2e7"/>
    <path id="Path_4619" data-name="Path 4619" d="M8.78,446.138H5.13a.611.611,0,1,1,0-1.223H8.78a.611.611,0,1,1,0,1.223Z" transform="translate(30 322)" fill="#e2e2e7"/>
    <path id="Path_4620" data-name="Path 4620" d="M8.78,448.584H5.13a.612.612,0,1,1,0-1.223H8.78a.612.612,0,1,1,0,1.223Z" transform="translate(30 322)" fill="#e2e2e7"/>
    <path id="Path_4621" data-name="Path 4621" d="M8.78,451.071H5.13a.612.612,0,1,1,0-1.223H8.78a.612.612,0,1,1,0,1.223Z" transform="translate(30 322)" fill="#e2e2e7"/>
    <path id="Path_4623" data-name="Path 4623" d="M14.484,441.245h-3.65a.612.612,0,0,1,0-1.224h3.65a.612.612,0,0,1,0,1.224Z" transform="translate(30 322)" fill="#d3d3d8"/>
    <path id="Path_4624" data-name="Path 4624" d="M14.484,443.691h-3.65a.612.612,0,0,1,0-1.223h3.65a.612.612,0,1,1,0,1.223Z" transform="translate(30 322)" fill="#d3d3d8"/>
    <path id="Path_4625" data-name="Path 4625" d="M12.592,446.138H10.834a.611.611,0,1,1,0-1.223h1.758a.611.611,0,1,1,0,1.223Z" transform="translate(30 322)" fill="#d3d3d8"/>
    <path id="Path_4626" data-name="Path 4626" d="M20.542,448.229a5.049,5.049,0,0,0-3.53-1.518h-.091a5.081,5.081,0,1,0,3.622,1.519Z" transform="translate(30 322)" fill="#0be7d5"/>
    <path id="Path_4627" data-name="Path 4627" d="M16.674,453.613a.612.612,0,0,1-.359-.116l-1.447-1.048a.612.612,0,0,1,.718-.991l.975.707,1.575-1.964a.611.611,0,0,1,.954.765l-1.94,2.418A.612.612,0,0,1,16.674,453.613Z" transform="translate(30 322)" fill="#00a793"/>
  </g>
</svg>
