<svg xmlns="http://www.w3.org/2000/svg" width="22.804" height="25.162" viewBox="0 0 22.804 25.162">
  <g id="medical-record" transform="translate(-23.998)">
    <g id="Group_1381" data-name="Group 1381" transform="translate(42.184 3.369)">
      <g id="Group_1379" data-name="Group 1379" transform="translate(1.16 17.759)">
        <path id="Path_5097" data-name="Path 5097" d="M418.021,431.8a.375.375,0,0,1-.375-.375v-1.146a.375.375,0,1,1,.749,0v1.146A.375.375,0,0,1,418.021,431.8Z" transform="translate(-417.646 -429.908)" fill="#497090"/>
      </g>
      <path id="Path_5098" data-name="Path 5098" d="M410.937,392.071l-.426.447a.35.35,0,0,1-.506,0l-.426-.447a.35.35,0,0,1-.1-.241v-1.885h1.552v1.885A.35.35,0,0,1,410.937,392.071Z" transform="translate(-408.724 -374.15)" fill="#5680a6"/>
      <path id="Path_5099" data-name="Path 5099" d="M403.644,285.357h-1.62a.35.35,0,0,1-.35-.35v-5.082l.521-.5h1.274l.525.5v5.082A.35.35,0,0,1,403.644,285.357Z" transform="translate(-401.299 -269.063)" fill="#99e6fc"/>
      <path id="Path_5100" data-name="Path 5100" d="M402.677,279.424v5.931h-.649a.35.35,0,0,1-.35-.35v-5.082l.471-.5Z" transform="translate(-401.303 -269.061)" fill="#62dbfb"/>
      <path id="Path_5101" data-name="Path 5101" d="M411.077,70.6H409.53V68.9a.344.344,0,0,1,.344-.344h.859a.344.344,0,0,1,.344.344v1.7Z" transform="translate(-408.769 -68.555)" fill="#fd8087"/>
      <path id="Path_5102" data-name="Path 5102" d="M403.992,109.351h-2.319v-8.972a.344.344,0,0,1,.344-.344h1.631a.344.344,0,0,1,.344.344Z" transform="translate(-401.298 -98.488)" fill="#5680a6"/>
      <path id="Path_5103" data-name="Path 5103" d="M402.677,100.031v9.316h-1v-8.966a.35.35,0,0,1,.35-.35h.649Z" transform="translate(-401.303 -98.484)" fill="#497090"/>
      <g id="Group_1380" data-name="Group 1380" transform="translate(0 2.729)">
        <path id="Path_5104" data-name="Path 5104" d="M398.293,129.49a.375.375,0,0,1-.375-.375v-4.281h-3.493a.375.375,0,1,1,0-.749h3.868a.375.375,0,0,1,.375.375v4.656A.375.375,0,0,1,398.293,129.49Z" transform="translate(-394.05 -124.085)" fill="#99e6fc"/>
      </g>
    </g>
    <g id="Group_1382" data-name="Group 1382" transform="translate(23.998)">
      <path id="Path_5105" data-name="Path 5105" d="M41.3,32.34v22.9a.344.344,0,0,1-.344.344H24.342A.344.344,0,0,1,24,55.242V32.34A.344.344,0,0,1,24.342,32h2.852l1.013.491h8.881L38.1,32h2.852a.344.344,0,0,1,.344.344Z" transform="translate(-23.998 -30.424)" fill="#fed2a4"/>
      <path id="Path_5106" data-name="Path 5106" d="M99.939,32v1.573H89.033V32h1.013l.484.491h7.863L98.927,32Z" transform="translate(-85.837 -30.424)" fill="#ffbd86"/>
      <path id="Path_5107" data-name="Path 5107" d="M70.149,64.347V84.1a.344.344,0,0,1-.344.344H56.339a.344.344,0,0,1-.344-.344V64.347A.344.344,0,0,1,56.339,64H69.8A.344.344,0,0,1,70.149,64.347Z" transform="translate(-54.422 -60.858)" fill="#f2fbff"/>
      <path id="Path_5108" data-name="Path 5108" d="M99.939,64v1.452a.344.344,0,0,1-.344.344H89.377a.344.344,0,0,1-.344-.344V64Z" transform="translate(-85.837 -60.858)" fill="#dff6fd"/>
      <path id="Path_5109" data-name="Path 5109" d="M25.011,32v23.59h-.669A.344.344,0,0,1,24,55.242V32.34A.344.344,0,0,1,24.342,32Z" transform="translate(-23.998 -30.424)" fill="#ffbd86"/>
      <path id="Path_5110" data-name="Path 5110" d="M57.008,64V84.447h-.669A.344.344,0,0,1,56,84.1V64.347A.344.344,0,0,1,56.339,64Z" transform="translate(-54.422 -60.858)" fill="#dff6fd"/>
      <path id="Path_5111" data-name="Path 5111" d="M115.655,1.573a1.573,1.573,0,0,0-3.145,0h-2.868V3.585a.344.344,0,0,0,.344.344h8.193a.344.344,0,0,0,.344-.344V1.573Z" transform="translate(-105.433)" fill="#62dbfb"/>
      <path id="Path_5112" data-name="Path 5112" d="M192.523,23.78a.4.4,0,1,1-.567,0A.4.4,0,0,1,192.523,23.78Z" transform="translate(-183.59 -22.499)" fill="#5680a6"/>
    </g>
    <g id="Group_1390" data-name="Group 1390" transform="translate(27.719 15.264)">
      <g id="Group_1383" data-name="Group 1383" transform="translate(3.816)">
        <path id="Path_5113" data-name="Path 5113" d="M182.812,311.33h-5.074a.369.369,0,0,1,0-.737h5.074a.369.369,0,0,1,0,.737Z" transform="translate(-177.37 -310.593)" fill="#5680a6"/>
      </g>
      <g id="Group_1384" data-name="Group 1384" transform="translate(3.816 1.527)">
        <path id="Path_5114" data-name="Path 5114" d="M182.812,342.393h-5.074a.369.369,0,0,1,0-.737h5.074a.369.369,0,0,1,0,.737Z" transform="translate(-177.37 -341.656)" fill="#5680a6"/>
      </g>
      <g id="Group_1385" data-name="Group 1385" transform="translate(3.816 3.053)">
        <path id="Path_5115" data-name="Path 5115" d="M182.812,373.455h-5.074a.369.369,0,0,1,0-.737h5.074a.369.369,0,0,1,0,.737Z" transform="translate(-177.37 -372.718)" fill="#5680a6"/>
      </g>
      <g id="Group_1386" data-name="Group 1386">
        <path id="Path_5116" data-name="Path 5116" d="M102.372,311.33h-2.29a.369.369,0,1,1,0-.737h2.29a.369.369,0,0,1,0,.737Z" transform="translate(-99.714 -310.593)" fill="#5680a6"/>
      </g>
      <g id="Group_1387" data-name="Group 1387" transform="translate(0 1.527)">
        <path id="Path_5117" data-name="Path 5117" d="M102.372,342.393h-2.29a.369.369,0,0,1,0-.737h2.29a.369.369,0,0,1,0,.737Z" transform="translate(-99.714 -341.656)" fill="#5680a6"/>
      </g>
      <g id="Group_1388" data-name="Group 1388" transform="translate(0 3.053)">
        <path id="Path_5118" data-name="Path 5118" d="M102.372,373.455h-2.29a.369.369,0,1,1,0-.737h2.29a.369.369,0,0,1,0,.737Z" transform="translate(-99.714 -372.718)" fill="#5680a6"/>
      </g>
      <g id="Group_1389" data-name="Group 1389" transform="translate(5.937 5.318)">
        <path id="Path_5119" data-name="Path 5119" d="M223.755,419.548h-2.874a.369.369,0,1,1,0-.737h2.874a.369.369,0,1,1,0,.737Z" transform="translate(-220.513 -418.811)" fill="#5680a6"/>
      </g>
    </g>
    <circle id="Ellipse_106" data-name="Ellipse 106" cx="3.816" cy="3.816" r="3.816" transform="translate(28.852 5.71)" fill="#fd8087"/>
    <path id="Path_5120" data-name="Path 5120" d="M158.043,148.777H157.2a.344.344,0,0,1-.344-.344v-.839a.344.344,0,0,0-.344-.344h-.839a.344.344,0,0,0-.344.344v.839a.344.344,0,0,1-.344.344h-.839a.344.344,0,0,0-.344.344v.839a.344.344,0,0,0,.344.344h.839a.344.344,0,0,1,.344.344v.839a.344.344,0,0,0,.344.344h.839a.344.344,0,0,0,.344-.344v-.839a.344.344,0,0,1,.344-.344h.839a.344.344,0,0,0,.344-.344v-.839A.344.344,0,0,0,158.043,148.777Z" transform="translate(-123.429 -140.013)" fill="#f2fbff"/>
  </g>
</svg>
