<svg xmlns="http://www.w3.org/2000/svg" width="20" height="23.598" viewBox="0 0 20 23.598">
  <g id="Group_1277" data-name="Group 1277" transform="translate(-2 -375)">
    <path id="Path_4606" data-name="Path 4606" d="M18.947,376.383,17.613,375H6.387l-1.333,1.383H2v8.646a14.073,14.073,0,0,0,9.813,13.514L12,398.6l.187-.055A14.073,14.073,0,0,0,22,385.029v-8.646Z" fill="#f3f5f9"/>
    <path id="Path_4607" data-name="Path 4607" d="M22,376.383v8.646a14.073,14.073,0,0,1-9.813,13.514L12,398.6V375h5.613l1.333,1.383Z" fill="#e1e6f0"/>
    <path id="Path_4608" data-name="Path 4608" d="M20.667,377.766v7.263A12.7,12.7,0,0,1,12,397.16a12.7,12.7,0,0,1-8.667-12.131v-7.263h2.28l1.333-1.383H17.053l1.333,1.383Z" fill="#5f5166"/>
    <path id="Path_4609" data-name="Path 4609" d="M20.667,377.766v7.263A12.7,12.7,0,0,1,12,397.16V376.383h5.053l1.333,1.383Z" fill="#45354d"/>
    <path id="Path_4610" data-name="Path 4610" d="M15.333,381.222v2.812H14v-2.812a2,2,0,1,0-4,0v2.812H8.667v-2.812A3.4,3.4,0,0,1,12,377.766,3.4,3.4,0,0,1,15.333,381.222Z" fill="#f3f5f9"/>
    <path id="Path_4611" data-name="Path 4611" d="M15.333,381.222v2.812H14v-2.812a2.036,2.036,0,0,0-2-2.074v-1.382A3.4,3.4,0,0,1,15.333,381.222Z" fill="#e1e6f0"/>
    <path id="Path_4612" data-name="Path 4612" d="M7.333,383.342v4.84A4.761,4.761,0,0,0,12,393.021a4.761,4.761,0,0,0,4.667-4.839v-4.84Z" fill="#ffdf40"/>
    <path id="Path_4613" data-name="Path 4613" d="M16.667,383.342v4.84A4.761,4.761,0,0,1,12,393.021v-9.679Z" fill="#ffbe40"/>
    <path id="Path_4614" data-name="Path 4614" d="M11.333,386.108h1.333v4.148H11.333Z" fill="#5f5166"/>
    <path id="Path_4615" data-name="Path 4615" d="M12,386.108h.667v4.148H12Z" fill="#45354d"/>
  </g>
</svg>
