<svg xmlns="http://www.w3.org/2000/svg" width="21.923" height="18.538" viewBox="0 0 21.923 18.538">
  <g id="time-management" transform="translate(0 -39.529)">
    <path id="Path_4731" data-name="Path 4731" d="M409.664,90.739h.7a.132.132,0,0,1,.132.132v4.455a4.819,4.819,0,0,1,1.454.75V90.872a.132.132,0,0,1,.132-.132h.673a.132.132,0,0,0,.107-.21l-1.533-2.12a.132.132,0,0,0-.214,0l-1.56,2.12A.132.132,0,0,0,409.664,90.739Z" transform="translate(-391.996 -46.735)" fill="#05e39c"/>
    <path id="Path_4732" data-name="Path 4732" d="M411.657,88.859l-.326-.451a.132.132,0,0,0-.214,0l-1.56,2.12a.132.132,0,0,0,.107.211h.611Z" transform="translate(-391.996 -46.734)" fill="#0ed290"/>
    <g id="Group_1311" data-name="Group 1311" transform="translate(0 39.529)">
      <g id="Group_1284" data-name="Group 1284" transform="translate(0 3.319)">
        <path id="Path_4733" data-name="Path 4733" d="M12.227,127.4a4.833,4.833,0,0,1,4.269-4.794V117.1l-.2-.044H.206L0,117.1v13.223a.441.441,0,0,0,.441.441H13.592a4.81,4.81,0,0,1-1.365-3.36Z" transform="translate(0 -117.051)" fill="#fae2c0"/>
      </g>
      <path id="Path_4734" data-name="Path 4734" d="M2.229,131.3v-.972a.9.9,0,1,1,0-1.735v-.822H1.551a.564.564,0,0,1-.563-.563v-7.58a.564.564,0,0,1,.563-.563h.678v-.988H0V131.3a.441.441,0,0,0,.441.441H2.67A.441.441,0,0,1,2.229,131.3Z" transform="translate(0 -114.719)" fill="#fdd79b"/>
      <g id="Group_1310" data-name="Group 1310" transform="translate(0 0)">
        <g id="Group_1285" data-name="Group 1285" transform="translate(0 0.824)">
          <path id="Path_4735" data-name="Path 4735" d="M16.5,61.3H0v-2.1a.441.441,0,0,1,.441-.441H16.054a.441.441,0,0,1,.441.441Z" transform="translate(0 -58.765)" fill="#fd5426"/>
        </g>
        <g id="Group_1286" data-name="Group 1286" transform="translate(0 0.824)">
          <path id="Path_4736" data-name="Path 4736" d="M2.049,59.976a.321.321,0,0,1-.321-.321v-.89H.441A.441.441,0,0,0,0,59.206v2.1H2.229V59.921a.32.32,0,0,1-.18.055Z" transform="translate(0 -58.765)" fill="#ef4424"/>
        </g>
        <g id="Group_1287" data-name="Group 1287" transform="translate(1.309 4.673)">
          <path id="Path_4737" data-name="Path 4737" d="M44.452,153.2v-4.3a.242.242,0,0,0-.242-.242H30.817a.242.242,0,0,0-.242.242v7.58a.242.242,0,0,0,.242.242H41.583A4.843,4.843,0,0,1,44.452,153.2Z" transform="translate(-30.575 -148.657)" fill="#fff"/>
        </g>
        <g id="Group_1288" data-name="Group 1288" transform="translate(1.309 4.673)">
          <path id="Path_4738" data-name="Path 4738" d="M31.687,156.479V148.9a.242.242,0,0,1,.242-.242H30.817a.242.242,0,0,0-.242.242v7.58a.242.242,0,0,0,.242.242H31.93A.242.242,0,0,1,31.687,156.479Z" transform="translate(-30.575 -148.657)" fill="#eef5f6"/>
        </g>
        <path id="Path_4739" data-name="Path 4739" d="M34.477,149.221H32.911v-1.3h1.613v1.133a4.825,4.825,0,0,1,1-1.775h-.353v-1.452h1.786v.339a4.8,4.8,0,0,1,.642-.271V141.72a.564.564,0,0,0-.563-.563H23.638a.564.564,0,0,0-.563.563v7.58a.564.564,0,0,0,.563.563H34.351A4.8,4.8,0,0,1,34.477,149.221Zm.689-7.422h1.786v1.3H35.166Zm0,1.938h1.786v1.452H35.166ZM32.911,141.8h1.613v1.3H32.911Zm0,1.938h1.613v1.452H32.911Zm0,2.095h1.613v1.452H32.911Zm-7.407,3.39H23.717v-1.3H25.5Zm0-1.938H23.717v-1.452H25.5Zm0-2.095H23.717v-1.452H25.5Zm0-2.095H23.717v-1.3H25.5Zm2.255,6.127H26.146v-1.3h1.613Zm0-1.938H26.146v-1.452h1.613Zm0-2.095H26.146v-1.452h1.613Zm0-2.095H26.146v-1.3h1.613Zm2.255,6.127H28.4v-1.3h1.613Zm0-1.938H28.4v-1.452h1.613Zm0-2.095H28.4v-1.452h1.613Zm0-2.095H28.4v-1.3h1.613Zm2.255,6.127H30.656v-1.3h1.613Zm0-1.938H30.656v-1.452h1.613Zm0-2.095H30.656v-1.452h1.613Zm0-2.095H30.656v-1.3h1.613Z" transform="translate(-22.087 -136.805)" fill="#d8aa5e"/>
        <g id="Group_1297" data-name="Group 1297" transform="translate(1.728)">
          <g id="Group_1289" data-name="Group 1289">
            <path id="Path_4740" data-name="Path 4740" d="M40.685,41.564a.321.321,0,0,1-.321-.321V39.85a.321.321,0,1,1,.642,0v1.393A.321.321,0,0,1,40.685,41.564Z" transform="translate(-40.364 -39.529)" fill="#537983"/>
          </g>
          <g id="Group_1290" data-name="Group 1290" transform="translate(1.771)">
            <path id="Path_4741" data-name="Path 4741" d="M82.046,41.564a.321.321,0,0,1-.321-.321V39.85a.321.321,0,1,1,.642,0v1.393A.321.321,0,0,1,82.046,41.564Z" transform="translate(-81.725 -39.529)" fill="#537983"/>
          </g>
          <g id="Group_1291" data-name="Group 1291" transform="translate(3.542)">
            <path id="Path_4742" data-name="Path 4742" d="M123.406,41.564a.321.321,0,0,1-.321-.321V39.85a.321.321,0,0,1,.642,0v1.393A.321.321,0,0,1,123.406,41.564Z" transform="translate(-123.085 -39.529)" fill="#537983"/>
          </g>
          <g id="Group_1292" data-name="Group 1292" transform="translate(5.313)">
            <path id="Path_4743" data-name="Path 4743" d="M164.765,41.564a.321.321,0,0,1-.321-.321V39.85a.321.321,0,0,1,.642,0v1.393A.321.321,0,0,1,164.765,41.564Z" transform="translate(-164.444 -39.529)" fill="#537983"/>
          </g>
          <g id="Group_1293" data-name="Group 1293" transform="translate(7.084)">
            <path id="Path_4744" data-name="Path 4744" d="M206.126,41.564a.321.321,0,0,1-.321-.321V39.85a.321.321,0,0,1,.642,0v1.393A.321.321,0,0,1,206.126,41.564Z" transform="translate(-205.805 -39.529)" fill="#537983"/>
          </g>
          <g id="Group_1294" data-name="Group 1294" transform="translate(8.855)">
            <path id="Path_4745" data-name="Path 4745" d="M247.485,41.564a.321.321,0,0,1-.321-.321V39.85a.321.321,0,0,1,.642,0v1.393A.321.321,0,0,1,247.485,41.564Z" transform="translate(-247.164 -39.529)" fill="#537983"/>
          </g>
          <g id="Group_1295" data-name="Group 1295" transform="translate(10.626)">
            <path id="Path_4746" data-name="Path 4746" d="M288.845,41.564a.321.321,0,0,1-.321-.321V39.85a.321.321,0,0,1,.642,0v1.393A.321.321,0,0,1,288.845,41.564Z" transform="translate(-288.524 -39.529)" fill="#537983"/>
          </g>
          <g id="Group_1296" data-name="Group 1296" transform="translate(12.397)">
            <path id="Path_4747" data-name="Path 4747" d="M330.206,41.564a.321.321,0,0,1-.321-.321V39.85a.321.321,0,0,1,.642,0v1.393A.321.321,0,0,1,330.206,41.564Z" transform="translate(-329.885 -39.529)" fill="#537983"/>
          </g>
        </g>
        <g id="Group_1303" data-name="Group 1303" transform="translate(1.096 13.848)">
          <g id="Group_1298" data-name="Group 1298" transform="translate(1.682 0.602)">
            <path id="Path_4748" data-name="Path 4748" d="M165.141,377.641a.845.845,0,0,1-.019-.642h-2.537a.846.846,0,0,1-.019.642Z" transform="translate(-158.385 -376.999)" fill="#537983"/>
            <path id="Path_4749" data-name="Path 4749" d="M259.342,377.3a.851.851,0,0,1-.073.345h1.339a4.8,4.8,0,0,1-.151-.642h-1.169A.85.85,0,0,1,259.342,377.3Z" transform="translate(-250.946 -376.999)" fill="#537983"/>
            <path id="Path_4750" data-name="Path 4750" d="M67.511,377.641a.846.846,0,0,1-.019-.642H64.915a.846.846,0,0,1-.019.642Z" transform="translate(-64.896 -376.999)" fill="#537983"/>
          </g>
          <g id="Group_1299" data-name="Group 1299" transform="translate(0)">
            <circle id="Ellipse_99" data-name="Ellipse 99" cx="0.899" cy="0.899" r="0.899" fill="#01d0fb"/>
          </g>
          <path id="Path_4751" data-name="Path 4751" d="M26.3,363.845a.9.9,0,0,1,.548-.828.9.9,0,1,0,0,1.656A.9.9,0,0,1,26.3,363.845Z" transform="translate(-25.602 -362.946)" fill="#01c0fa"/>
          <g id="Group_1302" data-name="Group 1302" transform="translate(4.182)">
            <g id="Group_1300" data-name="Group 1300" transform="translate(0)">
              <circle id="Ellipse_100" data-name="Ellipse 100" cx="0.899" cy="0.899" r="0.899" fill="#05e39c"/>
            </g>
            <path id="Path_4752" data-name="Path 4752" d="M123.974,363.845a.9.9,0,0,1,.548-.828.9.9,0,1,0,0,1.656A.9.9,0,0,1,123.974,363.845Z" transform="translate(-123.272 -362.946)" fill="#0ed290"/>
            <g id="Group_1301" data-name="Group 1301" transform="translate(4.141)">
              <circle id="Ellipse_101" data-name="Ellipse 101" cx="0.899" cy="0.899" r="0.899" fill="#01d0fb"/>
            </g>
            <path id="Path_4753" data-name="Path 4753" d="M220.677,363.845a.9.9,0,0,1,.548-.828.9.9,0,1,0,0,1.656A.9.9,0,0,1,220.677,363.845Z" transform="translate(-215.834 -362.946)" fill="#01c0fa"/>
          </g>
        </g>
        <g id="Group_1309" data-name="Group 1309" transform="translate(12.183 8.797)">
          <g id="Group_1304" data-name="Group 1304">
            <circle id="Ellipse_102" data-name="Ellipse 102" cx="4.87" cy="4.87" r="4.87" fill="#fd5426"/>
          </g>
          <path id="Path_4754" data-name="Path 4754" d="M287.1,252.952a3.842,3.842,0,0,1,0-6.182,4.865,4.865,0,0,1,3.025-1.723,4.87,4.87,0,1,0,0,9.629A4.865,4.865,0,0,1,287.1,252.952Z" transform="translate(-284.52 -244.991)" fill="#ef4424"/>
          <g id="Group_1305" data-name="Group 1305" transform="translate(1.345 1.345)">
            <circle id="Ellipse_103" data-name="Ellipse 103" cx="3.525" cy="3.525" r="3.525" fill="#fff"/>
          </g>
          <g id="Group_1306" data-name="Group 1306" transform="translate(1.345 1.345)">
            <path id="Path_4755" data-name="Path 4755" d="M317.616,279.937a3.53,3.53,0,0,1,2.687-3.423,3.525,3.525,0,1,0,0,6.847A3.531,3.531,0,0,1,317.616,279.937Z" transform="translate(-315.94 -276.412)" fill="#eef5f6"/>
          </g>
          <g id="Group_1307" data-name="Group 1307" transform="translate(1.024 1.024)">
            <path id="Path_4756" data-name="Path 4756" d="M312.286,276.6a3.846,3.846,0,1,1,3.846-3.846A3.85,3.85,0,0,1,312.286,276.6Zm0-7.05a3.2,3.2,0,1,0,3.2,3.2A3.207,3.207,0,0,0,312.286,269.553Z" transform="translate(-308.44 -268.911)" fill="#d73d24"/>
          </g>
          <g id="Group_1308" data-name="Group 1308" transform="translate(4.549 2.153)">
            <path id="Path_4757" data-name="Path 4757" d="M392.974,298.31h-1.893a.321.321,0,0,1-.321-.321v-2.4a.321.321,0,1,1,.642,0v2.075h1.572a.321.321,0,1,1,0,.642Z" transform="translate(-390.76 -295.272)" fill="#537983"/>
          </g>
        </g>
      </g>
    </g>
  </g>
</svg>
