<svg xmlns="http://www.w3.org/2000/svg" xmlns:xlink="http://www.w3.org/1999/xlink" width="22" height="21.185" viewBox="0 0 22 21.185">
  <defs>
    <clipPath id="clip-path">
      <rect id="Rectangle_476" data-name="Rectangle 476" width="22" height="21.185" transform="translate(1 316)" fill="#fff"/>
    </clipPath>
  </defs>
  <g id="Group_1259" data-name="Group 1259" transform="translate(-1 -316)" clip-path="url(#clip-path)">
    <path id="Path_4597" data-name="Path 4597" d="M18.445,336.565H13.289v-1.242h5.156a.633.633,0,0,0,.645-.62V332.63h1.289V334.7A1.9,1.9,0,0,1,18.445,336.565Z" fill="#e1e6f0"/>
    <path id="Path_4598" data-name="Path 4598" d="M16.512,322.207v-.621a1.9,1.9,0,0,0-1.934-1.862H9.422a1.9,1.9,0,0,0-1.934,1.862v.621H4.266a5.679,5.679,0,0,1,5.8-5.586h3.867a5.679,5.679,0,0,1,5.8,5.586Z" fill="#ff79a6"/>
    <path id="Path_4599" data-name="Path 4599" d="M16.512,322.207v-.621a1.9,1.9,0,0,0-1.934-1.862H12v-3.1h1.934a5.679,5.679,0,0,1,5.8,5.586Z" fill="#d94c7b"/>
    <path id="Path_4600" data-name="Path 4600" d="M20.379,321.586v3.765H19.09v-3.765a4.436,4.436,0,0,0-4.512-4.345H9.422a4.436,4.436,0,0,0-4.512,4.345v3.765H3.621v-3.765A5.7,5.7,0,0,1,9.422,316h5.156A5.7,5.7,0,0,1,20.379,321.586Z" fill="#4d5e80"/>
    <path id="Path_4601" data-name="Path 4601" d="M20.379,321.586v3.765H19.09v-3.765a4.436,4.436,0,0,0-4.512-4.345H12V316h2.578A5.7,5.7,0,0,1,20.379,321.586Z" fill="#3d4566"/>
    <path id="Path_4602" data-name="Path 4602" d="M6.2,333.461H5.555a4.369,4.369,0,1,1,0-8.731H6.2Z" fill="#ff79a6"/>
    <path id="Path_4603" data-name="Path 4603" d="M14.578,335.944a1.269,1.269,0,0,1-1.289,1.241H10.711a1.242,1.242,0,1,1,0-2.482h2.578A1.269,1.269,0,0,1,14.578,335.944Z" fill="#4d5e80"/>
    <path id="Path_4604" data-name="Path 4604" d="M14.578,335.944a1.269,1.269,0,0,1-1.289,1.241H12V334.7h1.289A1.269,1.269,0,0,1,14.578,335.944Z" fill="#3d4566"/>
    <path id="Path_4605" data-name="Path 4605" d="M18.445,333.461H17.8V324.73h.644a4.369,4.369,0,1,1,0,8.731Z" fill="#d94c7b"/>
  </g>
</svg>
