<svg xmlns="http://www.w3.org/2000/svg" viewBox="0 0 16.76 17.94"><defs><style>.cls-1{fill:none;stroke:#1a237e;stroke-miterlimit:10;}.cls-2{fill:#1a237e;}</style></defs><title>Asset 3</title><g id="Layer_2" data-name="Layer 2"><g id="Layer_1-2" data-name="Layer 1"><path class="cls-1" d="M6.09,15.38c-4.26,1.28-4.26-2.13-6-2.56"/><path class="cls-2" d="M12.07,17.94v-3.3a2.93,2.93,0,0,0-.8-2.23c2.68-.29,5.49-1.31,5.49-6a4.65,4.65,0,0,0-1.28-3.2A4.37,4.37,0,0,0,15.41,0s-1-.3-3.34,1.27a11.44,11.44,0,0,0-6,0C3.77-.28,2.76,0,2.76,0a4.32,4.32,0,0,0-.08,3.22A4.63,4.63,0,0,0,1.4,6.47c0,4.62,2.82,5.64,5.5,6a2.91,2.91,0,0,0-.81,2.2v3.3"/></g></g></svg>